# MagicaVoxel @ Ephtracy

# group
o 

# material
mtllib pistol.mtl
usemtl palette

# normals
vn -1 0 0
vn 1 0 0
vn 0 0 1
vn 0 0 -1
vn 0 -1 0
vn 0 1 0

# texcoords
vt 0.396484 0.5
vt 0.978516 0.5
vt 0.986328 0.5
vt 0.990234 0.5
vt 0.994141 0.5

# verts
v -1.2 1.1 0.2
v -1.2 1.1 -0.2
v -1.2 1.2 0.1
v -1.2 1.2 -0.1
v -1.2 1.4 0.1
v -1.2 1.4 -0.1
v -1.2 1.5 0.2
v -1.2 1.5 -0.2
v -1.1 1 0.2
v -1.1 1 -0.2
v -1.1 1.1 0.2
v -1.1 1.1 -0.2
v -1.1 1.2 0.1
v -1.1 1.2 -0.1
v -1.1 1.4 0.1
v -1.1 1.4 -0.1
v -1 1.5 0.1
v -1 1.5 -0.1
v -1 1.6 0.1
v -1 1.6 -0.1
v -0.1 0.7 0.2
v -0.1 0.7 -0.2
v -0.1 0.8 0.1
v -0.1 0.8 -0.1
v -0.1 1 0.2
v -0.1 1 0.1
v -0.1 1 -0.1
v -0.1 1 -0.2
v 0 0.6 0.2
v 0 0.6 -0.2
v 0 0.7 0.2
v 0 0.7 -0.2
v 0.2 0.8 0.1
v 0.2 0.8 -0.1
v 0.2 1 0.1
v 0.2 1 -0.1
v 0.3 1.4 0.1
v 0.3 1.4 -0.1
v 0.3 1.5 0.1
v 0.3 1.5 -0.1
v 0.4 0.5 0.2
v 0.4 0.5 -0.2
v 0.4 0.6 0.2
v 0.4 0.6 0.1
v 0.4 0.6 -0.1
v 0.4 0.6 -0.2
v 0.4 0.7 0.2
v 0.4 0.7 0.1
v 0.4 0.7 -0.1
v 0.4 0.7 -0.2
v 0.4 0.9 0.1
v 0.4 0.9 -0.1
v 0.4 1 0.2
v 0.4 1 0.1
v 0.4 1 -0.1
v 0.4 1 -0.2
v 0.5 0.3 0.2
v 0.5 0.3 -0.2
v 0.5 0.4 0.1
v 0.5 0.4 -0.1
v 0.5 0.5 0.2
v 0.5 0.5 0.1
v 0.5 0.5 -0.1
v 0.5 0.5 -0.2
v 0.6 0.1 0.2
v 0.6 0.1 0.1
v 0.6 0.1 -0.1
v 0.6 0.1 -0.2
v 0.6 0.3 0.2
v 0.6 0.3 0.1
v 0.6 0.3 -0.1
v 0.6 0.3 -0.2
v 0.7 0 0.2
v 0.7 0 -0.2
v 0.7 0.1 0.2
v 0.7 0.1 0.1
v 0.7 0.1 -0.1
v 0.7 0.1 -0.2
v 0.9 1.5 0.1
v 0.9 1.5 -0.1
v 0.9 1.6 0.1
v 0.9 1.6 -0.1
v 1.1 0 0.1
v 1.1 0 -0.1
v 1.1 0.1 0.1
v 1.1 0.1 -0.1
v -0.8 1.5 0.1
v -0.8 1.5 -0.1
v -0.8 1.6 0.1
v -0.8 1.6 -0.1
v -0.1 1.4 0.1
v -0.1 1.4 -0.1
v -0.1 1.5 0.1
v -0.1 1.5 -0.1
v 0 0.8 0.2
v 0 0.8 0.1
v 0 0.8 -0.1
v 0 0.8 -0.2
v 0 1 0.2
v 0 1 0.1
v 0 1 -0.1
v 0 1 -0.2
v 0.0999999 0.7 0.2
v 0.0999999 0.7 0.1
v 0.0999999 0.7 -0.1
v 0.0999999 0.7 -0.2
v 0.0999999 0.8 0.2
v 0.0999999 0.8 0.1
v 0.0999999 0.8 -0.1
v 0.0999999 0.8 -0.2
v 0.3 0.8 0.1
v 0.3 0.8 -0.1
v 0.3 0.9 0.1
v 0.3 0.9 -0.1
v 0.8 0 0.1
v 0.8 0 -0.1
v 0.8 0.1 0.1
v 0.8 0.1 -0.1
v 1 0.6 0.2
v 1 0.6 0.1
v 1 0.6 -0.1
v 1 0.6 -0.2
v 1 1 0.2
v 1 1 0.1
v 1 1 -0.1
v 1 1 -0.2
v 1.1 0.4 0.2
v 1.1 0.4 0.1
v 1.1 0.4 -0.1
v 1.1 0.4 -0.2
v 1.1 0.6 0.2
v 1.1 0.6 0.1
v 1.1 0.6 -0.1
v 1.1 0.6 -0.2
v 1.1 1 0.2
v 1.1 1 -0.2
v 1.1 1.1 0.2
v 1.1 1.1 -0.2
v 1.2 0 0.2
v 1.2 0 -0.2
v 1.2 0.1 0.1
v 1.2 0.1 -0.1
v 1.2 0.4 0.2
v 1.2 0.4 0.1
v 1.2 0.4 -0.1
v 1.2 0.4 -0.2
v 1.2 1.1 0.2
v 1.2 1.1 -0.2
v 1.2 1.2 0.1
v 1.2 1.2 -0.1
v 1.2 1.4 0.1
v 1.2 1.4 -0.1
v 1.2 1.5 0.2
v 1.2 1.5 0.1
v 1.2 1.5 -0.1
v 1.2 1.5 -0.2
v 1.3 1.4 0.1
v 1.3 1.4 -0.1
v 1.3 1.6 0.1
v 1.3 1.6 -0.1
v -1.2 1.1 0.2
v -1.2 1.5 0.2
v -1.1 1 0.2
v -1.1 1.1 0.2
v -1.1 1.2 0.2
v -1.1 1.4 0.2
v -1 1.1 0.2
v -1 1.2 0.2
v -1 1.3 0.2
v -0.9 1.2 0.2
v -0.9 1.3 0.2
v -0.9 1.4 0.2
v -0.8 1.3 0.2
v -0.8 1.4 0.2
v -0.3 1.1 0.2
v -0.3 1.2 0.2
v -0.2 1.1 0.2
v -0.2 1.2 0.2
v -0.2 1.3 0.2
v -0.1 0.7 0.2
v -0.1 1 0.2
v -0.1 1.2 0.2
v -0.1 1.3 0.2
v -0.1 1.4 0.2
v 0 0.6 0.2
v 0 0.7 0.2
v 0 0.8 0.2
v 0 1 0.2
v 0 1.3 0.2
v 0 1.4 0.2
v 0.0999999 0.7 0.2
v 0.0999999 0.8 0.2
v 0.4 0.5 0.2
v 0.4 0.6 0.2
v 0.4 0.7 0.2
v 0.4 1 0.2
v 0.5 0.3 0.2
v 0.5 0.5 0.2
v 0.5 0.6 0.2
v 0.5 0.8 0.2
v 0.5 0.9 0.2
v 0.5 1.1 0.2
v 0.5 1.2 0.2
v 0.6 0.1 0.2
v 0.6 0.3 0.2
v 0.6 0.4 0.2
v 0.6 0.6 0.2
v 0.6 0.9 0.2
v 0.6 1 0.2
v 0.6 1.1 0.2
v 0.6 1.2 0.2
v 0.6 1.3 0.2
v 0.7 0 0.2
v 0.7 0.1 0.2
v 0.7 0.2 0.2
v 0.7 0.4 0.2
v 0.7 0.8 0.2
v 0.7 0.9 0.2
v 0.7 1.2 0.2
v 0.7 1.3 0.2
v 0.7 1.4 0.2
v 0.8 0.1 0.2
v 0.8 0.2 0.2
v 0.8 1.3 0.2
v 0.8 1.4 0.2
v 0.9 0.5 0.2
v 0.9 0.9 0.2
v 0.9 1 0.2
v 0.9 1.1 0.2
v 1 0.3 0.2
v 1 0.5 0.2
v 1 0.6 0.2
v 1 1 0.2
v 1 1.1 0.2
v 1 1.2 0.2
v 1.1 0.1 0.2
v 1.1 0.3 0.2
v 1.1 0.4 0.2
v 1.1 0.6 0.2
v 1.1 1 0.2
v 1.1 1.1 0.2
v 1.1 1.2 0.2
v 1.1 1.4 0.2
v 1.2 0 0.2
v 1.2 0.4 0.2
v 1.2 1.1 0.2
v 1.2 1.5 0.2
v -1 1.5 0.1
v -1 1.6 0.1
v -0.8 1.5 0.1
v -0.8 1.6 0.1
v 0.2 0.8 0.1
v 0.2 1 0.1
v 0.3 0.8 0.1
v 0.3 0.9 0.1
v 0.4 0.9 0.1
v 0.4 1 0.1
v 0.9 1.5 0.1
v 0.9 1.6 0.1
v 1.2 1.4 0.1
v 1.2 1.5 0.1
v 1.3 1.4 0.1
v 1.3 1.6 0.1
v -1.2 1.2 -0.1
v -1.2 1.4 -0.1
v -1.1 1.2 -0.1
v -1.1 1.4 -0.1
v -0.1 1.4 -0.1
v -0.1 1.5 -0.1
v 0.3 1.4 -0.1
v 0.3 1.5 -0.1
v 0.8 0 -0.1
v 0.8 0.1 -0.1
v 1.1 0 -0.1
v 1.1 0.1 -0.1
v -1.2 1.2 0.1
v -1.2 1.4 0.1
v -1.1 1.2 0.1
v -1.1 1.4 0.1
v -0.1 1.4 0.1
v -0.1 1.5 0.1
v 0.3 1.4 0.1
v 0.3 1.5 0.1
v 0.8 0 0.1
v 0.8 0.1 0.1
v 1.1 0 0.1
v 1.1 0.1 0.1
v -1 1.5 -0.1
v -1 1.6 -0.1
v -0.8 1.5 -0.1
v -0.8 1.6 -0.1
v 0.2 0.8 -0.1
v 0.2 1 -0.1
v 0.3 0.8 -0.1
v 0.3 0.9 -0.1
v 0.4 0.9 -0.1
v 0.4 1 -0.1
v 0.9 1.5 -0.1
v 0.9 1.6 -0.1
v 1.2 1.4 -0.1
v 1.2 1.5 -0.1
v 1.3 1.4 -0.1
v 1.3 1.6 -0.1
v -1.2 1.1 -0.2
v -1.2 1.5 -0.2
v -1.1 1 -0.2
v -1.1 1.1 -0.2
v -1.1 1.2 -0.2
v -1.1 1.4 -0.2
v -1 1.1 -0.2
v -1 1.2 -0.2
v -1 1.3 -0.2
v -0.9 1.2 -0.2
v -0.9 1.3 -0.2
v -0.9 1.4 -0.2
v -0.8 1.3 -0.2
v -0.8 1.4 -0.2
v -0.4 1.1 -0.2
v -0.4 1.2 -0.2
v -0.3 1.1 -0.2
v -0.3 1.2 -0.2
v -0.3 1.3 -0.2
v -0.2 1.2 -0.2
v -0.2 1.3 -0.2
v -0.2 1.4 -0.2
v -0.1 0.7 -0.2
v -0.1 1 -0.2
v -0.1 1.3 -0.2
v -0.1 1.4 -0.2
v 0 0.6 -0.2
v 0 0.7 -0.2
v 0 0.8 -0.2
v 0 1 -0.2
v 0.0999999 0.7 -0.2
v 0.0999999 0.8 -0.2
v 0.4 0.5 -0.2
v 0.4 0.6 -0.2
v 0.4 0.7 -0.2
v 0.4 1 -0.2
v 0.5 0.3 -0.2
v 0.5 0.5 -0.2
v 0.5 0.6 -0.2
v 0.5 0.8 -0.2
v 0.5 0.9 -0.2
v 0.5 1.1 -0.2
v 0.5 1.2 -0.2
v 0.6 0.1 -0.2
v 0.6 0.3 -0.2
v 0.6 0.4 -0.2
v 0.6 0.6 -0.2
v 0.6 0.9 -0.2
v 0.6 1 -0.2
v 0.6 1.1 -0.2
v 0.6 1.2 -0.2
v 0.6 1.3 -0.2
v 0.7 0 -0.2
v 0.7 0.1 -0.2
v 0.7 0.2 -0.2
v 0.7 0.4 -0.2
v 0.7 0.8 -0.2
v 0.7 0.9 -0.2
v 0.7 1.2 -0.2
v 0.7 1.3 -0.2
v 0.7 1.4 -0.2
v 0.8 0.1 -0.2
v 0.8 0.2 -0.2
v 0.8 1.3 -0.2
v 0.8 1.4 -0.2
v 0.9 0.5 -0.2
v 0.9 0.9 -0.2
v 0.9 1 -0.2
v 0.9 1.1 -0.2
v 1 0.3 -0.2
v 1 0.5 -0.2
v 1 0.6 -0.2
v 1 1 -0.2
v 1 1.1 -0.2
v 1 1.2 -0.2
v 1.1 0.1 -0.2
v 1.1 0.3 -0.2
v 1.1 0.4 -0.2
v 1.1 0.6 -0.2
v 1.1 1 -0.2
v 1.1 1.1 -0.2
v 1.1 1.2 -0.2
v 1.1 1.4 -0.2
v 1.2 0 -0.2
v 1.2 0.4 -0.2
v 1.2 1.1 -0.2
v 1.2 1.5 -0.2
v 0.7 0 0.2
v 1.2 0 0.2
v 0.8 0 0.1
v 1.1 0 0.1
v 0.8 0 -0.1
v 1.1 0 -0.1
v 0.7 0 -0.2
v 1.2 0 -0.2
v 0.6 0.1 0.2
v 0.7 0.1 0.2
v 0.6 0.1 0.1
v 0.7 0.1 0.1
v 0.8 0.1 0.1
v 1.1 0.1 0.1
v 0.6 0.1 -0.1
v 0.7 0.1 -0.1
v 0.8 0.1 -0.1
v 1.1 0.1 -0.1
v 0.6 0.1 -0.2
v 0.7 0.1 -0.2
v 0.5 0.3 0.2
v 0.6 0.3 0.2
v 0.6 0.3 0.1
v 0.6 0.3 -0.1
v 0.5 0.3 -0.2
v 0.6 0.3 -0.2
v 0.4 0.5 0.2
v 0.5 0.5 0.2
v 0.5 0.5 0.1
v 0.5 0.5 -0.1
v 0.4 0.5 -0.2
v 0.5 0.5 -0.2
v 0 0.6 0.2
v 0.4 0.6 0.2
v 0.0999999 0.6 0.1
v 0.4 0.6 0.1
v 0.0999999 0.6 -0.1
v 0.4 0.6 -0.1
v 0 0.6 -0.2
v 0.4 0.6 -0.2
v -0.1 0.7 0.2
v 0 0.7 0.2
v -0.1 0.7 -0.2
v 0 0.7 -0.2
v 0.2 0.8 0.1
v 0.3 0.8 0.1
v 0.2 0.8 -0.1
v 0.3 0.8 -0.1
v 0.3 0.9 0.1
v 0.4 0.9 0.1
v 0.3 0.9 -0.1
v 0.4 0.9 -0.1
v -1.1 1 0.2
v -0.1 1 0.2
v 0 1 0.2
v 0.4 1 0.2
v 1 1 0.2
v 1.1 1 0.2
v -1 1 0.1
v -0.5 1 0.1
v -0.4 1 0.1
v -0.2 1 0.1
v -0.1 1 0.1
v 0 1 0.1
v 0.2 1 0.1
v 0.4 1 0.1
v 1 1 0.1
v -1 1 -0.1
v -0.5 1 -0.1
v -0.4 1 -0.1
v -0.2 1 -0.1
v -0.1 1 -0.1
v 0 1 -0.1
v 0.2 1 -0.1
v 0.4 1 -0.1
v 1 1 -0.1
v -1.1 1 -0.2
v -0.1 1 -0.2
v 0 1 -0.2
v 0.4 1 -0.2
v 1 1 -0.2
v 1.1 1 -0.2
v -1.2 1.1 0.2
v -1.1 1.1 0.2
v 1.1 1.1 0.2
v 1.2 1.1 0.2
v -1.2 1.1 -0.2
v -1.1 1.1 -0.2
v 1.1 1.1 -0.2
v 1.2 1.1 -0.2
v -1.2 1.4 0.1
v -1.1 1.4 0.1
v 1.2 1.4 0.1
v 1.3 1.4 0.1
v -1.2 1.4 -0.1
v -1.1 1.4 -0.1
v 1.2 1.4 -0.1
v 1.3 1.4 -0.1
v 1.1 0.4 0.2
v 1.2 0.4 0.2
v 1.1 0.4 0.1
v 1.2 0.4 0.1
v 1.1 0.4 -0.1
v 1.2 0.4 -0.1
v 1.1 0.4 -0.2
v 1.2 0.4 -0.2
v 1 0.6 0.2
v 1.1 0.6 0.2
v 1 0.6 0.1
v 1.1 0.6 0.1
v 1 0.6 -0.1
v 1.1 0.6 -0.1
v 1 0.6 -0.2
v 1.1 0.6 -0.2
v 0.0999999 0.7 0.2
v 0.4 0.7 0.2
v 0.0999999 0.7 0.1
v 0.4 0.7 0.1
v 0.0999999 0.7 -0.1
v 0.4 0.7 -0.1
v 0.0999999 0.7 -0.2
v 0.4 0.7 -0.2
v 0 0.8 0.2
v 0.0999999 0.8 0.2
v 0 0.8 0.1
v 0.0999999 0.8 0.1
v 0 0.8 -0.1
v 0.0999999 0.8 -0.1
v 0 0.8 -0.2
v 0.0999999 0.8 -0.2
v -1.2 1.2 0.1
v -1.1 1.2 0.1
v -1.2 1.2 -0.1
v -1.1 1.2 -0.1
v -0.1 1.4 0.1
v 0.3 1.4 0.1
v -0.1 1.4 -0.1
v 0.3 1.4 -0.1
v -1.2 1.5 0.2
v 1.2 1.5 0.2
v -1.1 1.5 0.1
v -1 1.5 0.1
v -0.8 1.5 0.1
v -0.2 1.5 0.1
v -0.1 1.5 0.1
v 0.3 1.5 0.1
v 0.4 1.5 0.1
v 0.9 1.5 0.1
v 1.2 1.5 0.1
v -1.1 1.5 -0.1
v -1 1.5 -0.1
v -0.8 1.5 -0.1
v -0.2 1.5 -0.1
v -0.1 1.5 -0.1
v 0.3 1.5 -0.1
v 0.4 1.5 -0.1
v 0.9 1.5 -0.1
v 1.2 1.5 -0.1
v -1.2 1.5 -0.2
v 1.2 1.5 -0.2
v -1 1.6 0.1
v -0.8 1.6 0.1
v 0.9 1.6 0.1
v 1.3 1.6 0.1
v -1 1.6 -0.1
v -0.8 1.6 -0.1
v 0.9 1.6 -0.1
v 1.3 1.6 -0.1

# faces
f 3/5/1 2/5/1 1/5/1
f 4/5/1 2/5/1 3/5/1
f 5/5/1 3/5/1 1/5/1
f 6/5/1 2/5/1 4/5/1
f 7/5/1 5/5/1 1/5/1
f 7/5/1 6/5/1 5/5/1
f 8/5/1 2/5/1 6/5/1
f 8/5/1 6/5/1 7/5/1
f 11/5/1 10/5/1 9/5/1
f 12/5/1 10/5/1 11/5/1
f 15/5/1 14/5/1 13/5/1
f 16/5/1 14/5/1 15/5/1
f 19/5/1 18/5/1 17/5/1
f 20/5/1 18/5/1 19/5/1
f 23/5/1 22/5/1 21/5/1
f 24/5/1 22/5/1 23/5/1
f 25/5/1 23/5/1 21/5/1
f 26/4/1 24/4/1 23/4/1
f 26/5/1 23/5/1 25/5/1
f 27/5/1 22/5/1 24/5/1
f 27/4/1 24/4/1 26/4/1
f 28/5/1 22/5/1 27/5/1
f 31/5/1 30/5/1 29/5/1
f 32/5/1 30/5/1 31/5/1
f 35/5/1 34/5/1 33/5/1
f 36/5/1 34/5/1 35/5/1
f 39/5/1 38/5/1 37/5/1
f 40/5/1 38/5/1 39/5/1
f 43/5/1 42/5/1 41/5/1
f 44/5/1 42/5/1 43/5/1
f 45/5/1 42/5/1 44/5/1
f 46/5/1 42/5/1 45/5/1
f 51/5/1 48/5/1 47/5/1
f 51/4/1 49/4/1 48/4/1
f 52/5/1 50/5/1 49/5/1
f 52/4/1 49/4/1 51/4/1
f 53/5/1 51/5/1 47/5/1
f 54/5/1 51/5/1 53/5/1
f 55/5/1 50/5/1 52/5/1
f 56/5/1 50/5/1 55/5/1
f 59/5/1 58/5/1 57/5/1
f 60/5/1 58/5/1 59/5/1
f 61/5/1 59/5/1 57/5/1
f 62/1/1 60/1/1 59/1/1
f 62/5/1 59/5/1 61/5/1
f 63/5/1 58/5/1 60/5/1
f 63/1/1 60/1/1 62/1/1
f 64/5/1 58/5/1 63/5/1
f 69/5/1 66/5/1 65/5/1
f 70/1/1 67/1/1 66/1/1
f 70/5/1 66/5/1 69/5/1
f 71/5/1 68/5/1 67/5/1
f 71/1/1 67/1/1 70/1/1
f 72/5/1 68/5/1 71/5/1
f 75/5/1 74/5/1 73/5/1
f 76/5/1 74/5/1 75/5/1
f 77/5/1 74/5/1 76/5/1
f 78/5/1 74/5/1 77/5/1
f 81/5/1 80/5/1 79/5/1
f 82/5/1 80/5/1 81/5/1
f 85/5/1 84/5/1 83/5/1
f 86/5/1 84/5/1 85/5/1
f 87/5/2 88/5/2 89/5/2
f 89/5/2 88/5/2 90/5/2
f 91/5/2 92/5/2 93/5/2
f 93/5/2 92/5/2 94/5/2
f 95/5/2 96/5/2 99/5/2
f 96/4/2 97/4/2 100/4/2
f 99/5/2 96/5/2 100/5/2
f 97/5/2 98/5/2 101/5/2
f 100/4/2 97/4/2 101/4/2
f 101/5/2 98/5/2 102/5/2
f 103/5/2 104/5/2 107/5/2
f 104/4/2 105/4/2 108/4/2
f 107/5/2 104/5/2 108/5/2
f 105/5/2 106/5/2 109/5/2
f 108/4/2 105/4/2 109/4/2
f 109/5/2 106/5/2 110/5/2
f 111/5/2 112/5/2 113/5/2
f 113/5/2 112/5/2 114/5/2
f 115/5/2 116/5/2 117/5/2
f 117/5/2 116/5/2 118/5/2
f 119/5/2 120/5/2 123/5/2
f 120/1/2 121/1/2 124/1/2
f 123/5/2 120/5/2 124/5/2
f 121/5/2 122/5/2 125/5/2
f 124/1/2 121/1/2 125/1/2
f 125/5/2 122/5/2 126/5/2
f 127/5/2 128/5/2 131/5/2
f 128/1/2 129/1/2 132/1/2
f 131/5/2 128/5/2 132/5/2
f 129/5/2 130/5/2 133/5/2
f 132/1/2 129/1/2 133/1/2
f 133/5/2 130/5/2 134/5/2
f 135/5/2 136/5/2 137/5/2
f 137/5/2 136/5/2 138/5/2
f 139/5/2 140/5/2 141/5/2
f 141/5/2 140/5/2 142/5/2
f 139/5/2 141/5/2 143/5/2
f 141/1/2 142/1/2 144/1/2
f 143/5/2 141/5/2 144/5/2
f 142/5/2 140/5/2 145/5/2
f 144/1/2 142/1/2 145/1/2
f 145/5/2 140/5/2 146/5/2
f 147/5/2 148/5/2 149/5/2
f 149/5/2 148/5/2 150/5/2
f 147/5/2 149/5/2 151/5/2
f 149/3/2 150/3/2 151/3/2
f 150/5/2 148/5/2 152/5/2
f 151/3/2 150/3/2 152/3/2
f 147/5/2 151/5/2 153/5/2
f 153/5/2 151/5/2 154/5/2
f 152/5/2 148/5/2 155/5/2
f 155/5/2 148/5/2 156/5/2
f 157/5/2 158/5/2 159/5/2
f 159/5/2 158/5/2 160/5/2
f 164/5/3 162/5/3 161/5/3
f 165/5/3 162/5/3 164/5/3
f 166/5/3 162/5/3 165/5/3
f 167/5/3 164/5/3 163/5/3
f 167/5/3 165/5/3 164/5/3
f 168/3/3 166/3/3 165/3/3
f 168/5/3 165/5/3 167/5/3
f 169/3/3 166/3/3 168/3/3
f 170/4/3 168/4/3 167/4/3
f 170/5/3 169/5/3 168/5/3
f 171/3/3 166/3/3 169/3/3
f 171/5/3 169/5/3 170/5/3
f 172/5/3 162/5/3 166/5/3
f 172/3/3 166/3/3 171/3/3
f 173/4/3 171/4/3 170/4/3
f 173/5/3 172/5/3 171/5/3
f 174/5/3 162/5/3 172/5/3
f 174/5/3 172/5/3 173/5/3
f 175/4/3 173/4/3 170/4/3
f 175/5/3 167/5/3 163/5/3
f 175/4/3 174/4/3 173/4/3
f 175/4/3 170/4/3 167/4/3
f 176/4/3 174/4/3 175/4/3
f 177/5/3 175/5/3 163/5/3
f 177/5/3 176/5/3 175/5/3
f 178/4/3 174/4/3 176/4/3
f 178/5/3 176/5/3 177/5/3
f 179/4/3 174/4/3 178/4/3
f 181/5/3 177/5/3 163/5/3
f 182/3/3 178/3/3 177/3/3
f 182/5/3 179/5/3 178/5/3
f 183/4/3 174/4/3 179/4/3
f 183/5/3 179/5/3 182/5/3
f 184/5/3 162/5/3 174/5/3
f 184/4/3 174/4/3 183/4/3
f 186/5/3 181/5/3 180/5/3
f 187/5/3 181/5/3 186/5/3
f 188/5/3 177/5/3 181/5/3
f 188/5/3 181/5/3 187/5/3
f 189/3/3 183/3/3 182/3/3
f 189/5/3 184/5/3 183/5/3
f 190/5/3 162/5/3 184/5/3
f 190/5/3 184/5/3 189/5/3
f 191/5/3 187/5/3 186/5/3
f 191/5/3 186/5/3 185/5/3
f 192/5/3 187/5/3 191/5/3
f 194/5/3 191/5/3 185/5/3
f 195/5/3 191/5/3 194/5/3
f 196/5/3 177/5/3 188/5/3
f 198/5/3 195/5/3 194/5/3
f 198/5/3 196/5/3 195/5/3
f 198/5/3 194/5/3 193/5/3
f 199/5/3 196/5/3 198/5/3
f 200/5/3 196/5/3 199/5/3
f 201/5/3 196/5/3 200/5/3
f 202/5/3 177/5/3 196/5/3
f 202/5/3 196/5/3 201/5/3
f 202/3/3 182/3/3 177/3/3
f 202/3/3 189/3/3 182/3/3
f 202/3/3 190/3/3 189/3/3
f 203/3/3 190/3/3 202/3/3
f 205/5/3 199/5/3 198/5/3
f 205/5/3 198/5/3 197/5/3
f 206/5/3 199/5/3 205/5/3
f 207/1/3 200/1/3 199/1/3
f 207/5/3 199/5/3 206/5/3
f 208/5/3 201/5/3 200/5/3
f 208/4/3 202/4/3 201/4/3
f 209/4/3 202/4/3 208/4/3
f 210/5/3 203/5/3 202/5/3
f 210/4/3 202/4/3 209/4/3
f 211/3/3 190/3/3 203/3/3
f 211/5/3 203/5/3 210/5/3
f 212/3/3 190/3/3 211/3/3
f 214/5/3 206/5/3 205/5/3
f 214/5/3 205/5/3 204/5/3
f 215/5/3 206/5/3 214/5/3
f 216/1/3 207/1/3 206/1/3
f 216/5/3 206/5/3 215/5/3
f 217/1/3 200/1/3 207/1/3
f 217/1/3 207/1/3 216/1/3
f 217/5/3 209/5/3 208/5/3
f 217/5/3 208/5/3 200/5/3
f 218/5/3 209/5/3 217/5/3
f 219/4/3 210/4/3 209/4/3
f 219/5/3 212/5/3 211/5/3
f 219/4/3 211/4/3 210/4/3
f 220/3/3 190/3/3 212/3/3
f 220/5/3 212/5/3 219/5/3
f 221/5/3 162/5/3 190/5/3
f 221/3/3 190/3/3 220/3/3
f 222/5/3 214/5/3 213/5/3
f 222/5/3 215/5/3 214/5/3
f 223/1/3 216/1/3 215/1/3
f 223/5/3 215/5/3 222/5/3
f 223/1/3 218/1/3 217/1/3
f 223/1/3 217/1/3 216/1/3
f 224/4/3 220/4/3 219/4/3
f 224/5/3 221/5/3 220/5/3
f 225/5/3 162/5/3 221/5/3
f 225/5/3 221/5/3 224/5/3
f 226/1/3 218/1/3 223/1/3
f 226/1/3 223/1/3 222/1/3
f 227/5/3 209/5/3 218/5/3
f 227/1/3 218/1/3 226/1/3
f 228/4/3 219/4/3 209/4/3
f 228/5/3 209/5/3 227/5/3
f 228/4/3 224/4/3 219/4/3
f 228/4/3 225/4/3 224/4/3
f 229/4/3 225/4/3 228/4/3
f 230/1/3 226/1/3 222/1/3
f 231/5/3 227/5/3 226/5/3
f 231/1/3 226/1/3 230/1/3
f 231/5/3 228/5/3 227/5/3
f 231/5/3 229/5/3 228/5/3
f 232/5/3 229/5/3 231/5/3
f 233/5/3 229/5/3 232/5/3
f 234/4/3 225/4/3 229/4/3
f 234/5/3 229/5/3 233/5/3
f 235/4/3 225/4/3 234/4/3
f 236/5/3 222/5/3 213/5/3
f 236/1/3 230/1/3 222/1/3
f 237/5/3 231/5/3 230/5/3
f 237/1/3 230/1/3 236/1/3
f 237/5/3 232/5/3 231/5/3
f 238/5/3 232/5/3 237/5/3
f 239/5/3 232/5/3 238/5/3
f 240/5/3 235/5/3 234/5/3
f 240/5/3 234/5/3 233/5/3
f 241/5/3 235/5/3 240/5/3
f 242/4/3 225/4/3 235/4/3
f 242/5/3 235/5/3 241/5/3
f 243/5/3 162/5/3 225/5/3
f 243/4/3 225/4/3 242/4/3
f 244/5/3 238/5/3 237/5/3
f 244/5/3 236/5/3 213/5/3
f 244/5/3 237/5/3 236/5/3
f 245/5/3 238/5/3 244/5/3
f 246/5/3 243/5/3 242/5/3
f 246/5/3 242/5/3 241/5/3
f 247/5/3 162/5/3 243/5/3
f 247/5/3 243/5/3 246/5/3
f 250/5/3 249/5/3 248/5/3
f 251/5/3 249/5/3 250/5/3
f 254/5/3 253/5/3 252/5/3
f 255/5/3 253/5/3 254/5/3
f 256/5/3 253/5/3 255/5/3
f 257/5/3 253/5/3 256/5/3
f 261/5/3 259/5/3 258/5/3
f 262/5/3 261/5/3 260/5/3
f 263/5/3 259/5/3 261/5/3
f 263/5/3 261/5/3 262/5/3
f 266/5/3 265/5/3 264/5/3
f 267/5/3 265/5/3 266/5/3
f 270/5/3 269/5/3 268/5/3
f 271/5/3 269/5/3 270/5/3
f 274/5/3 273/5/3 272/5/3
f 275/5/3 273/5/3 274/5/3
f 276/5/4 277/5/4 278/5/4
f 278/5/4 277/5/4 279/5/4
f 280/5/4 281/5/4 282/5/4
f 282/5/4 281/5/4 283/5/4
f 284/5/4 285/5/4 286/5/4
f 286/5/4 285/5/4 287/5/4
f 288/5/4 289/5/4 290/5/4
f 290/5/4 289/5/4 291/5/4
f 292/5/4 293/5/4 294/5/4
f 294/5/4 293/5/4 295/5/4
f 295/5/4 293/5/4 296/5/4
f 296/5/4 293/5/4 297/5/4
f 298/5/4 299/5/4 301/5/4
f 300/5/4 301/5/4 302/5/4
f 301/5/4 299/5/4 303/5/4
f 302/5/4 301/5/4 303/5/4
f 304/5/4 305/5/4 307/5/4
f 307/5/4 305/5/4 308/5/4
f 308/5/4 305/5/4 309/5/4
f 306/5/4 307/5/4 310/5/4
f 307/5/4 308/5/4 310/5/4
f 308/3/4 309/3/4 311/3/4
f 310/5/4 308/5/4 311/5/4
f 311/3/4 309/3/4 312/3/4
f 310/4/4 311/4/4 313/4/4
f 311/5/4 312/5/4 313/5/4
f 312/3/4 309/3/4 314/3/4
f 313/5/4 312/5/4 314/5/4
f 309/5/4 305/5/4 315/5/4
f 314/3/4 309/3/4 315/3/4
f 313/4/4 314/4/4 316/4/4
f 314/5/4 315/5/4 316/5/4
f 315/5/4 305/5/4 317/5/4
f 316/5/4 315/5/4 317/5/4
f 313/4/4 316/4/4 318/4/4
f 306/5/4 310/5/4 318/5/4
f 316/4/4 317/4/4 318/4/4
f 310/4/4 313/4/4 318/4/4
f 318/4/4 317/4/4 319/4/4
f 306/5/4 318/5/4 320/5/4
f 318/5/4 319/5/4 320/5/4
f 319/4/4 317/4/4 321/4/4
f 320/5/4 319/5/4 321/5/4
f 321/4/4 317/4/4 322/4/4
f 320/3/4 321/3/4 323/3/4
f 321/5/4 322/5/4 323/5/4
f 322/4/4 317/4/4 324/4/4
f 323/5/4 322/5/4 324/5/4
f 317/5/4 305/5/4 325/5/4
f 324/4/4 317/4/4 325/4/4
f 306/5/4 320/5/4 327/5/4
f 323/3/4 324/3/4 328/3/4
f 324/5/4 325/5/4 328/5/4
f 325/5/4 305/5/4 329/5/4
f 328/5/4 325/5/4 329/5/4
f 326/5/4 327/5/4 331/5/4
f 331/5/4 327/5/4 332/5/4
f 327/5/4 320/5/4 333/5/4
f 332/5/4 327/5/4 333/5/4
f 331/5/4 332/5/4 334/5/4
f 330/5/4 331/5/4 334/5/4
f 334/5/4 332/5/4 335/5/4
f 330/5/4 334/5/4 337/5/4
f 337/5/4 334/5/4 338/5/4
f 333/5/4 320/5/4 339/5/4
f 337/5/4 338/5/4 341/5/4
f 338/5/4 339/5/4 341/5/4
f 336/5/4 337/5/4 341/5/4
f 341/5/4 339/5/4 342/5/4
f 342/5/4 339/5/4 343/5/4
f 343/5/4 339/5/4 344/5/4
f 323/3/4 328/3/4 345/3/4
f 344/5/4 339/5/4 345/5/4
f 320/3/4 323/3/4 345/3/4
f 339/5/4 320/5/4 345/5/4
f 328/3/4 329/3/4 345/3/4
f 345/3/4 329/3/4 346/3/4
f 341/5/4 342/5/4 348/5/4
f 340/5/4 341/5/4 348/5/4
f 348/5/4 342/5/4 349/5/4
f 342/1/4 343/1/4 350/1/4
f 349/5/4 342/5/4 350/5/4
f 343/5/4 344/5/4 351/5/4
f 344/4/4 345/4/4 351/4/4
f 351/4/4 345/4/4 352/4/4
f 345/5/4 346/5/4 353/5/4
f 352/4/4 345/4/4 353/4/4
f 346/3/4 329/3/4 354/3/4
f 353/5/4 346/5/4 354/5/4
f 354/3/4 329/3/4 355/3/4
f 348/5/4 349/5/4 357/5/4
f 347/5/4 348/5/4 357/5/4
f 357/5/4 349/5/4 358/5/4
f 349/1/4 350/1/4 359/1/4
f 358/5/4 349/5/4 359/5/4
f 350/1/4 343/1/4 360/1/4
f 359/1/4 350/1/4 360/1/4
f 351/5/4 352/5/4 360/5/4
f 343/5/4 351/5/4 360/5/4
f 360/5/4 352/5/4 361/5/4
f 352/4/4 353/4/4 362/4/4
f 354/5/4 355/5/4 362/5/4
f 353/4/4 354/4/4 362/4/4
f 355/3/4 329/3/4 363/3/4
f 362/5/4 355/5/4 363/5/4
f 329/5/4 305/5/4 364/5/4
f 363/3/4 329/3/4 364/3/4
f 356/5/4 357/5/4 365/5/4
f 357/5/4 358/5/4 365/5/4
f 358/1/4 359/1/4 366/1/4
f 365/5/4 358/5/4 366/5/4
f 360/1/4 361/1/4 366/1/4
f 359/1/4 360/1/4 366/1/4
f 362/4/4 363/4/4 367/4/4
f 363/5/4 364/5/4 367/5/4
f 364/5/4 305/5/4 368/5/4
f 367/5/4 364/5/4 368/5/4
f 366/1/4 361/1/4 369/1/4
f 365/1/4 366/1/4 369/1/4
f 361/5/4 352/5/4 370/5/4
f 369/1/4 361/1/4 370/1/4
f 352/4/4 362/4/4 371/4/4
f 370/5/4 352/5/4 371/5/4
f 362/4/4 367/4/4 371/4/4
f 367/4/4 368/4/4 371/4/4
f 371/4/4 368/4/4 372/4/4
f 365/1/4 369/1/4 373/1/4
f 369/5/4 370/5/4 374/5/4
f 373/1/4 369/1/4 374/1/4
f 370/5/4 371/5/4 374/5/4
f 371/5/4 372/5/4 374/5/4
f 374/5/4 372/5/4 375/5/4
f 375/5/4 372/5/4 376/5/4
f 372/4/4 368/4/4 377/4/4
f 376/5/4 372/5/4 377/5/4
f 377/4/4 368/4/4 378/4/4
f 356/5/4 365/5/4 379/5/4
f 365/1/4 373/1/4 379/1/4
f 373/5/4 374/5/4 380/5/4
f 379/1/4 373/1/4 380/1/4
f 374/5/4 375/5/4 380/5/4
f 380/5/4 375/5/4 381/5/4
f 381/5/4 375/5/4 382/5/4
f 377/5/4 378/5/4 383/5/4
f 376/5/4 377/5/4 383/5/4
f 383/5/4 378/5/4 384/5/4
f 378/4/4 368/4/4 385/4/4
f 384/5/4 378/5/4 385/5/4
f 368/5/4 305/5/4 386/5/4
f 385/4/4 368/4/4 386/4/4
f 380/5/4 381/5/4 387/5/4
f 356/5/4 379/5/4 387/5/4
f 379/5/4 380/5/4 387/5/4
f 387/5/4 381/5/4 388/5/4
f 384/5/4 385/5/4 389/5/4
f 385/5/4 386/5/4 389/5/4
f 386/5/4 305/5/4 390/5/4
f 389/5/4 386/5/4 390/5/4
f 393/5/5 392/5/5 391/5/5
f 394/5/5 392/5/5 393/5/5
f 395/5/5 393/5/5 391/5/5
f 396/5/5 392/5/5 394/5/5
f 397/5/5 395/5/5 391/5/5
f 397/5/5 396/5/5 395/5/5
f 398/5/5 392/5/5 396/5/5
f 398/5/5 396/5/5 397/5/5
f 401/5/5 400/5/5 399/5/5
f 402/5/5 400/5/5 401/5/5
f 405/1/5 402/1/5 401/1/5
f 406/1/5 402/1/5 405/1/5
f 407/5/5 404/5/5 403/5/5
f 408/5/5 404/5/5 407/5/5
f 409/5/5 406/5/5 405/5/5
f 410/5/5 406/5/5 409/5/5
f 413/5/5 412/5/5 411/5/5
f 414/5/5 413/5/5 411/5/5
f 415/5/5 414/5/5 411/5/5
f 416/5/5 414/5/5 415/5/5
f 419/5/5 418/5/5 417/5/5
f 420/5/5 419/5/5 417/5/5
f 421/5/5 420/5/5 417/5/5
f 422/5/5 420/5/5 421/5/5
f 425/5/5 424/5/5 423/5/5
f 426/5/5 424/5/5 425/5/5
f 427/5/5 425/5/5 423/5/5
f 427/4/5 426/4/5 425/4/5
f 428/4/5 426/4/5 427/4/5
f 429/5/5 427/5/5 423/5/5
f 429/5/5 428/5/5 427/5/5
f 430/5/5 428/5/5 429/5/5
f 433/5/5 432/5/5 431/5/5
f 434/5/5 432/5/5 433/5/5
f 437/5/5 436/5/5 435/5/5
f 438/5/5 436/5/5 437/5/5
f 441/5/5 440/5/5 439/5/5
f 442/5/5 440/5/5 441/5/5
f 449/5/5 444/5/5 443/5/5
f 450/5/5 444/5/5 449/5/5
f 451/5/5 444/5/5 450/5/5
f 452/5/5 444/5/5 451/5/5
f 453/5/5 444/5/5 452/5/5
f 454/5/5 446/5/5 445/5/5
f 455/5/5 446/5/5 454/5/5
f 456/5/5 446/5/5 455/5/5
f 457/5/5 448/5/5 447/5/5
f 458/5/5 449/5/5 443/5/5
f 458/4/5 450/4/5 449/4/5
f 459/5/5 451/5/5 450/5/5
f 459/4/5 450/4/5 458/4/5
f 460/3/5 452/3/5 451/3/5
f 460/5/5 451/5/5 459/5/5
f 461/5/5 453/5/5 452/5/5
f 461/3/5 452/3/5 460/3/5
f 462/5/5 453/5/5 461/5/5
f 463/4/5 455/4/5 454/4/5
f 464/4/5 455/4/5 463/4/5
f 466/5/5 448/5/5 457/5/5
f 467/5/5 460/5/5 459/5/5
f 467/5/5 462/5/5 461/5/5
f 467/5/5 458/5/5 443/5/5
f 467/5/5 459/5/5 458/5/5
f 467/5/5 461/5/5 460/5/5
f 468/5/5 462/5/5 467/5/5
f 469/5/5 465/5/5 464/5/5
f 469/5/5 464/5/5 463/5/5
f 470/5/5 465/5/5 469/5/5
f 471/5/5 448/5/5 466/5/5
f 472/5/5 448/5/5 471/5/5
f 477/5/5 474/5/5 473/5/5
f 478/5/5 474/5/5 477/5/5
f 479/5/5 476/5/5 475/5/5
f 480/5/5 476/5/5 479/5/5
f 485/5/5 482/5/5 481/5/5
f 486/5/5 482/5/5 485/5/5
f 487/5/5 484/5/5 483/5/5
f 488/5/5 484/5/5 487/5/5
f 489/5/6 490/5/6 491/5/6
f 491/5/6 490/5/6 492/5/6
f 491/1/6 492/1/6 493/1/6
f 493/1/6 492/1/6 494/1/6
f 493/5/6 494/5/6 495/5/6
f 495/5/6 494/5/6 496/5/6
f 497/5/6 498/5/6 499/5/6
f 499/5/6 498/5/6 500/5/6
f 499/1/6 500/1/6 501/1/6
f 501/1/6 500/1/6 502/1/6
f 501/5/6 502/5/6 503/5/6
f 503/5/6 502/5/6 504/5/6
f 505/5/6 506/5/6 507/5/6
f 507/5/6 506/5/6 508/5/6
f 507/4/6 508/4/6 509/4/6
f 509/4/6 508/4/6 510/4/6
f 509/5/6 510/5/6 511/5/6
f 511/5/6 510/5/6 512/5/6
f 513/5/6 514/5/6 515/5/6
f 515/5/6 514/5/6 516/5/6
f 515/4/6 516/4/6 517/4/6
f 517/4/6 516/4/6 518/4/6
f 517/5/6 518/5/6 519/5/6
f 519/5/6 518/5/6 520/5/6
f 521/5/6 522/5/6 523/5/6
f 523/5/6 522/5/6 524/5/6
f 525/2/6 526/2/6 527/2/6
f 527/2/6 526/2/6 528/2/6
f 529/5/6 530/5/6 531/5/6
f 531/5/6 530/5/6 532/5/6
f 532/5/6 530/5/6 533/5/6
f 533/5/6 530/5/6 534/5/6
f 534/5/6 530/5/6 535/5/6
f 535/5/6 530/5/6 536/5/6
f 536/5/6 530/5/6 537/5/6
f 537/5/6 530/5/6 538/5/6
f 538/5/6 530/5/6 539/5/6
f 529/5/6 531/5/6 540/5/6
f 531/3/6 532/3/6 540/3/6
f 540/3/6 532/3/6 541/3/6
f 533/3/6 534/3/6 542/3/6
f 534/5/6 535/5/6 543/5/6
f 542/3/6 534/3/6 543/3/6
f 543/5/6 535/5/6 544/5/6
f 536/5/6 537/5/6 545/5/6
f 537/3/6 538/3/6 546/3/6
f 545/5/6 537/5/6 546/5/6
f 546/3/6 538/3/6 547/3/6
f 544/5/6 545/5/6 549/5/6
f 547/5/6 548/5/6 549/5/6
f 546/5/6 547/5/6 549/5/6
f 545/5/6 546/5/6 549/5/6
f 543/5/6 544/5/6 549/5/6
f 542/5/6 543/5/6 549/5/6
f 540/5/6 541/5/6 549/5/6
f 529/5/6 540/5/6 549/5/6
f 541/5/6 542/5/6 549/5/6
f 549/5/6 548/5/6 550/5/6
f 551/5/6 552/5/6 555/5/6
f 555/5/6 552/5/6 556/5/6
f 553/5/6 554/5/6 557/5/6
f 557/5/6 554/5/6 558/5/6
