# MagicaVoxel @ Ephtracy

# group
o 

# material
mtllib bosspizdukdown(daun).mtl
usemtl palette

# normals
vn -1 0 0
vn 1 0 0
vn 0 0 1
vn 0 0 -1
vn 0 -1 0
vn 0 1 0

# texcoords
vt 0.154297 0.5
vt 0.853516 0.5
vt 0.994141 0.5

# verts
v -2.5 0.3 2.2
v -2.5 0.3 -2.2
v -2.5 1.6 2.2
v -2.5 1.6 -2.2
v -2.4 0 2.3
v -2.4 0 -2.3
v -2.4 0.2 2.4
v -2.4 0.2 2.3
v -2.4 0.2 -2.3
v -2.4 0.2 -2.4
v -2.4 0.3 2.2
v -2.4 0.3 -2.2
v -2.4 1.6 2.2
v -2.4 1.6 -2.2
v -2.4 1.7 2.4
v -2.4 1.7 2.3
v -2.4 1.7 -2.3
v -2.4 1.7 -2.4
v -2.4 1.8 2.3
v -2.4 1.8 -2.3
v -2.3 0 2.4
v -2.3 0 2.3
v -2.3 0 -2.3
v -2.3 0 -2.4
v -2.3 0.2 2.4
v -2.3 0.2 2.3
v -2.3 0.2 -2.3
v -2.3 0.2 -2.4
v -2.3 1.7 2.4
v -2.3 1.7 2.3
v -2.3 1.7 -2.3
v -2.3 1.7 -2.4
v -2.3 1.8 2.4
v -2.3 1.8 2.3
v -2.3 1.8 -2.3
v -2.3 1.8 -2.4
v -2.2 0.3 2.5
v -2.2 0.3 2.4
v -2.2 0.3 -2.4
v -2.2 0.3 -2.5
v -2.2 1.6 2.5
v -2.2 1.6 2.4
v -2.2 1.6 -2.4
v -2.2 1.6 -2.5
v -2.2 1.8 2.2
v -2.2 1.8 -2.2
v -2.2 1.9 2.2
v -2.2 1.9 -2.2
v -2 1.9 1.9
v -2 1.9 1.4
v -2 1.9 0.8
v -2 1.9 0.3
v -2 2.9 1.9
v -2 2.9 1.4
v -2 2.9 0.8
v -2 2.9 0.3
v -1.9 1.9 2
v -1.9 1.9 1.9
v -1.9 1.9 1.4
v -1.9 1.9 1.3
v -1.9 1.9 0.9
v -1.9 1.9 0.8
v -1.9 1.9 0.3
v -1.9 1.9 0.2
v -1.9 2.9 2
v -1.9 2.9 1.9
v -1.9 2.9 1.4
v -1.9 2.9 1.3
v -1.9 2.9 0.9
v -1.9 2.9 0.8
v -1.9 2.9 0.3
v -1.9 2.9 0.2
v -0.9 1.9 1.9
v -0.9 1.9 1.4
v -0.9 2.9 1.9
v -0.9 2.9 1.4
v -0.8 1.9 2
v -0.8 1.9 1.9
v -0.8 1.9 1.4
v -0.8 1.9 1.3
v -0.8 2.9 2
v -0.8 2.9 1.9
v -0.8 2.9 1.4
v -0.8 2.9 1.3
v 0.2 1.9 1.9
v 0.2 1.9 1.4
v 0.2 2.9 1.9
v 0.2 2.9 1.4
v 0.3 1.9 2
v 0.3 1.9 1.9
v 0.3 1.9 1.4
v 0.3 1.9 1.3
v 0.3 2.9 2
v 0.3 2.9 1.9
v 0.3 2.9 1.4
v 0.3 2.9 1.3
v 1.3 1.9 1.9
v 1.3 1.9 1.4
v 1.3 1.9 0.8
v 1.3 1.9 0.3
v 1.3 2.9 1.9
v 1.3 2.9 1.4
v 1.3 2.9 0.8
v 1.3 2.9 0.3
v 1.4 1.9 2
v 1.4 1.9 1.9
v 1.4 1.9 1.4
v 1.4 1.9 1.3
v 1.4 1.9 0.9
v 1.4 1.9 0.8
v 1.4 1.9 0.3
v 1.4 1.9 0.2
v 1.4 2.9 2
v 1.4 2.9 1.9
v 1.4 2.9 1.4
v 1.4 2.9 1.3
v 1.4 2.9 0.9
v 1.4 2.9 0.8
v 1.4 2.9 0.3
v 1.4 2.9 0.2
v -1.4 1.9 2
v -1.4 1.9 1.9
v -1.4 1.9 1.4
v -1.4 1.9 1.3
v -1.4 1.9 0.9
v -1.4 1.9 0.8
v -1.4 1.9 0.3
v -1.4 1.9 0.2
v -1.4 2.9 2
v -1.4 2.9 1.9
v -1.4 2.9 1.4
v -1.4 2.9 1.3
v -1.4 2.9 0.9
v -1.4 2.9 0.8
v -1.4 2.9 0.3
v -1.4 2.9 0.2
v -1.3 1.9 1.9
v -1.3 1.9 1.4
v -1.3 1.9 0.8
v -1.3 1.9 0.3
v -1.3 2.9 1.9
v -1.3 2.9 1.4
v -1.3 2.9 0.8
v -1.3 2.9 0.3
v -0.3 1.9 2
v -0.3 1.9 1.9
v -0.3 1.9 1.4
v -0.3 1.9 1.3
v -0.3 2.9 2
v -0.3 2.9 1.9
v -0.3 2.9 1.4
v -0.3 2.9 1.3
v -0.2 1.9 1.9
v -0.2 1.9 1.4
v -0.2 2.9 1.9
v -0.2 2.9 1.4
v 0.8 1.9 2
v 0.8 1.9 1.9
v 0.8 1.9 1.4
v 0.8 1.9 1.3
v 0.8 2.9 2
v 0.8 2.9 1.9
v 0.8 2.9 1.4
v 0.8 2.9 1.3
v 0.9 1.9 1.9
v 0.9 1.9 1.4
v 0.9 2.9 1.9
v 0.9 2.9 1.4
v 1.9 1.9 2
v 1.9 1.9 1.9
v 1.9 1.9 1.4
v 1.9 1.9 1.3
v 1.9 1.9 0.9
v 1.9 1.9 0.8
v 1.9 1.9 0.3
v 1.9 1.9 0.2
v 1.9 2.9 2
v 1.9 2.9 1.9
v 1.9 2.9 1.4
v 1.9 2.9 1.3
v 1.9 2.9 0.9
v 1.9 2.9 0.8
v 1.9 2.9 0.3
v 1.9 2.9 0.2
v 2 1.9 1.9
v 2 1.9 1.4
v 2 1.9 0.8
v 2 1.9 0.3
v 2 2.9 1.9
v 2 2.9 1.4
v 2 2.9 0.8
v 2 2.9 0.3
v 2.2 0.3 2.5
v 2.2 0.3 2.4
v 2.2 0.3 -2.4
v 2.2 0.3 -2.5
v 2.2 1.6 2.5
v 2.2 1.6 2.4
v 2.2 1.6 -2.4
v 2.2 1.6 -2.5
v 2.2 1.8 2.2
v 2.2 1.8 -2.2
v 2.2 1.9 2.2
v 2.2 1.9 -2.2
v 2.3 0 2.4
v 2.3 0 2.3
v 2.3 0 -2.3
v 2.3 0 -2.4
v 2.3 0.2 2.4
v 2.3 0.2 2.3
v 2.3 0.2 -2.3
v 2.3 0.2 -2.4
v 2.3 1.7 2.4
v 2.3 1.7 2.3
v 2.3 1.7 -2.3
v 2.3 1.7 -2.4
v 2.3 1.8 2.4
v 2.3 1.8 2.3
v 2.3 1.8 -2.3
v 2.3 1.8 -2.4
v 2.4 0 2.3
v 2.4 0 -2.3
v 2.4 0.2 2.4
v 2.4 0.2 2.3
v 2.4 0.2 -2.3
v 2.4 0.2 -2.4
v 2.4 0.3 2.2
v 2.4 0.3 -2.2
v 2.4 1.6 2.2
v 2.4 1.6 -2.2
v 2.4 1.7 2.4
v 2.4 1.7 2.3
v 2.4 1.7 -2.3
v 2.4 1.7 -2.4
v 2.4 1.8 2.3
v 2.4 1.8 -2.3
v 2.5 0.3 2.2
v 2.5 0.3 -2.2
v 2.5 1.6 2.2
v 2.5 1.6 -2.2
v -2.2 0.3 2.5
v -2.2 1.6 2.5
v 2.2 0.3 2.5
v 2.2 1.6 2.5
v -2.4 0.2 2.4
v -2.4 1.7 2.4
v -2.3 0 2.4
v -2.3 0.2 2.4
v -2.3 1.7 2.4
v -2.3 1.8 2.4
v -2.2 0.3 2.4
v -2.2 1.6 2.4
v 2.2 0.3 2.4
v 2.2 1.6 2.4
v 2.3 0 2.4
v 2.3 0.2 2.4
v 2.3 1.7 2.4
v 2.3 1.8 2.4
v 2.4 0.2 2.4
v 2.4 1.7 2.4
v -2.4 0 2.3
v -2.4 0.2 2.3
v -2.4 1.7 2.3
v -2.4 1.8 2.3
v -2.3 0 2.3
v -2.3 0.2 2.3
v -2.3 1.7 2.3
v -2.3 1.8 2.3
v 2.3 0 2.3
v 2.3 0.2 2.3
v 2.3 1.7 2.3
v 2.3 1.8 2.3
v 2.4 0 2.3
v 2.4 0.2 2.3
v 2.4 1.7 2.3
v 2.4 1.8 2.3
v -2.5 0.3 2.2
v -2.5 1.6 2.2
v -2.4 0.3 2.2
v -2.4 1.6 2.2
v -2.2 1.8 2.2
v -2.2 1.9 2.2
v 2.2 1.8 2.2
v 2.2 1.9 2.2
v 2.4 0.3 2.2
v 2.4 1.6 2.2
v 2.5 0.3 2.2
v 2.5 1.6 2.2
v -1.9 1.9 2
v -1.9 2.9 2
v -1.4 1.9 2
v -1.4 2.9 2
v -0.8 1.9 2
v -0.8 2.9 2
v -0.3 1.9 2
v -0.3 2.9 2
v 0.3 1.9 2
v 0.3 2.9 2
v 0.8 1.9 2
v 0.8 2.9 2
v 1.4 1.9 2
v 1.4 2.9 2
v 1.9 1.9 2
v 1.9 2.9 2
v -2 1.9 1.9
v -2 2.9 1.9
v -1.9 1.9 1.9
v -1.9 2.9 1.9
v -1.4 1.9 1.9
v -1.4 2.9 1.9
v -1.3 1.9 1.9
v -1.3 2.9 1.9
v -0.9 1.9 1.9
v -0.9 2.9 1.9
v -0.8 1.9 1.9
v -0.8 2.9 1.9
v -0.3 1.9 1.9
v -0.3 2.9 1.9
v -0.2 1.9 1.9
v -0.2 2.9 1.9
v 0.2 1.9 1.9
v 0.2 2.9 1.9
v 0.3 1.9 1.9
v 0.3 2.9 1.9
v 0.8 1.9 1.9
v 0.8 2.9 1.9
v 0.9 1.9 1.9
v 0.9 2.9 1.9
v 1.3 1.9 1.9
v 1.3 2.9 1.9
v 1.4 1.9 1.9
v 1.4 2.9 1.9
v 1.9 1.9 1.9
v 1.9 2.9 1.9
v 2 1.9 1.9
v 2 2.9 1.9
v -1.9 1.9 0.9
v -1.9 2.9 0.9
v -1.4 1.9 0.9
v -1.4 2.9 0.9
v 1.4 1.9 0.9
v 1.4 2.9 0.9
v 1.9 1.9 0.9
v 1.9 2.9 0.9
v -2 1.9 0.8
v -2 2.9 0.8
v -1.9 1.9 0.8
v -1.9 2.9 0.8
v -1.4 1.9 0.8
v -1.4 2.9 0.8
v -1.3 1.9 0.8
v -1.3 2.9 0.8
v 1.3 1.9 0.8
v 1.3 2.9 0.8
v 1.4 1.9 0.8
v 1.4 2.9 0.8
v 1.9 1.9 0.8
v 1.9 2.9 0.8
v 2 1.9 0.8
v 2 2.9 0.8
v -2 1.9 1.4
v -2 2.9 1.4
v -1.9 1.9 1.4
v -1.9 2.9 1.4
v -1.4 1.9 1.4
v -1.4 2.9 1.4
v -1.3 1.9 1.4
v -1.3 2.9 1.4
v -0.9 1.9 1.4
v -0.9 2.9 1.4
v -0.8 1.9 1.4
v -0.8 2.9 1.4
v -0.3 1.9 1.4
v -0.3 2.9 1.4
v -0.2 1.9 1.4
v -0.2 2.9 1.4
v 0.2 1.9 1.4
v 0.2 2.9 1.4
v 0.3 1.9 1.4
v 0.3 2.9 1.4
v 0.8 1.9 1.4
v 0.8 2.9 1.4
v 0.9 1.9 1.4
v 0.9 2.9 1.4
v 1.3 1.9 1.4
v 1.3 2.9 1.4
v 1.4 1.9 1.4
v 1.4 2.9 1.4
v 1.9 1.9 1.4
v 1.9 2.9 1.4
v 2 1.9 1.4
v 2 2.9 1.4
v -1.9 1.9 1.3
v -1.9 2.9 1.3
v -1.4 1.9 1.3
v -1.4 2.9 1.3
v -0.8 1.9 1.3
v -0.8 2.9 1.3
v -0.3 1.9 1.3
v -0.3 2.9 1.3
v 0.3 1.9 1.3
v 0.3 2.9 1.3
v 0.8 1.9 1.3
v 0.8 2.9 1.3
v 1.4 1.9 1.3
v 1.4 2.9 1.3
v 1.9 1.9 1.3
v 1.9 2.9 1.3
v -2 1.9 0.3
v -2 2.9 0.3
v -1.9 1.9 0.3
v -1.9 2.9 0.3
v -1.4 1.9 0.3
v -1.4 2.9 0.3
v -1.3 1.9 0.3
v -1.3 2.9 0.3
v 1.3 1.9 0.3
v 1.3 2.9 0.3
v 1.4 1.9 0.3
v 1.4 2.9 0.3
v 1.9 1.9 0.3
v 1.9 2.9 0.3
v 2 1.9 0.3
v 2 2.9 0.3
v -1.9 1.9 0.2
v -1.9 2.9 0.2
v -1.4 1.9 0.2
v -1.4 2.9 0.2
v 1.4 1.9 0.2
v 1.4 2.9 0.2
v 1.9 1.9 0.2
v 1.9 2.9 0.2
v -2.5 0.3 -2.2
v -2.5 1.6 -2.2
v -2.4 0.3 -2.2
v -2.4 1.6 -2.2
v -2.2 1.8 -2.2
v -2.2 1.9 -2.2
v 2.2 1.8 -2.2
v 2.2 1.9 -2.2
v 2.4 0.3 -2.2
v 2.4 1.6 -2.2
v 2.5 0.3 -2.2
v 2.5 1.6 -2.2
v -2.4 0 -2.3
v -2.4 0.2 -2.3
v -2.4 1.7 -2.3
v -2.4 1.8 -2.3
v -2.3 0 -2.3
v -2.3 0.2 -2.3
v -2.3 1.7 -2.3
v -2.3 1.8 -2.3
v 2.3 0 -2.3
v 2.3 0.2 -2.3
v 2.3 1.7 -2.3
v 2.3 1.8 -2.3
v 2.4 0 -2.3
v 2.4 0.2 -2.3
v 2.4 1.7 -2.3
v 2.4 1.8 -2.3
v -2.4 0.2 -2.4
v -2.4 1.7 -2.4
v -2.3 0 -2.4
v -2.3 0.2 -2.4
v -2.3 1.7 -2.4
v -2.3 1.8 -2.4
v -2.2 0.3 -2.4
v -2.2 1.6 -2.4
v 2.2 0.3 -2.4
v 2.2 1.6 -2.4
v 2.3 0 -2.4
v 2.3 0.2 -2.4
v 2.3 1.7 -2.4
v 2.3 1.8 -2.4
v 2.4 0.2 -2.4
v 2.4 1.7 -2.4
v -2.2 0.3 -2.5
v -2.2 1.6 -2.5
v 2.2 0.3 -2.5
v 2.2 1.6 -2.5
v -2.3 0 2.4
v 2.3 0 2.4
v -2.4 0 2.3
v -2.3 0 2.3
v 2.3 0 2.3
v 2.4 0 2.3
v -2.4 0 -2.3
v -2.3 0 -2.3
v 2.3 0 -2.3
v 2.4 0 -2.3
v -2.3 0 -2.4
v 2.3 0 -2.4
v -2.4 0.2 2.4
v -2.3 0.2 2.4
v 2.3 0.2 2.4
v 2.4 0.2 2.4
v -2.4 0.2 2.3
v -2.3 0.2 2.3
v 2.3 0.2 2.3
v 2.4 0.2 2.3
v -2.4 0.2 -2.3
v -2.3 0.2 -2.3
v 2.3 0.2 -2.3
v 2.4 0.2 -2.3
v -2.4 0.2 -2.4
v -2.3 0.2 -2.4
v 2.3 0.2 -2.4
v 2.4 0.2 -2.4
v -2.2 0.3 2.5
v 2.2 0.3 2.5
v -2.2 0.3 2.4
v 2.2 0.3 2.4
v -2.5 0.3 2.2
v -2.4 0.3 2.2
v 2.4 0.3 2.2
v 2.5 0.3 2.2
v -2.5 0.3 -2.2
v -2.4 0.3 -2.2
v 2.4 0.3 -2.2
v 2.5 0.3 -2.2
v -2.2 0.3 -2.4
v 2.2 0.3 -2.4
v -2.2 0.3 -2.5
v 2.2 0.3 -2.5
v -2.2 1.6 2.5
v 2.2 1.6 2.5
v -2.2 1.6 2.4
v 2.2 1.6 2.4
v -2.5 1.6 2.2
v -2.4 1.6 2.2
v 2.4 1.6 2.2
v 2.5 1.6 2.2
v -2.5 1.6 -2.2
v -2.4 1.6 -2.2
v 2.4 1.6 -2.2
v 2.5 1.6 -2.2
v -2.2 1.6 -2.4
v 2.2 1.6 -2.4
v -2.2 1.6 -2.5
v 2.2 1.6 -2.5
v -2.4 1.7 2.4
v -2.3 1.7 2.4
v 2.3 1.7 2.4
v 2.4 1.7 2.4
v -2.4 1.7 2.3
v -2.3 1.7 2.3
v 2.3 1.7 2.3
v 2.4 1.7 2.3
v -2.4 1.7 -2.3
v -2.3 1.7 -2.3
v 2.3 1.7 -2.3
v 2.4 1.7 -2.3
v -2.4 1.7 -2.4
v -2.3 1.7 -2.4
v 2.3 1.7 -2.4
v 2.4 1.7 -2.4
v -2.3 1.8 2.4
v 2.3 1.8 2.4
v -2.4 1.8 2.3
v -2.3 1.8 2.3
v 2.3 1.8 2.3
v 2.4 1.8 2.3
v -2.2 1.8 2.2
v 2.2 1.8 2.2
v -2.2 1.8 -2.2
v 2.2 1.8 -2.2
v -2.4 1.8 -2.3
v -2.3 1.8 -2.3
v 2.3 1.8 -2.3
v 2.4 1.8 -2.3
v -2.3 1.8 -2.4
v 2.3 1.8 -2.4
v -2.2 1.9 2.2
v 2.2 1.9 2.2
v -1.9 1.9 2
v -1.4 1.9 2
v -0.8 1.9 2
v -0.3 1.9 2
v 0.3 1.9 2
v 0.8 1.9 2
v 1.4 1.9 2
v 1.9 1.9 2
v -2 1.9 1.9
v -1.9 1.9 1.9
v -1.4 1.9 1.9
v -1.3 1.9 1.9
v -0.9 1.9 1.9
v -0.8 1.9 1.9
v -0.3 1.9 1.9
v -0.2 1.9 1.9
v 0.2 1.9 1.9
v 0.3 1.9 1.9
v 0.8 1.9 1.9
v 0.9 1.9 1.9
v 1.3 1.9 1.9
v 1.4 1.9 1.9
v 1.9 1.9 1.9
v 2 1.9 1.9
v -2 1.9 1.4
v -1.9 1.9 1.4
v -1.4 1.9 1.4
v -1.3 1.9 1.4
v -0.9 1.9 1.4
v -0.8 1.9 1.4
v -0.3 1.9 1.4
v -0.2 1.9 1.4
v 0.2 1.9 1.4
v 0.3 1.9 1.4
v 0.8 1.9 1.4
v 0.9 1.9 1.4
v 1.3 1.9 1.4
v 1.4 1.9 1.4
v 1.9 1.9 1.4
v 2 1.9 1.4
v -1.9 1.9 1.3
v -1.4 1.9 1.3
v -0.8 1.9 1.3
v -0.3 1.9 1.3
v 0.3 1.9 1.3
v 0.8 1.9 1.3
v 1.4 1.9 1.3
v 1.9 1.9 1.3
v -1.9 1.9 0.9
v -1.4 1.9 0.9
v 1.4 1.9 0.9
v 1.9 1.9 0.9
v -2 1.9 0.8
v -1.9 1.9 0.8
v -1.4 1.9 0.8
v -1.3 1.9 0.8
v 1.3 1.9 0.8
v 1.4 1.9 0.8
v 1.9 1.9 0.8
v 2 1.9 0.8
v -2 1.9 0.3
v -1.9 1.9 0.3
v -1.4 1.9 0.3
v -1.3 1.9 0.3
v 1.3 1.9 0.3
v 1.4 1.9 0.3
v 1.9 1.9 0.3
v 2 1.9 0.3
v -1.9 1.9 0.2
v -1.4 1.9 0.2
v 1.4 1.9 0.2
v 1.9 1.9 0.2
v -2.2 1.9 -2.2
v 2.2 1.9 -2.2
v -1.9 2.9 2
v -1.4 2.9 2
v -0.8 2.9 2
v -0.3 2.9 2
v 0.3 2.9 2
v 0.8 2.9 2
v 1.4 2.9 2
v 1.9 2.9 2
v -2 2.9 1.9
v -1.9 2.9 1.9
v -1.4 2.9 1.9
v -1.3 2.9 1.9
v -0.9 2.9 1.9
v -0.8 2.9 1.9
v -0.3 2.9 1.9
v -0.2 2.9 1.9
v 0.2 2.9 1.9
v 0.3 2.9 1.9
v 0.8 2.9 1.9
v 0.9 2.9 1.9
v 1.3 2.9 1.9
v 1.4 2.9 1.9
v 1.9 2.9 1.9
v 2 2.9 1.9
v -2 2.9 1.4
v -1.9 2.9 1.4
v -1.4 2.9 1.4
v -1.3 2.9 1.4
v -0.9 2.9 1.4
v -0.8 2.9 1.4
v -0.3 2.9 1.4
v -0.2 2.9 1.4
v 0.2 2.9 1.4
v 0.3 2.9 1.4
v 0.8 2.9 1.4
v 0.9 2.9 1.4
v 1.3 2.9 1.4
v 1.4 2.9 1.4
v 1.9 2.9 1.4
v 2 2.9 1.4
v -1.9 2.9 1.3
v -1.4 2.9 1.3
v -0.8 2.9 1.3
v -0.3 2.9 1.3
v 0.3 2.9 1.3
v 0.8 2.9 1.3
v 1.4 2.9 1.3
v 1.9 2.9 1.3
v -1.9 2.9 0.9
v -1.4 2.9 0.9
v 1.4 2.9 0.9
v 1.9 2.9 0.9
v -2 2.9 0.8
v -1.9 2.9 0.8
v -1.4 2.9 0.8
v -1.3 2.9 0.8
v 1.3 2.9 0.8
v 1.4 2.9 0.8
v 1.9 2.9 0.8
v 2 2.9 0.8
v -2 2.9 0.3
v -1.9 2.9 0.3
v -1.4 2.9 0.3
v -1.3 2.9 0.3
v 1.3 2.9 0.3
v 1.4 2.9 0.3
v 1.9 2.9 0.3
v 2 2.9 0.3
v -1.9 2.9 0.2
v -1.4 2.9 0.2
v 1.4 2.9 0.2
v 1.9 2.9 0.2

# faces
f 3/2/1 2/2/1 1/2/1
f 4/2/1 2/2/1 3/2/1
f 8/3/1 6/3/1 5/3/1
f 9/3/1 6/3/1 8/3/1
f 11/2/1 9/2/1 8/2/1
f 12/2/1 9/2/1 11/2/1
f 13/2/1 11/2/1 8/2/1
f 14/2/1 9/2/1 12/2/1
f 15/3/1 8/3/1 7/3/1
f 16/2/1 14/2/1 13/2/1
f 16/3/1 8/3/1 15/3/1
f 16/2/1 13/2/1 8/2/1
f 17/3/1 10/3/1 9/3/1
f 17/2/1 14/2/1 16/2/1
f 17/2/1 9/2/1 14/2/1
f 18/3/1 10/3/1 17/3/1
f 19/3/1 17/3/1 16/3/1
f 20/3/1 17/3/1 19/3/1
f 25/3/1 22/3/1 21/3/1
f 26/3/1 22/3/1 25/3/1
f 27/3/1 24/3/1 23/3/1
f 28/3/1 24/3/1 27/3/1
f 33/3/1 30/3/1 29/3/1
f 34/3/1 30/3/1 33/3/1
f 35/3/1 32/3/1 31/3/1
f 36/3/1 32/3/1 35/3/1
f 41/2/1 38/2/1 37/2/1
f 42/2/1 38/2/1 41/2/1
f 43/2/1 40/2/1 39/2/1
f 44/2/1 40/2/1 43/2/1
f 47/2/1 46/2/1 45/2/1
f 48/2/1 46/2/1 47/2/1
f 53/1/1 50/1/1 49/1/1
f 54/1/1 50/1/1 53/1/1
f 55/1/1 52/1/1 51/1/1
f 56/1/1 52/1/1 55/1/1
f 65/1/1 58/1/1 57/1/1
f 66/1/1 58/1/1 65/1/1
f 67/1/1 60/1/1 59/1/1
f 68/1/1 60/1/1 67/1/1
f 69/1/1 62/1/1 61/1/1
f 70/1/1 62/1/1 69/1/1
f 71/1/1 64/1/1 63/1/1
f 72/1/1 64/1/1 71/1/1
f 75/1/1 74/1/1 73/1/1
f 76/1/1 74/1/1 75/1/1
f 81/1/1 78/1/1 77/1/1
f 82/1/1 78/1/1 81/1/1
f 83/1/1 80/1/1 79/1/1
f 84/1/1 80/1/1 83/1/1
f 87/1/1 86/1/1 85/1/1
f 88/1/1 86/1/1 87/1/1
f 93/1/1 90/1/1 89/1/1
f 94/1/1 90/1/1 93/1/1
f 95/1/1 92/1/1 91/1/1
f 96/1/1 92/1/1 95/1/1
f 101/1/1 98/1/1 97/1/1
f 102/1/1 98/1/1 101/1/1
f 103/1/1 100/1/1 99/1/1
f 104/1/1 100/1/1 103/1/1
f 113/1/1 106/1/1 105/1/1
f 114/1/1 106/1/1 113/1/1
f 115/1/1 108/1/1 107/1/1
f 116/1/1 108/1/1 115/1/1
f 117/1/1 110/1/1 109/1/1
f 118/1/1 110/1/1 117/1/1
f 119/1/1 112/1/1 111/1/1
f 120/1/1 112/1/1 119/1/1
f 121/1/2 122/1/2 129/1/2
f 129/1/2 122/1/2 130/1/2
f 123/1/2 124/1/2 131/1/2
f 131/1/2 124/1/2 132/1/2
f 125/1/2 126/1/2 133/1/2
f 133/1/2 126/1/2 134/1/2
f 127/1/2 128/1/2 135/1/2
f 135/1/2 128/1/2 136/1/2
f 137/1/2 138/1/2 141/1/2
f 141/1/2 138/1/2 142/1/2
f 139/1/2 140/1/2 143/1/2
f 143/1/2 140/1/2 144/1/2
f 145/1/2 146/1/2 149/1/2
f 149/1/2 146/1/2 150/1/2
f 147/1/2 148/1/2 151/1/2
f 151/1/2 148/1/2 152/1/2
f 153/1/2 154/1/2 155/1/2
f 155/1/2 154/1/2 156/1/2
f 157/1/2 158/1/2 161/1/2
f 161/1/2 158/1/2 162/1/2
f 159/1/2 160/1/2 163/1/2
f 163/1/2 160/1/2 164/1/2
f 165/1/2 166/1/2 167/1/2
f 167/1/2 166/1/2 168/1/2
f 169/1/2 170/1/2 177/1/2
f 177/1/2 170/1/2 178/1/2
f 171/1/2 172/1/2 179/1/2
f 179/1/2 172/1/2 180/1/2
f 173/1/2 174/1/2 181/1/2
f 181/1/2 174/1/2 182/1/2
f 175/1/2 176/1/2 183/1/2
f 183/1/2 176/1/2 184/1/2
f 185/1/2 186/1/2 189/1/2
f 189/1/2 186/1/2 190/1/2
f 187/1/2 188/1/2 191/1/2
f 191/1/2 188/1/2 192/1/2
f 193/2/2 194/2/2 197/2/2
f 197/2/2 194/2/2 198/2/2
f 195/2/2 196/2/2 199/2/2
f 199/2/2 196/2/2 200/2/2
f 201/2/2 202/2/2 203/2/2
f 203/2/2 202/2/2 204/2/2
f 205/3/2 206/3/2 209/3/2
f 209/3/2 206/3/2 210/3/2
f 207/3/2 208/3/2 211/3/2
f 211/3/2 208/3/2 212/3/2
f 213/3/2 214/3/2 217/3/2
f 217/3/2 214/3/2 218/3/2
f 215/3/2 216/3/2 219/3/2
f 219/3/2 216/3/2 220/3/2
f 221/3/2 222/3/2 224/3/2
f 224/3/2 222/3/2 225/3/2
f 224/2/2 225/2/2 227/2/2
f 227/2/2 225/2/2 228/2/2
f 224/2/2 227/2/2 229/2/2
f 228/2/2 225/2/2 230/2/2
f 223/3/2 224/3/2 231/3/2
f 229/2/2 230/2/2 232/2/2
f 231/3/2 224/3/2 232/3/2
f 224/2/2 229/2/2 232/2/2
f 225/3/2 226/3/2 233/3/2
f 232/2/2 230/2/2 233/2/2
f 230/2/2 225/2/2 233/2/2
f 233/3/2 226/3/2 234/3/2
f 232/3/2 233/3/2 235/3/2
f 235/3/2 233/3/2 236/3/2
f 237/2/2 238/2/2 239/2/2
f 239/2/2 238/2/2 240/2/2
f 243/2/3 242/2/3 241/2/3
f 244/2/3 242/2/3 243/2/3
f 248/3/3 246/3/3 245/3/3
f 249/3/3 246/3/3 248/3/3
f 251/2/3 249/2/3 248/2/3
f 252/2/3 249/2/3 251/2/3
f 253/2/3 251/2/3 248/2/3
f 254/2/3 249/2/3 252/2/3
f 255/3/3 248/3/3 247/3/3
f 256/2/3 254/2/3 253/2/3
f 256/3/3 248/3/3 255/3/3
f 256/2/3 253/2/3 248/2/3
f 257/3/3 250/3/3 249/3/3
f 257/2/3 254/2/3 256/2/3
f 257/2/3 249/2/3 254/2/3
f 258/3/3 250/3/3 257/3/3
f 259/3/3 257/3/3 256/3/3
f 260/3/3 257/3/3 259/3/3
f 265/3/3 262/3/3 261/3/3
f 266/3/3 262/3/3 265/3/3
f 267/3/3 264/3/3 263/3/3
f 268/3/3 264/3/3 267/3/3
f 273/3/3 270/3/3 269/3/3
f 274/3/3 270/3/3 273/3/3
f 275/3/3 272/3/3 271/3/3
f 276/3/3 272/3/3 275/3/3
f 279/2/3 278/2/3 277/2/3
f 280/2/3 278/2/3 279/2/3
f 283/2/3 282/2/3 281/2/3
f 284/2/3 282/2/3 283/2/3
f 287/2/3 286/2/3 285/2/3
f 288/2/3 286/2/3 287/2/3
f 291/1/3 290/1/3 289/1/3
f 292/1/3 290/1/3 291/1/3
f 295/1/3 294/1/3 293/1/3
f 296/1/3 294/1/3 295/1/3
f 299/1/3 298/1/3 297/1/3
f 300/1/3 298/1/3 299/1/3
f 303/1/3 302/1/3 301/1/3
f 304/1/3 302/1/3 303/1/3
f 307/1/3 306/1/3 305/1/3
f 308/1/3 306/1/3 307/1/3
f 311/1/3 310/1/3 309/1/3
f 312/1/3 310/1/3 311/1/3
f 315/1/3 314/1/3 313/1/3
f 316/1/3 314/1/3 315/1/3
f 319/1/3 318/1/3 317/1/3
f 320/1/3 318/1/3 319/1/3
f 323/1/3 322/1/3 321/1/3
f 324/1/3 322/1/3 323/1/3
f 327/1/3 326/1/3 325/1/3
f 328/1/3 326/1/3 327/1/3
f 331/1/3 330/1/3 329/1/3
f 332/1/3 330/1/3 331/1/3
f 335/1/3 334/1/3 333/1/3
f 336/1/3 334/1/3 335/1/3
f 339/1/3 338/1/3 337/1/3
f 340/1/3 338/1/3 339/1/3
f 343/1/3 342/1/3 341/1/3
f 344/1/3 342/1/3 343/1/3
f 347/1/3 346/1/3 345/1/3
f 348/1/3 346/1/3 347/1/3
f 351/1/3 350/1/3 349/1/3
f 352/1/3 350/1/3 351/1/3
f 355/1/3 354/1/3 353/1/3
f 356/1/3 354/1/3 355/1/3
f 359/1/3 358/1/3 357/1/3
f 360/1/3 358/1/3 359/1/3
f 361/1/4 362/1/4 363/1/4
f 363/1/4 362/1/4 364/1/4
f 365/1/4 366/1/4 367/1/4
f 367/1/4 366/1/4 368/1/4
f 369/1/4 370/1/4 371/1/4
f 371/1/4 370/1/4 372/1/4
f 373/1/4 374/1/4 375/1/4
f 375/1/4 374/1/4 376/1/4
f 377/1/4 378/1/4 379/1/4
f 379/1/4 378/1/4 380/1/4
f 381/1/4 382/1/4 383/1/4
f 383/1/4 382/1/4 384/1/4
f 385/1/4 386/1/4 387/1/4
f 387/1/4 386/1/4 388/1/4
f 389/1/4 390/1/4 391/1/4
f 391/1/4 390/1/4 392/1/4
f 393/1/4 394/1/4 395/1/4
f 395/1/4 394/1/4 396/1/4
f 397/1/4 398/1/4 399/1/4
f 399/1/4 398/1/4 400/1/4
f 401/1/4 402/1/4 403/1/4
f 403/1/4 402/1/4 404/1/4
f 405/1/4 406/1/4 407/1/4
f 407/1/4 406/1/4 408/1/4
f 409/1/4 410/1/4 411/1/4
f 411/1/4 410/1/4 412/1/4
f 413/1/4 414/1/4 415/1/4
f 415/1/4 414/1/4 416/1/4
f 417/1/4 418/1/4 419/1/4
f 419/1/4 418/1/4 420/1/4
f 421/1/4 422/1/4 423/1/4
f 423/1/4 422/1/4 424/1/4
f 425/1/4 426/1/4 427/1/4
f 427/1/4 426/1/4 428/1/4
f 429/1/4 430/1/4 431/1/4
f 431/1/4 430/1/4 432/1/4
f 433/2/4 434/2/4 435/2/4
f 435/2/4 434/2/4 436/2/4
f 437/2/4 438/2/4 439/2/4
f 439/2/4 438/2/4 440/2/4
f 441/2/4 442/2/4 443/2/4
f 443/2/4 442/2/4 444/2/4
f 445/3/4 446/3/4 449/3/4
f 449/3/4 446/3/4 450/3/4
f 447/3/4 448/3/4 451/3/4
f 451/3/4 448/3/4 452/3/4
f 453/3/4 454/3/4 457/3/4
f 457/3/4 454/3/4 458/3/4
f 455/3/4 456/3/4 459/3/4
f 459/3/4 456/3/4 460/3/4
f 461/3/4 462/3/4 464/3/4
f 464/3/4 462/3/4 465/3/4
f 464/2/4 465/2/4 467/2/4
f 467/2/4 465/2/4 468/2/4
f 464/2/4 467/2/4 469/2/4
f 468/2/4 465/2/4 470/2/4
f 463/3/4 464/3/4 471/3/4
f 469/2/4 470/2/4 472/2/4
f 471/3/4 464/3/4 472/3/4
f 464/2/4 469/2/4 472/2/4
f 465/3/4 466/3/4 473/3/4
f 472/2/4 470/2/4 473/2/4
f 470/2/4 465/2/4 473/2/4
f 473/3/4 466/3/4 474/3/4
f 472/3/4 473/3/4 475/3/4
f 475/3/4 473/3/4 476/3/4
f 477/2/4 478/2/4 479/2/4
f 479/2/4 478/2/4 480/2/4
f 484/3/5 482/3/5 481/3/5
f 485/3/5 482/3/5 484/3/5
f 487/3/5 484/3/5 483/3/5
f 488/2/5 485/2/5 484/2/5
f 488/3/5 484/3/5 487/3/5
f 489/3/5 486/3/5 485/3/5
f 489/2/5 485/2/5 488/2/5
f 490/3/5 486/3/5 489/3/5
f 491/3/5 489/3/5 488/3/5
f 492/3/5 489/3/5 491/3/5
f 497/3/5 494/3/5 493/3/5
f 498/3/5 494/3/5 497/3/5
f 499/3/5 496/3/5 495/3/5
f 500/3/5 496/3/5 499/3/5
f 505/3/5 502/3/5 501/3/5
f 506/3/5 502/3/5 505/3/5
f 507/3/5 504/3/5 503/3/5
f 508/3/5 504/3/5 507/3/5
f 511/2/5 510/2/5 509/2/5
f 512/2/5 510/2/5 511/2/5
f 517/2/5 514/2/5 513/2/5
f 518/2/5 514/2/5 517/2/5
f 519/2/5 516/2/5 515/2/5
f 520/2/5 516/2/5 519/2/5
f 523/2/5 522/2/5 521/2/5
f 524/2/5 522/2/5 523/2/5
f 525/2/6 526/2/6 527/2/6
f 527/2/6 526/2/6 528/2/6
f 529/2/6 530/2/6 533/2/6
f 533/2/6 530/2/6 534/2/6
f 531/2/6 532/2/6 535/2/6
f 535/2/6 532/2/6 536/2/6
f 537/2/6 538/2/6 539/2/6
f 539/2/6 538/2/6 540/2/6
f 541/3/6 542/3/6 545/3/6
f 545/3/6 542/3/6 546/3/6
f 543/3/6 544/3/6 547/3/6
f 547/3/6 544/3/6 548/3/6
f 549/3/6 550/3/6 553/3/6
f 553/3/6 550/3/6 554/3/6
f 551/3/6 552/3/6 555/3/6
f 555/3/6 552/3/6 556/3/6
f 557/3/6 558/3/6 560/3/6
f 560/3/6 558/3/6 561/3/6
f 560/2/6 561/2/6 563/2/6
f 563/2/6 561/2/6 564/2/6
f 560/2/6 563/2/6 565/2/6
f 564/2/6 561/2/6 566/2/6
f 559/3/6 560/3/6 567/3/6
f 565/2/6 566/2/6 568/2/6
f 567/3/6 560/3/6 568/3/6
f 560/2/6 565/2/6 568/2/6
f 561/3/6 562/3/6 569/3/6
f 568/2/6 566/2/6 569/2/6
f 566/2/6 561/2/6 569/2/6
f 569/3/6 562/3/6 570/3/6
f 568/3/6 569/3/6 571/3/6
f 571/3/6 569/3/6 572/3/6
f 573/2/6 574/2/6 575/2/6
f 575/2/6 574/2/6 576/2/6
f 576/2/6 574/2/6 577/2/6
f 577/2/6 574/2/6 578/2/6
f 578/2/6 574/2/6 579/2/6
f 579/2/6 574/2/6 580/2/6
f 580/2/6 574/2/6 581/2/6
f 581/2/6 574/2/6 582/2/6
f 573/2/6 575/2/6 583/2/6
f 583/2/6 575/2/6 584/2/6
f 576/2/6 577/2/6 585/2/6
f 585/2/6 577/2/6 586/2/6
f 586/2/6 577/2/6 587/2/6
f 587/2/6 577/2/6 588/2/6
f 578/2/6 579/2/6 589/2/6
f 589/2/6 579/2/6 590/2/6
f 590/2/6 579/2/6 591/2/6
f 591/2/6 579/2/6 592/2/6
f 580/2/6 581/2/6 593/2/6
f 593/2/6 581/2/6 594/2/6
f 594/2/6 581/2/6 595/2/6
f 595/2/6 581/2/6 596/2/6
f 582/2/6 574/2/6 597/2/6
f 597/2/6 574/2/6 598/2/6
f 573/2/6 583/2/6 599/2/6
f 586/2/6 587/2/6 602/2/6
f 602/2/6 587/2/6 603/2/6
f 590/2/6 591/2/6 606/2/6
f 606/2/6 591/2/6 607/2/6
f 594/2/6 595/2/6 610/2/6
f 610/2/6 595/2/6 611/2/6
f 598/2/6 574/2/6 614/2/6
f 599/2/6 600/2/6 615/2/6
f 603/2/6 604/2/6 616/2/6
f 601/2/6 602/2/6 616/2/6
f 602/2/6 603/2/6 616/2/6
f 616/2/6 604/2/6 617/2/6
f 607/2/6 608/2/6 618/2/6
f 605/2/6 606/2/6 618/2/6
f 606/2/6 607/2/6 618/2/6
f 618/2/6 608/2/6 619/2/6
f 611/2/6 612/2/6 620/2/6
f 609/2/6 610/2/6 620/2/6
f 610/2/6 611/2/6 620/2/6
f 620/2/6 612/2/6 621/2/6
f 613/2/6 614/2/6 622/2/6
f 618/2/6 619/2/6 623/2/6
f 621/2/6 622/2/6 623/2/6
f 616/2/6 617/2/6 623/2/6
f 599/2/6 615/2/6 623/2/6
f 619/2/6 620/2/6 623/2/6
f 620/2/6 621/2/6 623/2/6
f 615/2/6 616/2/6 623/2/6
f 617/2/6 618/2/6 623/2/6
f 623/2/6 622/2/6 624/2/6
f 624/2/6 622/2/6 625/2/6
f 622/2/6 614/2/6 626/2/6
f 625/2/6 622/2/6 626/2/6
f 573/2/6 599/2/6 627/2/6
f 599/2/6 623/2/6 627/2/6
f 627/2/6 623/2/6 628/2/6
f 624/2/6 625/2/6 629/2/6
f 629/2/6 625/2/6 630/2/6
f 630/2/6 625/2/6 631/2/6
f 631/2/6 625/2/6 632/2/6
f 626/2/6 614/2/6 633/2/6
f 614/2/6 574/2/6 634/2/6
f 633/2/6 614/2/6 634/2/6
f 573/2/6 627/2/6 635/2/6
f 630/2/6 631/2/6 638/2/6
f 638/2/6 631/2/6 639/2/6
f 634/2/6 574/2/6 642/2/6
f 635/2/6 636/2/6 643/2/6
f 639/2/6 640/2/6 644/2/6
f 637/2/6 638/2/6 644/2/6
f 638/2/6 639/2/6 644/2/6
f 644/2/6 640/2/6 645/2/6
f 641/2/6 642/2/6 646/2/6
f 635/2/6 643/2/6 647/2/6
f 645/2/6 646/2/6 647/2/6
f 644/2/6 645/2/6 647/2/6
f 573/2/6 635/2/6 647/2/6
f 643/2/6 644/2/6 647/2/6
f 646/2/6 642/2/6 648/2/6
f 647/2/6 646/2/6 648/2/6
f 642/2/6 574/2/6 648/2/6
f 649/1/6 650/1/6 658/1/6
f 658/1/6 650/1/6 659/1/6
f 651/1/6 652/1/6 662/1/6
f 662/1/6 652/1/6 663/1/6
f 653/1/6 654/1/6 666/1/6
f 666/1/6 654/1/6 667/1/6
f 655/1/6 656/1/6 670/1/6
f 670/1/6 656/1/6 671/1/6
f 659/1/6 660/1/6 673/1/6
f 657/1/6 658/1/6 673/1/6
f 658/1/6 659/1/6 673/1/6
f 673/1/6 660/1/6 674/1/6
f 674/1/6 660/1/6 675/1/6
f 675/1/6 660/1/6 676/1/6
f 663/1/6 664/1/6 677/1/6
f 661/1/6 662/1/6 677/1/6
f 662/1/6 663/1/6 677/1/6
f 677/1/6 664/1/6 678/1/6
f 678/1/6 664/1/6 679/1/6
f 679/1/6 664/1/6 680/1/6
f 667/1/6 668/1/6 681/1/6
f 665/1/6 666/1/6 681/1/6
f 666/1/6 667/1/6 681/1/6
f 681/1/6 668/1/6 682/1/6
f 682/1/6 668/1/6 683/1/6
f 683/1/6 668/1/6 684/1/6
f 671/1/6 672/1/6 685/1/6
f 670/1/6 671/1/6 685/1/6
f 669/1/6 670/1/6 685/1/6
f 685/1/6 672/1/6 686/1/6
f 686/1/6 672/1/6 687/1/6
f 687/1/6 672/1/6 688/1/6
f 674/1/6 675/1/6 689/1/6
f 689/1/6 675/1/6 690/1/6
f 678/1/6 679/1/6 691/1/6
f 691/1/6 679/1/6 692/1/6
f 682/1/6 683/1/6 693/1/6
f 693/1/6 683/1/6 694/1/6
f 686/1/6 687/1/6 695/1/6
f 695/1/6 687/1/6 696/1/6
f 697/1/6 698/1/6 702/1/6
f 702/1/6 698/1/6 703/1/6
f 699/1/6 700/1/6 706/1/6
f 706/1/6 700/1/6 707/1/6
f 703/1/6 704/1/6 709/1/6
f 701/1/6 702/1/6 709/1/6
f 702/1/6 703/1/6 709/1/6
f 709/1/6 704/1/6 710/1/6
f 710/1/6 704/1/6 711/1/6
f 711/1/6 704/1/6 712/1/6
f 706/1/6 707/1/6 713/1/6
f 707/1/6 708/1/6 713/1/6
f 705/1/6 706/1/6 713/1/6
f 713/1/6 708/1/6 714/1/6
f 714/1/6 708/1/6 715/1/6
f 715/1/6 708/1/6 716/1/6
f 710/1/6 711/1/6 717/1/6
f 717/1/6 711/1/6 718/1/6
f 714/1/6 715/1/6 719/1/6
f 719/1/6 715/1/6 720/1/6
