# MagicaVoxel @ Ephtracy

# group
o 

# material
mtllib gunwheel.mtl
usemtl palette

# normals
vn -1 0 0
vn 1 0 0
vn 0 0 1
vn 0 0 -1
vn 0 -1 0
vn 0 1 0

# texcoords
vt 0.435547 0.5
vt 0.685547 0.5
vt 0.841797 0.5
vt 0.994141 0.5

# verts
v -0.3 0.2 1.7
v -0.3 0.2 1.6
v -0.3 0.2 1.2
v -0.3 0.2 1.1
v -0.3 0.5 1.7
v -0.3 0.5 1.6
v -0.3 0.5 1.2
v -0.3 0.5 1.1
v -0.2 -0.1 0.4
v -0.2 -0.1 0
v -0.2 0 0.3
v -0.2 0 0.1
v -0.2 0.1 1.7
v -0.2 0.1 1.6
v -0.2 0.1 1.2
v -0.2 0.1 1.1
v -0.2 0.1 0.8
v -0.2 0.1 0.5
v -0.2 0.1 0.4
v -0.2 0.1 0.3
v -0.2 0.2 1.7
v -0.2 0.2 1.6
v -0.2 0.2 1.2
v -0.2 0.2 1.1
v -0.2 0.2 0.9
v -0.2 0.2 0.8
v -0.2 0.2 0.2
v -0.2 0.2 0.1
v -0.2 0.2 0
v -0.2 0.3 0.9
v -0.2 0.3 0.8
v -0.2 0.3 0.7
v -0.2 0.3 0.4
v -0.2 0.3 0.2
v -0.2 0.4 0.8
v -0.2 0.4 0.7
v -0.2 0.4 0.6
v -0.2 0.4 0.5
v -0.2 0.4 0.4
v -0.2 0.5 1.7
v -0.2 0.5 1.6
v -0.2 0.5 1.2
v -0.2 0.5 1.1
v -0.2 0.5 0.7
v -0.2 0.5 0.6
v -0.2 0.6 1.7
v -0.2 0.6 1.6
v -0.2 0.6 1.2
v -0.2 0.6 1.1
v 0.1 0.2 1.7
v 0.1 0.2 1.6
v 0.1 0.5 1.7
v 0.1 0.5 1.6
v -0.2 0.2 1.7
v -0.2 0.2 1.6
v -0.2 0.5 1.7
v -0.2 0.5 1.6
v 0.1 0.1 1.7
v 0.1 0.1 1.6
v 0.1 0.1 1.2
v 0.1 0.1 1.1
v 0.1 0.1 0.8
v 0.1 0.1 0.5
v 0.1 0.1 0.4
v 0.1 0.2 1.7
v 0.1 0.2 1.6
v 0.1 0.2 1.2
v 0.1 0.2 1.1
v 0.1 0.2 0.9
v 0.1 0.2 0.8
v 0.1 0.2 0.4
v 0.1 0.2 0.2
v 0.1 0.3 0.9
v 0.1 0.3 0.8
v 0.1 0.3 0.7
v 0.1 0.3 0.4
v 0.1 0.3 0.2
v 0.1 0.4 0.8
v 0.1 0.4 0.7
v 0.1 0.4 0.6
v 0.1 0.4 0.5
v 0.1 0.4 0.4
v 0.1 0.5 1.7
v 0.1 0.5 1.6
v 0.1 0.5 1.2
v 0.1 0.5 1.1
v 0.1 0.5 0.7
v 0.1 0.5 0.6
v 0.1 0.6 1.7
v 0.1 0.6 1.6
v 0.1 0.6 1.2
v 0.1 0.6 1.1
v 0.2 -0.1 0.4
v 0.2 -0.1 0
v 0.2 0 0.3
v 0.2 0 0.1
v 0.2 0.1 0.3
v 0.2 0.1 0.1
v 0.2 0.2 1.7
v 0.2 0.2 1.6
v 0.2 0.2 1.2
v 0.2 0.2 1.1
v 0.2 0.2 0.4
v 0.2 0.2 0
v 0.2 0.5 1.7
v 0.2 0.5 1.6
v 0.2 0.5 1.2
v 0.2 0.5 1.1
v -0.3 0.2 1.7
v -0.3 0.5 1.7
v -0.2 0.1 1.7
v -0.2 0.2 1.7
v -0.2 0.5 1.7
v -0.2 0.6 1.7
v 0.1 0.1 1.7
v 0.1 0.2 1.7
v 0.1 0.5 1.7
v 0.1 0.6 1.7
v 0.2 0.2 1.7
v 0.2 0.5 1.7
v -0.2 0.2 1.6
v -0.2 0.5 1.6
v 0.1 0.2 1.6
v 0.1 0.5 1.6
v -0.2 0.1 0.8
v -0.2 0.2 0.8
v 0.1 0.1 0.8
v 0.1 0.2 0.8
v -0.2 -0.1 0.4
v -0.2 0.1 0.4
v -0.1 -0.1 0.4
v -0.1 0.1 0.4
v 0.1 -0.1 0.4
v 0.1 0.1 0.4
v 0.1 0.2 0.4
v 0.2 -0.1 0.4
v 0.2 0.2 0.4
v -0.3 0.2 1.1
v -0.3 0.5 1.1
v -0.2 0.1 1.1
v -0.2 0.2 1.1
v -0.2 0.5 1.1
v -0.2 0.6 1.1
v 0.1 0.1 1.1
v 0.1 0.2 1.1
v 0.1 0.5 1.1
v 0.1 0.6 1.1
v 0.2 0.2 1.1
v 0.2 0.5 1.1
v -0.2 0.4 0.6
v -0.2 0.5 0.6
v 0.1 0.4 0.6
v 0.1 0.5 0.6
v -0.2 0.3 0.4
v -0.2 0.4 0.4
v 0.1 0.3 0.4
v 0.1 0.4 0.4
v -0.2 0.2 0.2
v -0.2 0.3 0.2
v 0.1 0.2 0.2
v 0.1 0.3 0.2
v -0.2 -0.1 0
v -0.2 0.2 0
v -0.1 0 0
v -0.1 0.1 0
v 0.1 0 0
v 0.1 0.1 0
v 0.2 -0.1 0
v 0.2 0.2 0
v -0.2 -0.1 0.4
v -0.1 -0.1 0.4
v 0.1 -0.1 0.4
v 0.2 -0.1 0.4
v -0.1 -0.1 0.1
v 0.1 -0.1 0.1
v -0.2 -0.1 0
v 0.2 -0.1 0
v -0.2 0.1 1.7
v 0.1 0.1 1.7
v -0.2 0.1 1.6
v 0.1 0.1 1.6
v -0.2 0.1 1.2
v 0.1 0.1 1.2
v -0.2 0.1 1.1
v 0.1 0.1 1.1
v -0.2 0.1 0.8
v 0.1 0.1 0.8
v -0.2 0.1 0.5
v 0.1 0.1 0.5
v -0.2 0.1 0.4
v -0.1 0.1 0.4
v 0.1 0.1 0.4
v -0.3 0.2 1.7
v -0.2 0.2 1.7
v 0.1 0.2 1.7
v 0.2 0.2 1.7
v -0.3 0.2 1.6
v -0.2 0.2 1.6
v 0.1 0.2 1.6
v 0.2 0.2 1.6
v -0.3 0.2 1.2
v -0.2 0.2 1.2
v 0.1 0.2 1.2
v 0.2 0.2 1.2
v -0.3 0.2 1.1
v -0.2 0.2 1.1
v 0.1 0.2 1.1
v 0.2 0.2 1.1
v -0.2 0.2 0.9
v 0.1 0.2 0.9
v -0.2 0.2 0.8
v 0.1 0.2 0.8
v -0.2 0.5 1.7
v 0.1 0.5 1.7
v -0.2 0.5 1.6
v 0.1 0.5 1.6
v -0.2 0.2 1.7
v 0.1 0.2 1.7
v -0.2 0.2 1.6
v 0.1 0.2 1.6
v 0.1 0.2 0.4
v 0.2 0.2 0.4
v -0.2 0.2 0.2
v 0.1 0.2 0.2
v -0.2 0.2 0.1
v 0.1 0.2 0.1
v -0.2 0.2 0
v 0.2 0.2 0
v -0.2 0.3 0.4
v 0.1 0.3 0.4
v -0.2 0.3 0.2
v 0.1 0.3 0.2
v -0.2 0.4 0.6
v 0.1 0.4 0.6
v -0.2 0.4 0.5
v 0.1 0.4 0.5
v -0.2 0.4 0.4
v 0.1 0.4 0.4
v -0.3 0.5 1.7
v -0.2 0.5 1.7
v 0.1 0.5 1.7
v 0.2 0.5 1.7
v -0.3 0.5 1.6
v -0.2 0.5 1.6
v 0.1 0.5 1.6
v 0.2 0.5 1.6
v -0.3 0.5 1.2
v -0.2 0.5 1.2
v 0.1 0.5 1.2
v 0.2 0.5 1.2
v -0.3 0.5 1.1
v -0.2 0.5 1.1
v 0.1 0.5 1.1
v 0.2 0.5 1.1
v -0.2 0.5 0.7
v 0.1 0.5 0.7
v -0.2 0.5 0.6
v 0.1 0.5 0.6
v -0.2 0.6 1.7
v 0.1 0.6 1.7
v -0.2 0.6 1.6
v 0.1 0.6 1.6
v -0.2 0.6 1.2
v 0.1 0.6 1.2
v -0.2 0.6 1.1
v 0.1 0.6 1.1

# faces
f 5/4/1 2/4/1 1/4/1
f 6/2/1 3/2/1 2/2/1
f 6/4/1 2/4/1 5/4/1
f 7/4/1 4/4/1 3/4/1
f 7/2/1 3/2/1 6/2/1
f 8/4/1 4/4/1 7/4/1
f 11/4/1 10/4/1 9/4/1
f 12/4/1 10/4/1 11/4/1
f 19/4/1 11/4/1 9/4/1
f 20/2/1 12/2/1 11/2/1
f 20/4/1 11/4/1 19/4/1
f 21/4/1 14/4/1 13/4/1
f 22/2/1 15/2/1 14/2/1
f 22/4/1 14/4/1 21/4/1
f 23/4/1 16/4/1 15/4/1
f 23/2/1 15/2/1 22/2/1
f 24/4/1 16/4/1 23/4/1
f 26/2/1 18/2/1 17/2/1
f 27/2/1 12/2/1 20/2/1
f 27/2/1 20/2/1 19/2/1
f 28/4/1 10/4/1 12/4/1
f 28/2/1 12/2/1 27/2/1
f 29/4/1 10/4/1 28/4/1
f 30/2/1 25/2/1 24/2/1
f 30/4/1 26/4/1 25/4/1
f 31/2/1 18/2/1 26/2/1
f 31/4/1 26/4/1 30/4/1
f 32/2/1 18/2/1 31/2/1
f 33/4/1 19/4/1 18/4/1
f 33/2/1 27/2/1 19/2/1
f 34/2/1 27/2/1 33/2/1
f 35/4/1 32/4/1 31/4/1
f 35/2/1 31/2/1 30/2/1
f 36/2/1 18/2/1 32/2/1
f 36/4/1 32/4/1 35/4/1
f 37/2/1 18/2/1 36/2/1
f 38/4/1 33/4/1 18/4/1
f 38/2/1 18/2/1 37/2/1
f 39/4/1 33/4/1 38/4/1
f 43/2/1 35/2/1 30/2/1
f 43/2/1 30/2/1 24/2/1
f 43/2/1 36/2/1 35/2/1
f 44/4/1 37/4/1 36/4/1
f 44/2/1 36/2/1 43/2/1
f 45/4/1 37/4/1 44/4/1
f 46/4/1 41/4/1 40/4/1
f 47/2/1 42/2/1 41/2/1
f 47/4/1 41/4/1 46/4/1
f 48/4/1 43/4/1 42/4/1
f 48/2/1 42/2/1 47/2/1
f 49/4/1 43/4/1 48/4/1
f 52/4/1 51/4/1 50/4/1
f 53/4/1 51/4/1 52/4/1
f 54/4/2 55/4/2 56/4/2
f 56/4/2 55/4/2 57/4/2
f 58/4/2 59/4/2 65/4/2
f 59/2/2 60/2/2 66/2/2
f 65/4/2 59/4/2 66/4/2
f 60/4/2 61/4/2 67/4/2
f 66/2/2 60/2/2 67/2/2
f 67/4/2 61/4/2 68/4/2
f 62/2/2 63/2/2 70/2/2
f 63/4/2 64/4/2 71/4/2
f 69/4/2 70/4/2 73/4/2
f 68/2/2 69/2/2 73/2/2
f 70/2/2 63/2/2 74/2/2
f 73/4/2 70/4/2 74/4/2
f 74/2/2 63/2/2 75/2/2
f 71/2/2 72/2/2 76/2/2
f 63/4/2 71/4/2 76/4/2
f 76/2/2 72/2/2 77/2/2
f 74/4/2 75/4/2 78/4/2
f 73/2/2 74/2/2 78/2/2
f 75/2/2 63/2/2 79/2/2
f 78/4/2 75/4/2 79/4/2
f 79/2/2 63/2/2 80/2/2
f 63/4/2 76/4/2 81/4/2
f 80/2/2 63/2/2 81/2/2
f 81/4/2 76/4/2 82/4/2
f 73/2/2 78/2/2 86/2/2
f 68/2/2 73/2/2 86/2/2
f 78/2/2 79/2/2 86/2/2
f 79/4/2 80/4/2 87/4/2
f 86/2/2 79/2/2 87/2/2
f 87/4/2 80/4/2 88/4/2
f 83/4/2 84/4/2 89/4/2
f 84/2/2 85/2/2 90/2/2
f 89/4/2 84/4/2 90/4/2
f 85/4/2 86/4/2 91/4/2
f 90/2/2 85/2/2 91/2/2
f 91/4/2 86/4/2 92/4/2
f 93/4/2 94/4/2 95/4/2
f 95/4/2 94/4/2 96/4/2
f 93/4/2 95/4/2 97/4/2
f 95/2/2 96/2/2 97/2/2
f 96/4/2 94/4/2 98/4/2
f 97/2/2 96/2/2 98/2/2
f 93/4/2 97/4/2 103/4/2
f 97/4/2 98/4/2 103/4/2
f 98/4/2 94/4/2 104/4/2
f 103/4/2 98/4/2 104/4/2
f 99/4/2 100/4/2 105/4/2
f 100/2/2 101/2/2 106/2/2
f 105/4/2 100/4/2 106/4/2
f 101/4/2 102/4/2 107/4/2
f 106/2/2 101/2/2 107/2/2
f 107/4/2 102/4/2 108/4/2
f 112/4/3 110/4/3 109/4/3
f 113/4/3 110/4/3 112/4/3
f 115/4/3 112/4/3 111/4/3
f 116/4/3 112/4/3 115/4/3
f 117/4/3 114/4/3 113/4/3
f 118/4/3 114/4/3 117/4/3
f 119/4/3 117/4/3 116/4/3
f 120/4/3 117/4/3 119/4/3
f 123/3/3 122/3/3 121/3/3
f 124/3/3 122/3/3 123/3/3
f 127/2/3 126/2/3 125/2/3
f 128/2/3 126/2/3 127/2/3
f 131/4/3 130/4/3 129/4/3
f 132/4/3 130/4/3 131/4/3
f 133/2/3 132/2/3 131/2/3
f 134/2/3 132/2/3 133/2/3
f 136/4/3 134/4/3 133/4/3
f 136/4/3 135/4/3 134/4/3
f 137/4/3 135/4/3 136/4/3
f 138/4/4 139/4/4 141/4/4
f 141/4/4 139/4/4 142/4/4
f 140/4/4 141/4/4 144/4/4
f 144/4/4 141/4/4 145/4/4
f 142/4/4 143/4/4 146/4/4
f 146/4/4 143/4/4 147/4/4
f 145/4/4 146/4/4 148/4/4
f 148/4/4 146/4/4 149/4/4
f 150/4/4 151/4/4 152/4/4
f 152/4/4 151/4/4 153/4/4
f 154/4/4 155/4/4 156/4/4
f 156/4/4 155/4/4 157/4/4
f 158/2/4 159/2/4 160/2/4
f 160/2/4 159/2/4 161/2/4
f 162/4/4 163/4/4 164/4/4
f 164/4/4 163/4/4 165/4/4
f 162/4/4 164/4/4 166/4/4
f 164/2/4 165/2/4 166/2/4
f 165/4/4 163/4/4 167/4/4
f 166/2/4 165/2/4 167/2/4
f 162/4/4 166/4/4 168/4/4
f 166/4/4 167/4/4 168/4/4
f 167/4/4 163/4/4 169/4/4
f 168/4/4 167/4/4 169/4/4
f 174/4/5 171/4/5 170/4/5
f 174/2/5 172/2/5 171/2/5
f 175/4/5 173/4/5 172/4/5
f 175/2/5 172/2/5 174/2/5
f 176/4/5 174/4/5 170/4/5
f 176/4/5 175/4/5 174/4/5
f 177/4/5 173/4/5 175/4/5
f 177/4/5 175/4/5 176/4/5
f 180/4/5 179/4/5 178/4/5
f 181/4/5 179/4/5 180/4/5
f 182/2/5 181/2/5 180/2/5
f 183/2/5 181/2/5 182/2/5
f 184/4/5 183/4/5 182/4/5
f 185/4/5 183/4/5 184/4/5
f 188/2/5 187/2/5 186/2/5
f 189/2/5 187/2/5 188/2/5
f 190/4/5 189/4/5 188/4/5
f 191/4/5 189/4/5 190/4/5
f 192/4/5 189/4/5 191/4/5
f 197/4/5 194/4/5 193/4/5
f 198/4/5 194/4/5 197/4/5
f 199/4/5 196/4/5 195/4/5
f 200/4/5 196/4/5 199/4/5
f 201/2/5 198/2/5 197/2/5
f 202/2/5 198/2/5 201/2/5
f 203/2/5 200/2/5 199/2/5
f 204/2/5 200/2/5 203/2/5
f 205/4/5 202/4/5 201/4/5
f 206/4/5 202/4/5 205/4/5
f 207/4/5 204/4/5 203/4/5
f 208/4/5 204/4/5 207/4/5
f 209/2/5 207/2/5 206/2/5
f 210/2/5 207/2/5 209/2/5
f 211/4/5 210/4/5 209/4/5
f 212/4/5 210/4/5 211/4/5
f 215/4/5 214/4/5 213/4/5
f 216/4/5 214/4/5 215/4/5
f 217/4/6 218/4/6 219/4/6
f 219/4/6 218/4/6 220/4/6
f 221/4/6 222/4/6 224/4/6
f 223/2/6 224/2/6 225/2/6
f 224/4/6 222/4/6 226/4/6
f 225/2/6 224/2/6 226/2/6
f 225/4/6 226/4/6 227/4/6
f 226/4/6 222/4/6 228/4/6
f 227/4/6 226/4/6 228/4/6
f 229/2/6 230/2/6 231/2/6
f 231/2/6 230/2/6 232/2/6
f 233/2/6 234/2/6 235/2/6
f 235/2/6 234/2/6 236/2/6
f 235/4/6 236/4/6 237/4/6
f 237/4/6 236/4/6 238/4/6
f 239/4/6 240/4/6 243/4/6
f 243/4/6 240/4/6 244/4/6
f 241/4/6 242/4/6 245/4/6
f 245/4/6 242/4/6 246/4/6
f 243/2/6 244/2/6 247/2/6
f 247/2/6 244/2/6 248/2/6
f 245/2/6 246/2/6 249/2/6
f 249/2/6 246/2/6 250/2/6
f 247/4/6 248/4/6 251/4/6
f 251/4/6 248/4/6 252/4/6
f 249/4/6 250/4/6 253/4/6
f 253/4/6 250/4/6 254/4/6
f 252/2/6 253/2/6 255/2/6
f 255/2/6 253/2/6 256/2/6
f 255/4/6 256/4/6 257/4/6
f 257/4/6 256/4/6 258/4/6
f 259/4/6 260/4/6 261/4/6
f 261/4/6 260/4/6 262/4/6
f 261/2/6 262/2/6 263/2/6
f 263/2/6 262/2/6 264/2/6
f 263/4/6 264/4/6 265/4/6
f 265/4/6 264/4/6 266/4/6
