# MagicaVoxel @ Ephtracy

# group
o 

# material
mtllib cannon.mtl
usemtl palette

# normals
vn -1 0 0
vn 1 0 0
vn 0 0 1
vn 0 0 -1
vn 0 -1 0
vn 0 1 0

# texcoords
vt 0.986328 0.5
vt 0.994141 0.5

# verts
v -0.2 0.2 0.4
v -0.2 0.2 0.3
v -0.2 0.2 -0.4
v -0.2 0.3 -0.3
v -0.2 0.3 -0.4
v -0.2 0.4 0.4
v -0.2 0.4 0.3
v -0.2 0.4 -0.3
v -0.1 0 -0.1
v -0.1 0 -0.3
v -0.1 0.1 0.4
v -0.1 0.1 -0.1
v -0.1 0.1 -0.3
v -0.1 0.1 -0.4
v -0.1 0.2 0.4
v -0.1 0.2 0.3
v -0.1 0.2 -0.4
v -0.1 0.3 -0.3
v -0.1 0.3 -0.4
v -0.1 0.4 0.4
v -0.1 0.4 0.3
v -0.1 0.4 -0.3
v -0.1 0.4 -0.4
v -0.1 0.5 0.4
v -0.1 0.5 -0.3
v 0.1 0.2 0.4
v 0.1 0.2 0.3
v 0.1 0.2 -0.1
v 0.1 0.4 0.4
v 0.1 0.4 0.3
v 0.1 0.4 -0.1
v -0.1 0.2 0.4
v -0.1 0.2 0.3
v -0.1 0.2 -0.1
v -0.1 0.4 0.4
v -0.1 0.4 0.3
v -0.1 0.4 -0.1
v 0.1 0 -0.1
v 0.1 0 -0.3
v 0.1 0.1 0.4
v 0.1 0.1 -0.1
v 0.1 0.1 -0.3
v 0.1 0.1 -0.4
v 0.1 0.2 0.4
v 0.1 0.2 0.3
v 0.1 0.2 -0.4
v 0.1 0.3 -0.3
v 0.1 0.3 -0.4
v 0.1 0.4 0.4
v 0.1 0.4 0.3
v 0.1 0.4 -0.3
v 0.1 0.4 -0.4
v 0.1 0.5 0.4
v 0.1 0.5 -0.3
v 0.2 0.2 0.4
v 0.2 0.2 0.3
v 0.2 0.2 -0.4
v 0.2 0.3 -0.3
v 0.2 0.3 -0.4
v 0.2 0.4 0.4
v 0.2 0.4 0.3
v 0.2 0.4 -0.3
v -0.2 0.2 0.4
v -0.2 0.4 0.4
v -0.1 0.1 0.4
v -0.1 0.2 0.4
v -0.1 0.4 0.4
v -0.1 0.5 0.4
v 0.1 0.1 0.4
v 0.1 0.2 0.4
v 0.1 0.4 0.4
v 0.1 0.5 0.4
v 0.2 0.2 0.4
v 0.2 0.4 0.4
v -0.1 0 -0.1
v -0.1 0.1 -0.1
v -0.1 0.2 -0.1
v -0.1 0.4 -0.1
v 0.1 0 -0.1
v 0.1 0.1 -0.1
v 0.1 0.2 -0.1
v 0.1 0.4 -0.1
v -0.2 0.3 -0.3
v -0.2 0.4 -0.3
v -0.1 0 -0.3
v -0.1 0.1 -0.3
v -0.1 0.3 -0.3
v -0.1 0.4 -0.3
v -0.1 0.5 -0.3
v 0.1 0 -0.3
v 0.1 0.1 -0.3
v 0.1 0.3 -0.3
v 0.1 0.4 -0.3
v 0.1 0.5 -0.3
v 0.2 0.3 -0.3
v 0.2 0.4 -0.3
v -0.2 0.2 -0.4
v -0.2 0.3 -0.4
v -0.1 0.1 -0.4
v -0.1 0.2 -0.4
v -0.1 0.3 -0.4
v -0.1 0.4 -0.4
v 0.1 0.1 -0.4
v 0.1 0.2 -0.4
v 0.1 0.3 -0.4
v 0.1 0.4 -0.4
v 0.2 0.2 -0.4
v 0.2 0.3 -0.4
v -0.1 0 -0.1
v 0.1 0 -0.1
v -0.1 0 -0.3
v 0.1 0 -0.3
v -0.1 0.1 0.4
v 0.1 0.1 0.4
v -0.1 0.1 -0.1
v 0.1 0.1 -0.1
v -0.1 0.1 -0.3
v 0.1 0.1 -0.3
v -0.1 0.1 -0.4
v 0.1 0.1 -0.4
v -0.2 0.2 0.4
v -0.1 0.2 0.4
v 0.1 0.2 0.4
v 0.2 0.2 0.4
v -0.2 0.2 0.3
v -0.1 0.2 0.3
v 0.1 0.2 0.3
v 0.2 0.2 0.3
v -0.2 0.2 -0.4
v -0.1 0.2 -0.4
v 0.1 0.2 -0.4
v 0.2 0.2 -0.4
v -0.1 0.4 0.4
v 0.1 0.4 0.4
v -0.1 0.4 0.3
v 0.1 0.4 0.3
v -0.1 0.4 -0.1
v 0.1 0.4 -0.1
v -0.1 0.2 0.4
v 0.1 0.2 0.4
v -0.1 0.2 0.3
v 0.1 0.2 0.3
v -0.1 0.2 -0.1
v 0.1 0.2 -0.1
v -0.2 0.3 -0.3
v -0.1 0.3 -0.3
v 0.1 0.3 -0.3
v 0.2 0.3 -0.3
v -0.2 0.3 -0.4
v -0.1 0.3 -0.4
v 0.1 0.3 -0.4
v 0.2 0.3 -0.4
v -0.2 0.4 0.4
v -0.1 0.4 0.4
v 0.1 0.4 0.4
v 0.2 0.4 0.4
v -0.2 0.4 0.3
v -0.1 0.4 0.3
v 0.1 0.4 0.3
v 0.2 0.4 0.3
v -0.2 0.4 -0.3
v -0.1 0.4 -0.3
v 0.1 0.4 -0.3
v 0.2 0.4 -0.3
v -0.1 0.4 -0.4
v 0.1 0.4 -0.4
v -0.1 0.5 0.4
v 0.1 0.5 0.4
v -0.1 0.5 -0.3
v 0.1 0.5 -0.3

# faces
f 4/1/1 3/1/1 2/1/1
f 5/1/1 3/1/1 4/1/1
f 6/2/1 2/2/1 1/2/1
f 7/1/1 4/1/1 2/1/1
f 7/2/1 2/2/1 6/2/1
f 8/1/1 4/1/1 7/1/1
f 12/2/1 10/2/1 9/2/1
f 13/2/1 10/2/1 12/2/1
f 15/2/1 12/2/1 11/2/1
f 15/2/1 14/2/1 13/2/1
f 15/2/1 13/2/1 12/2/1
f 16/2/1 14/2/1 15/2/1
f 17/2/1 14/2/1 16/2/1
f 22/2/1 19/2/1 18/2/1
f 23/2/1 19/2/1 22/2/1
f 24/2/1 21/2/1 20/2/1
f 24/2/1 22/2/1 21/2/1
f 25/2/1 22/2/1 24/2/1
f 29/2/1 27/2/1 26/2/1
f 30/1/1 28/1/1 27/1/1
f 30/2/1 27/2/1 29/2/1
f 31/1/1 28/1/1 30/1/1
f 32/2/2 33/2/2 35/2/2
f 33/1/2 34/1/2 36/1/2
f 35/2/2 33/2/2 36/2/2
f 36/1/2 34/1/2 37/1/2
f 38/2/2 39/2/2 41/2/2
f 41/2/2 39/2/2 42/2/2
f 40/2/2 41/2/2 44/2/2
f 42/2/2 43/2/2 44/2/2
f 41/2/2 42/2/2 44/2/2
f 44/2/2 43/2/2 45/2/2
f 45/2/2 43/2/2 46/2/2
f 47/2/2 48/2/2 51/2/2
f 51/2/2 48/2/2 52/2/2
f 49/2/2 50/2/2 53/2/2
f 50/2/2 51/2/2 53/2/2
f 53/2/2 51/2/2 54/2/2
f 56/1/2 57/1/2 58/1/2
f 58/1/2 57/1/2 59/1/2
f 55/2/2 56/2/2 60/2/2
f 56/1/2 58/1/2 61/1/2
f 60/2/2 56/2/2 61/2/2
f 61/1/2 58/1/2 62/1/2
f 66/2/3 64/2/3 63/2/3
f 67/2/3 64/2/3 66/2/3
f 69/2/3 66/2/3 65/2/3
f 70/2/3 66/2/3 69/2/3
f 71/2/3 68/2/3 67/2/3
f 72/2/3 68/2/3 71/2/3
f 73/2/3 71/2/3 70/2/3
f 74/2/3 71/2/3 73/2/3
f 79/2/3 76/2/3 75/2/3
f 80/2/3 76/2/3 79/2/3
f 81/2/3 78/2/3 77/2/3
f 82/2/3 78/2/3 81/2/3
f 83/1/4 84/1/4 87/1/4
f 87/1/4 84/1/4 88/1/4
f 85/2/4 86/2/4 90/2/4
f 90/2/4 86/2/4 91/2/4
f 88/2/4 89/2/4 93/2/4
f 93/2/4 89/2/4 94/2/4
f 92/1/4 93/1/4 95/1/4
f 95/1/4 93/1/4 96/1/4
f 97/1/4 98/1/4 100/1/4
f 100/1/4 98/1/4 101/1/4
f 99/2/4 100/2/4 103/2/4
f 101/2/4 102/2/4 103/2/4
f 100/2/4 101/2/4 103/2/4
f 103/2/4 102/2/4 104/2/4
f 104/2/4 102/2/4 105/2/4
f 105/2/4 102/2/4 106/2/4
f 104/1/4 105/1/4 107/1/4
f 107/1/4 105/1/4 108/1/4
f 111/2/5 110/2/5 109/2/5
f 112/2/5 110/2/5 111/2/5
f 115/2/5 114/2/5 113/2/5
f 116/2/5 114/2/5 115/2/5
f 119/2/5 118/2/5 117/2/5
f 120/2/5 118/2/5 119/2/5
f 125/2/5 122/2/5 121/2/5
f 126/2/5 122/2/5 125/2/5
f 127/2/5 124/2/5 123/2/5
f 128/2/5 124/2/5 127/2/5
f 129/1/5 126/1/5 125/1/5
f 130/1/5 126/1/5 129/1/5
f 131/1/5 128/1/5 127/1/5
f 132/1/5 128/1/5 131/1/5
f 135/2/5 134/2/5 133/2/5
f 136/2/5 134/2/5 135/2/5
f 137/2/5 136/2/5 135/2/5
f 138/2/5 136/2/5 137/2/5
f 139/2/6 140/2/6 141/2/6
f 141/2/6 140/2/6 142/2/6
f 141/2/6 142/2/6 143/2/6
f 143/2/6 142/2/6 144/2/6
f 145/1/6 146/1/6 149/1/6
f 149/1/6 146/1/6 150/1/6
f 147/1/6 148/1/6 151/1/6
f 151/1/6 148/1/6 152/1/6
f 153/2/6 154/2/6 157/2/6
f 157/2/6 154/2/6 158/2/6
f 155/2/6 156/2/6 159/2/6
f 159/2/6 156/2/6 160/2/6
f 157/1/6 158/1/6 161/1/6
f 161/1/6 158/1/6 162/1/6
f 159/1/6 160/1/6 163/1/6
f 163/1/6 160/1/6 164/1/6
f 162/2/6 163/2/6 165/2/6
f 165/2/6 163/2/6 166/2/6
f 167/2/6 168/2/6 169/2/6
f 169/2/6 168/2/6 170/2/6
