# MagicaVoxel @ Ephtracy

# group
o 

# material
mtllib coin.mtl
usemtl palette

# normals
vn -1 0 0
vn 1 0 0
vn 0 0 1
vn 0 0 -1
vn 0 -1 0
vn 0 1 0

# texcoords
vt 0.0449219 0.5
vt 0.0683594 0.5
vt 0.849609 0.5
vt 0.994141 0.5

# verts
v -0.1 0 0.4
v -0.1 0 -0.4
v -0.1 0.1 0.6
v -0.1 0.1 0.4
v -0.1 0.1 -0.4
v -0.1 0.1 -0.6
v -0.1 0.2 0.7
v -0.1 0.2 0.6
v -0.1 0.2 0.4
v -0.1 0.2 -0.4
v -0.1 0.2 -0.6
v -0.1 0.2 -0.7
v -0.1 0.3 0.8
v -0.1 0.3 0.7
v -0.1 0.3 0.6
v -0.1 0.3 -0.6
v -0.1 0.3 -0.7
v -0.1 0.3 -0.8
v -0.1 0.4 0.9
v -0.1 0.4 0.8
v -0.1 0.4 0.7
v -0.1 0.4 -0.7
v -0.1 0.4 -0.8
v -0.1 0.4 -0.9
v -0.1 0.5 0.3
v -0.1 0.5 -0.3
v -0.1 0.6 1
v -0.1 0.6 0.9
v -0.1 0.6 0.8
v -0.1 0.6 0.4
v -0.1 0.6 0.3
v -0.1 0.6 0.2
v -0.1 0.6 -0.2
v -0.1 0.6 -0.3
v -0.1 0.6 -0.4
v -0.1 0.6 -0.8
v -0.1 0.6 -0.9
v -0.1 0.6 -1
v -0.1 0.7 0.5
v -0.1 0.7 0.4
v -0.1 0.7 0.3
v -0.1 0.7 0.2
v -0.1 0.7 -0.2
v -0.1 0.7 -0.3
v -0.1 0.7 -0.4
v -0.1 0.7 -0.5
v -0.1 0.8 0.6
v -0.1 0.8 0.5
v -0.1 0.8 0.4
v -0.1 0.8 0.3
v -0.1 0.8 -0.3
v -0.1 0.8 -0.4
v -0.1 0.8 -0.5
v -0.1 0.8 -0.6
v -0.1 0.9 0.5
v -0.1 0.9 0.4
v -0.1 0.9 -0.4
v -0.1 0.9 -0.5
v -0.1 1.8 0.5
v -0.1 1.8 0.4
v -0.1 1.8 -0.4
v -0.1 1.8 -0.5
v -0.1 1.9 0.6
v -0.1 1.9 0.5
v -0.1 1.9 0.4
v -0.1 1.9 0.3
v -0.1 1.9 -0.3
v -0.1 1.9 -0.4
v -0.1 1.9 -0.5
v -0.1 1.9 -0.6
v -0.1 2 0.5
v -0.1 2 0.4
v -0.1 2 0.3
v -0.1 2 0.2
v -0.1 2 -0.2
v -0.1 2 -0.3
v -0.1 2 -0.4
v -0.1 2 -0.5
v -0.1 2.1 1
v -0.1 2.1 0.9
v -0.1 2.1 0.8
v -0.1 2.1 0.4
v -0.1 2.1 0.3
v -0.1 2.1 0.2
v -0.1 2.1 -0.2
v -0.1 2.1 -0.3
v -0.1 2.1 -0.4
v -0.1 2.1 -0.8
v -0.1 2.1 -0.9
v -0.1 2.1 -1
v -0.1 2.2 0.3
v -0.1 2.2 -0.3
v -0.1 2.3 0.9
v -0.1 2.3 0.8
v -0.1 2.3 0.7
v -0.1 2.3 -0.7
v -0.1 2.3 -0.8
v -0.1 2.3 -0.9
v -0.1 2.4 0.8
v -0.1 2.4 0.7
v -0.1 2.4 0.6
v -0.1 2.4 -0.6
v -0.1 2.4 -0.7
v -0.1 2.4 -0.8
v -0.1 2.5 0.7
v -0.1 2.5 0.6
v -0.1 2.5 0.4
v -0.1 2.5 -0.4
v -0.1 2.5 -0.6
v -0.1 2.5 -0.7
v -0.1 2.6 0.6
v -0.1 2.6 0.4
v -0.1 2.6 -0.4
v -0.1 2.6 -0.6
v -0.1 2.7 0.4
v -0.1 2.7 -0.4
v 0.1 0 0.4
v 0.1 0 -0.4
v 0.1 0.1 0.6
v 0.1 0.1 0.4
v 0.1 0.1 -0.4
v 0.1 0.1 -0.6
v 0.1 0.2 0.7
v 0.1 0.2 0.6
v 0.1 0.2 0.4
v 0.1 0.2 -0.4
v 0.1 0.2 -0.6
v 0.1 0.2 -0.7
v 0.1 0.3 0.8
v 0.1 0.3 0.7
v 0.1 0.3 0.6
v 0.1 0.3 -0.6
v 0.1 0.3 -0.7
v 0.1 0.3 -0.8
v 0.1 0.4 0.9
v 0.1 0.4 0.8
v 0.1 0.4 0.7
v 0.1 0.4 -0.7
v 0.1 0.4 -0.8
v 0.1 0.4 -0.9
v 0.1 0.5 0.3
v 0.1 0.5 -0.3
v 0.1 0.6 1
v 0.1 0.6 0.9
v 0.1 0.6 0.8
v 0.1 0.6 0.4
v 0.1 0.6 0.3
v 0.1 0.6 0.2
v 0.1 0.6 -0.2
v 0.1 0.6 -0.3
v 0.1 0.6 -0.4
v 0.1 0.6 -0.8
v 0.1 0.6 -0.9
v 0.1 0.6 -1
v 0.1 0.7 0.5
v 0.1 0.7 0.4
v 0.1 0.7 0.3
v 0.1 0.7 0.2
v 0.1 0.7 -0.2
v 0.1 0.7 -0.3
v 0.1 0.7 -0.4
v 0.1 0.7 -0.5
v 0.1 0.8 0.6
v 0.1 0.8 0.5
v 0.1 0.8 0.4
v 0.1 0.8 0.3
v 0.1 0.8 -0.3
v 0.1 0.8 -0.4
v 0.1 0.8 -0.5
v 0.1 0.8 -0.6
v 0.1 0.9 0.5
v 0.1 0.9 0.4
v 0.1 0.9 -0.4
v 0.1 0.9 -0.5
v 0.1 1.8 0.5
v 0.1 1.8 0.4
v 0.1 1.8 -0.4
v 0.1 1.8 -0.5
v 0.1 1.9 0.6
v 0.1 1.9 0.5
v 0.1 1.9 0.4
v 0.1 1.9 0.3
v 0.1 1.9 -0.3
v 0.1 1.9 -0.4
v 0.1 1.9 -0.5
v 0.1 1.9 -0.6
v 0.1 2 0.5
v 0.1 2 0.4
v 0.1 2 0.3
v 0.1 2 0.2
v 0.1 2 -0.2
v 0.1 2 -0.3
v 0.1 2 -0.4
v 0.1 2 -0.5
v 0.1 2.1 1
v 0.1 2.1 0.9
v 0.1 2.1 0.8
v 0.1 2.1 0.4
v 0.1 2.1 0.3
v 0.1 2.1 0.2
v 0.1 2.1 -0.2
v 0.1 2.1 -0.3
v 0.1 2.1 -0.4
v 0.1 2.1 -0.8
v 0.1 2.1 -0.9
v 0.1 2.1 -1
v 0.1 2.2 0.3
v 0.1 2.2 -0.3
v 0.1 2.3 0.9
v 0.1 2.3 0.8
v 0.1 2.3 0.7
v 0.1 2.3 -0.7
v 0.1 2.3 -0.8
v 0.1 2.3 -0.9
v 0.1 2.4 0.8
v 0.1 2.4 0.7
v 0.1 2.4 0.6
v 0.1 2.4 -0.6
v 0.1 2.4 -0.7
v 0.1 2.4 -0.8
v 0.1 2.5 0.7
v 0.1 2.5 0.6
v 0.1 2.5 0.4
v 0.1 2.5 -0.4
v 0.1 2.5 -0.6
v 0.1 2.5 -0.7
v 0.1 2.6 0.6
v 0.1 2.6 0.4
v 0.1 2.6 -0.4
v 0.1 2.6 -0.6
v 0.1 2.7 0.4
v 0.1 2.7 -0.4
v -0.1 0.6 1
v -0.1 2.1 1
v 0.1 0.6 1
v 0.1 2.1 1
v -0.1 0.4 0.9
v -0.1 0.6 0.9
v -0.1 2.1 0.9
v -0.1 2.3 0.9
v 0.1 0.4 0.9
v 0.1 0.6 0.9
v 0.1 2.1 0.9
v 0.1 2.3 0.9
v -0.1 0.3 0.8
v -0.1 0.4 0.8
v -0.1 2.3 0.8
v -0.1 2.4 0.8
v 0.1 0.3 0.8
v 0.1 0.4 0.8
v 0.1 2.3 0.8
v 0.1 2.4 0.8
v -0.1 0.2 0.7
v -0.1 0.3 0.7
v -0.1 2.4 0.7
v -0.1 2.5 0.7
v 0.1 0.2 0.7
v 0.1 0.3 0.7
v 0.1 2.4 0.7
v 0.1 2.5 0.7
v -0.1 0.1 0.6
v -0.1 0.2 0.6
v -0.1 2.5 0.6
v -0.1 2.6 0.6
v 0.1 0.1 0.6
v 0.1 0.2 0.6
v 0.1 2.5 0.6
v 0.1 2.6 0.6
v -0.1 0 0.4
v -0.1 0.1 0.4
v -0.1 2.6 0.4
v -0.1 2.7 0.4
v 0.1 0 0.4
v 0.1 0.1 0.4
v 0.1 2.6 0.4
v 0.1 2.7 0.4
v -0.1 0 -0.4
v -0.1 0.1 -0.4
v -0.1 2.6 -0.4
v -0.1 2.7 -0.4
v 0.1 0 -0.4
v 0.1 0.1 -0.4
v 0.1 2.6 -0.4
v 0.1 2.7 -0.4
v -0.1 0.1 -0.6
v -0.1 0.2 -0.6
v -0.1 2.5 -0.6
v -0.1 2.6 -0.6
v 0.1 0.1 -0.6
v 0.1 0.2 -0.6
v 0.1 2.5 -0.6
v 0.1 2.6 -0.6
v -0.1 0.2 -0.7
v -0.1 0.3 -0.7
v -0.1 2.4 -0.7
v -0.1 2.5 -0.7
v 0.1 0.2 -0.7
v 0.1 0.3 -0.7
v 0.1 2.4 -0.7
v 0.1 2.5 -0.7
v -0.1 0.3 -0.8
v -0.1 0.4 -0.8
v -0.1 2.3 -0.8
v -0.1 2.4 -0.8
v 0.1 0.3 -0.8
v 0.1 0.4 -0.8
v 0.1 2.3 -0.8
v 0.1 2.4 -0.8
v -0.1 0.4 -0.9
v -0.1 0.6 -0.9
v -0.1 2.1 -0.9
v -0.1 2.3 -0.9
v 0.1 0.4 -0.9
v 0.1 0.6 -0.9
v 0.1 2.1 -0.9
v 0.1 2.3 -0.9
v -0.1 0.6 -1
v -0.1 2.1 -1
v 0.1 0.6 -1
v 0.1 2.1 -1
v -0.1 0 0.4
v 0.1 0 0.4
v -0.1 0 -0.4
v 0.1 0 -0.4
v -0.1 0.1 0.6
v 0.1 0.1 0.6
v -0.1 0.1 0.4
v 0.1 0.1 0.4
v -0.1 0.1 -0.4
v 0.1 0.1 -0.4
v -0.1 0.1 -0.6
v 0.1 0.1 -0.6
v -0.1 0.2 0.7
v 0.1 0.2 0.7
v -0.1 0.2 0.6
v 0.1 0.2 0.6
v -0.1 0.2 -0.6
v 0.1 0.2 -0.6
v -0.1 0.2 -0.7
v 0.1 0.2 -0.7
v -0.1 0.3 0.8
v 0.1 0.3 0.8
v -0.1 0.3 0.7
v 0.1 0.3 0.7
v -0.1 0.3 -0.7
v 0.1 0.3 -0.7
v -0.1 0.3 -0.8
v 0.1 0.3 -0.8
v -0.1 0.4 0.9
v 0.1 0.4 0.9
v -0.1 0.4 0.8
v 0.1 0.4 0.8
v -0.1 0.4 -0.8
v 0.1 0.4 -0.8
v -0.1 0.4 -0.9
v 0.1 0.4 -0.9
v -0.1 0.6 1
v 0.1 0.6 1
v -0.1 0.6 0.9
v 0.1 0.6 0.9
v -0.1 0.6 -0.9
v 0.1 0.6 -0.9
v -0.1 0.6 -1
v 0.1 0.6 -1
v -0.1 2.1 1
v 0.1 2.1 1
v -0.1 2.1 0.9
v 0.1 2.1 0.9
v -0.1 2.1 -0.9
v 0.1 2.1 -0.9
v -0.1 2.1 -1
v 0.1 2.1 -1
v -0.1 2.3 0.9
v 0.1 2.3 0.9
v -0.1 2.3 0.8
v 0.1 2.3 0.8
v -0.1 2.3 -0.8
v 0.1 2.3 -0.8
v -0.1 2.3 -0.9
v 0.1 2.3 -0.9
v -0.1 2.4 0.8
v 0.1 2.4 0.8
v -0.1 2.4 0.7
v 0.1 2.4 0.7
v -0.1 2.4 -0.7
v 0.1 2.4 -0.7
v -0.1 2.4 -0.8
v 0.1 2.4 -0.8
v -0.1 2.5 0.7
v 0.1 2.5 0.7
v -0.1 2.5 0.6
v 0.1 2.5 0.6
v -0.1 2.5 -0.6
v 0.1 2.5 -0.6
v -0.1 2.5 -0.7
v 0.1 2.5 -0.7
v -0.1 2.6 0.6
v 0.1 2.6 0.6
v -0.1 2.6 0.4
v 0.1 2.6 0.4
v -0.1 2.6 -0.4
v 0.1 2.6 -0.4
v -0.1 2.6 -0.6
v 0.1 2.6 -0.6
v -0.1 2.7 0.4
v 0.1 2.7 0.4
v -0.1 2.7 -0.4
v 0.1 2.7 -0.4

# faces
f 4/4/1 2/4/1 1/4/1
f 5/4/1 2/4/1 4/4/1
f 8/4/1 4/4/1 3/4/1
f 9/1/1 5/1/1 4/1/1
f 9/4/1 4/4/1 8/4/1
f 10/4/1 6/4/1 5/4/1
f 10/1/1 5/1/1 9/1/1
f 11/4/1 6/4/1 10/4/1
f 14/4/1 8/4/1 7/4/1
f 15/1/1 9/1/1 8/1/1
f 15/1/1 10/1/1 9/1/1
f 15/4/1 8/4/1 14/4/1
f 15/1/1 11/1/1 10/1/1
f 16/4/1 12/4/1 11/4/1
f 16/1/1 11/1/1 15/1/1
f 17/4/1 12/4/1 16/4/1
f 20/4/1 14/4/1 13/4/1
f 21/1/1 15/1/1 14/1/1
f 21/1/1 16/1/1 15/1/1
f 21/4/1 14/4/1 20/4/1
f 21/1/1 17/1/1 16/1/1
f 22/4/1 18/4/1 17/4/1
f 22/1/1 17/1/1 21/1/1
f 23/4/1 18/4/1 22/4/1
f 25/1/1 21/1/1 20/1/1
f 25/1/1 22/1/1 21/1/1
f 25/1/1 23/1/1 22/1/1
f 26/1/1 23/1/1 25/1/1
f 28/4/1 20/4/1 19/4/1
f 29/1/1 25/1/1 20/1/1
f 29/4/1 20/4/1 28/4/1
f 30/1/1 25/1/1 29/1/1
f 31/4/1 26/4/1 25/4/1
f 31/1/1 25/1/1 30/1/1
f 32/4/1 26/4/1 31/4/1
f 33/4/1 26/4/1 32/4/1
f 34/1/1 23/1/1 26/1/1
f 34/4/1 26/4/1 33/4/1
f 35/1/1 23/1/1 34/1/1
f 36/4/1 24/4/1 23/4/1
f 36/1/1 23/1/1 35/1/1
f 37/4/1 24/4/1 36/4/1
f 39/1/1 30/1/1 29/1/1
f 39/1/1 29/1/1 28/1/1
f 40/4/1 31/4/1 30/4/1
f 40/1/1 30/1/1 39/1/1
f 41/3/1 32/3/1 31/3/1
f 41/4/1 31/4/1 40/4/1
f 42/2/1 33/2/1 32/2/1
f 42/3/1 32/3/1 41/3/1
f 43/3/1 34/3/1 33/3/1
f 43/2/1 33/2/1 42/2/1
f 44/4/1 35/4/1 34/4/1
f 44/3/1 34/3/1 43/3/1
f 45/1/1 37/1/1 36/1/1
f 45/4/1 35/4/1 44/4/1
f 45/1/1 36/1/1 35/1/1
f 46/1/1 37/1/1 45/1/1
f 47/1/1 39/1/1 28/1/1
f 48/4/1 40/4/1 39/4/1
f 48/1/1 39/1/1 47/1/1
f 49/3/1 41/3/1 40/3/1
f 49/4/1 40/4/1 48/4/1
f 50/2/1 43/2/1 42/2/1
f 50/3/1 41/3/1 49/3/1
f 50/2/1 44/2/1 43/2/1
f 50/2/1 42/2/1 41/2/1
f 51/3/1 45/3/1 44/3/1
f 51/2/1 44/2/1 50/2/1
f 52/4/1 46/4/1 45/4/1
f 52/3/1 45/3/1 51/3/1
f 53/1/1 37/1/1 46/1/1
f 53/4/1 46/4/1 52/4/1
f 54/1/1 37/1/1 53/1/1
f 55/3/1 49/3/1 48/3/1
f 55/4/1 48/4/1 47/4/1
f 56/2/1 51/2/1 50/2/1
f 56/3/1 49/3/1 55/3/1
f 56/2/1 52/2/1 51/2/1
f 56/2/1 50/2/1 49/2/1
f 57/3/1 53/3/1 52/3/1
f 57/2/1 52/2/1 56/2/1
f 58/4/1 54/4/1 53/4/1
f 58/3/1 53/3/1 57/3/1
f 59/2/1 57/2/1 56/2/1
f 59/4/1 55/4/1 47/4/1
f 59/2/1 58/2/1 57/2/1
f 59/2/1 56/2/1 55/2/1
f 60/2/1 58/2/1 59/2/1
f 61/2/1 58/2/1 60/2/1
f 62/4/1 54/4/1 58/4/1
f 62/2/1 58/2/1 61/2/1
f 63/1/1 47/1/1 28/1/1
f 63/4/1 59/4/1 47/4/1
f 64/3/1 60/3/1 59/3/1
f 64/4/1 59/4/1 63/4/1
f 65/2/1 61/2/1 60/2/1
f 65/3/1 60/3/1 64/3/1
f 66/2/1 61/2/1 65/2/1
f 67/2/1 61/2/1 66/2/1
f 68/3/1 62/3/1 61/3/1
f 68/2/1 61/2/1 67/2/1
f 69/4/1 54/4/1 62/4/1
f 69/3/1 62/3/1 68/3/1
f 70/1/1 37/1/1 54/1/1
f 70/4/1 54/4/1 69/4/1
f 71/1/1 64/1/1 63/1/1
f 71/4/1 65/4/1 64/4/1
f 72/3/1 66/3/1 65/3/1
f 72/4/1 65/4/1 71/4/1
f 73/2/1 67/2/1 66/2/1
f 73/3/1 66/3/1 72/3/1
f 74/2/1 67/2/1 73/2/1
f 75/2/1 67/2/1 74/2/1
f 76/3/1 68/3/1 67/3/1
f 76/2/1 67/2/1 75/2/1
f 77/4/1 69/4/1 68/4/1
f 77/3/1 68/3/1 76/3/1
f 78/1/1 70/1/1 69/1/1
f 78/4/1 69/4/1 77/4/1
f 79/4/1 28/4/1 27/4/1
f 80/1/1 72/1/1 71/1/1
f 80/4/1 28/4/1 79/4/1
f 80/1/1 63/1/1 28/1/1
f 80/1/1 71/1/1 63/1/1
f 81/1/1 72/1/1 80/1/1
f 82/4/1 73/4/1 72/4/1
f 82/1/1 72/1/1 81/1/1
f 83/3/1 74/3/1 73/3/1
f 83/4/1 73/4/1 82/4/1
f 84/2/1 75/2/1 74/2/1
f 84/3/1 74/3/1 83/3/1
f 85/3/1 76/3/1 75/3/1
f 85/2/1 75/2/1 84/2/1
f 86/4/1 77/4/1 76/4/1
f 86/3/1 76/3/1 85/3/1
f 87/1/1 78/1/1 77/1/1
f 87/4/1 77/4/1 86/4/1
f 88/1/1 37/1/1 70/1/1
f 88/1/1 78/1/1 87/1/1
f 88/1/1 70/1/1 78/1/1
f 89/4/1 38/4/1 37/4/1
f 89/1/1 37/1/1 88/1/1
f 90/4/1 38/4/1 89/4/1
f 91/4/1 84/4/1 83/4/1
f 91/1/1 83/1/1 82/1/1
f 91/4/1 86/4/1 85/4/1
f 91/1/1 82/1/1 81/1/1
f 91/4/1 85/4/1 84/4/1
f 92/1/1 87/1/1 86/1/1
f 92/4/1 86/4/1 91/4/1
f 92/1/1 88/1/1 87/1/1
f 93/4/1 81/4/1 80/4/1
f 94/1/1 91/1/1 81/1/1
f 94/4/1 81/4/1 93/4/1
f 94/1/1 92/1/1 91/1/1
f 95/1/1 92/1/1 94/1/1
f 96/1/1 88/1/1 92/1/1
f 96/1/1 92/1/1 95/1/1
f 97/4/1 89/4/1 88/4/1
f 97/1/1 88/1/1 96/1/1
f 98/4/1 89/4/1 97/4/1
f 99/4/1 95/4/1 94/4/1
f 100/1/1 96/1/1 95/1/1
f 100/4/1 95/4/1 99/4/1
f 101/1/1 96/1/1 100/1/1
f 102/1/1 96/1/1 101/1/1
f 103/4/1 97/4/1 96/4/1
f 103/1/1 96/1/1 102/1/1
f 104/4/1 97/4/1 103/4/1
f 105/4/1 101/4/1 100/4/1
f 106/1/1 102/1/1 101/1/1
f 106/4/1 101/4/1 105/4/1
f 107/1/1 102/1/1 106/1/1
f 108/1/1 102/1/1 107/1/1
f 109/4/1 103/4/1 102/4/1
f 109/1/1 102/1/1 108/1/1
f 110/4/1 103/4/1 109/4/1
f 111/4/1 107/4/1 106/4/1
f 112/1/1 108/1/1 107/1/1
f 112/4/1 107/4/1 111/4/1
f 113/4/1 109/4/1 108/4/1
f 113/1/1 108/1/1 112/1/1
f 114/4/1 109/4/1 113/4/1
f 115/4/1 113/4/1 112/4/1
f 116/4/1 113/4/1 115/4/1
f 117/4/2 118/4/2 120/4/2
f 120/4/2 118/4/2 121/4/2
f 119/4/2 120/4/2 124/4/2
f 120/1/2 121/1/2 125/1/2
f 124/4/2 120/4/2 125/4/2
f 121/4/2 122/4/2 126/4/2
f 125/1/2 121/1/2 126/1/2
f 126/4/2 122/4/2 127/4/2
f 123/4/2 124/4/2 130/4/2
f 124/1/2 125/1/2 131/1/2
f 125/1/2 126/1/2 131/1/2
f 130/4/2 124/4/2 131/4/2
f 126/1/2 127/1/2 131/1/2
f 127/4/2 128/4/2 132/4/2
f 131/1/2 127/1/2 132/1/2
f 132/4/2 128/4/2 133/4/2
f 129/4/2 130/4/2 136/4/2
f 130/1/2 131/1/2 137/1/2
f 131/1/2 132/1/2 137/1/2
f 136/4/2 130/4/2 137/4/2
f 132/1/2 133/1/2 137/1/2
f 133/4/2 134/4/2 138/4/2
f 137/1/2 133/1/2 138/1/2
f 138/4/2 134/4/2 139/4/2
f 136/1/2 137/1/2 141/1/2
f 137/1/2 138/1/2 141/1/2
f 138/1/2 139/1/2 141/1/2
f 141/1/2 139/1/2 142/1/2
f 135/4/2 136/4/2 144/4/2
f 136/1/2 141/1/2 145/1/2
f 144/4/2 136/4/2 145/4/2
f 145/1/2 141/1/2 146/1/2
f 141/4/2 142/4/2 147/4/2
f 146/1/2 141/1/2 147/1/2
f 147/4/2 142/4/2 148/4/2
f 148/4/2 142/4/2 149/4/2
f 142/1/2 139/1/2 150/1/2
f 149/4/2 142/4/2 150/4/2
f 150/1/2 139/1/2 151/1/2
f 139/4/2 140/4/2 152/4/2
f 151/1/2 139/1/2 152/1/2
f 152/4/2 140/4/2 153/4/2
f 145/1/2 146/1/2 155/1/2
f 144/1/2 145/1/2 155/1/2
f 146/4/2 147/4/2 156/4/2
f 155/1/2 146/1/2 156/1/2
f 147/3/2 148/3/2 157/3/2
f 156/4/2 147/4/2 157/4/2
f 148/2/2 149/2/2 158/2/2
f 157/3/2 148/3/2 158/3/2
f 149/3/2 150/3/2 159/3/2
f 158/2/2 149/2/2 159/2/2
f 150/4/2 151/4/2 160/4/2
f 159/3/2 150/3/2 160/3/2
f 152/1/2 153/1/2 161/1/2
f 160/4/2 151/4/2 161/4/2
f 151/1/2 152/1/2 161/1/2
f 161/1/2 153/1/2 162/1/2
f 144/1/2 155/1/2 163/1/2
f 155/4/2 156/4/2 164/4/2
f 163/1/2 155/1/2 164/1/2
f 156/3/2 157/3/2 165/3/2
f 164/4/2 156/4/2 165/4/2
f 158/2/2 159/2/2 166/2/2
f 165/3/2 157/3/2 166/3/2
f 159/2/2 160/2/2 166/2/2
f 157/2/2 158/2/2 166/2/2
f 160/3/2 161/3/2 167/3/2
f 166/2/2 160/2/2 167/2/2
f 161/4/2 162/4/2 168/4/2
f 167/3/2 161/3/2 168/3/2
f 162/1/2 153/1/2 169/1/2
f 168/4/2 162/4/2 169/4/2
f 169/1/2 153/1/2 170/1/2
f 164/3/2 165/3/2 171/3/2
f 163/4/2 164/4/2 171/4/2
f 166/2/2 167/2/2 172/2/2
f 171/3/2 165/3/2 172/3/2
f 167/2/2 168/2/2 172/2/2
f 165/2/2 166/2/2 172/2/2
f 168/3/2 169/3/2 173/3/2
f 172/2/2 168/2/2 173/2/2
f 169/4/2 170/4/2 174/4/2
f 173/3/2 169/3/2 174/3/2
f 172/2/2 173/2/2 175/2/2
f 163/4/2 171/4/2 175/4/2
f 173/2/2 174/2/2 175/2/2
f 171/2/2 172/2/2 175/2/2
f 175/2/2 174/2/2 176/2/2
f 176/2/2 174/2/2 177/2/2
f 174/4/2 170/4/2 178/4/2
f 177/2/2 174/2/2 178/2/2
f 144/1/2 163/1/2 179/1/2
f 163/4/2 175/4/2 179/4/2
f 175/3/2 176/3/2 180/3/2
f 179/4/2 175/4/2 180/4/2
f 176/2/2 177/2/2 181/2/2
f 180/3/2 176/3/2 181/3/2
f 181/2/2 177/2/2 182/2/2
f 182/2/2 177/2/2 183/2/2
f 177/3/2 178/3/2 184/3/2
f 183/2/2 177/2/2 184/2/2
f 178/4/2 170/4/2 185/4/2
f 184/3/2 178/3/2 185/3/2
f 170/1/2 153/1/2 186/1/2
f 185/4/2 170/4/2 186/4/2
f 179/1/2 180/1/2 187/1/2
f 180/4/2 181/4/2 187/4/2
f 181/3/2 182/3/2 188/3/2
f 187/4/2 181/4/2 188/4/2
f 182/2/2 183/2/2 189/2/2
f 188/3/2 182/3/2 189/3/2
f 189/2/2 183/2/2 190/2/2
f 190/2/2 183/2/2 191/2/2
f 183/3/2 184/3/2 192/3/2
f 191/2/2 183/2/2 192/2/2
f 184/4/2 185/4/2 193/4/2
f 192/3/2 184/3/2 193/3/2
f 185/1/2 186/1/2 194/1/2
f 193/4/2 185/4/2 194/4/2
f 143/4/2 144/4/2 195/4/2
f 187/1/2 188/1/2 196/1/2
f 195/4/2 144/4/2 196/4/2
f 144/1/2 179/1/2 196/1/2
f 179/1/2 187/1/2 196/1/2
f 196/1/2 188/1/2 197/1/2
f 188/4/2 189/4/2 198/4/2
f 197/1/2 188/1/2 198/1/2
f 189/3/2 190/3/2 199/3/2
f 198/4/2 189/4/2 199/4/2
f 190/2/2 191/2/2 200/2/2
f 199/3/2 190/3/2 200/3/2
f 191/3/2 192/3/2 201/3/2
f 200/2/2 191/2/2 201/2/2
f 192/4/2 193/4/2 202/4/2
f 201/3/2 192/3/2 202/3/2
f 193/1/2 194/1/2 203/1/2
f 202/4/2 193/4/2 203/4/2
f 186/1/2 153/1/2 204/1/2
f 203/1/2 194/1/2 204/1/2
f 194/1/2 186/1/2 204/1/2
f 153/4/2 154/4/2 205/4/2
f 204/1/2 153/1/2 205/1/2
f 205/4/2 154/4/2 206/4/2
f 199/4/2 200/4/2 207/4/2
f 198/1/2 199/1/2 207/1/2
f 201/4/2 202/4/2 207/4/2
f 197/1/2 198/1/2 207/1/2
f 200/4/2 201/4/2 207/4/2
f 202/1/2 203/1/2 208/1/2
f 207/4/2 202/4/2 208/4/2
f 203/1/2 204/1/2 208/1/2
f 196/4/2 197/4/2 209/4/2
f 197/1/2 207/1/2 210/1/2
f 209/4/2 197/4/2 210/4/2
f 207/1/2 208/1/2 210/1/2
f 210/1/2 208/1/2 211/1/2
f 208/1/2 204/1/2 212/1/2
f 211/1/2 208/1/2 212/1/2
f 204/4/2 205/4/2 213/4/2
f 212/1/2 204/1/2 213/1/2
f 213/4/2 205/4/2 214/4/2
f 210/4/2 211/4/2 215/4/2
f 211/1/2 212/1/2 216/1/2
f 215/4/2 211/4/2 216/4/2
f 216/1/2 212/1/2 217/1/2
f 217/1/2 212/1/2 218/1/2
f 212/4/2 213/4/2 219/4/2
f 218/1/2 212/1/2 219/1/2
f 219/4/2 213/4/2 220/4/2
f 216/4/2 217/4/2 221/4/2
f 217/1/2 218/1/2 222/1/2
f 221/4/2 217/4/2 222/4/2
f 222/1/2 218/1/2 223/1/2
f 223/1/2 218/1/2 224/1/2
f 218/4/2 219/4/2 225/4/2
f 224/1/2 218/1/2 225/1/2
f 225/4/2 219/4/2 226/4/2
f 222/4/2 223/4/2 227/4/2
f 223/1/2 224/1/2 228/1/2
f 227/4/2 223/4/2 228/4/2
f 224/4/2 225/4/2 229/4/2
f 228/1/2 224/1/2 229/1/2
f 229/4/2 225/4/2 230/4/2
f 228/4/2 229/4/2 231/4/2
f 231/4/2 229/4/2 232/4/2
f 235/4/3 234/4/3 233/4/3
f 236/4/3 234/4/3 235/4/3
f 241/4/3 238/4/3 237/4/3
f 242/4/3 238/4/3 241/4/3
f 243/4/3 240/4/3 239/4/3
f 244/4/3 240/4/3 243/4/3
f 249/4/3 246/4/3 245/4/3
f 250/4/3 246/4/3 249/4/3
f 251/4/3 248/4/3 247/4/3
f 252/4/3 248/4/3 251/4/3
f 257/4/3 254/4/3 253/4/3
f 258/4/3 254/4/3 257/4/3
f 259/4/3 256/4/3 255/4/3
f 260/4/3 256/4/3 259/4/3
f 265/4/3 262/4/3 261/4/3
f 266/4/3 262/4/3 265/4/3
f 267/4/3 264/4/3 263/4/3
f 268/4/3 264/4/3 267/4/3
f 273/4/3 270/4/3 269/4/3
f 274/4/3 270/4/3 273/4/3
f 275/4/3 272/4/3 271/4/3
f 276/4/3 272/4/3 275/4/3
f 277/4/4 278/4/4 281/4/4
f 281/4/4 278/4/4 282/4/4
f 279/4/4 280/4/4 283/4/4
f 283/4/4 280/4/4 284/4/4
f 285/4/4 286/4/4 289/4/4
f 289/4/4 286/4/4 290/4/4
f 287/4/4 288/4/4 291/4/4
f 291/4/4 288/4/4 292/4/4
f 293/4/4 294/4/4 297/4/4
f 297/4/4 294/4/4 298/4/4
f 295/4/4 296/4/4 299/4/4
f 299/4/4 296/4/4 300/4/4
f 301/4/4 302/4/4 305/4/4
f 305/4/4 302/4/4 306/4/4
f 303/4/4 304/4/4 307/4/4
f 307/4/4 304/4/4 308/4/4
f 309/4/4 310/4/4 313/4/4
f 313/4/4 310/4/4 314/4/4
f 311/4/4 312/4/4 315/4/4
f 315/4/4 312/4/4 316/4/4
f 317/4/4 318/4/4 319/4/4
f 319/4/4 318/4/4 320/4/4
f 323/4/5 322/4/5 321/4/5
f 324/4/5 322/4/5 323/4/5
f 327/4/5 326/4/5 325/4/5
f 328/4/5 326/4/5 327/4/5
f 331/4/5 330/4/5 329/4/5
f 332/4/5 330/4/5 331/4/5
f 335/4/5 334/4/5 333/4/5
f 336/4/5 334/4/5 335/4/5
f 339/4/5 338/4/5 337/4/5
f 340/4/5 338/4/5 339/4/5
f 343/4/5 342/4/5 341/4/5
f 344/4/5 342/4/5 343/4/5
f 347/4/5 346/4/5 345/4/5
f 348/4/5 346/4/5 347/4/5
f 351/4/5 350/4/5 349/4/5
f 352/4/5 350/4/5 351/4/5
f 355/4/5 354/4/5 353/4/5
f 356/4/5 354/4/5 355/4/5
f 359/4/5 358/4/5 357/4/5
f 360/4/5 358/4/5 359/4/5
f 363/4/5 362/4/5 361/4/5
f 364/4/5 362/4/5 363/4/5
f 365/4/6 366/4/6 367/4/6
f 367/4/6 366/4/6 368/4/6
f 369/4/6 370/4/6 371/4/6
f 371/4/6 370/4/6 372/4/6
f 373/4/6 374/4/6 375/4/6
f 375/4/6 374/4/6 376/4/6
f 377/4/6 378/4/6 379/4/6
f 379/4/6 378/4/6 380/4/6
f 381/4/6 382/4/6 383/4/6
f 383/4/6 382/4/6 384/4/6
f 385/4/6 386/4/6 387/4/6
f 387/4/6 386/4/6 388/4/6
f 389/4/6 390/4/6 391/4/6
f 391/4/6 390/4/6 392/4/6
f 393/4/6 394/4/6 395/4/6
f 395/4/6 394/4/6 396/4/6
f 397/4/6 398/4/6 399/4/6
f 399/4/6 398/4/6 400/4/6
f 401/4/6 402/4/6 403/4/6
f 403/4/6 402/4/6 404/4/6
f 405/4/6 406/4/6 407/4/6
f 407/4/6 406/4/6 408/4/6
