# MagicaVoxel @ Ephtracy

# group
o 

# material
mtllib detfaulthead.mtl
usemtl palette

# normals
vn -1 0 0
vn 1 0 0
vn 0 0 1
vn 0 0 -1
vn 0 -1 0
vn 0 1 0

# texcoords
vt 0.861328 0.5
vt 0.958984 0.5
vt 0.994141 0.5

# verts
v -1.3 1.1 0.4
v -1.3 1.1 0.3
v -1.3 1.1 -0.4
v -1.3 1.1 -0.5
v -1.3 1.2 0.5
v -1.3 1.2 0.4
v -1.3 1.2 0.3
v -1.3 1.2 -0.4
v -1.3 1.2 -0.5
v -1.3 1.2 -0.6
v -1.3 1.3 0.6
v -1.3 1.3 0.5
v -1.3 1.3 0.4
v -1.3 1.3 -0.5
v -1.3 1.3 -0.6
v -1.3 1.3 -0.7
v -1.3 1.4 0.6
v -1.3 1.4 0.5
v -1.3 1.4 -0.6
v -1.3 1.4 -0.7
v -1.2 0 1
v -1.2 0 -1.1
v -1.2 0.1 1
v -1.2 0.1 -1.1
v -1.2 0.2 0.8
v -1.2 0.2 0.2
v -1.2 0.2 -0.3
v -1.2 0.2 -0.9
v -1.2 0.3 0.7
v -1.2 0.3 0.3
v -1.2 0.3 -0.4
v -1.2 0.3 -0.8
v -1.2 0.5 0.6
v -1.2 0.5 0.4
v -1.2 0.5 -0.5
v -1.2 0.5 -0.7
v -1.2 0.8 0.6
v -1.2 0.8 0.4
v -1.2 0.8 -0.5
v -1.2 0.8 -0.7
v -1.2 0.9 0.7
v -1.2 0.9 0.3
v -1.2 0.9 -0.4
v -1.2 0.9 -0.8
v -1.2 1 0.8
v -1.2 1 0.2
v -1.2 1 -0.3
v -1.2 1 -0.9
v -1.2 1.1 0.4
v -1.2 1.1 0.3
v -1.2 1.1 -0.4
v -1.2 1.1 -0.5
v -1.2 1.2 0.5
v -1.2 1.2 0.4
v -1.2 1.2 0.3
v -1.2 1.2 -0.4
v -1.2 1.2 -0.5
v -1.2 1.2 -0.6
v -1.2 1.3 0.6
v -1.2 1.3 0.5
v -1.2 1.3 0.4
v -1.2 1.3 -0.5
v -1.2 1.3 -0.6
v -1.2 1.3 -0.7
v -1.2 1.4 0.6
v -1.2 1.4 0.5
v -1.2 1.4 -0.6
v -1.2 1.4 -0.7
v -1.2 1.5 1
v -1.2 1.5 -1.1
v -1.1 0 1.1
v -1.1 0 1
v -1.1 0 -1.1
v -1.1 0 -1.2
v -1.1 0.1 1
v -1.1 0.1 -1.1
v -1.1 1.5 1.1
v -1.1 1.5 1
v -1.1 1.5 -1.1
v -1.1 1.5 -1.2
v -1.1 1.6 1
v -1.1 1.6 -1.1
v -1 0 1.2
v -1 0 1.1
v -1 0 -1.2
v -1 0 -1.3
v -1 0.1 1.2
v -1 0.1 1.1
v -1 0.1 -1.2
v -1 0.1 -1.3
v -1 1.5 1.2
v -1 1.5 1.1
v -1 1.5 1
v -1 1.5 -1.1
v -1 1.5 -1.2
v -1 1.5 -1.3
v -1 1.6 1.1
v -1 1.6 1
v -1 1.6 -1.1
v -1 1.6 -1.2
v -1 1.7 1
v -1 1.7 -1.1
v 1.1 0 1.2
v 1.1 0 1.1
v 1.1 0 -1.2
v 1.1 0 -1.3
v 1.1 0.1 1.2
v 1.1 0.1 1.1
v 1.1 0.1 -1.2
v 1.1 0.1 -1.3
v 1.1 1.5 1.2
v 1.1 1.5 1.1
v 1.1 1.5 1
v 1.1 1.5 -1.1
v 1.1 1.5 -1.2
v 1.1 1.5 -1.3
v 1.1 1.6 1.1
v 1.1 1.6 1
v 1.1 1.6 -1.1
v 1.1 1.6 -1.2
v 1.1 1.7 1
v 1.1 1.7 -1.1
v 1.2 0 1.1
v 1.2 0 1
v 1.2 0 -1.1
v 1.2 0 -1.2
v 1.2 0.1 1
v 1.2 0.1 -1.1
v 1.2 1.5 1.1
v 1.2 1.5 1
v 1.2 1.5 -1.1
v 1.2 1.5 -1.2
v 1.2 1.6 1
v 1.2 1.6 -1.1
v 1.3 0 1
v 1.3 0 -1.1
v 1.3 0.1 1
v 1.3 0.1 -1.1
v 1.3 1.5 1
v 1.3 1.5 -1.1
v -1 0 1.2
v -1 0.1 1.2
v -1 1.5 1.2
v 1.1 0 1.2
v 1.1 0.1 1.2
v 1.1 1.5 1.2
v -1.1 0 1.1
v -1.1 1.5 1.1
v -1 0 1.1
v -1 0.1 1.1
v -1 1.5 1.1
v -1 1.6 1.1
v 1.1 0 1.1
v 1.1 0.1 1.1
v 1.1 1.5 1.1
v 1.1 1.6 1.1
v 1.2 0 1.1
v 1.2 1.5 1.1
v -1.2 0 1
v -1.2 0.1 1
v -1.2 1.5 1
v -1.1 0 1
v -1.1 0.1 1
v -1.1 1.5 1
v -1.1 1.6 1
v -1 1.5 1
v -1 1.6 1
v -1 1.7 1
v 1.1 1.5 1
v 1.1 1.6 1
v 1.1 1.7 1
v 1.2 0 1
v 1.2 0.1 1
v 1.2 1.5 1
v 1.2 1.6 1
v 1.3 0 1
v 1.3 0.1 1
v 1.3 1.5 1
v -1.3 1.3 0.6
v -1.3 1.4 0.6
v -1.2 1.3 0.6
v -1.2 1.4 0.6
v -1.3 1.2 0.5
v -1.3 1.3 0.5
v -1.2 1.2 0.5
v -1.2 1.3 0.5
v -1.3 1.1 0.4
v -1.3 1.2 0.4
v -1.2 1.1 0.4
v -1.2 1.2 0.4
v -1.3 1.1 -0.4
v -1.3 1.2 -0.4
v -1.2 1.1 -0.4
v -1.2 1.2 -0.4
v -1.3 1.2 -0.5
v -1.3 1.3 -0.5
v -1.2 1.2 -0.5
v -1.2 1.3 -0.5
v -1.3 1.3 -0.6
v -1.3 1.4 -0.6
v -1.2 1.3 -0.6
v -1.2 1.4 -0.6
v -1.3 1.3 0.5
v -1.3 1.4 0.5
v -1.2 1.3 0.5
v -1.2 1.4 0.5
v -1.3 1.2 0.4
v -1.3 1.3 0.4
v -1.2 1.2 0.4
v -1.2 1.3 0.4
v -1.3 1.1 0.3
v -1.3 1.2 0.3
v -1.2 1.1 0.3
v -1.2 1.2 0.3
v -1.3 1.1 -0.5
v -1.3 1.2 -0.5
v -1.2 1.1 -0.5
v -1.2 1.2 -0.5
v -1.3 1.2 -0.6
v -1.3 1.3 -0.6
v -1.2 1.2 -0.6
v -1.2 1.3 -0.6
v -1.3 1.3 -0.7
v -1.3 1.4 -0.7
v -1.2 1.3 -0.7
v -1.2 1.4 -0.7
v -1.2 0 -1.1
v -1.2 0.1 -1.1
v -1.2 1.5 -1.1
v -1.1 0 -1.1
v -1.1 0.1 -1.1
v -1.1 1.5 -1.1
v -1.1 1.6 -1.1
v -1 1.5 -1.1
v -1 1.6 -1.1
v -1 1.7 -1.1
v 1.1 1.5 -1.1
v 1.1 1.6 -1.1
v 1.1 1.7 -1.1
v 1.2 0 -1.1
v 1.2 0.1 -1.1
v 1.2 1.5 -1.1
v 1.2 1.6 -1.1
v 1.3 0 -1.1
v 1.3 0.1 -1.1
v 1.3 1.5 -1.1
v -1.1 0 -1.2
v -1.1 1.5 -1.2
v -1 0 -1.2
v -1 0.1 -1.2
v -1 1.5 -1.2
v -1 1.6 -1.2
v 1.1 0 -1.2
v 1.1 0.1 -1.2
v 1.1 1.5 -1.2
v 1.1 1.6 -1.2
v 1.2 0 -1.2
v 1.2 1.5 -1.2
v -1 0 -1.3
v -1 0.1 -1.3
v -1 1.5 -1.3
v 1.1 0 -1.3
v 1.1 0.1 -1.3
v 1.1 1.5 -1.3
v -1 0 1.2
v 1.1 0 1.2
v -1.1 0 1.1
v -1 0 1.1
v 1.1 0 1.1
v 1.2 0 1.1
v -1.2 0 1
v -1.1 0 1
v -1 0 1
v 1.1 0 1
v 1.2 0 1
v 1.3 0 1
v -1.2 0 -1.1
v -1.1 0 -1.1
v -1 0 -1.1
v 1.1 0 -1.1
v 1.2 0 -1.1
v 1.3 0 -1.1
v -1.1 0 -1.2
v -1 0 -1.2
v 1.1 0 -1.2
v 1.2 0 -1.2
v -1 0 -1.3
v 1.1 0 -1.3
v -1.3 1.1 0.4
v -1.2 1.1 0.4
v -1.3 1.1 0.3
v -1.2 1.1 0.3
v -1.3 1.1 -0.4
v -1.2 1.1 -0.4
v -1.3 1.1 -0.5
v -1.2 1.1 -0.5
v -1.3 1.2 0.5
v -1.2 1.2 0.5
v -1.3 1.2 0.4
v -1.2 1.2 0.4
v -1.3 1.2 -0.5
v -1.2 1.2 -0.5
v -1.3 1.2 -0.6
v -1.2 1.2 -0.6
v -1.3 1.3 0.6
v -1.2 1.3 0.6
v -1.3 1.3 0.5
v -1.2 1.3 0.5
v -1.3 1.3 -0.6
v -1.2 1.3 -0.6
v -1.3 1.3 -0.7
v -1.2 1.3 -0.7
v -1.3 1.2 0.4
v -1.2 1.2 0.4
v -1.3 1.2 0.3
v -1.2 1.2 0.3
v -1.3 1.2 -0.4
v -1.2 1.2 -0.4
v -1.3 1.2 -0.5
v -1.2 1.2 -0.5
v -1.3 1.3 0.5
v -1.2 1.3 0.5
v -1.3 1.3 0.4
v -1.2 1.3 0.4
v -1.3 1.3 -0.5
v -1.2 1.3 -0.5
v -1.3 1.3 -0.6
v -1.2 1.3 -0.6
v -1.3 1.4 0.6
v -1.2 1.4 0.6
v -1.3 1.4 0.5
v -1.2 1.4 0.5
v -1.3 1.4 -0.6
v -1.2 1.4 -0.6
v -1.3 1.4 -0.7
v -1.2 1.4 -0.7
v -1 1.5 1.2
v 1.1 1.5 1.2
v -1.1 1.5 1.1
v -1 1.5 1.1
v 1.1 1.5 1.1
v 1.2 1.5 1.1
v -1.2 1.5 1
v -1.1 1.5 1
v -1 1.5 1
v 1.1 1.5 1
v 1.2 1.5 1
v 1.3 1.5 1
v -1.2 1.5 -1.1
v -1.1 1.5 -1.1
v -1 1.5 -1.1
v 1.1 1.5 -1.1
v 1.2 1.5 -1.1
v 1.3 1.5 -1.1
v -1.1 1.5 -1.2
v -1 1.5 -1.2
v 1.1 1.5 -1.2
v 1.2 1.5 -1.2
v -1 1.5 -1.3
v 1.1 1.5 -1.3
v -1 1.6 1.1
v 1.1 1.6 1.1
v -1.1 1.6 1
v -1 1.6 1
v 1.1 1.6 1
v 1.2 1.6 1
v -1.1 1.6 -1.1
v -1 1.6 -1.1
v 1.1 1.6 -1.1
v 1.2 1.6 -1.1
v -1 1.6 -1.2
v 1.1 1.6 -1.2
v -1 1.7 1
v 1.1 1.7 1
v -1 1.7 -1.1
v 1.1 1.7 -1.1

# faces
f 6/3/1 2/3/1 1/3/1
f 7/3/1 2/3/1 6/3/1
f 8/3/1 4/3/1 3/3/1
f 9/3/1 4/3/1 8/3/1
f 12/3/1 6/3/1 5/3/1
f 13/3/1 6/3/1 12/3/1
f 14/3/1 10/3/1 9/3/1
f 15/3/1 10/3/1 14/3/1
f 17/3/1 12/3/1 11/3/1
f 18/3/1 12/3/1 17/3/1
f 19/3/1 16/3/1 15/3/1
f 20/3/1 16/3/1 19/3/1
f 23/3/1 22/3/1 21/3/1
f 24/3/1 22/3/1 23/3/1
f 25/1/1 24/1/1 23/1/1
f 26/1/1 24/1/1 25/1/1
f 27/1/1 24/1/1 26/1/1
f 28/1/1 24/1/1 27/1/1
f 29/3/1 26/3/1 25/3/1
f 30/3/1 26/3/1 29/3/1
f 31/3/1 28/3/1 27/3/1
f 32/3/1 28/3/1 31/3/1
f 33/2/1 30/2/1 29/2/1
f 34/2/1 30/2/1 33/2/1
f 35/2/1 32/2/1 31/2/1
f 36/2/1 32/2/1 35/2/1
f 37/2/1 33/2/1 29/2/1
f 37/3/1 34/3/1 33/3/1
f 38/2/1 30/2/1 34/2/1
f 38/3/1 34/3/1 37/3/1
f 39/3/1 36/3/1 35/3/1
f 39/2/1 35/2/1 31/2/1
f 40/2/1 32/2/1 36/2/1
f 40/3/1 36/3/1 39/3/1
f 41/3/1 29/3/1 25/3/1
f 41/2/1 37/2/1 29/2/1
f 41/2/1 38/2/1 37/2/1
f 42/3/1 26/3/1 30/3/1
f 42/2/1 38/2/1 41/2/1
f 42/2/1 30/2/1 38/2/1
f 43/3/1 31/3/1 27/3/1
f 43/2/1 40/2/1 39/2/1
f 43/2/1 39/2/1 31/2/1
f 44/2/1 32/2/1 40/2/1
f 44/2/1 40/2/1 43/2/1
f 44/3/1 28/3/1 32/3/1
f 45/1/1 25/1/1 23/1/1
f 45/3/1 41/3/1 25/3/1
f 45/3/1 42/3/1 41/3/1
f 46/1/1 27/1/1 26/1/1
f 46/3/1 42/3/1 45/3/1
f 46/3/1 26/3/1 42/3/1
f 47/3/1 44/3/1 43/3/1
f 47/1/1 27/1/1 46/1/1
f 47/3/1 43/3/1 27/3/1
f 48/3/1 28/3/1 44/3/1
f 48/3/1 44/3/1 47/3/1
f 48/1/1 24/1/1 28/1/1
f 49/1/1 47/1/1 46/1/1
f 49/1/1 46/1/1 45/1/1
f 49/1/1 48/1/1 47/1/1
f 50/1/1 48/1/1 49/1/1
f 51/1/1 48/1/1 50/1/1
f 52/1/1 48/1/1 51/1/1
f 53/1/1 49/1/1 45/1/1
f 54/1/1 49/1/1 53/1/1
f 55/1/1 51/1/1 50/1/1
f 56/1/1 51/1/1 55/1/1
f 57/1/1 48/1/1 52/1/1
f 58/1/1 48/1/1 57/1/1
f 59/1/1 53/1/1 45/1/1
f 60/1/1 53/1/1 59/1/1
f 61/1/1 56/1/1 55/1/1
f 61/1/1 57/1/1 56/1/1
f 61/1/1 55/1/1 54/1/1
f 62/1/1 57/1/1 61/1/1
f 63/1/1 48/1/1 58/1/1
f 64/1/1 48/1/1 63/1/1
f 65/1/1 59/1/1 45/1/1
f 66/1/1 62/1/1 61/1/1
f 66/1/1 63/1/1 62/1/1
f 66/1/1 61/1/1 60/1/1
f 67/1/1 63/1/1 66/1/1
f 68/1/1 48/1/1 64/1/1
f 69/1/1 45/1/1 23/1/1
f 69/1/1 68/1/1 67/1/1
f 69/1/1 67/1/1 66/1/1
f 69/1/1 65/1/1 45/1/1
f 69/1/1 66/1/1 65/1/1
f 70/1/1 24/1/1 48/1/1
f 70/1/1 68/1/1 69/1/1
f 70/1/1 48/1/1 68/1/1
f 75/3/1 72/3/1 71/3/1
f 76/3/1 74/3/1 73/3/1
f 77/3/1 75/3/1 71/3/1
f 78/3/1 75/3/1 77/3/1
f 79/3/1 74/3/1 76/3/1
f 80/3/1 74/3/1 79/3/1
f 81/3/1 79/3/1 78/3/1
f 82/3/1 79/3/1 81/3/1
f 87/3/1 84/3/1 83/3/1
f 88/3/1 84/3/1 87/3/1
f 89/3/1 86/3/1 85/3/1
f 90/3/1 86/3/1 89/3/1
f 91/1/1 88/1/1 87/1/1
f 92/1/1 88/1/1 91/1/1
f 95/1/1 90/1/1 89/1/1
f 96/1/1 90/1/1 95/1/1
f 97/3/1 93/3/1 92/3/1
f 98/3/1 93/3/1 97/3/1
f 99/3/1 95/3/1 94/3/1
f 100/3/1 95/3/1 99/3/1
f 101/1/1 99/1/1 98/1/1
f 102/1/1 99/1/1 101/1/1
f 103/3/2 104/3/2 107/3/2
f 107/3/2 104/3/2 108/3/2
f 105/3/2 106/3/2 109/3/2
f 109/3/2 106/3/2 110/3/2
f 107/1/2 108/1/2 111/1/2
f 111/1/2 108/1/2 112/1/2
f 109/1/2 110/1/2 115/1/2
f 115/1/2 110/1/2 116/1/2
f 112/3/2 113/3/2 117/3/2
f 117/3/2 113/3/2 118/3/2
f 114/3/2 115/3/2 119/3/2
f 119/3/2 115/3/2 120/3/2
f 118/1/2 119/1/2 121/1/2
f 121/1/2 119/1/2 122/1/2
f 123/3/2 124/3/2 127/3/2
f 125/3/2 126/3/2 128/3/2
f 123/3/2 127/3/2 129/3/2
f 129/3/2 127/3/2 130/3/2
f 128/3/2 126/3/2 131/3/2
f 131/3/2 126/3/2 132/3/2
f 130/3/2 131/3/2 133/3/2
f 133/3/2 131/3/2 134/3/2
f 135/3/2 136/3/2 137/3/2
f 137/3/2 136/3/2 138/3/2
f 137/1/2 138/1/2 139/1/2
f 139/1/2 138/1/2 140/1/2
f 144/3/3 142/3/3 141/3/3
f 145/1/3 143/1/3 142/1/3
f 145/3/3 142/3/3 144/3/3
f 146/1/3 143/1/3 145/1/3
f 149/3/3 148/3/3 147/3/3
f 150/3/3 148/3/3 149/3/3
f 151/3/3 148/3/3 150/3/3
f 155/3/3 152/3/3 151/3/3
f 156/3/3 152/3/3 155/3/3
f 157/3/3 154/3/3 153/3/3
f 157/3/3 155/3/3 154/3/3
f 158/3/3 155/3/3 157/3/3
f 162/3/3 160/3/3 159/3/3
f 163/1/3 161/1/3 160/1/3
f 163/3/3 160/3/3 162/3/3
f 164/1/3 161/1/3 163/1/3
f 166/3/3 165/3/3 164/3/3
f 167/3/3 165/3/3 166/3/3
f 170/1/3 168/1/3 167/1/3
f 171/1/3 168/1/3 170/1/3
f 174/3/3 170/3/3 169/3/3
f 175/3/3 170/3/3 174/3/3
f 176/3/3 173/3/3 172/3/3
f 177/1/3 174/1/3 173/1/3
f 177/3/3 173/3/3 176/3/3
f 178/1/3 174/1/3 177/1/3
f 181/3/3 180/3/3 179/3/3
f 182/3/3 180/3/3 181/3/3
f 185/3/3 184/3/3 183/3/3
f 186/3/3 184/3/3 185/3/3
f 189/3/3 188/3/3 187/3/3
f 190/3/3 188/3/3 189/3/3
f 193/3/3 192/3/3 191/3/3
f 194/3/3 192/3/3 193/3/3
f 197/3/3 196/3/3 195/3/3
f 198/3/3 196/3/3 197/3/3
f 201/3/3 200/3/3 199/3/3
f 202/3/3 200/3/3 201/3/3
f 203/3/4 204/3/4 205/3/4
f 205/3/4 204/3/4 206/3/4
f 207/3/4 208/3/4 209/3/4
f 209/3/4 208/3/4 210/3/4
f 211/3/4 212/3/4 213/3/4
f 213/3/4 212/3/4 214/3/4
f 215/3/4 216/3/4 217/3/4
f 217/3/4 216/3/4 218/3/4
f 219/3/4 220/3/4 221/3/4
f 221/3/4 220/3/4 222/3/4
f 223/3/4 224/3/4 225/3/4
f 225/3/4 224/3/4 226/3/4
f 227/3/4 228/3/4 230/3/4
f 228/1/4 229/1/4 231/1/4
f 230/3/4 228/3/4 231/3/4
f 231/1/4 229/1/4 232/1/4
f 232/3/4 233/3/4 234/3/4
f 234/3/4 233/3/4 235/3/4
f 235/1/4 236/1/4 238/1/4
f 238/1/4 236/1/4 239/1/4
f 237/3/4 238/3/4 242/3/4
f 242/3/4 238/3/4 243/3/4
f 240/3/4 241/3/4 244/3/4
f 241/1/4 242/1/4 245/1/4
f 244/3/4 241/3/4 245/3/4
f 245/1/4 242/1/4 246/1/4
f 247/3/4 248/3/4 249/3/4
f 249/3/4 248/3/4 250/3/4
f 250/3/4 248/3/4 251/3/4
f 251/3/4 252/3/4 255/3/4
f 255/3/4 252/3/4 256/3/4
f 253/3/4 254/3/4 257/3/4
f 254/3/4 255/3/4 257/3/4
f 257/3/4 255/3/4 258/3/4
f 259/3/4 260/3/4 262/3/4
f 260/1/4 261/1/4 263/1/4
f 262/3/4 260/3/4 263/3/4
f 263/1/4 261/1/4 264/1/4
f 268/3/5 266/3/5 265/3/5
f 269/3/5 266/3/5 268/3/5
f 272/3/5 268/3/5 267/3/5
f 273/1/5 269/1/5 268/1/5
f 273/3/5 268/3/5 272/3/5
f 274/3/5 270/3/5 269/3/5
f 274/1/5 269/1/5 273/1/5
f 275/3/5 270/3/5 274/3/5
f 277/3/5 272/3/5 271/3/5
f 278/1/5 273/1/5 272/1/5
f 278/3/5 272/3/5 277/3/5
f 278/1/5 274/1/5 273/1/5
f 278/1/5 275/1/5 274/1/5
f 279/1/5 275/1/5 278/1/5
f 280/1/5 275/1/5 279/1/5
f 281/3/5 276/3/5 275/3/5
f 281/1/5 275/1/5 280/1/5
f 282/3/5 276/3/5 281/3/5
f 283/3/5 279/3/5 278/3/5
f 284/1/5 280/1/5 279/1/5
f 284/3/5 279/3/5 283/3/5
f 285/3/5 281/3/5 280/3/5
f 285/1/5 280/1/5 284/1/5
f 286/3/5 281/3/5 285/3/5
f 287/3/5 285/3/5 284/3/5
f 288/3/5 285/3/5 287/3/5
f 291/3/5 290/3/5 289/3/5
f 292/3/5 290/3/5 291/3/5
f 295/3/5 294/3/5 293/3/5
f 296/3/5 294/3/5 295/3/5
f 299/3/5 298/3/5 297/3/5
f 300/3/5 298/3/5 299/3/5
f 303/3/5 302/3/5 301/3/5
f 304/3/5 302/3/5 303/3/5
f 307/3/5 306/3/5 305/3/5
f 308/3/5 306/3/5 307/3/5
f 311/3/5 310/3/5 309/3/5
f 312/3/5 310/3/5 311/3/5
f 313/3/6 314/3/6 315/3/6
f 315/3/6 314/3/6 316/3/6
f 317/3/6 318/3/6 319/3/6
f 319/3/6 318/3/6 320/3/6
f 321/3/6 322/3/6 323/3/6
f 323/3/6 322/3/6 324/3/6
f 325/3/6 326/3/6 327/3/6
f 327/3/6 326/3/6 328/3/6
f 329/3/6 330/3/6 331/3/6
f 331/3/6 330/3/6 332/3/6
f 333/3/6 334/3/6 335/3/6
f 335/3/6 334/3/6 336/3/6
f 337/1/6 338/1/6 340/1/6
f 340/1/6 338/1/6 341/1/6
f 339/3/6 340/3/6 344/3/6
f 344/3/6 340/3/6 345/3/6
f 341/3/6 342/3/6 346/3/6
f 346/3/6 342/3/6 347/3/6
f 343/1/6 344/1/6 349/1/6
f 349/1/6 344/1/6 350/1/6
f 347/1/6 348/1/6 353/1/6
f 353/1/6 348/1/6 354/1/6
f 350/3/6 351/3/6 355/3/6
f 355/3/6 351/3/6 356/3/6
f 352/3/6 353/3/6 357/3/6
f 357/3/6 353/3/6 358/3/6
f 356/1/6 357/1/6 359/1/6
f 359/1/6 357/1/6 360/1/6
f 361/3/6 362/3/6 364/3/6
f 364/3/6 362/3/6 365/3/6
f 363/3/6 364/3/6 367/3/6
f 367/3/6 364/3/6 368/3/6
f 365/3/6 366/3/6 369/3/6
f 369/3/6 366/3/6 370/3/6
f 368/3/6 369/3/6 371/3/6
f 371/3/6 369/3/6 372/3/6
f 373/1/6 374/1/6 375/1/6
f 375/1/6 374/1/6 376/1/6
