# MagicaVoxel @ Ephtracy

# group
o 

# material
mtllib coin.mtl
usemtl palette

# normals
vn -1 0 0
vn 1 0 0
vn 0 0 1
vn 0 0 -1
vn 0 -1 0
vn 0 1 0

# texcoords
vt 0.982422 0.5
vt 0.986328 0.5
vt 0.990234 0.5
vt 0.994141 0.5

# verts
v 0 0 0.2
v 0 0 -0.2
v 0 0.1 0.6
v 0 0.1 0.4
v 0 0.1 0.1
v 0 0.1 -0.1
v 0 0.1 -0.4
v 0 0.1 -0.6
v 0 0.2 0.7
v 0 0.2 0.6
v 0 0.2 0.4
v 0 0.2 0.3
v 0 0.2 0.1
v 0 0.2 -0.1
v 0 0.2 -0.3
v 0 0.2 -0.4
v 0 0.2 -0.6
v 0 0.2 -0.7
v 0 0.3 0.5
v 0 0.3 0.4
v 0 0.3 0.3
v 0 0.3 0.2
v 0 0.3 0.1
v 0 0.3 -0.1
v 0 0.3 -0.2
v 0 0.3 -0.3
v 0 0.3 -0.4
v 0 0.3 -0.5
v 0 0.4 0.7
v 0 0.4 0.6
v 0 0.4 0.5
v 0 0.4 0.3
v 0 0.4 0.2
v 0 0.4 -0.2
v 0 0.4 -0.3
v 0 0.4 -0.5
v 0 0.4 -0.6
v 0 0.4 -0.7
v 0 0.5 0.6
v 0 0.5 0.5
v 0 0.5 0.4
v 0 0.5 0.1
v 0 0.5 -0.1
v 0 0.5 -0.4
v 0 0.5 -0.5
v 0 0.5 -0.6
v 0 0.6 0.8
v 0 0.6 0.5
v 0 0.6 0.4
v 0 0.6 0.2
v 0 0.6 0.1
v 0 0.6 -0.1
v 0 0.6 -0.2
v 0 0.6 -0.4
v 0 0.6 -0.5
v 0 0.6 -0.8
v 0 0.7 0.7
v 0 0.7 0.6
v 0 0.7 0.5
v 0 0.7 0.3
v 0 0.7 0.2
v 0 0.7 0.1
v 0 0.7 -0.1
v 0 0.7 -0.2
v 0 0.7 -0.3
v 0 0.7 -0.5
v 0 0.7 -0.6
v 0 0.7 -0.7
v 0 0.9 0.7
v 0 0.9 0.6
v 0 0.9 0.5
v 0 0.9 0.3
v 0 0.9 0.2
v 0 0.9 0.1
v 0 0.9 -0.1
v 0 0.9 -0.2
v 0 0.9 -0.3
v 0 0.9 -0.5
v 0 0.9 -0.6
v 0 0.9 -0.7
v 0 1 0.8
v 0 1 0.5
v 0 1 0.4
v 0 1 0.2
v 0 1 0.1
v 0 1 -0.1
v 0 1 -0.2
v 0 1 -0.4
v 0 1 -0.5
v 0 1 -0.8
v 0 1.1 0.6
v 0 1.1 0.5
v 0 1.1 0.4
v 0 1.1 0.1
v 0 1.1 -0.1
v 0 1.1 -0.4
v 0 1.1 -0.5
v 0 1.1 -0.6
v 0 1.2 0.7
v 0 1.2 0.6
v 0 1.2 0.5
v 0 1.2 0.3
v 0 1.2 0.2
v 0 1.2 -0.2
v 0 1.2 -0.3
v 0 1.2 -0.5
v 0 1.2 -0.6
v 0 1.2 -0.7
v 0 1.3 0.5
v 0 1.3 0.4
v 0 1.3 0.3
v 0 1.3 0.2
v 0 1.3 0.1
v 0 1.3 -0.1
v 0 1.3 -0.2
v 0 1.3 -0.3
v 0 1.3 -0.4
v 0 1.3 -0.5
v 0 1.4 0.7
v 0 1.4 0.6
v 0 1.4 0.4
v 0 1.4 0.3
v 0 1.4 0.1
v 0 1.4 -0.1
v 0 1.4 -0.3
v 0 1.4 -0.4
v 0 1.4 -0.6
v 0 1.4 -0.7
v 0 1.5 0.6
v 0 1.5 0.4
v 0 1.5 0.1
v 0 1.5 -0.1
v 0 1.5 -0.4
v 0 1.5 -0.6
v 0 1.6 0.2
v 0 1.6 -0.2
v 0.1 0 0.2
v 0.1 0 -0.2
v 0.1 0.1 0.6
v 0.1 0.1 0.4
v 0.1 0.1 0.1
v 0.1 0.1 -0.1
v 0.1 0.1 -0.4
v 0.1 0.1 -0.6
v 0.1 0.2 0.7
v 0.1 0.2 0.6
v 0.1 0.2 0.4
v 0.1 0.2 0.3
v 0.1 0.2 0.1
v 0.1 0.2 -0.1
v 0.1 0.2 -0.3
v 0.1 0.2 -0.4
v 0.1 0.2 -0.6
v 0.1 0.2 -0.7
v 0.1 0.3 0.5
v 0.1 0.3 0.4
v 0.1 0.3 0.3
v 0.1 0.3 0.2
v 0.1 0.3 0.1
v 0.1 0.3 -0.1
v 0.1 0.3 -0.2
v 0.1 0.3 -0.3
v 0.1 0.3 -0.4
v 0.1 0.3 -0.5
v 0.1 0.4 0.7
v 0.1 0.4 0.6
v 0.1 0.4 0.5
v 0.1 0.4 0.3
v 0.1 0.4 0.2
v 0.1 0.4 -0.2
v 0.1 0.4 -0.3
v 0.1 0.4 -0.5
v 0.1 0.4 -0.6
v 0.1 0.4 -0.7
v 0.1 0.5 0.6
v 0.1 0.5 0.5
v 0.1 0.5 0.4
v 0.1 0.5 0.1
v 0.1 0.5 -0.1
v 0.1 0.5 -0.4
v 0.1 0.5 -0.5
v 0.1 0.5 -0.6
v 0.1 0.6 0.8
v 0.1 0.6 0.5
v 0.1 0.6 0.4
v 0.1 0.6 0.2
v 0.1 0.6 0.1
v 0.1 0.6 -0.1
v 0.1 0.6 -0.2
v 0.1 0.6 -0.4
v 0.1 0.6 -0.5
v 0.1 0.6 -0.8
v 0.1 0.7 0.7
v 0.1 0.7 0.6
v 0.1 0.7 0.5
v 0.1 0.7 0.3
v 0.1 0.7 0.2
v 0.1 0.7 0.1
v 0.1 0.7 -0.1
v 0.1 0.7 -0.2
v 0.1 0.7 -0.3
v 0.1 0.7 -0.5
v 0.1 0.7 -0.6
v 0.1 0.7 -0.7
v 0.1 0.9 0.7
v 0.1 0.9 0.6
v 0.1 0.9 0.5
v 0.1 0.9 0.3
v 0.1 0.9 0.2
v 0.1 0.9 0.1
v 0.1 0.9 -0.1
v 0.1 0.9 -0.2
v 0.1 0.9 -0.3
v 0.1 0.9 -0.5
v 0.1 0.9 -0.6
v 0.1 0.9 -0.7
v 0.1 1 0.8
v 0.1 1 0.5
v 0.1 1 0.4
v 0.1 1 0.2
v 0.1 1 0.1
v 0.1 1 -0.1
v 0.1 1 -0.2
v 0.1 1 -0.4
v 0.1 1 -0.5
v 0.1 1 -0.8
v 0.1 1.1 0.6
v 0.1 1.1 0.5
v 0.1 1.1 0.4
v 0.1 1.1 0.1
v 0.1 1.1 -0.1
v 0.1 1.1 -0.4
v 0.1 1.1 -0.5
v 0.1 1.1 -0.6
v 0.1 1.2 0.7
v 0.1 1.2 0.6
v 0.1 1.2 0.5
v 0.1 1.2 0.3
v 0.1 1.2 0.2
v 0.1 1.2 -0.2
v 0.1 1.2 -0.3
v 0.1 1.2 -0.5
v 0.1 1.2 -0.6
v 0.1 1.2 -0.7
v 0.1 1.3 0.5
v 0.1 1.3 0.4
v 0.1 1.3 0.3
v 0.1 1.3 0.2
v 0.1 1.3 0.1
v 0.1 1.3 -0.1
v 0.1 1.3 -0.2
v 0.1 1.3 -0.3
v 0.1 1.3 -0.4
v 0.1 1.3 -0.5
v 0.1 1.4 0.7
v 0.1 1.4 0.6
v 0.1 1.4 0.4
v 0.1 1.4 0.3
v 0.1 1.4 0.1
v 0.1 1.4 -0.1
v 0.1 1.4 -0.3
v 0.1 1.4 -0.4
v 0.1 1.4 -0.6
v 0.1 1.4 -0.7
v 0.1 1.5 0.6
v 0.1 1.5 0.4
v 0.1 1.5 0.1
v 0.1 1.5 -0.1
v 0.1 1.5 -0.4
v 0.1 1.5 -0.6
v 0.1 1.6 0.2
v 0.1 1.6 -0.2
v 0 0.6 0.8
v 0 1 0.8
v 0.1 0.6 0.8
v 0.1 1 0.8
v 0 0.2 0.7
v 0 0.4 0.7
v 0 1.2 0.7
v 0 1.4 0.7
v 0.1 0.2 0.7
v 0.1 0.4 0.7
v 0.1 1.2 0.7
v 0.1 1.4 0.7
v 0 0.1 0.6
v 0 0.2 0.6
v 0 0.4 0.6
v 0 0.5 0.6
v 0 1.1 0.6
v 0 1.2 0.6
v 0 1.4 0.6
v 0 1.5 0.6
v 0.1 0.1 0.6
v 0.1 0.2 0.6
v 0.1 0.4 0.6
v 0.1 0.5 0.6
v 0.1 1.1 0.6
v 0.1 1.2 0.6
v 0.1 1.4 0.6
v 0.1 1.5 0.6
v 0 0.5 0.5
v 0 0.6 0.5
v 0 1 0.5
v 0 1.1 0.5
v 0.1 0.5 0.5
v 0.1 0.6 0.5
v 0.1 1 0.5
v 0.1 1.1 0.5
v 0 0 0.2
v 0 0.3 0.2
v 0 1.3 0.2
v 0 1.6 0.2
v 0.1 0 0.2
v 0.1 0.3 0.2
v 0.1 1.3 0.2
v 0.1 1.6 0.2
v 0 0.7 -0.1
v 0 0.9 -0.1
v 0.1 0.7 -0.1
v 0.1 0.9 -0.1
v 0 0.2 -0.3
v 0 0.3 -0.3
v 0 1.3 -0.3
v 0 1.4 -0.3
v 0.1 0.2 -0.3
v 0.1 0.3 -0.3
v 0.1 1.3 -0.3
v 0.1 1.4 -0.3
v 0 0.1 -0.4
v 0 0.2 -0.4
v 0 1.4 -0.4
v 0 1.5 -0.4
v 0.1 0.1 -0.4
v 0.1 0.2 -0.4
v 0.1 1.4 -0.4
v 0.1 1.5 -0.4
v 0 0.1 0.4
v 0 0.2 0.4
v 0 1.4 0.4
v 0 1.5 0.4
v 0.1 0.1 0.4
v 0.1 0.2 0.4
v 0.1 1.4 0.4
v 0.1 1.5 0.4
v 0 0.2 0.3
v 0 0.3 0.3
v 0 1.3 0.3
v 0 1.4 0.3
v 0.1 0.2 0.3
v 0.1 0.3 0.3
v 0.1 1.3 0.3
v 0.1 1.4 0.3
v 0 0.7 0.1
v 0 0.9 0.1
v 0.1 0.7 0.1
v 0.1 0.9 0.1
v 0 0 -0.2
v 0 0.3 -0.2
v 0 1.3 -0.2
v 0 1.6 -0.2
v 0.1 0 -0.2
v 0.1 0.3 -0.2
v 0.1 1.3 -0.2
v 0.1 1.6 -0.2
v 0 0.5 -0.5
v 0 0.6 -0.5
v 0 1 -0.5
v 0 1.1 -0.5
v 0.1 0.5 -0.5
v 0.1 0.6 -0.5
v 0.1 1 -0.5
v 0.1 1.1 -0.5
v 0 0.1 -0.6
v 0 0.2 -0.6
v 0 0.4 -0.6
v 0 0.5 -0.6
v 0 1.1 -0.6
v 0 1.2 -0.6
v 0 1.4 -0.6
v 0 1.5 -0.6
v 0.1 0.1 -0.6
v 0.1 0.2 -0.6
v 0.1 0.4 -0.6
v 0.1 0.5 -0.6
v 0.1 1.1 -0.6
v 0.1 1.2 -0.6
v 0.1 1.4 -0.6
v 0.1 1.5 -0.6
v 0 0.2 -0.7
v 0 0.4 -0.7
v 0 1.2 -0.7
v 0 1.4 -0.7
v 0.1 0.2 -0.7
v 0.1 0.4 -0.7
v 0.1 1.2 -0.7
v 0.1 1.4 -0.7
v 0 0.6 -0.8
v 0 1 -0.8
v 0.1 0.6 -0.8
v 0.1 1 -0.8
v 0 0 0.2
v 0.1 0 0.2
v 0 0 -0.2
v 0.1 0 -0.2
v 0 0.1 0.6
v 0.1 0.1 0.6
v 0 0.1 0.4
v 0.1 0.1 0.4
v 0 0.1 -0.4
v 0.1 0.1 -0.4
v 0 0.1 -0.6
v 0.1 0.1 -0.6
v 0 0.2 0.7
v 0.1 0.2 0.7
v 0 0.2 0.6
v 0.1 0.2 0.6
v 0 0.2 0.4
v 0.1 0.2 0.4
v 0 0.2 0.3
v 0.1 0.2 0.3
v 0 0.2 -0.3
v 0.1 0.2 -0.3
v 0 0.2 -0.4
v 0.1 0.2 -0.4
v 0 0.2 -0.6
v 0.1 0.2 -0.6
v 0 0.2 -0.7
v 0.1 0.2 -0.7
v 0 0.3 0.3
v 0.1 0.3 0.3
v 0 0.3 0.2
v 0.1 0.3 0.2
v 0 0.3 -0.2
v 0.1 0.3 -0.2
v 0 0.3 -0.3
v 0.1 0.3 -0.3
v 0 0.6 0.8
v 0.1 0.6 0.8
v 0 0.6 0.5
v 0.1 0.6 0.5
v 0 0.6 -0.5
v 0.1 0.6 -0.5
v 0 0.6 -0.8
v 0.1 0.6 -0.8
v 0 0.9 0.1
v 0.1 0.9 0.1
v 0 0.9 -0.1
v 0.1 0.9 -0.1
v 0 1.1 0.6
v 0.1 1.1 0.6
v 0 1.1 0.5
v 0.1 1.1 0.5
v 0 1.1 -0.5
v 0.1 1.1 -0.5
v 0 1.1 -0.6
v 0.1 1.1 -0.6
v 0 1.2 0.7
v 0.1 1.2 0.7
v 0 1.2 0.6
v 0.1 1.2 0.6
v 0 1.2 -0.6
v 0.1 1.2 -0.6
v 0 1.2 -0.7
v 0.1 1.2 -0.7
v 0 0.4 0.7
v 0.1 0.4 0.7
v 0 0.4 0.6
v 0.1 0.4 0.6
v 0 0.4 -0.6
v 0.1 0.4 -0.6
v 0 0.4 -0.7
v 0.1 0.4 -0.7
v 0 0.5 0.6
v 0.1 0.5 0.6
v 0 0.5 0.5
v 0.1 0.5 0.5
v 0 0.5 -0.5
v 0.1 0.5 -0.5
v 0 0.5 -0.6
v 0.1 0.5 -0.6
v 0 0.7 0.1
v 0.1 0.7 0.1
v 0 0.7 -0.1
v 0.1 0.7 -0.1
v 0 1 0.8
v 0.1 1 0.8
v 0 1 0.5
v 0.1 1 0.5
v 0 1 -0.5
v 0.1 1 -0.5
v 0 1 -0.8
v 0.1 1 -0.8
v 0 1.3 0.3
v 0.1 1.3 0.3
v 0 1.3 0.2
v 0.1 1.3 0.2
v 0 1.3 -0.2
v 0.1 1.3 -0.2
v 0 1.3 -0.3
v 0.1 1.3 -0.3
v 0 1.4 0.7
v 0.1 1.4 0.7
v 0 1.4 0.6
v 0.1 1.4 0.6
v 0 1.4 0.4
v 0.1 1.4 0.4
v 0 1.4 0.3
v 0.1 1.4 0.3
v 0 1.4 -0.3
v 0.1 1.4 -0.3
v 0 1.4 -0.4
v 0.1 1.4 -0.4
v 0 1.4 -0.6
v 0.1 1.4 -0.6
v 0 1.4 -0.7
v 0.1 1.4 -0.7
v 0 1.5 0.6
v 0.1 1.5 0.6
v 0 1.5 0.4
v 0.1 1.5 0.4
v 0 1.5 -0.4
v 0.1 1.5 -0.4
v 0 1.5 -0.6
v 0.1 1.5 -0.6
v 0 1.6 0.2
v 0.1 1.6 0.2
v 0 1.6 -0.2
v 0.1 1.6 -0.2

# faces
f 5/4/1 2/4/1 1/4/1
f 6/4/1 2/4/1 5/4/1
f 10/4/1 4/4/1 3/4/1
f 11/4/1 4/4/1 10/4/1
f 13/4/1 5/4/1 1/4/1
f 13/3/1 6/3/1 5/3/1
f 14/4/1 2/4/1 6/4/1
f 14/3/1 6/3/1 13/3/1
f 16/4/1 8/4/1 7/4/1
f 17/4/1 8/4/1 16/4/1
f 19/3/1 11/3/1 10/3/1
f 20/4/1 12/4/1 11/4/1
f 20/3/1 11/3/1 19/3/1
f 21/4/1 12/4/1 20/4/1
f 22/4/1 13/4/1 1/4/1
f 23/2/1 14/2/1 13/2/1
f 23/4/1 13/4/1 22/4/1
f 24/4/1 2/4/1 14/4/1
f 24/2/1 14/2/1 23/2/1
f 25/4/1 2/4/1 24/4/1
f 26/4/1 16/4/1 15/4/1
f 27/3/1 17/3/1 16/3/1
f 27/4/1 16/4/1 26/4/1
f 28/3/1 17/3/1 27/3/1
f 29/4/1 10/4/1 9/4/1
f 30/3/1 19/3/1 10/3/1
f 30/4/1 10/4/1 29/4/1
f 31/2/1 21/2/1 20/2/1
f 31/3/1 19/3/1 30/3/1
f 31/2/1 20/2/1 19/2/1
f 32/4/1 22/4/1 21/4/1
f 32/2/1 21/2/1 31/2/1
f 33/2/1 23/2/1 22/2/1
f 33/4/1 22/4/1 32/4/1
f 33/2/1 25/2/1 24/2/1
f 33/2/1 24/2/1 23/2/1
f 34/4/1 26/4/1 25/4/1
f 34/2/1 25/2/1 33/2/1
f 35/2/1 27/2/1 26/2/1
f 35/4/1 26/4/1 34/4/1
f 35/2/1 28/2/1 27/2/1
f 36/3/1 17/3/1 28/3/1
f 36/2/1 28/2/1 35/2/1
f 37/4/1 18/4/1 17/4/1
f 37/3/1 17/3/1 36/3/1
f 38/4/1 18/4/1 37/4/1
f 39/4/1 31/4/1 30/4/1
f 40/2/1 32/2/1 31/2/1
f 40/4/1 31/4/1 39/4/1
f 40/2/1 36/2/1 35/2/1
f 40/2/1 35/2/1 34/2/1
f 40/2/1 34/2/1 33/2/1
f 40/2/1 33/2/1 32/2/1
f 41/2/1 36/2/1 40/2/1
f 42/2/1 36/2/1 41/2/1
f 43/2/1 36/2/1 42/2/1
f 44/2/1 36/2/1 43/2/1
f 45/4/1 37/4/1 36/4/1
f 45/2/1 36/2/1 44/2/1
f 46/4/1 37/4/1 45/4/1
f 48/4/1 41/4/1 40/4/1
f 49/2/1 42/2/1 41/2/1
f 49/4/1 41/4/1 48/4/1
f 50/2/1 42/2/1 49/2/1
f 51/1/1 43/1/1 42/1/1
f 51/2/1 42/2/1 50/2/1
f 52/2/1 44/2/1 43/2/1
f 52/1/1 43/1/1 51/1/1
f 53/2/1 44/2/1 52/2/1
f 54/4/1 45/4/1 44/4/1
f 54/2/1 44/2/1 53/2/1
f 55/4/1 45/4/1 54/4/1
f 57/4/1 48/4/1 47/4/1
f 58/4/1 48/4/1 57/4/1
f 59/2/1 50/2/1 49/2/1
f 59/4/1 48/4/1 58/4/1
f 59/2/1 49/2/1 48/2/1
f 60/2/1 50/2/1 59/2/1
f 61/1/1 51/1/1 50/1/1
f 61/2/1 50/2/1 60/2/1
f 62/4/1 52/4/1 51/4/1
f 62/1/1 51/1/1 61/1/1
f 63/1/1 53/1/1 52/1/1
f 63/4/1 52/4/1 62/4/1
f 64/2/1 55/2/1 54/2/1
f 64/1/1 53/1/1 63/1/1
f 64/2/1 54/2/1 53/2/1
f 65/2/1 55/2/1 64/2/1
f 66/4/1 56/4/1 55/4/1
f 66/2/1 55/2/1 65/2/1
f 67/4/1 56/4/1 66/4/1
f 68/4/1 56/4/1 67/4/1
f 69/3/1 58/3/1 57/3/1
f 69/4/1 57/4/1 47/4/1
f 70/2/1 60/2/1 59/2/1
f 70/3/1 58/3/1 69/3/1
f 70/2/1 59/2/1 58/2/1
f 71/2/1 60/2/1 70/2/1
f 72/1/1 61/1/1 60/1/1
f 72/2/1 60/2/1 71/2/1
f 73/4/1 62/4/1 61/4/1
f 73/1/1 61/1/1 72/1/1
f 74/4/1 62/4/1 73/4/1
f 75/4/1 64/4/1 63/4/1
f 76/1/1 65/1/1 64/1/1
f 76/4/1 64/4/1 75/4/1
f 77/2/1 66/2/1 65/2/1
f 77/1/1 65/1/1 76/1/1
f 77/2/1 67/2/1 66/2/1
f 78/2/1 67/2/1 77/2/1
f 79/3/1 68/3/1 67/3/1
f 79/2/1 67/2/1 78/2/1
f 80/4/1 56/4/1 68/4/1
f 80/3/1 68/3/1 79/3/1
f 81/4/1 69/4/1 47/4/1
f 81/4/1 71/4/1 70/4/1
f 81/4/1 70/4/1 69/4/1
f 82/2/1 72/2/1 71/2/1
f 82/4/1 71/4/1 81/4/1
f 82/2/1 73/2/1 72/2/1
f 83/2/1 73/2/1 82/2/1
f 84/1/1 74/1/1 73/1/1
f 84/2/1 73/2/1 83/2/1
f 85/4/1 75/4/1 74/4/1
f 85/1/1 74/1/1 84/1/1
f 86/1/1 76/1/1 75/1/1
f 86/4/1 75/4/1 85/4/1
f 87/2/1 78/2/1 77/2/1
f 87/1/1 76/1/1 86/1/1
f 87/2/1 77/2/1 76/2/1
f 88/2/1 78/2/1 87/2/1
f 89/4/1 79/4/1 78/4/1
f 89/2/1 78/2/1 88/2/1
f 89/4/1 80/4/1 79/4/1
f 90/4/1 56/4/1 80/4/1
f 90/4/1 80/4/1 89/4/1
f 92/4/1 83/4/1 82/4/1
f 93/2/1 85/2/1 84/2/1
f 93/2/1 84/2/1 83/2/1
f 93/4/1 83/4/1 92/4/1
f 94/1/1 86/1/1 85/1/1
f 94/2/1 85/2/1 93/2/1
f 95/2/1 88/2/1 87/2/1
f 95/1/1 86/1/1 94/1/1
f 95/2/1 87/2/1 86/2/1
f 96/4/1 89/4/1 88/4/1
f 96/2/1 88/2/1 95/2/1
f 97/4/1 89/4/1 96/4/1
f 100/4/1 92/4/1 91/4/1
f 101/2/1 94/2/1 93/2/1
f 101/2/1 95/2/1 94/2/1
f 101/4/1 92/4/1 100/4/1
f 101/2/1 93/2/1 92/2/1
f 101/2/1 97/2/1 96/2/1
f 101/2/1 96/2/1 95/2/1
f 102/2/1 97/2/1 101/2/1
f 103/2/1 97/2/1 102/2/1
f 104/2/1 97/2/1 103/2/1
f 105/2/1 97/2/1 104/2/1
f 106/4/1 98/4/1 97/4/1
f 106/2/1 97/2/1 105/2/1
f 107/4/1 98/4/1 106/4/1
f 109/3/1 101/3/1 100/3/1
f 109/2/1 102/2/1 101/2/1
f 110/2/1 102/2/1 109/2/1
f 111/4/1 103/4/1 102/4/1
f 111/2/1 102/2/1 110/2/1
f 112/2/1 104/2/1 103/2/1
f 112/4/1 103/4/1 111/4/1
f 113/2/1 104/2/1 112/2/1
f 114/2/1 104/2/1 113/2/1
f 115/4/1 105/4/1 104/4/1
f 115/2/1 104/2/1 114/2/1
f 116/2/1 106/2/1 105/2/1
f 116/4/1 105/4/1 115/4/1
f 117/2/1 106/2/1 116/2/1
f 118/3/1 107/3/1 106/3/1
f 118/2/1 106/2/1 117/2/1
f 119/4/1 100/4/1 99/4/1
f 120/3/1 110/3/1 109/3/1
f 120/4/1 100/4/1 119/4/1
f 120/3/1 109/3/1 100/3/1
f 121/4/1 111/4/1 110/4/1
f 121/3/1 110/3/1 120/3/1
f 122/4/1 111/4/1 121/4/1
f 123/2/1 114/2/1 113/2/1
f 123/4/1 113/4/1 112/4/1
f 124/4/1 115/4/1 114/4/1
f 124/2/1 114/2/1 123/2/1
f 125/4/1 117/4/1 116/4/1
f 126/3/1 118/3/1 117/3/1
f 126/4/1 117/4/1 125/4/1
f 127/3/1 107/3/1 118/3/1
f 127/3/1 118/3/1 126/3/1
f 127/4/1 108/4/1 107/4/1
f 128/4/1 108/4/1 127/4/1
f 129/4/1 121/4/1 120/4/1
f 130/4/1 121/4/1 129/4/1
f 131/3/1 124/3/1 123/3/1
f 131/4/1 123/4/1 112/4/1
f 132/4/1 115/4/1 124/4/1
f 132/3/1 124/3/1 131/3/1
f 133/4/1 127/4/1 126/4/1
f 134/4/1 127/4/1 133/4/1
f 135/4/1 131/4/1 112/4/1
f 135/4/1 132/4/1 131/4/1
f 136/4/1 115/4/1 132/4/1
f 136/4/1 132/4/1 135/4/1
f 137/4/2 138/4/2 141/4/2
f 141/4/2 138/4/2 142/4/2
f 139/4/2 140/4/2 146/4/2
f 146/4/2 140/4/2 147/4/2
f 137/4/2 141/4/2 149/4/2
f 141/3/2 142/3/2 149/3/2
f 142/4/2 138/4/2 150/4/2
f 149/3/2 142/3/2 150/3/2
f 143/4/2 144/4/2 152/4/2
f 152/4/2 144/4/2 153/4/2
f 146/3/2 147/3/2 155/3/2
f 147/4/2 148/4/2 156/4/2
f 155/3/2 147/3/2 156/3/2
f 156/4/2 148/4/2 157/4/2
f 137/4/2 149/4/2 158/4/2
f 149/2/2 150/2/2 159/2/2
f 158/4/2 149/4/2 159/4/2
f 150/4/2 138/4/2 160/4/2
f 159/2/2 150/2/2 160/2/2
f 160/4/2 138/4/2 161/4/2
f 151/4/2 152/4/2 162/4/2
f 152/3/2 153/3/2 163/3/2
f 162/4/2 152/4/2 163/4/2
f 163/3/2 153/3/2 164/3/2
f 145/4/2 146/4/2 165/4/2
f 146/3/2 155/3/2 166/3/2
f 165/4/2 146/4/2 166/4/2
f 156/2/2 157/2/2 167/2/2
f 166/3/2 155/3/2 167/3/2
f 155/2/2 156/2/2 167/2/2
f 157/4/2 158/4/2 168/4/2
f 167/2/2 157/2/2 168/2/2
f 158/2/2 159/2/2 169/2/2
f 168/4/2 158/4/2 169/4/2
f 160/2/2 161/2/2 169/2/2
f 159/2/2 160/2/2 169/2/2
f 161/4/2 162/4/2 170/4/2
f 169/2/2 161/2/2 170/2/2
f 162/2/2 163/2/2 171/2/2
f 170/4/2 162/4/2 171/4/2
f 163/2/2 164/2/2 171/2/2
f 164/3/2 153/3/2 172/3/2
f 171/2/2 164/2/2 172/2/2
f 153/4/2 154/4/2 173/4/2
f 172/3/2 153/3/2 173/3/2
f 173/4/2 154/4/2 174/4/2
f 166/4/2 167/4/2 175/4/2
f 167/2/2 168/2/2 176/2/2
f 175/4/2 167/4/2 176/4/2
f 171/2/2 172/2/2 176/2/2
f 170/2/2 171/2/2 176/2/2
f 169/2/2 170/2/2 176/2/2
f 168/2/2 169/2/2 176/2/2
f 176/2/2 172/2/2 177/2/2
f 177/2/2 172/2/2 178/2/2
f 178/2/2 172/2/2 179/2/2
f 179/2/2 172/2/2 180/2/2
f 172/4/2 173/4/2 181/4/2
f 180/2/2 172/2/2 181/2/2
f 181/4/2 173/4/2 182/4/2
f 176/4/2 177/4/2 184/4/2
f 177/2/2 178/2/2 185/2/2
f 184/4/2 177/4/2 185/4/2
f 185/2/2 178/2/2 186/2/2
f 178/1/2 179/1/2 187/1/2
f 186/2/2 178/2/2 187/2/2
f 179/2/2 180/2/2 188/2/2
f 187/1/2 179/1/2 188/1/2
f 188/2/2 180/2/2 189/2/2
f 180/4/2 181/4/2 190/4/2
f 189/2/2 180/2/2 190/2/2
f 190/4/2 181/4/2 191/4/2
f 183/4/2 184/4/2 193/4/2
f 193/4/2 184/4/2 194/4/2
f 185/2/2 186/2/2 195/2/2
f 194/4/2 184/4/2 195/4/2
f 184/2/2 185/2/2 195/2/2
f 195/2/2 186/2/2 196/2/2
f 186/1/2 187/1/2 197/1/2
f 196/2/2 186/2/2 197/2/2
f 187/4/2 188/4/2 198/4/2
f 197/1/2 187/1/2 198/1/2
f 188/1/2 189/1/2 199/1/2
f 198/4/2 188/4/2 199/4/2
f 190/2/2 191/2/2 200/2/2
f 199/1/2 189/1/2 200/1/2
f 189/2/2 190/2/2 200/2/2
f 200/2/2 191/2/2 201/2/2
f 191/4/2 192/4/2 202/4/2
f 201/2/2 191/2/2 202/2/2
f 202/4/2 192/4/2 203/4/2
f 203/4/2 192/4/2 204/4/2
f 193/3/2 194/3/2 205/3/2
f 183/4/2 193/4/2 205/4/2
f 195/2/2 196/2/2 206/2/2
f 205/3/2 194/3/2 206/3/2
f 194/2/2 195/2/2 206/2/2
f 206/2/2 196/2/2 207/2/2
f 196/1/2 197/1/2 208/1/2
f 207/2/2 196/2/2 208/2/2
f 197/4/2 198/4/2 209/4/2
f 208/1/2 197/1/2 209/1/2
f 209/4/2 198/4/2 210/4/2
f 199/4/2 200/4/2 211/4/2
f 200/1/2 201/1/2 212/1/2
f 211/4/2 200/4/2 212/4/2
f 201/2/2 202/2/2 213/2/2
f 212/1/2 201/1/2 213/1/2
f 202/2/2 203/2/2 213/2/2
f 213/2/2 203/2/2 214/2/2
f 203/3/2 204/3/2 215/3/2
f 214/2/2 203/2/2 215/2/2
f 204/4/2 192/4/2 216/4/2
f 215/3/2 204/3/2 216/3/2
f 183/4/2 205/4/2 217/4/2
f 206/4/2 207/4/2 217/4/2
f 205/4/2 206/4/2 217/4/2
f 207/2/2 208/2/2 218/2/2
f 217/4/2 207/4/2 218/4/2
f 208/2/2 209/2/2 218/2/2
f 218/2/2 209/2/2 219/2/2
f 209/1/2 210/1/2 220/1/2
f 219/2/2 209/2/2 220/2/2
f 210/4/2 211/4/2 221/4/2
f 220/1/2 210/1/2 221/1/2
f 211/1/2 212/1/2 222/1/2
f 221/4/2 211/4/2 222/4/2
f 213/2/2 214/2/2 223/2/2
f 222/1/2 212/1/2 223/1/2
f 212/2/2 213/2/2 223/2/2
f 223/2/2 214/2/2 224/2/2
f 214/4/2 215/4/2 225/4/2
f 224/2/2 214/2/2 225/2/2
f 215/4/2 216/4/2 225/4/2
f 216/4/2 192/4/2 226/4/2
f 225/4/2 216/4/2 226/4/2
f 218/4/2 219/4/2 228/4/2
f 220/2/2 221/2/2 229/2/2
f 219/2/2 220/2/2 229/2/2
f 228/4/2 219/4/2 229/4/2
f 221/1/2 222/1/2 230/1/2
f 229/2/2 221/2/2 230/2/2
f 223/2/2 224/2/2 231/2/2
f 230/1/2 222/1/2 231/1/2
f 222/2/2 223/2/2 231/2/2
f 224/4/2 225/4/2 232/4/2
f 231/2/2 224/2/2 232/2/2
f 232/4/2 225/4/2 233/4/2
f 227/4/2 228/4/2 236/4/2
f 229/2/2 230/2/2 237/2/2
f 230/2/2 231/2/2 237/2/2
f 236/4/2 228/4/2 237/4/2
f 228/2/2 229/2/2 237/2/2
f 232/2/2 233/2/2 237/2/2
f 231/2/2 232/2/2 237/2/2
f 237/2/2 233/2/2 238/2/2
f 238/2/2 233/2/2 239/2/2
f 239/2/2 233/2/2 240/2/2
f 240/2/2 233/2/2 241/2/2
f 233/4/2 234/4/2 242/4/2
f 241/2/2 233/2/2 242/2/2
f 242/4/2 234/4/2 243/4/2
f 236/3/2 237/3/2 245/3/2
f 237/2/2 238/2/2 245/2/2
f 245/2/2 238/2/2 246/2/2
f 238/4/2 239/4/2 247/4/2
f 246/2/2 238/2/2 247/2/2
f 239/2/2 240/2/2 248/2/2
f 247/4/2 239/4/2 248/4/2
f 248/2/2 240/2/2 249/2/2
f 249/2/2 240/2/2 250/2/2
f 240/4/2 241/4/2 251/4/2
f 250/2/2 240/2/2 251/2/2
f 241/2/2 242/2/2 252/2/2
f 251/4/2 241/4/2 252/4/2
f 252/2/2 242/2/2 253/2/2
f 242/3/2 243/3/2 254/3/2
f 253/2/2 242/2/2 254/2/2
f 235/4/2 236/4/2 255/4/2
f 245/3/2 246/3/2 256/3/2
f 255/4/2 236/4/2 256/4/2
f 236/3/2 245/3/2 256/3/2
f 246/4/2 247/4/2 257/4/2
f 256/3/2 246/3/2 257/3/2
f 257/4/2 247/4/2 258/4/2
f 249/2/2 250/2/2 259/2/2
f 248/4/2 249/4/2 259/4/2
f 250/4/2 251/4/2 260/4/2
f 259/2/2 250/2/2 260/2/2
f 252/4/2 253/4/2 261/4/2
f 253/3/2 254/3/2 262/3/2
f 261/4/2 253/4/2 262/4/2
f 254/3/2 243/3/2 263/3/2
f 262/3/2 254/3/2 263/3/2
f 243/4/2 244/4/2 263/4/2
f 263/4/2 244/4/2 264/4/2
f 256/4/2 257/4/2 265/4/2
f 265/4/2 257/4/2 266/4/2
f 259/3/2 260/3/2 267/3/2
f 248/4/2 259/4/2 267/4/2
f 260/4/2 251/4/2 268/4/2
f 267/3/2 260/3/2 268/3/2
f 262/4/2 263/4/2 269/4/2
f 269/4/2 263/4/2 270/4/2
f 248/4/2 267/4/2 271/4/2
f 267/4/2 268/4/2 271/4/2
f 268/4/2 251/4/2 272/4/2
f 271/4/2 268/4/2 272/4/2
f 275/4/3 274/4/3 273/4/3
f 276/4/3 274/4/3 275/4/3
f 281/4/3 278/4/3 277/4/3
f 282/4/3 278/4/3 281/4/3
f 283/4/3 280/4/3 279/4/3
f 284/4/3 280/4/3 283/4/3
f 293/4/3 286/4/3 285/4/3
f 294/4/3 286/4/3 293/4/3
f 295/4/3 288/4/3 287/4/3
f 296/4/3 288/4/3 295/4/3
f 297/4/3 290/4/3 289/4/3
f 298/4/3 290/4/3 297/4/3
f 299/4/3 292/4/3 291/4/3
f 300/4/3 292/4/3 299/4/3
f 305/4/3 302/4/3 301/4/3
f 306/4/3 302/4/3 305/4/3
f 307/4/3 304/4/3 303/4/3
f 308/4/3 304/4/3 307/4/3
f 313/4/3 310/4/3 309/4/3
f 314/4/3 310/4/3 313/4/3
f 315/4/3 312/4/3 311/4/3
f 316/4/3 312/4/3 315/4/3
f 319/4/3 318/4/3 317/4/3
f 320/4/3 318/4/3 319/4/3
f 325/4/3 322/4/3 321/4/3
f 326/4/3 322/4/3 325/4/3
f 327/4/3 324/4/3 323/4/3
f 328/4/3 324/4/3 327/4/3
f 333/4/3 330/4/3 329/4/3
f 334/4/3 330/4/3 333/4/3
f 335/4/3 332/4/3 331/4/3
f 336/4/3 332/4/3 335/4/3
f 337/4/4 338/4/4 341/4/4
f 341/4/4 338/4/4 342/4/4
f 339/4/4 340/4/4 343/4/4
f 343/4/4 340/4/4 344/4/4
f 345/4/4 346/4/4 349/4/4
f 349/4/4 346/4/4 350/4/4
f 347/4/4 348/4/4 351/4/4
f 351/4/4 348/4/4 352/4/4
f 353/4/4 354/4/4 355/4/4
f 355/4/4 354/4/4 356/4/4
f 357/4/4 358/4/4 361/4/4
f 361/4/4 358/4/4 362/4/4
f 359/4/4 360/4/4 363/4/4
f 363/4/4 360/4/4 364/4/4
f 365/4/4 366/4/4 369/4/4
f 369/4/4 366/4/4 370/4/4
f 367/4/4 368/4/4 371/4/4
f 371/4/4 368/4/4 372/4/4
f 373/4/4 374/4/4 381/4/4
f 381/4/4 374/4/4 382/4/4
f 375/4/4 376/4/4 383/4/4
f 383/4/4 376/4/4 384/4/4
f 377/4/4 378/4/4 385/4/4
f 385/4/4 378/4/4 386/4/4
f 379/4/4 380/4/4 387/4/4
f 387/4/4 380/4/4 388/4/4
f 389/4/4 390/4/4 393/4/4
f 393/4/4 390/4/4 394/4/4
f 391/4/4 392/4/4 395/4/4
f 395/4/4 392/4/4 396/4/4
f 397/4/4 398/4/4 399/4/4
f 399/4/4 398/4/4 400/4/4
f 403/4/5 402/4/5 401/4/5
f 404/4/5 402/4/5 403/4/5
f 407/4/5 406/4/5 405/4/5
f 408/4/5 406/4/5 407/4/5
f 411/4/5 410/4/5 409/4/5
f 412/4/5 410/4/5 411/4/5
f 415/4/5 414/4/5 413/4/5
f 416/4/5 414/4/5 415/4/5
f 419/4/5 418/4/5 417/4/5
f 420/4/5 418/4/5 419/4/5
f 423/4/5 422/4/5 421/4/5
f 424/4/5 422/4/5 423/4/5
f 427/4/5 426/4/5 425/4/5
f 428/4/5 426/4/5 427/4/5
f 431/4/5 430/4/5 429/4/5
f 432/4/5 430/4/5 431/4/5
f 435/4/5 434/4/5 433/4/5
f 436/4/5 434/4/5 435/4/5
f 439/4/5 438/4/5 437/4/5
f 440/4/5 438/4/5 439/4/5
f 443/4/5 442/4/5 441/4/5
f 444/4/5 442/4/5 443/4/5
f 447/4/5 446/4/5 445/4/5
f 448/4/5 446/4/5 447/4/5
f 451/4/5 450/4/5 449/4/5
f 452/4/5 450/4/5 451/4/5
f 455/4/5 454/4/5 453/4/5
f 456/4/5 454/4/5 455/4/5
f 459/4/5 458/4/5 457/4/5
f 460/4/5 458/4/5 459/4/5
f 463/4/5 462/4/5 461/4/5
f 464/4/5 462/4/5 463/4/5
f 465/4/6 466/4/6 467/4/6
f 467/4/6 466/4/6 468/4/6
f 469/4/6 470/4/6 471/4/6
f 471/4/6 470/4/6 472/4/6
f 473/4/6 474/4/6 475/4/6
f 475/4/6 474/4/6 476/4/6
f 477/4/6 478/4/6 479/4/6
f 479/4/6 478/4/6 480/4/6
f 481/4/6 482/4/6 483/4/6
f 483/4/6 482/4/6 484/4/6
f 485/4/6 486/4/6 487/4/6
f 487/4/6 486/4/6 488/4/6
f 489/4/6 490/4/6 491/4/6
f 491/4/6 490/4/6 492/4/6
f 493/4/6 494/4/6 495/4/6
f 495/4/6 494/4/6 496/4/6
f 497/4/6 498/4/6 499/4/6
f 499/4/6 498/4/6 500/4/6
f 501/4/6 502/4/6 503/4/6
f 503/4/6 502/4/6 504/4/6
f 505/4/6 506/4/6 507/4/6
f 507/4/6 506/4/6 508/4/6
f 509/4/6 510/4/6 511/4/6
f 511/4/6 510/4/6 512/4/6
f 513/4/6 514/4/6 515/4/6
f 515/4/6 514/4/6 516/4/6
f 517/4/6 518/4/6 519/4/6
f 519/4/6 518/4/6 520/4/6
f 521/4/6 522/4/6 523/4/6
f 523/4/6 522/4/6 524/4/6
f 525/4/6 526/4/6 527/4/6
f 527/4/6 526/4/6 528/4/6
