# MagicaVoxel @ Ephtracy

# group
o 

# material
mtllib pumpkin.mtl
usemtl palette

# normals
vn -1 0 0
vn 1 0 0
vn 0 0 1
vn 0 0 -1
vn 0 -1 0
vn 0 1 0

# texcoords
vt 0.208984 0.5
vt 0.427734 0.5
vt 0.583984 0.5
vt 0.994141 0.5

# verts
v -1.3 0.1 1.1
v -1.3 0.1 -1.2
v -1.3 0.2 1
v -1.3 0.2 -1.1
v -1.3 2.4 1
v -1.3 2.4 -1.1
v -1.3 2.5 1.1
v -1.3 2.5 -1.2
v -1.2 0 1.1
v -1.2 0 -1.2
v -1.2 0.1 1.2
v -1.2 0.1 1.1
v -1.2 0.1 -1.2
v -1.2 0.1 -1.3
v -1.2 2.5 1.2
v -1.2 2.5 1.1
v -1.2 2.5 -1.2
v -1.2 2.5 -1.3
v -1.2 2.6 1.1
v -1.2 2.6 -1.2
v -0.2 2.6 0.1
v -0.2 2.6 -0.3
v -0.2 2.7 0.1
v -0.2 2.7 -0.3
v -0.2 3.3 -0.0999999
v -0.2 3.3 -0.3
v -0.2 3.5 -0.0999999
v -0.2 3.5 -0.3
v -0.0999999 2.7 0
v -0.0999999 2.7 -0.2
v -0.0999999 2.9 0
v -0.0999999 2.9 -0.2
v -0.0999999 3.1 -0.2
v -0.0999999 3.1 -0.4
v -0.0999999 3.3 -0.2
v -0.0999999 3.3 -0.3
v -0.0999999 3.3 -0.4
v 0 2.9 -0.0999999
v 0 2.9 -0.2
v 0 2.9 -0.3
v 0 3.1 -0.0999999
v 0 3.1 -0.2
v 0 3.1 -0.3
v 0 3.3 -0.0999999
v 0 3.3 -0.2
v 0 3.3 -0.3
v 0 3.5 -0.0999999
v 0 3.5 -0.3
v 0.1 2.7 0
v 0.1 2.7 -0.2
v 0.1 2.9 0
v 0.1 2.9 -0.0999999
v 0.1 2.9 -0.2
v 0.1 3.1 -0.2
v 0.1 3.1 -0.3
v 0.1 3.1 -0.4
v 0.1 3.3 -0.2
v 0.1 3.3 -0.4
v 0.2 2.6 0.1
v 0.2 2.6 -0.3
v 0.2 2.7 0.1
v 0.2 2.7 -0.3
v 0.2 2.9 -0.0999999
v 0.2 2.9 -0.3
v 0.2 3.1 -0.0999999
v 0.2 3.1 -0.3
v 1.2 0 1.1
v 1.2 0 -1.2
v 1.2 0.1 1.2
v 1.2 0.1 1.1
v 1.2 0.1 -1.2
v 1.2 0.1 -1.3
v 1.2 0.4 0.8
v 1.2 0.4 0.7
v 1.2 0.4 -0.8
v 1.2 0.4 -0.9
v 1.2 0.5 0.8
v 1.2 0.5 0.7
v 1.2 0.5 -0.8
v 1.2 0.5 -0.9
v 1.2 0.7 0.4
v 1.2 0.7 0.3
v 1.2 0.7 0
v 1.2 0.7 -0.0999999
v 1.2 0.7 -0.4
v 1.2 0.7 -0.5
v 1.2 0.8 0.4
v 1.2 0.8 0.3
v 1.2 0.8 0
v 1.2 0.8 -0.0999999
v 1.2 0.8 -0.4
v 1.2 0.8 -0.5
v 1.2 1.4 0.7
v 1.2 1.4 0.2
v 1.2 1.4 -0.3
v 1.2 1.4 -0.8
v 1.2 2 0.5
v 1.2 2 0.2
v 1.2 2 -0.3
v 1.2 2 -0.6
v 1.2 2.2 0.7
v 1.2 2.2 0.5
v 1.2 2.2 -0.6
v 1.2 2.2 -0.8
v 1.2 2.5 1.2
v 1.2 2.5 1.1
v 1.2 2.5 -1.2
v 1.2 2.5 -1.3
v 1.2 2.6 1.1
v 1.2 2.6 -1.2
v 1.3 0.1 1.1
v 1.3 0.1 -1.2
v 1.3 0.2 1
v 1.3 0.2 -1.1
v 1.3 0.3 0.9
v 1.3 0.3 0.6
v 1.3 0.3 -0.7
v 1.3 0.3 -1
v 1.3 0.4 0.8
v 1.3 0.4 0.7
v 1.3 0.4 -0.8
v 1.3 0.4 -0.9
v 1.3 0.5 0.8
v 1.3 0.5 0.7
v 1.3 0.5 -0.8
v 1.3 0.5 -0.9
v 1.3 0.6 0.9
v 1.3 0.6 0.6
v 1.3 0.6 0.5
v 1.3 0.6 0.2
v 1.3 0.6 0.1
v 1.3 0.6 -0.2
v 1.3 0.6 -0.3
v 1.3 0.6 -0.6
v 1.3 0.6 -0.7
v 1.3 0.6 -1
v 1.3 0.7 0.4
v 1.3 0.7 0.3
v 1.3 0.7 0
v 1.3 0.7 -0.0999999
v 1.3 0.7 -0.4
v 1.3 0.7 -0.5
v 1.3 0.8 0.4
v 1.3 0.8 0.3
v 1.3 0.8 0
v 1.3 0.8 -0.0999999
v 1.3 0.8 -0.4
v 1.3 0.8 -0.5
v 1.3 0.9 0.5
v 1.3 0.9 0.2
v 1.3 0.9 0.1
v 1.3 0.9 -0.2
v 1.3 0.9 -0.3
v 1.3 0.9 -0.6
v 1.3 1.3 0.8
v 1.3 1.3 0.1
v 1.3 1.3 -0.2
v 1.3 1.3 -0.9
v 1.3 1.4 0.7
v 1.3 1.4 0.2
v 1.3 1.4 -0.3
v 1.3 1.4 -0.8
v 1.3 2 0.5
v 1.3 2 0.2
v 1.3 2 -0.3
v 1.3 2 -0.6
v 1.3 2.1 0.4
v 1.3 2.1 0.1
v 1.3 2.1 -0.2
v 1.3 2.1 -0.5
v 1.3 2.2 0.7
v 1.3 2.2 0.5
v 1.3 2.2 -0.6
v 1.3 2.2 -0.8
v 1.3 2.3 0.8
v 1.3 2.3 0.4
v 1.3 2.3 -0.5
v 1.3 2.3 -0.9
v 1.3 2.4 1
v 1.3 2.4 -1.1
v 1.3 2.5 1.1
v 1.3 2.5 -1.2
v -1.2 0.1 1.2
v -1.2 2.5 1.2
v -1.1 0.2 1.2
v -1.1 2.4 1.2
v 1.1 0.2 1.2
v 1.1 2.4 1.2
v 1.2 0.1 1.2
v 1.2 2.5 1.2
v -1.3 0.1 1.1
v -1.3 2.5 1.1
v -1.2 0 1.1
v -1.2 0.1 1.1
v -1.2 2.5 1.1
v -1.2 2.6 1.1
v 1.2 0 1.1
v 1.2 0.1 1.1
v 1.2 2.5 1.1
v 1.2 2.6 1.1
v 1.3 0.1 1.1
v 1.3 2.5 1.1
v 1.2 0.4 0.7
v 1.2 0.5 0.7
v 1.3 0.4 0.7
v 1.3 0.5 0.7
v 1.2 2 0.5
v 1.2 2.2 0.5
v 1.3 2 0.5
v 1.3 2.2 0.5
v 1.2 0.7 0.3
v 1.2 0.8 0.3
v 1.3 0.7 0.3
v 1.3 0.8 0.3
v 1.2 1.4 0.2
v 1.2 2 0.2
v 1.3 1.4 0.2
v 1.3 2 0.2
v -0.2 2.6 0.1
v -0.2 2.7 0.1
v 0.2 2.6 0.1
v 0.2 2.7 0.1
v -0.0999999 2.7 0
v -0.0999999 2.9 0
v 0.1 2.7 0
v 0.1 2.9 0
v -0.2 3.3 -0.0999999
v -0.2 3.5 -0.0999999
v 0 2.9 -0.0999999
v 0 3.1 -0.0999999
v 0 3.3 -0.0999999
v 0 3.5 -0.0999999
v 0.1 2.9 -0.0999999
v 0.2 2.9 -0.0999999
v 0.2 3.1 -0.0999999
v 1.2 0.7 -0.0999999
v 1.2 0.8 -0.0999999
v 1.3 0.7 -0.0999999
v 1.3 0.8 -0.0999999
v -0.0999999 3.1 -0.2
v -0.0999999 3.3 -0.2
v 0 3.1 -0.2
v 0 3.3 -0.2
v 0.1 3.1 -0.2
v 0.1 3.3 -0.2
v 1.2 0.7 -0.5
v 1.2 0.8 -0.5
v 1.3 0.7 -0.5
v 1.3 0.8 -0.5
v 1.2 1.4 -0.8
v 1.2 2.2 -0.8
v 1.3 1.4 -0.8
v 1.3 2.2 -0.8
v 1.2 0.4 -0.9
v 1.2 0.5 -0.9
v 1.3 0.4 -0.9
v 1.3 0.5 -0.9
v 1.2 0.4 0.8
v 1.2 0.5 0.8
v 1.3 0.4 0.8
v 1.3 0.5 0.8
v 1.2 1.4 0.7
v 1.2 2.2 0.7
v 1.3 1.4 0.7
v 1.3 2.2 0.7
v 1.2 0.7 0.4
v 1.2 0.8 0.4
v 1.3 0.7 0.4
v 1.3 0.8 0.4
v 1.2 0.7 0
v 1.2 0.8 0
v 1.3 0.7 0
v 1.3 0.8 0
v -0.0999999 2.7 -0.2
v -0.0999999 2.9 -0.2
v 0 2.9 -0.2
v 0.1 2.7 -0.2
v 0.1 2.9 -0.2
v -0.2 2.6 -0.3
v -0.2 2.7 -0.3
v -0.2 3.3 -0.3
v -0.2 3.5 -0.3
v -0.0999999 3.3 -0.3
v 0 2.9 -0.3
v 0 3.1 -0.3
v 0 3.3 -0.3
v 0 3.5 -0.3
v 0.1 3.1 -0.3
v 0.2 2.6 -0.3
v 0.2 2.7 -0.3
v 0.2 2.9 -0.3
v 0.2 3.1 -0.3
v 1.2 1.4 -0.3
v 1.2 2 -0.3
v 1.3 1.4 -0.3
v 1.3 2 -0.3
v -0.0999999 3.1 -0.4
v -0.0999999 3.3 -0.4
v 0.1 3.1 -0.4
v 0.1 3.3 -0.4
v 1.2 0.7 -0.4
v 1.2 0.8 -0.4
v 1.3 0.7 -0.4
v 1.3 0.8 -0.4
v 1.2 2 -0.6
v 1.2 2.2 -0.6
v 1.3 2 -0.6
v 1.3 2.2 -0.6
v 1.2 0.4 -0.8
v 1.2 0.5 -0.8
v 1.3 0.4 -0.8
v 1.3 0.5 -0.8
v -1.3 0.1 -1.2
v -1.3 2.5 -1.2
v -1.2 0 -1.2
v -1.2 0.1 -1.2
v -1.2 2.5 -1.2
v -1.2 2.6 -1.2
v 1.2 0 -1.2
v 1.2 0.1 -1.2
v 1.2 2.5 -1.2
v 1.2 2.6 -1.2
v 1.3 0.1 -1.2
v 1.3 2.5 -1.2
v -1.2 0.1 -1.3
v -1.2 2.5 -1.3
v -1.1 0.2 -1.3
v -1.1 2.4 -1.3
v 1.1 0.2 -1.3
v 1.1 2.4 -1.3
v 1.2 0.1 -1.3
v 1.2 2.5 -1.3
v -1.2 0 1.1
v 1.2 0 1.1
v -1.1 0 1
v 1.1 0 1
v -1.1 0 -1.1
v 1.1 0 -1.1
v -1.2 0 -1.2
v 1.2 0 -1.2
v -1.2 0.1 1.2
v 1.2 0.1 1.2
v -1.3 0.1 1.1
v -1.2 0.1 1.1
v 1.2 0.1 1.1
v 1.3 0.1 1.1
v -1.3 0.1 -1.2
v -1.2 0.1 -1.2
v 1.2 0.1 -1.2
v 1.3 0.1 -1.2
v -1.2 0.1 -1.3
v 1.2 0.1 -1.3
v 1.2 0.5 0.8
v 1.3 0.5 0.8
v 1.2 0.5 0.7
v 1.3 0.5 0.7
v 1.2 0.5 -0.8
v 1.3 0.5 -0.8
v 1.2 0.5 -0.9
v 1.3 0.5 -0.9
v 1.2 0.8 0.4
v 1.3 0.8 0.4
v 1.2 0.8 0.3
v 1.3 0.8 0.3
v 1.2 0.8 0
v 1.3 0.8 0
v 1.2 0.8 -0.0999999
v 1.3 0.8 -0.0999999
v 1.2 0.8 -0.4
v 1.3 0.8 -0.4
v 1.2 0.8 -0.5
v 1.3 0.8 -0.5
v 1.2 2 0.5
v 1.3 2 0.5
v 1.2 2 0.2
v 1.3 2 0.2
v 1.2 2 -0.3
v 1.3 2 -0.3
v 1.2 2 -0.6
v 1.3 2 -0.6
v 1.2 2.2 0.7
v 1.3 2.2 0.7
v 1.2 2.2 0.5
v 1.3 2.2 0.5
v 1.2 2.2 -0.6
v 1.3 2.2 -0.6
v 1.2 2.2 -0.8
v 1.3 2.2 -0.8
v 0.1 2.9 -0.0999999
v 0.2 2.9 -0.0999999
v 0 2.9 -0.2
v 0.1 2.9 -0.2
v 0 2.9 -0.3
v 0.2 2.9 -0.3
v -0.0999999 3.1 -0.2
v 0 3.1 -0.2
v 0 3.1 -0.3
v 0.1 3.1 -0.3
v -0.0999999 3.1 -0.4
v 0.1 3.1 -0.4
v -0.2 3.3 -0.0999999
v 0 3.3 -0.0999999
v -0.0999999 3.3 -0.2
v 0 3.3 -0.2
v -0.2 3.3 -0.3
v -0.0999999 3.3 -0.3
v 1.2 0.4 0.8
v 1.3 0.4 0.8
v 1.2 0.4 0.7
v 1.3 0.4 0.7
v 1.2 0.4 -0.8
v 1.3 0.4 -0.8
v 1.2 0.4 -0.9
v 1.3 0.4 -0.9
v 1.2 0.7 0.4
v 1.3 0.7 0.4
v 1.2 0.7 0.3
v 1.3 0.7 0.3
v 1.2 0.7 0
v 1.3 0.7 0
v 1.2 0.7 -0.0999999
v 1.3 0.7 -0.0999999
v 1.2 0.7 -0.4
v 1.3 0.7 -0.4
v 1.2 0.7 -0.5
v 1.3 0.7 -0.5
v 1.2 1.4 0.7
v 1.3 1.4 0.7
v 1.2 1.4 0.2
v 1.3 1.4 0.2
v 1.2 1.4 -0.3
v 1.3 1.4 -0.3
v 1.2 1.4 -0.8
v 1.3 1.4 -0.8
v -1.2 2.5 1.2
v 1.2 2.5 1.2
v -1.3 2.5 1.1
v -1.2 2.5 1.1
v 1.2 2.5 1.1
v 1.3 2.5 1.1
v -1.3 2.5 -1.2
v -1.2 2.5 -1.2
v 1.2 2.5 -1.2
v 1.3 2.5 -1.2
v -1.2 2.5 -1.3
v 1.2 2.5 -1.3
v -1.2 2.6 1.1
v 1.2 2.6 1.1
v -1.1 2.6 1
v 1.1 2.6 1
v -0.2 2.6 0.1
v 0.2 2.6 0.1
v -0.2 2.6 -0.3
v 0.2 2.6 -0.3
v -1.1 2.6 -1.1
v 1.1 2.6 -1.1
v -1.2 2.6 -1.2
v 1.2 2.6 -1.2
v -0.2 2.7 0.1
v 0.2 2.7 0.1
v -0.0999999 2.7 0
v 0.1 2.7 0
v -0.0999999 2.7 -0.2
v 0.1 2.7 -0.2
v -0.2 2.7 -0.3
v 0.2 2.7 -0.3
v -0.0999999 2.9 0
v 0.1 2.9 0
v 0 2.9 -0.0999999
v 0.1 2.9 -0.0999999
v -0.0999999 2.9 -0.2
v 0 2.9 -0.2
v 0 3.1 -0.0999999
v 0.2 3.1 -0.0999999
v 0 3.1 -0.2
v 0.1 3.1 -0.2
v 0.1 3.1 -0.3
v 0.2 3.1 -0.3
v 0 3.3 -0.2
v 0.1 3.3 -0.2
v -0.0999999 3.3 -0.3
v 0 3.3 -0.3
v -0.0999999 3.3 -0.4
v 0.1 3.3 -0.4
v -0.2 3.5 -0.0999999
v 0 3.5 -0.0999999
v -0.2 3.5 -0.3
v 0 3.5 -0.3

# faces
f 3/4/1 2/4/1 1/4/1
f 4/4/1 2/4/1 3/4/1
f 5/4/1 3/4/1 1/4/1
f 5/1/1 4/1/1 3/1/1
f 6/4/1 2/4/1 4/4/1
f 6/1/1 4/1/1 5/1/1
f 7/4/1 5/4/1 1/4/1
f 7/4/1 6/4/1 5/4/1
f 8/4/1 2/4/1 6/4/1
f 8/4/1 6/4/1 7/4/1
f 12/4/1 10/4/1 9/4/1
f 13/4/1 10/4/1 12/4/1
f 15/4/1 12/4/1 11/4/1
f 16/4/1 12/4/1 15/4/1
f 17/4/1 14/4/1 13/4/1
f 18/4/1 14/4/1 17/4/1
f 19/4/1 17/4/1 16/4/1
f 20/4/1 17/4/1 19/4/1
f 23/3/1 22/3/1 21/3/1
f 24/3/1 22/3/1 23/3/1
f 27/3/1 26/3/1 25/3/1
f 28/3/1 26/3/1 27/3/1
f 31/3/1 30/3/1 29/3/1
f 32/3/1 30/3/1 31/3/1
f 35/3/1 34/3/1 33/3/1
f 36/3/1 34/3/1 35/3/1
f 37/3/1 34/3/1 36/3/1
f 41/3/1 39/3/1 38/3/1
f 41/3/1 40/3/1 39/3/1
f 42/3/1 40/3/1 41/3/1
f 43/3/1 40/3/1 42/3/1
f 44/3/2 45/3/2 47/3/2
f 45/3/2 46/3/2 47/3/2
f 47/3/2 46/3/2 48/3/2
f 49/3/2 50/3/2 51/3/2
f 51/3/2 50/3/2 52/3/2
f 52/3/2 50/3/2 53/3/2
f 54/3/2 55/3/2 57/3/2
f 55/3/2 56/3/2 57/3/2
f 57/3/2 56/3/2 58/3/2
f 59/3/2 60/3/2 61/3/2
f 61/3/2 60/3/2 62/3/2
f 63/3/2 64/3/2 65/3/2
f 65/3/2 64/3/2 66/3/2
f 67/4/2 68/4/2 70/4/2
f 70/4/2 68/4/2 71/4/2
f 73/2/2 74/2/2 77/2/2
f 77/2/2 74/2/2 78/2/2
f 75/2/2 76/2/2 79/2/2
f 79/2/2 76/2/2 80/2/2
f 81/2/2 82/2/2 87/2/2
f 87/2/2 82/2/2 88/2/2
f 83/2/2 84/2/2 89/2/2
f 89/2/2 84/2/2 90/2/2
f 85/2/2 86/2/2 91/2/2
f 91/2/2 86/2/2 92/2/2
f 93/2/2 94/2/2 97/2/2
f 97/2/2 94/2/2 98/2/2
f 95/2/2 96/2/2 99/2/2
f 99/2/2 96/2/2 100/2/2
f 93/2/2 97/2/2 101/2/2
f 101/2/2 97/2/2 102/2/2
f 100/2/2 96/2/2 103/2/2
f 103/2/2 96/2/2 104/2/2
f 69/4/2 70/4/2 105/4/2
f 105/4/2 70/4/2 106/4/2
f 71/4/2 72/4/2 107/4/2
f 107/4/2 72/4/2 108/4/2
f 106/4/2 107/4/2 109/4/2
f 109/4/2 107/4/2 110/4/2
f 111/4/2 112/4/2 113/4/2
f 113/4/2 112/4/2 114/4/2
f 113/1/2 114/1/2 115/1/2
f 115/1/2 114/1/2 116/1/2
f 116/1/2 114/1/2 117/1/2
f 117/1/2 114/1/2 118/1/2
f 115/4/2 116/4/2 119/4/2
f 119/4/2 116/4/2 120/4/2
f 117/4/2 118/4/2 121/4/2
f 121/4/2 118/4/2 122/4/2
f 115/4/2 119/4/2 123/4/2
f 120/4/2 116/4/2 124/4/2
f 117/4/2 121/4/2 125/4/2
f 122/4/2 118/4/2 126/4/2
f 113/1/2 115/1/2 127/1/2
f 115/4/2 123/4/2 127/4/2
f 123/4/2 124/4/2 127/4/2
f 116/1/2 117/1/2 128/1/2
f 127/4/2 124/4/2 128/4/2
f 124/4/2 116/4/2 128/4/2
f 128/1/2 117/1/2 129/1/2
f 129/1/2 117/1/2 130/1/2
f 130/1/2 117/1/2 131/1/2
f 131/1/2 117/1/2 132/1/2
f 132/1/2 117/1/2 133/1/2
f 133/1/2 117/1/2 134/1/2
f 125/4/2 126/4/2 135/4/2
f 134/1/2 117/1/2 135/1/2
f 117/4/2 125/4/2 135/4/2
f 118/1/2 114/1/2 136/1/2
f 135/4/2 126/4/2 136/4/2
f 126/4/2 118/4/2 136/4/2
f 129/4/2 130/4/2 137/4/2
f 137/4/2 130/4/2 138/4/2
f 131/4/2 132/4/2 139/4/2
f 139/4/2 132/4/2 140/4/2
f 133/4/2 134/4/2 141/4/2
f 141/4/2 134/4/2 142/4/2
f 129/4/2 137/4/2 143/4/2
f 138/4/2 130/4/2 144/4/2
f 131/4/2 139/4/2 145/4/2
f 140/4/2 132/4/2 146/4/2
f 133/4/2 141/4/2 147/4/2
f 142/4/2 134/4/2 148/4/2
f 129/4/2 143/4/2 149/4/2
f 127/1/2 128/1/2 149/1/2
f 128/1/2 129/1/2 149/1/2
f 143/4/2 144/4/2 149/4/2
f 130/1/2 131/1/2 150/1/2
f 149/4/2 144/4/2 150/4/2
f 144/4/2 130/4/2 150/4/2
f 131/4/2 145/4/2 151/4/2
f 150/1/2 131/1/2 151/1/2
f 145/4/2 146/4/2 151/4/2
f 132/1/2 133/1/2 152/1/2
f 151/4/2 146/4/2 152/4/2
f 146/4/2 132/4/2 152/4/2
f 147/4/2 148/4/2 153/4/2
f 152/1/2 133/1/2 153/1/2
f 133/4/2 147/4/2 153/4/2
f 134/1/2 135/1/2 154/1/2
f 153/4/2 148/4/2 154/4/2
f 148/4/2 134/4/2 154/4/2
f 135/1/2 136/1/2 154/1/2
f 149/1/2 150/1/2 155/1/2
f 152/1/2 153/1/2 155/1/2
f 153/1/2 154/1/2 155/1/2
f 151/1/2 152/1/2 155/1/2
f 127/1/2 149/1/2 155/1/2
f 150/1/2 151/1/2 155/1/2
f 155/1/2 154/1/2 156/1/2
f 156/1/2 154/1/2 157/1/2
f 154/1/2 136/1/2 158/1/2
f 157/1/2 154/1/2 158/1/2
f 155/4/2 156/4/2 159/4/2
f 159/4/2 156/4/2 160/4/2
f 157/4/2 158/4/2 161/4/2
f 161/4/2 158/4/2 162/4/2
f 160/4/2 156/4/2 164/4/2
f 157/4/2 161/4/2 165/4/2
f 163/4/2 164/4/2 167/4/2
f 156/1/2 157/1/2 168/1/2
f 167/4/2 164/4/2 168/4/2
f 164/4/2 156/4/2 168/4/2
f 165/4/2 166/4/2 169/4/2
f 168/1/2 157/1/2 169/1/2
f 157/4/2 165/4/2 169/4/2
f 169/4/2 166/4/2 170/4/2
f 155/4/2 159/4/2 171/4/2
f 163/4/2 167/4/2 172/4/2
f 170/4/2 166/4/2 173/4/2
f 162/4/2 158/4/2 174/4/2
f 155/4/2 171/4/2 175/4/2
f 127/1/2 155/1/2 175/1/2
f 171/4/2 172/4/2 175/4/2
f 167/1/2 168/1/2 176/1/2
f 175/4/2 172/4/2 176/4/2
f 168/1/2 169/1/2 176/1/2
f 172/4/2 167/4/2 176/4/2
f 169/1/2 170/1/2 176/1/2
f 173/4/2 174/4/2 177/4/2
f 176/1/2 170/1/2 177/1/2
f 170/4/2 173/4/2 177/4/2
f 174/4/2 158/4/2 178/4/2
f 177/4/2 174/4/2 178/4/2
f 158/1/2 136/1/2 178/1/2
f 111/4/2 113/4/2 179/4/2
f 175/1/2 176/1/2 179/1/2
f 177/1/2 178/1/2 179/1/2
f 113/1/2 127/1/2 179/1/2
f 176/1/2 177/1/2 179/1/2
f 127/1/2 175/1/2 179/1/2
f 178/1/2 136/1/2 180/1/2
f 179/1/2 178/1/2 180/1/2
f 114/4/2 112/4/2 180/4/2
f 136/1/2 114/1/2 180/1/2
f 111/4/2 179/4/2 181/4/2
f 179/4/2 180/4/2 181/4/2
f 180/4/2 112/4/2 182/4/2
f 181/4/2 180/4/2 182/4/2
f 185/4/3 184/4/3 183/4/3
f 186/4/3 184/4/3 185/4/3
f 187/4/3 185/4/3 183/4/3
f 187/1/3 186/1/3 185/1/3
f 188/4/3 184/4/3 186/4/3
f 188/1/3 186/1/3 187/1/3
f 189/4/3 187/4/3 183/4/3
f 189/4/3 188/4/3 187/4/3
f 190/4/3 184/4/3 188/4/3
f 190/4/3 188/4/3 189/4/3
f 194/4/3 192/4/3 191/4/3
f 195/4/3 192/4/3 194/4/3
f 197/4/3 194/4/3 193/4/3
f 198/4/3 194/4/3 197/4/3
f 199/4/3 196/4/3 195/4/3
f 200/4/3 196/4/3 199/4/3
f 201/4/3 199/4/3 198/4/3
f 202/4/3 199/4/3 201/4/3
f 205/4/3 204/4/3 203/4/3
f 206/4/3 204/4/3 205/4/3
f 209/4/3 208/4/3 207/4/3
f 210/4/3 208/4/3 209/4/3
f 213/4/3 212/4/3 211/4/3
f 214/4/3 212/4/3 213/4/3
f 217/4/3 216/4/3 215/4/3
f 218/4/3 216/4/3 217/4/3
f 221/3/3 220/3/3 219/3/3
f 222/3/3 220/3/3 221/3/3
f 225/3/3 224/3/3 223/3/3
f 226/3/3 224/3/3 225/3/3
f 231/3/3 228/3/3 227/3/3
f 232/3/3 228/3/3 231/3/3
f 233/3/3 230/3/3 229/3/3
f 234/3/3 230/3/3 233/3/3
f 235/3/3 230/3/3 234/3/3
f 238/4/3 237/4/3 236/4/3
f 239/4/3 237/4/3 238/4/3
f 242/3/3 241/3/3 240/3/3
f 243/3/3 241/3/3 242/3/3
f 244/3/3 243/3/3 242/3/3
f 245/3/3 243/3/3 244/3/3
f 248/4/3 247/4/3 246/4/3
f 249/4/3 247/4/3 248/4/3
f 252/4/3 251/4/3 250/4/3
f 253/4/3 251/4/3 252/4/3
f 256/4/3 255/4/3 254/4/3
f 257/4/3 255/4/3 256/4/3
f 258/4/4 259/4/4 260/4/4
f 260/4/4 259/4/4 261/4/4
f 262/4/4 263/4/4 264/4/4
f 264/4/4 263/4/4 265/4/4
f 266/4/4 267/4/4 268/4/4
f 268/4/4 267/4/4 269/4/4
f 270/4/4 271/4/4 272/4/4
f 272/4/4 271/4/4 273/4/4
f 274/3/4 275/3/4 276/3/4
f 274/3/4 276/3/4 277/3/4
f 277/3/4 276/3/4 278/3/4
f 281/3/4 282/3/4 283/3/4
f 283/3/4 282/3/4 286/3/4
f 286/3/4 282/3/4 287/3/4
f 284/3/4 285/3/4 288/3/4
f 279/3/4 280/3/4 289/3/4
f 289/3/4 280/3/4 290/3/4
f 284/3/4 288/3/4 291/3/4
f 291/3/4 288/3/4 292/3/4
f 293/4/4 294/4/4 295/4/4
f 295/4/4 294/4/4 296/4/4
f 297/3/4 298/3/4 299/3/4
f 299/3/4 298/3/4 300/3/4
f 301/4/4 302/4/4 303/4/4
f 303/4/4 302/4/4 304/4/4
f 305/4/4 306/4/4 307/4/4
f 307/4/4 306/4/4 308/4/4
f 309/4/4 310/4/4 311/4/4
f 311/4/4 310/4/4 312/4/4
f 313/4/4 314/4/4 316/4/4
f 316/4/4 314/4/4 317/4/4
f 315/4/4 316/4/4 319/4/4
f 319/4/4 316/4/4 320/4/4
f 317/4/4 318/4/4 321/4/4
f 321/4/4 318/4/4 322/4/4
f 320/4/4 321/4/4 323/4/4
f 323/4/4 321/4/4 324/4/4
f 325/4/4 326/4/4 327/4/4
f 327/4/4 326/4/4 328/4/4
f 325/4/4 327/4/4 329/4/4
f 327/1/4 328/1/4 329/1/4
f 328/4/4 326/4/4 330/4/4
f 329/1/4 328/1/4 330/1/4
f 325/4/4 329/4/4 331/4/4
f 329/4/4 330/4/4 331/4/4
f 330/4/4 326/4/4 332/4/4
f 331/4/4 330/4/4 332/4/4
f 335/4/5 334/4/5 333/4/5
f 336/4/5 334/4/5 335/4/5
f 337/4/5 335/4/5 333/4/5
f 337/1/5 336/1/5 335/1/5
f 338/4/5 334/4/5 336/4/5
f 338/1/5 336/1/5 337/1/5
f 339/4/5 337/4/5 333/4/5
f 339/4/5 338/4/5 337/4/5
f 340/4/5 334/4/5 338/4/5
f 340/4/5 338/4/5 339/4/5
f 344/4/5 342/4/5 341/4/5
f 345/4/5 342/4/5 344/4/5
f 347/4/5 344/4/5 343/4/5
f 348/4/5 344/4/5 347/4/5
f 349/4/5 346/4/5 345/4/5
f 350/4/5 346/4/5 349/4/5
f 351/4/5 349/4/5 348/4/5
f 352/4/5 349/4/5 351/4/5
f 355/4/5 354/4/5 353/4/5
f 356/4/5 354/4/5 355/4/5
f 359/4/5 358/4/5 357/4/5
f 360/4/5 358/4/5 359/4/5
f 363/4/5 362/4/5 361/4/5
f 364/4/5 362/4/5 363/4/5
f 367/4/5 366/4/5 365/4/5
f 368/4/5 366/4/5 367/4/5
f 371/4/5 370/4/5 369/4/5
f 372/4/5 370/4/5 371/4/5
f 375/4/5 374/4/5 373/4/5
f 376/4/5 374/4/5 375/4/5
f 379/4/5 378/4/5 377/4/5
f 380/4/5 378/4/5 379/4/5
f 383/4/5 382/4/5 381/4/5
f 384/4/5 382/4/5 383/4/5
f 387/4/5 386/4/5 385/4/5
f 388/4/5 386/4/5 387/4/5
f 392/3/5 390/3/5 389/3/5
f 393/3/5 392/3/5 391/3/5
f 394/3/5 390/3/5 392/3/5
f 394/3/5 392/3/5 393/3/5
f 397/3/5 396/3/5 395/3/5
f 399/3/5 397/3/5 395/3/5
f 399/3/5 398/3/5 397/3/5
f 400/3/5 398/3/5 399/3/5
f 403/3/5 402/3/5 401/3/5
f 404/3/5 402/3/5 403/3/5
f 405/3/5 403/3/5 401/3/5
f 406/3/5 403/3/5 405/3/5
f 407/4/6 408/4/6 409/4/6
f 409/4/6 408/4/6 410/4/6
f 411/4/6 412/4/6 413/4/6
f 413/4/6 412/4/6 414/4/6
f 415/4/6 416/4/6 417/4/6
f 417/4/6 416/4/6 418/4/6
f 419/4/6 420/4/6 421/4/6
f 421/4/6 420/4/6 422/4/6
f 423/4/6 424/4/6 425/4/6
f 425/4/6 424/4/6 426/4/6
f 427/4/6 428/4/6 429/4/6
f 429/4/6 428/4/6 430/4/6
f 431/4/6 432/4/6 433/4/6
f 433/4/6 432/4/6 434/4/6
f 435/4/6 436/4/6 438/4/6
f 438/4/6 436/4/6 439/4/6
f 437/4/6 438/4/6 441/4/6
f 441/4/6 438/4/6 442/4/6
f 439/4/6 440/4/6 443/4/6
f 443/4/6 440/4/6 444/4/6
f 442/4/6 443/4/6 445/4/6
f 445/4/6 443/4/6 446/4/6
f 447/4/6 448/4/6 449/4/6
f 449/4/6 448/4/6 450/4/6
f 449/1/6 450/1/6 451/1/6
f 451/1/6 450/1/6 452/1/6
f 449/1/6 451/1/6 453/1/6
f 452/1/6 450/1/6 454/1/6
f 447/4/6 449/4/6 455/4/6
f 453/1/6 454/1/6 455/1/6
f 449/1/6 453/1/6 455/1/6
f 454/1/6 450/1/6 456/1/6
f 455/1/6 454/1/6 456/1/6
f 450/4/6 448/4/6 456/4/6
f 447/4/6 455/4/6 457/4/6
f 455/4/6 456/4/6 457/4/6
f 456/4/6 448/4/6 458/4/6
f 457/4/6 456/4/6 458/4/6
f 459/3/6 460/3/6 461/3/6
f 461/3/6 460/3/6 462/3/6
f 459/3/6 461/3/6 463/3/6
f 462/3/6 460/3/6 464/3/6
f 459/3/6 463/3/6 465/3/6
f 463/3/6 464/3/6 465/3/6
f 464/3/6 460/3/6 466/3/6
f 465/3/6 464/3/6 466/3/6
f 467/3/6 468/3/6 469/3/6
f 469/3/6 468/3/6 470/3/6
f 467/3/6 469/3/6 471/3/6
f 471/3/6 469/3/6 472/3/6
f 473/3/6 474/3/6 475/3/6
f 475/3/6 474/3/6 476/3/6
f 476/3/6 474/3/6 477/3/6
f 477/3/6 474/3/6 478/3/6
f 479/3/6 480/3/6 482/3/6
f 481/3/6 482/3/6 483/3/6
f 482/3/6 480/3/6 484/3/6
f 483/3/6 482/3/6 484/3/6
f 485/3/6 486/3/6 487/3/6
f 487/3/6 486/3/6 488/3/6
