# MagicaVoxel @ Ephtracy

# group
o 

# material
mtllib pumpkinbaby.mtl
usemtl palette

# normals
vn -1 0 0
vn 1 0 0
vn 0 0 1
vn 0 0 -1
vn 0 -1 0
vn 0 1 0

# texcoords
vt 0.208984 0.5
vt 0.427734 0.5
vt 0.583984 0.5
vt 0.994141 0.5

# verts
v -0.5 0 0.5
v -0.5 0 -0.6
v -0.5 0.1 0.4
v -0.5 0.1 -0.5
v -0.5 1 0.4
v -0.5 1 -0.5
v -0.5 1.1 0.5
v -0.5 1.1 -0.6
v -0.1 0.6 0.5
v -0.1 0.6 0.4
v -0.1 0.8 0.5
v -0.1 0.8 0.4
v 0 1.1 0
v 0 1.1 -0.1
v 0 1.2 0
v 0 1.2 -0.1
v 0 1.3 0.1
v 0 1.3 0
v 0 1.4 0
v 0 1.4 -0.1
v 0 1.5 0.1
v 0 1.5 -0.1
v 0.1 1.2 0.1
v 0.1 1.2 0
v 0.1 1.2 -0.1
v 0.1 1.3 0.1
v 0.1 1.3 0
v 0.1 1.3 -0.1
v 0.3 0.2 0.5
v 0.3 0.2 0.4
v 0.3 0.4 0.5
v 0.3 0.4 0.4
v 0.3 0.6 0.5
v 0.3 0.6 0.4
v 0.3 0.8 0.5
v 0.3 0.8 0.4
v -0.2 0.6 0.5
v -0.2 0.6 0.4
v -0.2 0.8 0.5
v -0.2 0.8 0.4
v 0.1 0.2 0.5
v 0.1 0.2 0.4
v 0.1 0.3 0.5
v 0.1 0.3 0.4
v 0.1 1.4 0.1
v 0.1 1.4 0
v 0.1 1.4 -0.1
v 0.1 1.5 0.1
v 0.1 1.5 -0.1
v 0.2 0.3 0.5
v 0.2 0.3 0.4
v 0.2 0.4 0.5
v 0.2 0.4 0.4
v 0.2 0.6 0.5
v 0.2 0.6 0.4
v 0.2 0.8 0.5
v 0.2 0.8 0.4
v 0.2 1.1 0
v 0.2 1.1 -0.1
v 0.2 1.2 0.1
v 0.2 1.2 0
v 0.2 1.3 0
v 0.2 1.3 -0.1
v 0.2 1.4 0.1
v 0.2 1.4 0
v 0.6 0 0.5
v 0.6 0 -0.6
v 0.6 0.1 0.4
v 0.6 0.1 -0.5
v 0.6 1 0.4
v 0.6 1 -0.5
v 0.6 1.1 0.5
v 0.6 1.1 -0.6
v -0.5 0 0.5
v -0.5 1.1 0.5
v -0.4 0.1 0.5
v -0.4 1 0.5
v -0.3 0.5 0.5
v -0.3 0.9 0.5
v -0.2 0.6 0.5
v -0.2 0.8 0.5
v -0.1 0.6 0.5
v -0.1 0.8 0.5
v 0 0.5 0.5
v 0 0.9 0.5
v 0.1 0.2 0.5
v 0.1 0.3 0.5
v 0.1 0.5 0.5
v 0.1 0.9 0.5
v 0.2 0.3 0.5
v 0.2 0.4 0.5
v 0.2 0.6 0.5
v 0.2 0.8 0.5
v 0.3 0.2 0.5
v 0.3 0.4 0.5
v 0.3 0.6 0.5
v 0.3 0.8 0.5
v 0.4 0.5 0.5
v 0.4 0.9 0.5
v 0.5 0.1 0.5
v 0.5 1 0.5
v 0.6 0 0.5
v 0.6 1.1 0.5
v -0.2 0.6 0.4
v -0.2 0.8 0.4
v -0.1 0.6 0.4
v -0.1 0.8 0.4
v 0.1 0.2 0.4
v 0.1 0.3 0.4
v 0.2 0.3 0.4
v 0.2 0.4 0.4
v 0.2 0.6 0.4
v 0.2 0.8 0.4
v 0.3 0.2 0.4
v 0.3 0.4 0.4
v 0.3 0.6 0.4
v 0.3 0.8 0.4
v 0 1.3 0.1
v 0 1.5 0.1
v 0.1 1.2 0.1
v 0.1 1.3 0.1
v 0.1 1.4 0.1
v 0.1 1.5 0.1
v 0.2 1.2 0.1
v 0.2 1.4 0.1
v 0 1.1 0
v 0 1.2 0
v 0.1 1.2 0
v 0.2 1.1 0
v 0.2 1.2 0
v 0 1.3 0
v 0 1.4 0
v 0.1 1.3 0
v 0.1 1.4 0
v 0.2 1.3 0
v 0.2 1.4 0
v 0 1.1 -0.1
v 0 1.2 -0.1
v 0 1.4 -0.1
v 0 1.5 -0.1
v 0.1 1.2 -0.1
v 0.1 1.3 -0.1
v 0.1 1.4 -0.1
v 0.1 1.5 -0.1
v 0.2 1.1 -0.1
v 0.2 1.3 -0.1
v -0.5 0 -0.6
v -0.5 1.1 -0.6
v -0.4 0.1 -0.6
v -0.4 1 -0.6
v 0.5 0.1 -0.6
v 0.5 1 -0.6
v 0.6 0 -0.6
v 0.6 1.1 -0.6
v -0.5 0 0.5
v 0.6 0 0.5
v -0.4 0 0.4
v 0.5 0 0.4
v -0.4 0 -0.5
v 0.5 0 -0.5
v -0.5 0 -0.6
v 0.6 0 -0.6
v 0.1 0.3 0.5
v 0.2 0.3 0.5
v 0.1 0.3 0.4
v 0.2 0.3 0.4
v 0.2 0.4 0.5
v 0.3 0.4 0.5
v 0.2 0.4 0.4
v 0.3 0.4 0.4
v -0.2 0.8 0.5
v -0.1 0.8 0.5
v 0.2 0.8 0.5
v 0.3 0.8 0.5
v -0.2 0.8 0.4
v -0.1 0.8 0.4
v 0.2 0.8 0.4
v 0.3 0.8 0.4
v 0.1 1.2 0.1
v 0.2 1.2 0.1
v 0.1 1.2 0
v 0.2 1.2 0
v 0 1.3 0.1
v 0.1 1.3 0.1
v 0 1.3 0
v 0.1 1.3 0
v 0 1.4 0
v 0.1 1.4 0
v 0 1.4 -0.1
v 0.1 1.4 -0.1
v 0.1 0.2 0.5
v 0.3 0.2 0.5
v 0.1 0.2 0.4
v 0.3 0.2 0.4
v -0.2 0.6 0.5
v -0.1 0.6 0.5
v 0.2 0.6 0.5
v 0.3 0.6 0.5
v -0.2 0.6 0.4
v -0.1 0.6 0.4
v 0.2 0.6 0.4
v 0.3 0.6 0.4
v -0.5 1.1 0.5
v 0.6 1.1 0.5
v -0.4 1.1 0.4
v 0.5 1.1 0.4
v 0 1.1 0
v 0.2 1.1 0
v 0 1.1 -0.1
v 0.2 1.1 -0.1
v -0.4 1.1 -0.5
v 0.5 1.1 -0.5
v -0.5 1.1 -0.6
v 0.6 1.1 -0.6
v 0 1.2 0
v 0.1 1.2 0
v 0 1.2 -0.1
v 0.1 1.2 -0.1
v 0.1 1.3 0
v 0.2 1.3 0
v 0.1 1.3 -0.1
v 0.2 1.3 -0.1
v 0.1 1.4 0.1
v 0.2 1.4 0.1
v 0.1 1.4 0
v 0.2 1.4 0
v 0 1.5 0.1
v 0.1 1.5 0.1
v 0 1.5 -0.1
v 0.1 1.5 -0.1

# faces
f 3/4/1 2/4/1 1/4/1
f 4/4/1 2/4/1 3/4/1
f 5/4/1 3/4/1 1/4/1
f 5/1/1 4/1/1 3/1/1
f 6/4/1 2/4/1 4/4/1
f 6/1/1 4/1/1 5/1/1
f 7/4/1 5/4/1 1/4/1
f 7/4/1 6/4/1 5/4/1
f 8/4/1 2/4/1 6/4/1
f 8/4/1 6/4/1 7/4/1
f 11/4/1 10/4/1 9/4/1
f 12/4/1 10/4/1 11/4/1
f 15/3/1 14/3/1 13/3/1
f 16/3/1 14/3/1 15/3/1
f 19/3/1 18/3/1 17/3/1
f 21/3/1 19/3/1 17/3/1
f 21/3/1 20/3/1 19/3/1
f 22/3/1 20/3/1 21/3/1
f 26/3/1 24/3/1 23/3/1
f 26/3/1 25/3/1 24/3/1
f 27/3/1 25/3/1 26/3/1
f 28/3/1 25/3/1 27/3/1
f 31/1/1 30/1/1 29/1/1
f 32/1/1 30/1/1 31/1/1
f 35/4/1 34/4/1 33/4/1
f 36/4/1 34/4/1 35/4/1
f 37/4/2 38/4/2 39/4/2
f 39/4/2 38/4/2 40/4/2
f 41/1/2 42/1/2 43/1/2
f 43/1/2 42/1/2 44/1/2
f 45/3/2 46/3/2 48/3/2
f 46/3/2 47/3/2 48/3/2
f 48/3/2 47/3/2 49/3/2
f 50/1/2 51/1/2 52/1/2
f 52/1/2 51/1/2 53/1/2
f 54/4/2 55/4/2 56/4/2
f 56/4/2 55/4/2 57/4/2
f 58/3/2 59/3/2 61/3/2
f 61/3/2 59/3/2 62/3/2
f 60/3/2 61/3/2 62/3/2
f 62/3/2 59/3/2 63/3/2
f 60/3/2 62/3/2 64/3/2
f 64/3/2 62/3/2 65/3/2
f 66/4/2 67/4/2 68/4/2
f 68/4/2 67/4/2 69/4/2
f 66/4/2 68/4/2 70/4/2
f 68/1/2 69/1/2 70/1/2
f 69/4/2 67/4/2 71/4/2
f 70/1/2 69/1/2 71/1/2
f 66/4/2 70/4/2 72/4/2
f 70/4/2 71/4/2 72/4/2
f 71/4/2 67/4/2 73/4/2
f 72/4/2 71/4/2 73/4/2
f 76/4/3 75/4/3 74/4/3
f 77/4/3 75/4/3 76/4/3
f 78/1/3 77/1/3 76/1/3
f 79/1/3 77/1/3 78/1/3
f 80/4/3 79/4/3 78/4/3
f 81/4/3 79/4/3 80/4/3
f 82/4/3 80/4/3 78/4/3
f 83/4/3 79/4/3 81/4/3
f 84/1/3 78/1/3 76/1/3
f 84/4/3 83/4/3 82/4/3
f 84/4/3 82/4/3 78/4/3
f 85/4/3 79/4/3 83/4/3
f 85/4/3 83/4/3 84/4/3
f 85/1/3 77/1/3 79/1/3
f 86/1/3 84/1/3 76/1/3
f 86/1/3 85/1/3 84/1/3
f 87/1/3 85/1/3 86/1/3
f 88/1/3 85/1/3 87/1/3
f 89/1/3 77/1/3 85/1/3
f 89/1/3 85/1/3 88/1/3
f 90/1/3 88/1/3 87/1/3
f 91/1/3 88/1/3 90/1/3
f 92/4/3 89/4/3 88/4/3
f 93/4/3 89/4/3 92/4/3
f 94/1/3 86/1/3 76/1/3
f 95/1/3 88/1/3 91/1/3
f 96/4/3 92/4/3 88/4/3
f 97/4/3 89/4/3 93/4/3
f 98/4/3 96/4/3 88/4/3
f 98/4/3 97/4/3 96/4/3
f 98/1/3 95/1/3 94/1/3
f 98/1/3 88/1/3 95/1/3
f 99/1/3 77/1/3 89/1/3
f 99/4/3 97/4/3 98/4/3
f 99/4/3 89/4/3 97/4/3
f 100/4/3 76/4/3 74/4/3
f 100/1/3 98/1/3 94/1/3
f 100/1/3 99/1/3 98/1/3
f 100/1/3 94/1/3 76/1/3
f 101/1/3 77/1/3 99/1/3
f 101/1/3 99/1/3 100/1/3
f 101/4/3 75/4/3 77/4/3
f 102/4/3 100/4/3 74/4/3
f 102/4/3 101/4/3 100/4/3
f 103/4/3 75/4/3 101/4/3
f 103/4/3 101/4/3 102/4/3
f 106/2/3 105/2/3 104/2/3
f 107/2/3 105/2/3 106/2/3
f 110/2/3 109/2/3 108/2/3
f 114/2/3 110/2/3 108/2/3
f 114/2/3 111/2/3 110/2/3
f 115/2/3 111/2/3 114/2/3
f 116/2/3 113/2/3 112/2/3
f 117/2/3 113/2/3 116/2/3
f 121/3/3 119/3/3 118/3/3
f 122/3/3 119/3/3 121/3/3
f 123/3/3 119/3/3 122/3/3
f 124/3/3 121/3/3 120/3/3
f 124/3/3 122/3/3 121/3/3
f 125/3/3 122/3/3 124/3/3
f 128/3/3 127/3/3 126/3/3
f 129/3/3 128/3/3 126/3/3
f 130/3/3 128/3/3 129/3/3
f 131/3/4 132/3/4 133/3/4
f 133/3/4 132/3/4 134/3/4
f 133/3/4 134/3/4 135/3/4
f 135/3/4 134/3/4 136/3/4
f 137/3/4 138/3/4 141/3/4
f 139/3/4 140/3/4 143/3/4
f 143/3/4 140/3/4 144/3/4
f 141/3/4 142/3/4 145/3/4
f 137/3/4 141/3/4 145/3/4
f 145/3/4 142/3/4 146/3/4
f 147/4/4 148/4/4 149/4/4
f 149/4/4 148/4/4 150/4/4
f 147/4/4 149/4/4 151/4/4
f 149/1/4 150/1/4 151/1/4
f 150/4/4 148/4/4 152/4/4
f 151/1/4 150/1/4 152/1/4
f 147/4/4 151/4/4 153/4/4
f 151/4/4 152/4/4 153/4/4
f 152/4/4 148/4/4 154/4/4
f 153/4/4 152/4/4 154/4/4
f 157/4/5 156/4/5 155/4/5
f 158/4/5 156/4/5 157/4/5
f 159/4/5 157/4/5 155/4/5
f 159/1/5 158/1/5 157/1/5
f 160/4/5 156/4/5 158/4/5
f 160/1/5 158/1/5 159/1/5
f 161/4/5 159/4/5 155/4/5
f 161/4/5 160/4/5 159/4/5
f 162/4/5 156/4/5 160/4/5
f 162/4/5 160/4/5 161/4/5
f 165/1/5 164/1/5 163/1/5
f 166/1/5 164/1/5 165/1/5
f 169/1/5 168/1/5 167/1/5
f 170/1/5 168/1/5 169/1/5
f 175/4/5 172/4/5 171/4/5
f 176/4/5 172/4/5 175/4/5
f 177/4/5 174/4/5 173/4/5
f 178/4/5 174/4/5 177/4/5
f 181/3/5 180/3/5 179/3/5
f 182/3/5 180/3/5 181/3/5
f 185/3/5 184/3/5 183/3/5
f 186/3/5 184/3/5 185/3/5
f 189/3/5 188/3/5 187/3/5
f 190/3/5 188/3/5 189/3/5
f 191/1/6 192/1/6 193/1/6
f 193/1/6 192/1/6 194/1/6
f 195/4/6 196/4/6 199/4/6
f 199/4/6 196/4/6 200/4/6
f 197/4/6 198/4/6 201/4/6
f 201/4/6 198/4/6 202/4/6
f 203/4/6 204/4/6 205/4/6
f 205/4/6 204/4/6 206/4/6
f 205/1/6 206/1/6 207/1/6
f 207/1/6 206/1/6 208/1/6
f 205/1/6 207/1/6 209/1/6
f 208/1/6 206/1/6 210/1/6
f 203/4/6 205/4/6 211/4/6
f 209/1/6 210/1/6 211/1/6
f 205/1/6 209/1/6 211/1/6
f 210/1/6 206/1/6 212/1/6
f 211/1/6 210/1/6 212/1/6
f 206/4/6 204/4/6 212/4/6
f 203/4/6 211/4/6 213/4/6
f 211/4/6 212/4/6 213/4/6
f 212/4/6 204/4/6 214/4/6
f 213/4/6 212/4/6 214/4/6
f 215/3/6 216/3/6 217/3/6
f 217/3/6 216/3/6 218/3/6
f 219/3/6 220/3/6 221/3/6
f 221/3/6 220/3/6 222/3/6
f 223/3/6 224/3/6 225/3/6
f 225/3/6 224/3/6 226/3/6
f 227/3/6 228/3/6 229/3/6
f 229/3/6 228/3/6 230/3/6
