# MagicaVoxel @ Ephtracy

# group
o 

# material
mtllib showel.mtl
usemtl palette

# normals
vn -1 0 0
vn 1 0 0
vn 0 0 1
vn 0 0 -1
vn 0 -1 0
vn 0 1 0

# texcoords
vt 0.537109 0.5
vt 0.982422 0.5
vt 0.986328 0.5
vt 0.990234 0.5
vt 0.994141 0.5

# verts
v -0.0999999 0 0.2
v -0.0999999 0 -0.3
v -0.0999999 0.1 0.3
v -0.0999999 0.1 0.2
v -0.0999999 0.1 -0.3
v -0.0999999 0.1 -0.4
v -0.0999999 0.3 0.3
v -0.0999999 0.3 0.2
v -0.0999999 0.3 0.1
v -0.0999999 0.3 -0.2
v -0.0999999 0.3 -0.3
v -0.0999999 0.3 -0.4
v -0.0999999 0.4 0.2
v -0.0999999 0.4 0.1
v -0.0999999 0.4 -0.2
v -0.0999999 0.4 -0.3
v -0.0999999 0.5 5.96046e-08
v -0.0999999 0.5 -0.1
v -0.0999999 1.2 0.3
v -0.0999999 1.2 0.1
v -0.0999999 1.2 5.96046e-08
v -0.0999999 1.2 -0.1
v -0.0999999 1.2 -0.2
v -0.0999999 1.2 -0.4
v -0.0999999 1.3 0.4
v -0.0999999 1.3 0.3
v -0.0999999 1.3 5.96046e-08
v -0.0999999 1.3 -0.1
v -0.0999999 1.3 -0.4
v -0.0999999 1.3 -0.5
v -0.0999999 1.6 5.96046e-08
v -0.0999999 1.6 -0.1
v -0.0999999 1.9 0.4
v -0.0999999 1.9 0.3
v -0.0999999 1.9 0.2
v -0.0999999 1.9 -0.3
v -0.0999999 1.9 -0.4
v -0.0999999 1.9 -0.5
v -0.0999999 2 0.3
v -0.0999999 2 0.2
v -0.0999999 2 0.1
v -0.0999999 2 -0.2
v -0.0999999 2 -0.3
v -0.0999999 2 -0.4
v -0.0999999 2.1 0.2
v -0.0999999 2.1 0.1
v -0.0999999 2.1 -0.2
v -0.0999999 2.1 -0.3
v -0.0999999 2.2 0.1
v -0.0999999 2.2 -0.2
v 0.1 0 0.2
v 0.1 0 -0.3
v 0.1 0.1 0.3
v 0.1 0.1 0.2
v 0.1 0.1 -0.3
v 0.1 0.1 -0.4
v 0.1 0.3 0.3
v 0.1 0.3 0.2
v 0.1 0.3 0.1
v 0.1 0.3 -0.2
v 0.1 0.3 -0.3
v 0.1 0.3 -0.4
v 0.1 0.4 0.2
v 0.1 0.4 0.1
v 0.1 0.4 -0.2
v 0.1 0.4 -0.3
v 0.1 0.5 5.96046e-08
v 0.1 0.5 -0.1
v 0.1 1.2 0.3
v 0.1 1.2 0.1
v 0.1 1.2 5.96046e-08
v 0.1 1.2 -0.1
v 0.1 1.2 -0.2
v 0.1 1.2 -0.4
v 0.1 1.3 0.4
v 0.1 1.3 0.3
v 0.1 1.3 5.96046e-08
v 0.1 1.3 -0.1
v 0.1 1.3 -0.4
v 0.1 1.3 -0.5
v 0.1 1.6 5.96046e-08
v 0.1 1.6 -0.1
v 0.1 1.9 0.4
v 0.1 1.9 0.3
v 0.1 1.9 0.2
v 0.1 1.9 -0.3
v 0.1 1.9 -0.4
v 0.1 1.9 -0.5
v 0.1 2 0.3
v 0.1 2 0.2
v 0.1 2 0.1
v 0.1 2 -0.2
v 0.1 2 -0.3
v 0.1 2 -0.4
v 0.1 2.1 0.2
v 0.1 2.1 0.1
v 0.1 2.1 -0.2
v 0.1 2.1 -0.3
v 0.1 2.2 0.1
v 0.1 2.2 -0.2
v -0.0999999 1.3 0.4
v -0.0999999 1.9 0.4
v 0.1 1.3 0.4
v 0.1 1.9 0.4
v -0.0999999 0.1 0.3
v -0.0999999 0.3 0.3
v -0.0999999 1.2 0.3
v -0.0999999 1.3 0.3
v -0.0999999 1.9 0.3
v -0.0999999 2 0.3
v 0.1 0.1 0.3
v 0.1 0.3 0.3
v 0.1 1.2 0.3
v 0.1 1.3 0.3
v 0.1 1.9 0.3
v 0.1 2 0.3
v -0.0999999 0 0.2
v -0.0999999 0.1 0.2
v -0.0999999 0.3 0.2
v -0.0999999 0.4 0.2
v -0.0999999 2 0.2
v -0.0999999 2.1 0.2
v 0.1 0 0.2
v 0.1 0.1 0.2
v 0.1 0.3 0.2
v 0.1 0.4 0.2
v 0.1 2 0.2
v 0.1 2.1 0.2
v -0.0999999 0.4 0.1
v -0.0999999 1.2 0.1
v -0.0999999 2.1 0.1
v -0.0999999 2.2 0.1
v 0.1 0.4 0.1
v 0.1 1.2 0.1
v 0.1 2.1 0.1
v 0.1 2.2 0.1
v -0.0999999 0.3 -0.2
v -0.0999999 0.4 -0.2
v 0.1 0.3 -0.2
v 0.1 0.4 -0.2
v -0.0999999 0.1 -0.3
v -0.0999999 0.3 -0.3
v 0.1 0.1 -0.3
v 0.1 0.3 -0.3
v -0.0999999 0.1 0.2
v -0.0999999 0.3 0.2
v 0.1 0.1 0.2
v 0.1 0.3 0.2
v -0.0999999 0.3 0.1
v -0.0999999 0.4 0.1
v 0.1 0.3 0.1
v 0.1 0.4 0.1
v -0.0999999 0.4 -0.2
v -0.0999999 1.2 -0.2
v -0.0999999 2.1 -0.2
v -0.0999999 2.2 -0.2
v 0.1 0.4 -0.2
v 0.1 1.2 -0.2
v 0.1 2.1 -0.2
v 0.1 2.2 -0.2
v -0.0999999 0 -0.3
v -0.0999999 0.1 -0.3
v -0.0999999 0.3 -0.3
v -0.0999999 0.4 -0.3
v -0.0999999 2 -0.3
v -0.0999999 2.1 -0.3
v 0.1 0 -0.3
v 0.1 0.1 -0.3
v 0.1 0.3 -0.3
v 0.1 0.4 -0.3
v 0.1 2 -0.3
v 0.1 2.1 -0.3
v -0.0999999 0.1 -0.4
v -0.0999999 0.3 -0.4
v -0.0999999 1.2 -0.4
v -0.0999999 1.3 -0.4
v -0.0999999 1.9 -0.4
v -0.0999999 2 -0.4
v 0.1 0.1 -0.4
v 0.1 0.3 -0.4
v 0.1 1.2 -0.4
v 0.1 1.3 -0.4
v 0.1 1.9 -0.4
v 0.1 2 -0.4
v -0.0999999 1.3 -0.5
v -0.0999999 1.9 -0.5
v 0.1 1.3 -0.5
v 0.1 1.9 -0.5
v -0.0999999 0 0.2
v 0.1 0 0.2
v -0.0999999 0 -0.3
v 0.1 0 -0.3
v -0.0999999 0.1 0.3
v 0.1 0.1 0.3
v -0.0999999 0.1 0.2
v 0.1 0.1 0.2
v -0.0999999 0.1 -0.3
v 0.1 0.1 -0.3
v -0.0999999 0.1 -0.4
v 0.1 0.1 -0.4
v -0.0999999 0.3 0.2
v 0.1 0.3 0.2
v -0.0999999 0.3 0.1
v 0.1 0.3 0.1
v -0.0999999 0.3 -0.2
v 0.1 0.3 -0.2
v -0.0999999 0.3 -0.3
v 0.1 0.3 -0.3
v -0.0999999 0.4 0.1
v 0.1 0.4 0.1
v -0.0999999 0.4 -0.2
v 0.1 0.4 -0.2
v -0.0999999 1.2 0.3
v 0.1 1.2 0.3
v -0.0999999 1.2 0.1
v 0.1 1.2 0.1
v -0.0999999 1.2 -0.2
v 0.1 1.2 -0.2
v -0.0999999 1.2 -0.4
v 0.1 1.2 -0.4
v -0.0999999 1.3 0.4
v 0.1 1.3 0.4
v -0.0999999 1.3 0.3
v 0.1 1.3 0.3
v -0.0999999 1.3 -0.4
v 0.1 1.3 -0.4
v -0.0999999 1.3 -0.5
v 0.1 1.3 -0.5
v -0.0999999 0.1 0.2
v 0.1 0.1 0.2
v -0.0999999 0.1 -0.3
v 0.1 0.1 -0.3
v -0.0999999 0.3 0.3
v 0.1 0.3 0.3
v -0.0999999 0.3 0.2
v 0.1 0.3 0.2
v -0.0999999 0.3 -0.3
v 0.1 0.3 -0.3
v -0.0999999 0.3 -0.4
v 0.1 0.3 -0.4
v -0.0999999 0.4 0.2
v 0.1 0.4 0.2
v -0.0999999 0.4 0.1
v 0.1 0.4 0.1
v -0.0999999 0.4 -0.2
v 0.1 0.4 -0.2
v -0.0999999 0.4 -0.3
v 0.1 0.4 -0.3
v -0.0999999 1.9 0.4
v 0.1 1.9 0.4
v -0.0999999 1.9 0.3
v 0.1 1.9 0.3
v -0.0999999 1.9 -0.4
v 0.1 1.9 -0.4
v -0.0999999 1.9 -0.5
v 0.1 1.9 -0.5
v -0.0999999 2 0.3
v 0.1 2 0.3
v -0.0999999 2 0.2
v 0.1 2 0.2
v -0.0999999 2 -0.3
v 0.1 2 -0.3
v -0.0999999 2 -0.4
v 0.1 2 -0.4
v -0.0999999 2.1 0.2
v 0.1 2.1 0.2
v -0.0999999 2.1 0.1
v 0.1 2.1 0.1
v -0.0999999 2.1 -0.2
v 0.1 2.1 -0.2
v -0.0999999 2.1 -0.3
v 0.1 2.1 -0.3
v -0.0999999 2.2 0.1
v 0.1 2.2 0.1
v -0.0999999 2.2 -0.2
v 0.1 2.2 -0.2

# faces
f 4/5/1 2/5/1 1/5/1
f 5/5/1 2/5/1 4/5/1
f 7/5/1 4/5/1 3/5/1
f 8/5/1 4/5/1 7/5/1
f 11/5/1 6/5/1 5/5/1
f 12/5/1 6/5/1 11/5/1
f 13/5/1 9/5/1 8/5/1
f 14/5/1 9/5/1 13/5/1
f 15/5/1 11/5/1 10/5/1
f 16/5/1 11/5/1 15/5/1
f 17/5/1 15/5/1 14/5/1
f 18/5/1 15/5/1 17/5/1
f 20/5/1 17/5/1 14/5/1
f 21/1/1 18/1/1 17/1/1
f 21/5/1 17/5/1 20/5/1
f 22/5/1 15/5/1 18/5/1
f 22/1/1 18/1/1 21/1/1
f 23/5/1 15/5/1 22/5/1
f 26/5/1 23/5/1 22/5/1
f 26/5/1 24/5/1 23/5/1
f 26/5/1 22/5/1 21/5/1
f 26/5/1 21/5/1 20/5/1
f 26/5/1 20/5/1 19/5/1
f 27/5/1 24/5/1 26/5/1
f 28/5/1 24/5/1 27/5/1
f 29/5/1 24/5/1 28/5/1
f 31/3/1 27/3/1 26/3/1
f 31/4/1 28/4/1 27/4/1
f 32/3/1 29/3/1 28/3/1
f 32/4/1 28/4/1 31/4/1
f 33/5/1 26/5/1 25/5/1
f 34/3/1 31/3/1 26/3/1
f 34/5/1 26/5/1 33/5/1
f 34/3/1 32/3/1 31/3/1
f 35/3/1 32/3/1 34/3/1
f 36/3/1 29/3/1 32/3/1
f 36/3/1 32/3/1 35/3/1
f 37/5/1 30/5/1 29/5/1
f 37/3/1 29/3/1 36/3/1
f 38/5/1 30/5/1 37/5/1
f 39/5/1 35/5/1 34/5/1
f 40/3/1 36/3/1 35/3/1
f 40/5/1 35/5/1 39/5/1
f 41/3/1 36/3/1 40/3/1
f 42/3/1 36/3/1 41/3/1
f 43/5/1 37/5/1 36/5/1
f 43/3/1 36/3/1 42/3/1
f 44/5/1 37/5/1 43/5/1
f 45/5/1 41/5/1 40/5/1
f 46/3/1 42/3/1 41/3/1
f 46/5/1 41/5/1 45/5/1
f 47/5/1 43/5/1 42/5/1
f 47/3/1 42/3/1 46/3/1
f 48/5/1 43/5/1 47/5/1
f 49/5/1 47/5/1 46/5/1
f 50/5/1 47/5/1 49/5/1
f 51/5/2 52/5/2 54/5/2
f 54/5/2 52/5/2 55/5/2
f 53/5/2 54/5/2 57/5/2
f 57/5/2 54/5/2 58/5/2
f 55/5/2 56/5/2 61/5/2
f 61/5/2 56/5/2 62/5/2
f 58/5/2 59/5/2 63/5/2
f 63/5/2 59/5/2 64/5/2
f 60/5/2 61/5/2 65/5/2
f 65/5/2 61/5/2 66/5/2
f 64/5/2 65/5/2 67/5/2
f 67/5/2 65/5/2 68/5/2
f 64/5/2 67/5/2 70/5/2
f 67/1/2 68/1/2 71/1/2
f 70/5/2 67/5/2 71/5/2
f 68/5/2 65/5/2 72/5/2
f 71/1/2 68/1/2 72/1/2
f 72/5/2 65/5/2 73/5/2
f 72/5/2 73/5/2 76/5/2
f 73/5/2 74/5/2 76/5/2
f 71/5/2 72/5/2 76/5/2
f 70/5/2 71/5/2 76/5/2
f 69/5/2 70/5/2 76/5/2
f 76/5/2 74/5/2 77/5/2
f 77/5/2 74/5/2 78/5/2
f 78/5/2 74/5/2 79/5/2
f 76/2/2 77/2/2 81/2/2
f 77/4/2 78/4/2 81/4/2
f 78/2/2 79/2/2 82/2/2
f 81/4/2 78/4/2 82/4/2
f 75/5/2 76/5/2 83/5/2
f 76/2/2 81/2/2 84/2/2
f 83/5/2 76/5/2 84/5/2
f 81/2/2 82/2/2 84/2/2
f 84/2/2 82/2/2 85/2/2
f 82/2/2 79/2/2 86/2/2
f 85/2/2 82/2/2 86/2/2
f 79/5/2 80/5/2 87/5/2
f 86/2/2 79/2/2 87/2/2
f 87/5/2 80/5/2 88/5/2
f 84/5/2 85/5/2 89/5/2
f 85/2/2 86/2/2 90/2/2
f 89/5/2 85/5/2 90/5/2
f 90/2/2 86/2/2 91/2/2
f 91/2/2 86/2/2 92/2/2
f 86/5/2 87/5/2 93/5/2
f 92/2/2 86/2/2 93/2/2
f 93/5/2 87/5/2 94/5/2
f 90/5/2 91/5/2 95/5/2
f 91/2/2 92/2/2 96/2/2
f 95/5/2 91/5/2 96/5/2
f 92/5/2 93/5/2 97/5/2
f 96/2/2 92/2/2 97/2/2
f 97/5/2 93/5/2 98/5/2
f 96/5/2 97/5/2 99/5/2
f 99/5/2 97/5/2 100/5/2
f 103/5/3 102/5/3 101/5/3
f 104/5/3 102/5/3 103/5/3
f 111/5/3 106/5/3 105/5/3
f 112/5/3 106/5/3 111/5/3
f 113/5/3 108/5/3 107/5/3
f 114/5/3 108/5/3 113/5/3
f 115/5/3 110/5/3 109/5/3
f 116/5/3 110/5/3 115/5/3
f 123/5/3 118/5/3 117/5/3
f 124/5/3 118/5/3 123/5/3
f 125/5/3 120/5/3 119/5/3
f 126/5/3 120/5/3 125/5/3
f 127/5/3 122/5/3 121/5/3
f 128/5/3 122/5/3 127/5/3
f 133/5/3 130/5/3 129/5/3
f 134/5/3 130/5/3 133/5/3
f 135/5/3 132/5/3 131/5/3
f 136/5/3 132/5/3 135/5/3
f 139/5/3 138/5/3 137/5/3
f 140/5/3 138/5/3 139/5/3
f 143/5/3 142/5/3 141/5/3
f 144/5/3 142/5/3 143/5/3
f 145/5/4 146/5/4 147/5/4
f 147/5/4 146/5/4 148/5/4
f 149/5/4 150/5/4 151/5/4
f 151/5/4 150/5/4 152/5/4
f 153/5/4 154/5/4 157/5/4
f 157/5/4 154/5/4 158/5/4
f 155/5/4 156/5/4 159/5/4
f 159/5/4 156/5/4 160/5/4
f 161/5/4 162/5/4 167/5/4
f 167/5/4 162/5/4 168/5/4
f 163/5/4 164/5/4 169/5/4
f 169/5/4 164/5/4 170/5/4
f 165/5/4 166/5/4 171/5/4
f 171/5/4 166/5/4 172/5/4
f 173/5/4 174/5/4 179/5/4
f 179/5/4 174/5/4 180/5/4
f 175/5/4 176/5/4 181/5/4
f 181/5/4 176/5/4 182/5/4
f 177/5/4 178/5/4 183/5/4
f 183/5/4 178/5/4 184/5/4
f 185/5/4 186/5/4 187/5/4
f 187/5/4 186/5/4 188/5/4
f 191/5/5 190/5/5 189/5/5
f 192/5/5 190/5/5 191/5/5
f 195/5/5 194/5/5 193/5/5
f 196/5/5 194/5/5 195/5/5
f 199/5/5 198/5/5 197/5/5
f 200/5/5 198/5/5 199/5/5
f 203/5/5 202/5/5 201/5/5
f 204/5/5 202/5/5 203/5/5
f 207/5/5 206/5/5 205/5/5
f 208/5/5 206/5/5 207/5/5
f 211/5/5 210/5/5 209/5/5
f 212/5/5 210/5/5 211/5/5
f 215/5/5 214/5/5 213/5/5
f 216/5/5 214/5/5 215/5/5
f 219/5/5 218/5/5 217/5/5
f 220/5/5 218/5/5 219/5/5
f 223/5/5 222/5/5 221/5/5
f 224/5/5 222/5/5 223/5/5
f 227/5/5 226/5/5 225/5/5
f 228/5/5 226/5/5 227/5/5
f 229/5/6 230/5/6 231/5/6
f 231/5/6 230/5/6 232/5/6
f 233/5/6 234/5/6 235/5/6
f 235/5/6 234/5/6 236/5/6
f 237/5/6 238/5/6 239/5/6
f 239/5/6 238/5/6 240/5/6
f 241/5/6 242/5/6 243/5/6
f 243/5/6 242/5/6 244/5/6
f 245/5/6 246/5/6 247/5/6
f 247/5/6 246/5/6 248/5/6
f 249/5/6 250/5/6 251/5/6
f 251/5/6 250/5/6 252/5/6
f 253/5/6 254/5/6 255/5/6
f 255/5/6 254/5/6 256/5/6
f 257/5/6 258/5/6 259/5/6
f 259/5/6 258/5/6 260/5/6
f 261/5/6 262/5/6 263/5/6
f 263/5/6 262/5/6 264/5/6
f 265/5/6 266/5/6 267/5/6
f 267/5/6 266/5/6 268/5/6
f 269/5/6 270/5/6 271/5/6
f 271/5/6 270/5/6 272/5/6
f 273/5/6 274/5/6 275/5/6
f 275/5/6 274/5/6 276/5/6
