# MagicaVoxel @ Ephtracy

# group
o 

# material
mtllib tree2.mtl
usemtl palette

# normals
vn -1 0 0
vn 1 0 0
vn 0 0 1
vn 0 0 -1
vn 0 -1 0
vn 0 1 0

# texcoords
vt 0.279297 0.5
vt 0.583984 0.5
vt 0.994141 0.5

# verts
v -2.7 2.4 2.7
v -2.7 2.4 -2.9
v -2.7 2.5 2.6
v -2.7 2.5 -2.8
v -2.7 4.4 2.6
v -2.7 4.4 -2.8
v -2.7 4.5 2.7
v -2.7 4.5 -2.9
v -2 4.5 2
v -2 4.5 -2.1
v -2 4.6 1.9
v -2 4.6 -2
v -2 5.6 1.9
v -2 5.6 -2
v -2 5.7 2
v -2 5.7 -2.1
v -1.4 5.7 1.3
v -1.4 5.7 -1.5
v -1.4 5.8 1.2
v -1.4 5.8 -1.4
v -1.4 6.9 1.2
v -1.4 6.9 -1.4
v -1.4 7 1.3
v -1.4 7 -1.5
v -0.8 7 0.6
v -0.8 7 -0.9
v -0.8 7.1 0.5
v -0.8 7.1 -0.8
v -0.8 7.9 0.5
v -0.8 7.9 -0.8
v -0.8 8 0.6
v -0.8 8 -0.9
v -0.7 0 0.7
v -0.7 0 -0.8
v -0.7 0.1 0.6
v -0.7 0.1 -0.7
v -0.7 2.3 0.6
v -0.7 2.3 -0.7
v -0.7 2.4 0.7
v -0.7 2.4 -0.8
v -0.4 8 0.2
v -0.4 8 -0.5
v -0.4 8.1 0.0999999
v -0.4 8.1 -0.4
v -0.4 8.4 0.0999999
v -0.4 8.4 -0.4
v -0.4 8.5 0.2
v -0.4 8.5 -0.5
v 0.3 8 0.2
v 0.3 8 -0.5
v 0.3 8.1 0.0999999
v 0.3 8.1 -0.4
v 0.3 8.4 0.0999999
v 0.3 8.4 -0.4
v 0.3 8.5 0.2
v 0.3 8.5 -0.5
v 0.8 0 0.7
v 0.8 0 -0.8
v 0.8 0.1 0.6
v 0.8 0.1 -0.7
v 0.8 2.3 0.6
v 0.8 2.3 -0.7
v 0.8 2.4 0.7
v 0.8 2.4 -0.8
v 0.8 7 0.6
v 0.8 7 -0.9
v 0.8 7.1 0.5
v 0.8 7.1 -0.8
v 0.8 7.9 0.5
v 0.8 7.9 -0.8
v 0.8 8 0.6
v 0.8 8 -0.9
v 1.4 5.7 1.3
v 1.4 5.7 -1.5
v 1.4 5.8 1.2
v 1.4 5.8 -1.4
v 1.4 6.9 1.2
v 1.4 6.9 -1.4
v 1.4 7 1.3
v 1.4 7 -1.5
v 2.1 4.5 2
v 2.1 4.5 -2.1
v 2.1 4.6 1.9
v 2.1 4.6 -2
v 2.1 5.6 1.9
v 2.1 5.6 -2
v 2.1 5.7 2
v 2.1 5.7 -2.1
v 2.9 2.4 2.7
v 2.9 2.4 -2.9
v 2.9 2.5 2.6
v 2.9 2.5 -2.8
v 2.9 4.4 2.6
v 2.9 4.4 -2.8
v 2.9 4.5 2.7
v 2.9 4.5 -2.9
v -2.7 2.4 2.7
v -2.7 4.5 2.7
v -2.6 2.5 2.7
v -2.6 4.4 2.7
v 2.8 2.5 2.7
v 2.8 4.4 2.7
v 2.9 2.4 2.7
v 2.9 4.5 2.7
v -2 4.5 2
v -2 5.7 2
v -1.9 4.6 2
v -1.9 5.6 2
v 2 4.6 2
v 2 5.6 2
v 2.1 4.5 2
v 2.1 5.7 2
v -1.4 5.7 1.3
v -1.4 7 1.3
v -1.3 5.8 1.3
v -1.3 6.9 1.3
v 1.3 5.8 1.3
v 1.3 6.9 1.3
v 1.4 5.7 1.3
v 1.4 7 1.3
v -0.7 0 0.7
v -0.7 2.4 0.7
v -0.6 0.1 0.7
v -0.6 2.3 0.7
v 0.7 0.1 0.7
v 0.7 2.3 0.7
v 0.8 0 0.7
v 0.8 2.4 0.7
v -0.8 7 0.6
v -0.8 8 0.6
v -0.7 7.1 0.6
v -0.7 7.9 0.6
v 0.7 7.1 0.6
v 0.7 7.9 0.6
v 0.8 7 0.6
v 0.8 8 0.6
v -0.4 8 0.2
v -0.4 8.5 0.2
v -0.3 8.1 0.2
v -0.3 8.4 0.2
v 0.2 8.1 0.2
v 0.2 8.4 0.2
v 0.3 8 0.2
v 0.3 8.5 0.2
v -0.4 8 -0.5
v -0.4 8.5 -0.5
v -0.3 8.1 -0.5
v -0.3 8.4 -0.5
v 0.2 8.1 -0.5
v 0.2 8.4 -0.5
v 0.3 8 -0.5
v 0.3 8.5 -0.5
v -0.7 0 -0.8
v -0.7 2.4 -0.8
v -0.6 0.1 -0.8
v -0.6 2.3 -0.8
v 0.7 0.1 -0.8
v 0.7 2.3 -0.8
v 0.8 0 -0.8
v 0.8 2.4 -0.8
v -0.8 7 -0.9
v -0.8 8 -0.9
v -0.7 7.1 -0.9
v -0.7 7.9 -0.9
v 0.7 7.1 -0.9
v 0.7 7.9 -0.9
v 0.8 7 -0.9
v 0.8 8 -0.9
v -1.4 5.7 -1.5
v -1.4 7 -1.5
v -1.3 5.8 -1.5
v -1.3 6.9 -1.5
v 1.3 5.8 -1.5
v 1.3 6.9 -1.5
v 1.4 5.7 -1.5
v 1.4 7 -1.5
v -2 4.5 -2.1
v -2 5.7 -2.1
v -1.9 4.6 -2.1
v -1.9 5.6 -2.1
v 2 4.6 -2.1
v 2 5.6 -2.1
v 2.1 4.5 -2.1
v 2.1 5.7 -2.1
v -2.7 2.4 -2.9
v -2.7 4.5 -2.9
v -2.6 2.5 -2.9
v -2.6 4.4 -2.9
v 2.8 2.5 -2.9
v 2.8 4.4 -2.9
v 2.9 2.4 -2.9
v 2.9 4.5 -2.9
v -0.7 0 0.7
v 0.8 0 0.7
v -0.6 0 0.6
v 0.7 0 0.6
v -0.6 0 -0.7
v 0.7 0 -0.7
v -0.7 0 -0.8
v 0.8 0 -0.8
v -2.7 2.4 2.7
v 2.9 2.4 2.7
v -2.6 2.4 2.6
v 2.8 2.4 2.6
v -0.7 2.4 0.7
v 0.8 2.4 0.7
v -0.7 2.4 -0.8
v 0.8 2.4 -0.8
v -2.6 2.4 -2.8
v 2.8 2.4 -2.8
v -2.7 2.4 -2.9
v 2.9 2.4 -2.9
v -2.7 4.5 2.7
v 2.9 4.5 2.7
v -2.6 4.5 2.6
v 2.8 4.5 2.6
v -2 4.5 2
v 2.1 4.5 2
v -2 4.5 -2.1
v 2.1 4.5 -2.1
v -2.6 4.5 -2.8
v 2.8 4.5 -2.8
v -2.7 4.5 -2.9
v 2.9 4.5 -2.9
v -2 5.7 2
v 2.1 5.7 2
v -1.9 5.7 1.9
v 2 5.7 1.9
v -1.4 5.7 1.3
v 1.4 5.7 1.3
v -1.4 5.7 -1.5
v 1.4 5.7 -1.5
v -1.9 5.7 -2
v 2 5.7 -2
v -2 5.7 -2.1
v 2.1 5.7 -2.1
v -1.4 7 1.3
v 1.4 7 1.3
v -1.3 7 1.2
v 1.3 7 1.2
v -0.8 7 0.6
v 0.8 7 0.6
v -0.8 7 -0.9
v 0.8 7 -0.9
v -1.3 7 -1.4
v 1.3 7 -1.4
v -1.4 7 -1.5
v 1.4 7 -1.5
v -0.8 8 0.6
v 0.8 8 0.6
v -0.7 8 0.5
v 0.7 8 0.5
v -0.4 8 0.2
v 0.3 8 0.2
v -0.4 8 -0.5
v 0.3 8 -0.5
v -0.7 8 -0.8
v 0.7 8 -0.8
v -0.8 8 -0.9
v 0.8 8 -0.9
v -0.4 8.5 0.2
v 0.3 8.5 0.2
v -0.3 8.5 0.0999999
v 0.2 8.5 0.0999999
v -0.3 8.5 -0.4
v 0.2 8.5 -0.4
v -0.4 8.5 -0.5
v 0.3 8.5 -0.5

# faces
f 3/3/1 2/3/1 1/3/1
f 4/3/1 2/3/1 3/3/1
f 5/3/1 3/3/1 1/3/1
f 5/2/1 4/2/1 3/2/1
f 6/3/1 2/3/1 4/3/1
f 6/2/1 4/2/1 5/2/1
f 7/3/1 5/3/1 1/3/1
f 7/3/1 6/3/1 5/3/1
f 8/3/1 2/3/1 6/3/1
f 8/3/1 6/3/1 7/3/1
f 11/3/1 10/3/1 9/3/1
f 12/3/1 10/3/1 11/3/1
f 13/3/1 11/3/1 9/3/1
f 13/2/1 12/2/1 11/2/1
f 14/3/1 10/3/1 12/3/1
f 14/2/1 12/2/1 13/2/1
f 15/3/1 13/3/1 9/3/1
f 15/3/1 14/3/1 13/3/1
f 16/3/1 10/3/1 14/3/1
f 16/3/1 14/3/1 15/3/1
f 19/3/1 18/3/1 17/3/1
f 20/3/1 18/3/1 19/3/1
f 21/3/1 19/3/1 17/3/1
f 21/2/1 20/2/1 19/2/1
f 22/3/1 18/3/1 20/3/1
f 22/2/1 20/2/1 21/2/1
f 23/3/1 21/3/1 17/3/1
f 23/3/1 22/3/1 21/3/1
f 24/3/1 18/3/1 22/3/1
f 24/3/1 22/3/1 23/3/1
f 27/3/1 26/3/1 25/3/1
f 28/3/1 26/3/1 27/3/1
f 29/3/1 27/3/1 25/3/1
f 29/2/1 28/2/1 27/2/1
f 30/3/1 26/3/1 28/3/1
f 30/2/1 28/2/1 29/2/1
f 31/3/1 29/3/1 25/3/1
f 31/3/1 30/3/1 29/3/1
f 32/3/1 26/3/1 30/3/1
f 32/3/1 30/3/1 31/3/1
f 35/3/1 34/3/1 33/3/1
f 36/3/1 34/3/1 35/3/1
f 37/3/1 35/3/1 33/3/1
f 37/1/1 36/1/1 35/1/1
f 38/3/1 34/3/1 36/3/1
f 38/1/1 36/1/1 37/1/1
f 39/3/1 37/3/1 33/3/1
f 39/3/1 38/3/1 37/3/1
f 40/3/1 34/3/1 38/3/1
f 40/3/1 38/3/1 39/3/1
f 43/3/1 42/3/1 41/3/1
f 44/3/1 42/3/1 43/3/1
f 45/3/1 43/3/1 41/3/1
f 45/2/1 44/2/1 43/2/1
f 46/3/1 42/3/1 44/3/1
f 46/2/1 44/2/1 45/2/1
f 47/3/1 45/3/1 41/3/1
f 47/3/1 46/3/1 45/3/1
f 48/3/1 42/3/1 46/3/1
f 48/3/1 46/3/1 47/3/1
f 49/3/2 50/3/2 51/3/2
f 51/3/2 50/3/2 52/3/2
f 49/3/2 51/3/2 53/3/2
f 51/2/2 52/2/2 53/2/2
f 52/3/2 50/3/2 54/3/2
f 53/2/2 52/2/2 54/2/2
f 49/3/2 53/3/2 55/3/2
f 53/3/2 54/3/2 55/3/2
f 54/3/2 50/3/2 56/3/2
f 55/3/2 54/3/2 56/3/2
f 57/3/2 58/3/2 59/3/2
f 59/3/2 58/3/2 60/3/2
f 57/3/2 59/3/2 61/3/2
f 59/1/2 60/1/2 61/1/2
f 60/3/2 58/3/2 62/3/2
f 61/1/2 60/1/2 62/1/2
f 57/3/2 61/3/2 63/3/2
f 61/3/2 62/3/2 63/3/2
f 62/3/2 58/3/2 64/3/2
f 63/3/2 62/3/2 64/3/2
f 65/3/2 66/3/2 67/3/2
f 67/3/2 66/3/2 68/3/2
f 65/3/2 67/3/2 69/3/2
f 67/2/2 68/2/2 69/2/2
f 68/3/2 66/3/2 70/3/2
f 69/2/2 68/2/2 70/2/2
f 65/3/2 69/3/2 71/3/2
f 69/3/2 70/3/2 71/3/2
f 70/3/2 66/3/2 72/3/2
f 71/3/2 70/3/2 72/3/2
f 73/3/2 74/3/2 75/3/2
f 75/3/2 74/3/2 76/3/2
f 73/3/2 75/3/2 77/3/2
f 75/2/2 76/2/2 77/2/2
f 76/3/2 74/3/2 78/3/2
f 77/2/2 76/2/2 78/2/2
f 73/3/2 77/3/2 79/3/2
f 77/3/2 78/3/2 79/3/2
f 78/3/2 74/3/2 80/3/2
f 79/3/2 78/3/2 80/3/2
f 81/3/2 82/3/2 83/3/2
f 83/3/2 82/3/2 84/3/2
f 81/3/2 83/3/2 85/3/2
f 83/2/2 84/2/2 85/2/2
f 84/3/2 82/3/2 86/3/2
f 85/2/2 84/2/2 86/2/2
f 81/3/2 85/3/2 87/3/2
f 85/3/2 86/3/2 87/3/2
f 86/3/2 82/3/2 88/3/2
f 87/3/2 86/3/2 88/3/2
f 89/3/2 90/3/2 91/3/2
f 91/3/2 90/3/2 92/3/2
f 89/3/2 91/3/2 93/3/2
f 91/2/2 92/2/2 93/2/2
f 92/3/2 90/3/2 94/3/2
f 93/2/2 92/2/2 94/2/2
f 89/3/2 93/3/2 95/3/2
f 93/3/2 94/3/2 95/3/2
f 94/3/2 90/3/2 96/3/2
f 95/3/2 94/3/2 96/3/2
f 99/3/3 98/3/3 97/3/3
f 100/3/3 98/3/3 99/3/3
f 101/3/3 99/3/3 97/3/3
f 101/2/3 100/2/3 99/2/3
f 102/3/3 98/3/3 100/3/3
f 102/2/3 100/2/3 101/2/3
f 103/3/3 101/3/3 97/3/3
f 103/3/3 102/3/3 101/3/3
f 104/3/3 98/3/3 102/3/3
f 104/3/3 102/3/3 103/3/3
f 107/3/3 106/3/3 105/3/3
f 108/3/3 106/3/3 107/3/3
f 109/3/3 107/3/3 105/3/3
f 109/2/3 108/2/3 107/2/3
f 110/3/3 106/3/3 108/3/3
f 110/2/3 108/2/3 109/2/3
f 111/3/3 109/3/3 105/3/3
f 111/3/3 110/3/3 109/3/3
f 112/3/3 106/3/3 110/3/3
f 112/3/3 110/3/3 111/3/3
f 115/3/3 114/3/3 113/3/3
f 116/3/3 114/3/3 115/3/3
f 117/3/3 115/3/3 113/3/3
f 117/2/3 116/2/3 115/2/3
f 118/3/3 114/3/3 116/3/3
f 118/2/3 116/2/3 117/2/3
f 119/3/3 117/3/3 113/3/3
f 119/3/3 118/3/3 117/3/3
f 120/3/3 114/3/3 118/3/3
f 120/3/3 118/3/3 119/3/3
f 123/3/3 122/3/3 121/3/3
f 124/3/3 122/3/3 123/3/3
f 125/3/3 123/3/3 121/3/3
f 125/1/3 124/1/3 123/1/3
f 126/3/3 122/3/3 124/3/3
f 126/1/3 124/1/3 125/1/3
f 127/3/3 125/3/3 121/3/3
f 127/3/3 126/3/3 125/3/3
f 128/3/3 122/3/3 126/3/3
f 128/3/3 126/3/3 127/3/3
f 131/3/3 130/3/3 129/3/3
f 132/3/3 130/3/3 131/3/3
f 133/3/3 131/3/3 129/3/3
f 133/2/3 132/2/3 131/2/3
f 134/3/3 130/3/3 132/3/3
f 134/2/3 132/2/3 133/2/3
f 135/3/3 133/3/3 129/3/3
f 135/3/3 134/3/3 133/3/3
f 136/3/3 130/3/3 134/3/3
f 136/3/3 134/3/3 135/3/3
f 139/3/3 138/3/3 137/3/3
f 140/3/3 138/3/3 139/3/3
f 141/3/3 139/3/3 137/3/3
f 141/2/3 140/2/3 139/2/3
f 142/3/3 138/3/3 140/3/3
f 142/2/3 140/2/3 141/2/3
f 143/3/3 141/3/3 137/3/3
f 143/3/3 142/3/3 141/3/3
f 144/3/3 138/3/3 142/3/3
f 144/3/3 142/3/3 143/3/3
f 145/3/4 146/3/4 147/3/4
f 147/3/4 146/3/4 148/3/4
f 145/3/4 147/3/4 149/3/4
f 147/2/4 148/2/4 149/2/4
f 148/3/4 146/3/4 150/3/4
f 149/2/4 148/2/4 150/2/4
f 145/3/4 149/3/4 151/3/4
f 149/3/4 150/3/4 151/3/4
f 150/3/4 146/3/4 152/3/4
f 151/3/4 150/3/4 152/3/4
f 153/3/4 154/3/4 155/3/4
f 155/3/4 154/3/4 156/3/4
f 153/3/4 155/3/4 157/3/4
f 155/1/4 156/1/4 157/1/4
f 156/3/4 154/3/4 158/3/4
f 157/1/4 156/1/4 158/1/4
f 153/3/4 157/3/4 159/3/4
f 157/3/4 158/3/4 159/3/4
f 158/3/4 154/3/4 160/3/4
f 159/3/4 158/3/4 160/3/4
f 161/3/4 162/3/4 163/3/4
f 163/3/4 162/3/4 164/3/4
f 161/3/4 163/3/4 165/3/4
f 163/2/4 164/2/4 165/2/4
f 164/3/4 162/3/4 166/3/4
f 165/2/4 164/2/4 166/2/4
f 161/3/4 165/3/4 167/3/4
f 165/3/4 166/3/4 167/3/4
f 166/3/4 162/3/4 168/3/4
f 167/3/4 166/3/4 168/3/4
f 169/3/4 170/3/4 171/3/4
f 171/3/4 170/3/4 172/3/4
f 169/3/4 171/3/4 173/3/4
f 171/2/4 172/2/4 173/2/4
f 172/3/4 170/3/4 174/3/4
f 173/2/4 172/2/4 174/2/4
f 169/3/4 173/3/4 175/3/4
f 173/3/4 174/3/4 175/3/4
f 174/3/4 170/3/4 176/3/4
f 175/3/4 174/3/4 176/3/4
f 177/3/4 178/3/4 179/3/4
f 179/3/4 178/3/4 180/3/4
f 177/3/4 179/3/4 181/3/4
f 179/2/4 180/2/4 181/2/4
f 180/3/4 178/3/4 182/3/4
f 181/2/4 180/2/4 182/2/4
f 177/3/4 181/3/4 183/3/4
f 181/3/4 182/3/4 183/3/4
f 182/3/4 178/3/4 184/3/4
f 183/3/4 182/3/4 184/3/4
f 185/3/4 186/3/4 187/3/4
f 187/3/4 186/3/4 188/3/4
f 185/3/4 187/3/4 189/3/4
f 187/2/4 188/2/4 189/2/4
f 188/3/4 186/3/4 190/3/4
f 189/2/4 188/2/4 190/2/4
f 185/3/4 189/3/4 191/3/4
f 189/3/4 190/3/4 191/3/4
f 190/3/4 186/3/4 192/3/4
f 191/3/4 190/3/4 192/3/4
f 195/3/5 194/3/5 193/3/5
f 196/3/5 194/3/5 195/3/5
f 197/3/5 195/3/5 193/3/5
f 197/1/5 196/1/5 195/1/5
f 198/3/5 194/3/5 196/3/5
f 198/1/5 196/1/5 197/1/5
f 199/3/5 197/3/5 193/3/5
f 199/3/5 198/3/5 197/3/5
f 200/3/5 194/3/5 198/3/5
f 200/3/5 198/3/5 199/3/5
f 203/3/5 202/3/5 201/3/5
f 204/3/5 202/3/5 203/3/5
f 205/2/5 204/2/5 203/2/5
f 206/2/5 204/2/5 205/2/5
f 207/2/5 205/2/5 203/2/5
f 208/2/5 204/2/5 206/2/5
f 209/3/5 203/3/5 201/3/5
f 209/2/5 208/2/5 207/2/5
f 209/2/5 207/2/5 203/2/5
f 210/2/5 204/2/5 208/2/5
f 210/2/5 208/2/5 209/2/5
f 210/3/5 202/3/5 204/3/5
f 211/3/5 209/3/5 201/3/5
f 211/3/5 210/3/5 209/3/5
f 212/3/5 202/3/5 210/3/5
f 212/3/5 210/3/5 211/3/5
f 213/3/6 214/3/6 215/3/6
f 215/3/6 214/3/6 216/3/6
f 215/2/6 216/2/6 217/2/6
f 217/2/6 216/2/6 218/2/6
f 215/2/6 217/2/6 219/2/6
f 218/2/6 216/2/6 220/2/6
f 213/3/6 215/3/6 221/3/6
f 219/2/6 220/2/6 221/2/6
f 215/2/6 219/2/6 221/2/6
f 220/2/6 216/2/6 222/2/6
f 221/2/6 220/2/6 222/2/6
f 216/3/6 214/3/6 222/3/6
f 213/3/6 221/3/6 223/3/6
f 221/3/6 222/3/6 223/3/6
f 222/3/6 214/3/6 224/3/6
f 223/3/6 222/3/6 224/3/6
f 225/3/6 226/3/6 227/3/6
f 227/3/6 226/3/6 228/3/6
f 227/2/6 228/2/6 229/2/6
f 229/2/6 228/2/6 230/2/6
f 227/2/6 229/2/6 231/2/6
f 230/2/6 228/2/6 232/2/6
f 225/3/6 227/3/6 233/3/6
f 231/2/6 232/2/6 233/2/6
f 227/2/6 231/2/6 233/2/6
f 232/2/6 228/2/6 234/2/6
f 233/2/6 232/2/6 234/2/6
f 228/3/6 226/3/6 234/3/6
f 225/3/6 233/3/6 235/3/6
f 233/3/6 234/3/6 235/3/6
f 234/3/6 226/3/6 236/3/6
f 235/3/6 234/3/6 236/3/6
f 237/3/6 238/3/6 239/3/6
f 239/3/6 238/3/6 240/3/6
f 239/2/6 240/2/6 241/2/6
f 241/2/6 240/2/6 242/2/6
f 239/2/6 241/2/6 243/2/6
f 242/2/6 240/2/6 244/2/6
f 237/3/6 239/3/6 245/3/6
f 243/2/6 244/2/6 245/2/6
f 239/2/6 243/2/6 245/2/6
f 244/2/6 240/2/6 246/2/6
f 245/2/6 244/2/6 246/2/6
f 240/3/6 238/3/6 246/3/6
f 237/3/6 245/3/6 247/3/6
f 245/3/6 246/3/6 247/3/6
f 246/3/6 238/3/6 248/3/6
f 247/3/6 246/3/6 248/3/6
f 249/3/6 250/3/6 251/3/6
f 251/3/6 250/3/6 252/3/6
f 251/2/6 252/2/6 253/2/6
f 253/2/6 252/2/6 254/2/6
f 251/2/6 253/2/6 255/2/6
f 254/2/6 252/2/6 256/2/6
f 249/3/6 251/3/6 257/3/6
f 255/2/6 256/2/6 257/2/6
f 251/2/6 255/2/6 257/2/6
f 256/2/6 252/2/6 258/2/6
f 257/2/6 256/2/6 258/2/6
f 252/3/6 250/3/6 258/3/6
f 249/3/6 257/3/6 259/3/6
f 257/3/6 258/3/6 259/3/6
f 258/3/6 250/3/6 260/3/6
f 259/3/6 258/3/6 260/3/6
f 261/3/6 262/3/6 263/3/6
f 263/3/6 262/3/6 264/3/6
f 261/3/6 263/3/6 265/3/6
f 263/2/6 264/2/6 265/2/6
f 264/3/6 262/3/6 266/3/6
f 265/2/6 264/2/6 266/2/6
f 261/3/6 265/3/6 267/3/6
f 265/3/6 266/3/6 267/3/6
f 266/3/6 262/3/6 268/3/6
f 267/3/6 266/3/6 268/3/6
