# MagicaVoxel @ Ephtracy

# group
o 

# material
mtllib tree1.mtl
usemtl palette

# normals
vn -1 0 0
vn 1 0 0
vn 0 0 1
vn 0 0 -1
vn 0 -1 0
vn 0 1 0

# texcoords
vt 0.279297 0.5
vt 0.583984 0.5
vt 0.994141 0.5

# verts
v -1.9 4.2 2.2
v -1.9 4.2 -2.3
v -1.9 4.4 2
v -1.9 4.4 -2.1
v -1.9 10 2
v -1.9 10 -2.1
v -1.9 10.2 2.2
v -1.9 10.2 -2.3
v -0.7 0 0.7
v -0.7 0 -0.8
v -0.7 0.2 0.5
v -0.7 0.2 -0.6
v -0.7 4 0.5
v -0.7 4 -0.6
v -0.7 4.2 0.7
v -0.7 4.2 -0.8
v 0.8 0 0.7
v 0.8 0 -0.8
v 0.8 0.2 0.5
v 0.8 0.2 -0.6
v 0.8 4 0.5
v 0.8 4 -0.6
v 0.8 4.2 0.7
v 0.8 4.2 -0.8
v 2 4.2 2.2
v 2 4.2 -2.3
v 2 4.4 2
v 2 4.4 -2.1
v 2 10 2
v 2 10 -2.1
v 2 10.2 2.2
v 2 10.2 -2.3
v -1.9 4.2 2.2
v -1.9 10.2 2.2
v -1.7 4.4 2.2
v -1.7 10 2.2
v 1.8 4.4 2.2
v 1.8 10 2.2
v 2 4.2 2.2
v 2 10.2 2.2
v -0.7 0 0.7
v -0.7 4.2 0.7
v -0.5 0.2 0.7
v -0.5 4 0.7
v 0.6 0.2 0.7
v 0.6 4 0.7
v 0.8 0 0.7
v 0.8 4.2 0.7
v -0.7 0 -0.8
v -0.7 4.2 -0.8
v -0.5 0.2 -0.8
v -0.5 4 -0.8
v 0.6 0.2 -0.8
v 0.6 4 -0.8
v 0.8 0 -0.8
v 0.8 4.2 -0.8
v -1.9 4.2 -2.3
v -1.9 10.2 -2.3
v -1.7 4.4 -2.3
v -1.7 10 -2.3
v 1.8 4.4 -2.3
v 1.8 10 -2.3
v 2 4.2 -2.3
v 2 10.2 -2.3
v -0.7 0 0.7
v 0.8 0 0.7
v -0.5 0 0.5
v 0.6 0 0.5
v -0.5 0 -0.6
v 0.6 0 -0.6
v -0.7 0 -0.8
v 0.8 0 -0.8
v -1.9 4.2 2.2
v 2 4.2 2.2
v -1.7 4.2 2
v 1.8 4.2 2
v -0.7 4.2 0.7
v 0.8 4.2 0.7
v -0.7 4.2 -0.8
v 0.8 4.2 -0.8
v -1.7 4.2 -2.1
v 1.8 4.2 -2.1
v -1.9 4.2 -2.3
v 2 4.2 -2.3
v -1.9 10.2 2.2
v 2 10.2 2.2
v -1.7 10.2 2
v 1.8 10.2 2
v -1.7 10.2 -2.1
v 1.8 10.2 -2.1
v -1.9 10.2 -2.3
v 2 10.2 -2.3

# faces
f 3/3/1 2/3/1 1/3/1
f 4/3/1 2/3/1 3/3/1
f 5/3/1 3/3/1 1/3/1
f 5/2/1 4/2/1 3/2/1
f 6/3/1 2/3/1 4/3/1
f 6/2/1 4/2/1 5/2/1
f 7/3/1 5/3/1 1/3/1
f 7/3/1 6/3/1 5/3/1
f 8/3/1 2/3/1 6/3/1
f 8/3/1 6/3/1 7/3/1
f 11/3/1 10/3/1 9/3/1
f 12/3/1 10/3/1 11/3/1
f 13/3/1 11/3/1 9/3/1
f 13/1/1 12/1/1 11/1/1
f 14/3/1 10/3/1 12/3/1
f 14/1/1 12/1/1 13/1/1
f 15/3/1 13/3/1 9/3/1
f 15/3/1 14/3/1 13/3/1
f 16/3/1 10/3/1 14/3/1
f 16/3/1 14/3/1 15/3/1
f 17/3/2 18/3/2 19/3/2
f 19/3/2 18/3/2 20/3/2
f 17/3/2 19/3/2 21/3/2
f 19/1/2 20/1/2 21/1/2
f 20/3/2 18/3/2 22/3/2
f 21/1/2 20/1/2 22/1/2
f 17/3/2 21/3/2 23/3/2
f 21/3/2 22/3/2 23/3/2
f 22/3/2 18/3/2 24/3/2
f 23/3/2 22/3/2 24/3/2
f 25/3/2 26/3/2 27/3/2
f 27/3/2 26/3/2 28/3/2
f 25/3/2 27/3/2 29/3/2
f 27/2/2 28/2/2 29/2/2
f 28/3/2 26/3/2 30/3/2
f 29/2/2 28/2/2 30/2/2
f 25/3/2 29/3/2 31/3/2
f 29/3/2 30/3/2 31/3/2
f 30/3/2 26/3/2 32/3/2
f 31/3/2 30/3/2 32/3/2
f 35/3/3 34/3/3 33/3/3
f 36/3/3 34/3/3 35/3/3
f 37/3/3 35/3/3 33/3/3
f 37/2/3 36/2/3 35/2/3
f 38/3/3 34/3/3 36/3/3
f 38/2/3 36/2/3 37/2/3
f 39/3/3 37/3/3 33/3/3
f 39/3/3 38/3/3 37/3/3
f 40/3/3 34/3/3 38/3/3
f 40/3/3 38/3/3 39/3/3
f 43/3/3 42/3/3 41/3/3
f 44/3/3 42/3/3 43/3/3
f 45/3/3 43/3/3 41/3/3
f 45/1/3 44/1/3 43/1/3
f 46/3/3 42/3/3 44/3/3
f 46/1/3 44/1/3 45/1/3
f 47/3/3 45/3/3 41/3/3
f 47/3/3 46/3/3 45/3/3
f 48/3/3 42/3/3 46/3/3
f 48/3/3 46/3/3 47/3/3
f 49/3/4 50/3/4 51/3/4
f 51/3/4 50/3/4 52/3/4
f 49/3/4 51/3/4 53/3/4
f 51/1/4 52/1/4 53/1/4
f 52/3/4 50/3/4 54/3/4
f 53/1/4 52/1/4 54/1/4
f 49/3/4 53/3/4 55/3/4
f 53/3/4 54/3/4 55/3/4
f 54/3/4 50/3/4 56/3/4
f 55/3/4 54/3/4 56/3/4
f 57/3/4 58/3/4 59/3/4
f 59/3/4 58/3/4 60/3/4
f 57/3/4 59/3/4 61/3/4
f 59/2/4 60/2/4 61/2/4
f 60/3/4 58/3/4 62/3/4
f 61/2/4 60/2/4 62/2/4
f 57/3/4 61/3/4 63/3/4
f 61/3/4 62/3/4 63/3/4
f 62/3/4 58/3/4 64/3/4
f 63/3/4 62/3/4 64/3/4
f 67/3/5 66/3/5 65/3/5
f 68/3/5 66/3/5 67/3/5
f 69/3/5 67/3/5 65/3/5
f 69/1/5 68/1/5 67/1/5
f 70/3/5 66/3/5 68/3/5
f 70/1/5 68/1/5 69/1/5
f 71/3/5 69/3/5 65/3/5
f 71/3/5 70/3/5 69/3/5
f 72/3/5 66/3/5 70/3/5
f 72/3/5 70/3/5 71/3/5
f 75/3/5 74/3/5 73/3/5
f 76/3/5 74/3/5 75/3/5
f 77/2/5 76/2/5 75/2/5
f 78/2/5 76/2/5 77/2/5
f 79/2/5 77/2/5 75/2/5
f 80/2/5 76/2/5 78/2/5
f 81/3/5 75/3/5 73/3/5
f 81/2/5 80/2/5 79/2/5
f 81/2/5 79/2/5 75/2/5
f 82/2/5 76/2/5 80/2/5
f 82/2/5 80/2/5 81/2/5
f 82/3/5 74/3/5 76/3/5
f 83/3/5 81/3/5 73/3/5
f 83/3/5 82/3/5 81/3/5
f 84/3/5 74/3/5 82/3/5
f 84/3/5 82/3/5 83/3/5
f 85/3/6 86/3/6 87/3/6
f 87/3/6 86/3/6 88/3/6
f 85/3/6 87/3/6 89/3/6
f 87/2/6 88/2/6 89/2/6
f 88/3/6 86/3/6 90/3/6
f 89/2/6 88/2/6 90/2/6
f 85/3/6 89/3/6 91/3/6
f 89/3/6 90/3/6 91/3/6
f 90/3/6 86/3/6 92/3/6
f 91/3/6 90/3/6 92/3/6
