# MagicaVoxel @ Ephtracy

# group
o 

# material
mtllib FlameExtinguisher.mtl
usemtl palette

# normals
vn -1 0 0
vn 1 0 0
vn 0 0 1
vn 0 0 -1
vn 0 -1 0
vn 0 1 0

# texcoords
vt 0.943359 0.5
vt 0.978516 0.5

# verts
v -1 0 0.1
v -1 0 -0.2
v -1 0.1 0.2
v -1 0.1 0.1
v -1 0.1 -0.2
v -1 0.1 -0.3
v -1 0.4 0.2
v -1 0.4 0.1
v -1 0.4 -0.2
v -1 0.4 -0.3
v -1 0.5 0.1
v -1 0.5 -0.2
v -0.1 0 0
v -0.1 0 -0.1
v -0.1 0.1 0
v -0.1 0.1 -0.1
v -0.1 0.2 0.2
v -0.1 0.2 0.1
v -0.1 0.2 -0.2
v -0.1 0.2 -0.3
v -0.1 0.3 0.2
v -0.1 0.3 0.1
v -0.1 0.3 -0.2
v -0.1 0.3 -0.3
v -0.1 0.4 0
v -0.1 0.4 -0.1
v -0.1 0.5 0
v -0.1 0.5 -0.1
v 0.7 0 0
v 0.7 0 -0.1
v 0.7 0.1 0
v 0.7 0.1 -0.1
v 0.7 0.2 0.2
v 0.7 0.2 0.1
v 0.7 0.2 -0.2
v 0.7 0.2 -0.3
v 0.7 0.3 0.2
v 0.7 0.3 0.1
v 0.7 0.3 -0.2
v 0.7 0.3 -0.3
v 0.7 0.4 0
v 0.7 0.4 -0.1
v 0.7 0.5 0
v 0.7 0.5 -0.1
v -0.7 0 0
v -0.7 0 -0.1
v -0.7 0.1 0
v -0.7 0.1 -0.1
v -0.7 0.2 0.2
v -0.7 0.2 0.1
v -0.7 0.2 -0.2
v -0.7 0.2 -0.3
v -0.7 0.3 0.2
v -0.7 0.3 0.1
v -0.7 0.3 -0.2
v -0.7 0.3 -0.3
v -0.7 0.4 0
v -0.7 0.4 -0.1
v -0.7 0.5 0
v -0.7 0.5 -0.1
v 0.1 0 0
v 0.1 0 -0.1
v 0.1 0.1 0
v 0.1 0.1 -0.1
v 0.1 0.2 0.2
v 0.1 0.2 0.1
v 0.1 0.2 -0.2
v 0.1 0.2 -0.3
v 0.1 0.3 0.2
v 0.1 0.3 0.1
v 0.1 0.3 -0.2
v 0.1 0.3 -0.3
v 0.1 0.4 0
v 0.1 0.4 -0.1
v 0.1 0.5 0
v 0.1 0.5 -0.1
v 1 0 0.1
v 1 0 -0.2
v 1 0.1 0.2
v 1 0.1 0.1
v 1 0.1 -0.2
v 1 0.1 -0.3
v 1 0.4 0.2
v 1 0.4 0.1
v 1 0.4 -0.2
v 1 0.4 -0.3
v 1 0.5 0.1
v 1 0.5 -0.2
v -1 0.1 0.2
v -1 0.4 0.2
v -0.9 0.1 0.2
v -0.9 0.4 0.2
v -0.7 0.1 0.2
v -0.7 0.2 0.2
v -0.7 0.3 0.2
v -0.7 0.4 0.2
v -0.1 0.1 0.2
v -0.1 0.2 0.2
v -0.1 0.3 0.2
v -0.1 0.4 0.2
v 0.1 0.1 0.2
v 0.1 0.2 0.2
v 0.1 0.3 0.2
v 0.1 0.4 0.2
v 0.7 0.1 0.2
v 0.7 0.2 0.2
v 0.7 0.3 0.2
v 0.7 0.4 0.2
v 0.9 0.1 0.2
v 0.9 0.4 0.2
v 1 0.1 0.2
v 1 0.4 0.2
v -1 0 0.1
v -1 0.1 0.1
v -1 0.4 0.1
v -1 0.5 0.1
v -0.9 0 0.1
v -0.9 0.1 0.1
v -0.9 0.4 0.1
v -0.9 0.5 0.1
v -0.7 0 0.1
v -0.7 0.1 0.1
v -0.7 0.4 0.1
v -0.7 0.5 0.1
v -0.1 0 0.1
v -0.1 0.1 0.1
v -0.1 0.4 0.1
v -0.1 0.5 0.1
v 0.1 0 0.1
v 0.1 0.1 0.1
v 0.1 0.4 0.1
v 0.1 0.5 0.1
v 0.7 0 0.1
v 0.7 0.1 0.1
v 0.7 0.4 0.1
v 0.7 0.5 0.1
v 0.9 0 0.1
v 0.9 0.1 0.1
v 0.9 0.4 0.1
v 0.9 0.5 0.1
v 1 0 0.1
v 1 0.1 0.1
v 1 0.4 0.1
v 1 0.5 0.1
v -0.7 0 -0.1
v -0.7 0.1 -0.1
v -0.7 0.4 -0.1
v -0.7 0.5 -0.1
v -0.1 0 -0.1
v -0.1 0.1 -0.1
v -0.1 0.4 -0.1
v -0.1 0.5 -0.1
v 0.1 0 -0.1
v 0.1 0.1 -0.1
v 0.1 0.4 -0.1
v 0.1 0.5 -0.1
v 0.7 0 -0.1
v 0.7 0.1 -0.1
v 0.7 0.4 -0.1
v 0.7 0.5 -0.1
v -1 0.1 -0.2
v -1 0.4 -0.2
v -0.9 0.1 -0.2
v -0.9 0.2 -0.2
v -0.9 0.3 -0.2
v -0.9 0.4 -0.2
v -0.7 0.1 -0.2
v -0.7 0.2 -0.2
v -0.7 0.3 -0.2
v -0.7 0.4 -0.2
v -0.1 0.1 -0.2
v -0.1 0.2 -0.2
v -0.1 0.3 -0.2
v -0.1 0.4 -0.2
v 0.1 0.1 -0.2
v 0.1 0.2 -0.2
v 0.1 0.3 -0.2
v 0.1 0.4 -0.2
v 0.7 0.1 -0.2
v 0.7 0.2 -0.2
v 0.7 0.3 -0.2
v 0.7 0.4 -0.2
v 0.9 0.1 -0.2
v 0.9 0.2 -0.2
v 0.9 0.3 -0.2
v 0.9 0.4 -0.2
v 1 0.1 -0.2
v 1 0.4 -0.2
v -1 0.1 0.1
v -1 0.4 0.1
v -0.9 0.1 0.1
v -0.9 0.4 0.1
v -0.7 0.1 0.1
v -0.7 0.2 0.1
v -0.7 0.3 0.1
v -0.7 0.4 0.1
v -0.1 0.1 0.1
v -0.1 0.2 0.1
v -0.1 0.3 0.1
v -0.1 0.4 0.1
v 0.1 0.1 0.1
v 0.1 0.2 0.1
v 0.1 0.3 0.1
v 0.1 0.4 0.1
v 0.7 0.1 0.1
v 0.7 0.2 0.1
v 0.7 0.3 0.1
v 0.7 0.4 0.1
v 0.9 0.1 0.1
v 0.9 0.4 0.1
v 1 0.1 0.1
v 1 0.4 0.1
v -0.7 0 0
v -0.7 0.1 0
v -0.7 0.4 0
v -0.7 0.5 0
v -0.1 0 0
v -0.1 0.1 0
v -0.1 0.4 0
v -0.1 0.5 0
v 0.1 0 0
v 0.1 0.1 0
v 0.1 0.4 0
v 0.1 0.5 0
v 0.7 0 0
v 0.7 0.1 0
v 0.7 0.4 0
v 0.7 0.5 0
v -1 0 -0.2
v -1 0.1 -0.2
v -1 0.4 -0.2
v -1 0.5 -0.2
v -0.9 0 -0.2
v -0.9 0.1 -0.2
v -0.9 0.4 -0.2
v -0.9 0.5 -0.2
v -0.7 0 -0.2
v -0.7 0.1 -0.2
v -0.7 0.4 -0.2
v -0.7 0.5 -0.2
v -0.1 0 -0.2
v -0.1 0.1 -0.2
v -0.1 0.4 -0.2
v -0.1 0.5 -0.2
v 0.1 0 -0.2
v 0.1 0.1 -0.2
v 0.1 0.4 -0.2
v 0.1 0.5 -0.2
v 0.7 0 -0.2
v 0.7 0.1 -0.2
v 0.7 0.4 -0.2
v 0.7 0.5 -0.2
v 0.9 0 -0.2
v 0.9 0.1 -0.2
v 0.9 0.4 -0.2
v 0.9 0.5 -0.2
v 1 0 -0.2
v 1 0.1 -0.2
v 1 0.4 -0.2
v 1 0.5 -0.2
v -1 0.1 -0.3
v -1 0.4 -0.3
v -0.9 0.1 -0.3
v -0.9 0.2 -0.3
v -0.9 0.3 -0.3
v -0.9 0.4 -0.3
v -0.7 0.1 -0.3
v -0.7 0.2 -0.3
v -0.7 0.3 -0.3
v -0.7 0.4 -0.3
v -0.1 0.1 -0.3
v -0.1 0.2 -0.3
v -0.1 0.3 -0.3
v -0.1 0.4 -0.3
v 0.1 0.1 -0.3
v 0.1 0.2 -0.3
v 0.1 0.3 -0.3
v 0.1 0.4 -0.3
v 0.7 0.1 -0.3
v 0.7 0.2 -0.3
v 0.7 0.3 -0.3
v 0.7 0.4 -0.3
v 0.9 0.1 -0.3
v 0.9 0.2 -0.3
v 0.9 0.3 -0.3
v 0.9 0.4 -0.3
v 1 0.1 -0.3
v 1 0.4 -0.3
v -1 0 0.1
v -0.9 0 0.1
v -0.7 0 0.1
v -0.1 0 0.1
v 0.1 0 0.1
v 0.7 0 0.1
v 0.9 0 0.1
v 1 0 0.1
v -0.9 0 0
v -0.7 0 0
v -0.1 0 0
v 0.1 0 0
v 0.7 0 0
v 0.9 0 0
v -0.9 0 -0.1
v -0.7 0 -0.1
v -0.1 0 -0.1
v 0.1 0 -0.1
v 0.7 0 -0.1
v 0.9 0 -0.1
v -1 0 -0.2
v -0.9 0 -0.2
v -0.7 0 -0.2
v -0.1 0 -0.2
v 0.1 0 -0.2
v 0.7 0 -0.2
v 0.9 0 -0.2
v 1 0 -0.2
v -1 0.1 0.2
v -0.9 0.1 0.2
v -0.7 0.1 0.2
v -0.1 0.1 0.2
v 0.1 0.1 0.2
v 0.7 0.1 0.2
v 0.9 0.1 0.2
v 1 0.1 0.2
v -1 0.1 0.1
v -0.9 0.1 0.1
v -0.7 0.1 0.1
v -0.1 0.1 0.1
v 0.1 0.1 0.1
v 0.7 0.1 0.1
v 0.9 0.1 0.1
v 1 0.1 0.1
v -1 0.1 -0.2
v -0.9 0.1 -0.2
v -0.7 0.1 -0.2
v -0.1 0.1 -0.2
v 0.1 0.1 -0.2
v 0.7 0.1 -0.2
v 0.9 0.1 -0.2
v 1 0.1 -0.2
v -1 0.1 -0.3
v -0.9 0.1 -0.3
v -0.7 0.1 -0.3
v -0.1 0.1 -0.3
v 0.1 0.1 -0.3
v 0.7 0.1 -0.3
v 0.9 0.1 -0.3
v 1 0.1 -0.3
v -0.7 0.3 0.2
v -0.1 0.3 0.2
v 0.1 0.3 0.2
v 0.7 0.3 0.2
v -0.7 0.3 0.1
v -0.1 0.3 0.1
v 0.1 0.3 0.1
v 0.7 0.3 0.1
v -0.7 0.3 -0.2
v -0.1 0.3 -0.2
v 0.1 0.3 -0.2
v 0.7 0.3 -0.2
v -0.7 0.3 -0.3
v -0.1 0.3 -0.3
v 0.1 0.3 -0.3
v 0.7 0.3 -0.3
v -1 0.4 0.1
v -0.9 0.4 0.1
v -0.7 0.4 0.1
v -0.1 0.4 0.1
v 0.1 0.4 0.1
v 0.7 0.4 0.1
v 0.9 0.4 0.1
v 1 0.4 0.1
v -0.9 0.4 0
v -0.7 0.4 0
v -0.1 0.4 0
v 0.1 0.4 0
v 0.7 0.4 0
v 0.9 0.4 0
v -0.9 0.4 -0.1
v -0.7 0.4 -0.1
v -0.1 0.4 -0.1
v 0.1 0.4 -0.1
v 0.7 0.4 -0.1
v 0.9 0.4 -0.1
v -1 0.4 -0.2
v -0.9 0.4 -0.2
v -0.7 0.4 -0.2
v -0.1 0.4 -0.2
v 0.1 0.4 -0.2
v 0.7 0.4 -0.2
v 0.9 0.4 -0.2
v 1 0.4 -0.2
v -1 0.1 0.1
v -0.9 0.1 0.1
v -0.7 0.1 0.1
v -0.1 0.1 0.1
v 0.1 0.1 0.1
v 0.7 0.1 0.1
v 0.9 0.1 0.1
v 1 0.1 0.1
v -0.9 0.1 0
v -0.7 0.1 0
v -0.1 0.1 0
v 0.1 0.1 0
v 0.7 0.1 0
v 0.9 0.1 0
v -0.9 0.1 -0.1
v -0.7 0.1 -0.1
v -0.1 0.1 -0.1
v 0.1 0.1 -0.1
v 0.7 0.1 -0.1
v 0.9 0.1 -0.1
v -1 0.1 -0.2
v -0.9 0.1 -0.2
v -0.7 0.1 -0.2
v -0.1 0.1 -0.2
v 0.1 0.1 -0.2
v 0.7 0.1 -0.2
v 0.9 0.1 -0.2
v 1 0.1 -0.2
v -0.7 0.2 0.2
v -0.1 0.2 0.2
v 0.1 0.2 0.2
v 0.7 0.2 0.2
v -0.7 0.2 0.1
v -0.1 0.2 0.1
v 0.1 0.2 0.1
v 0.7 0.2 0.1
v -0.7 0.2 -0.2
v -0.1 0.2 -0.2
v 0.1 0.2 -0.2
v 0.7 0.2 -0.2
v -0.7 0.2 -0.3
v -0.1 0.2 -0.3
v 0.1 0.2 -0.3
v 0.7 0.2 -0.3
v -1 0.4 0.2
v -0.9 0.4 0.2
v -0.7 0.4 0.2
v -0.1 0.4 0.2
v 0.1 0.4 0.2
v 0.7 0.4 0.2
v 0.9 0.4 0.2
v 1 0.4 0.2
v -1 0.4 0.1
v -0.9 0.4 0.1
v -0.7 0.4 0.1
v -0.1 0.4 0.1
v 0.1 0.4 0.1
v 0.7 0.4 0.1
v 0.9 0.4 0.1
v 1 0.4 0.1
v -1 0.4 -0.2
v -0.9 0.4 -0.2
v -0.7 0.4 -0.2
v -0.1 0.4 -0.2
v 0.1 0.4 -0.2
v 0.7 0.4 -0.2
v 0.9 0.4 -0.2
v 1 0.4 -0.2
v -1 0.4 -0.3
v -0.9 0.4 -0.3
v -0.7 0.4 -0.3
v -0.1 0.4 -0.3
v 0.1 0.4 -0.3
v 0.7 0.4 -0.3
v 0.9 0.4 -0.3
v 1 0.4 -0.3
v -1 0.5 0.1
v -0.9 0.5 0.1
v -0.7 0.5 0.1
v -0.1 0.5 0.1
v 0.1 0.5 0.1
v 0.7 0.5 0.1
v 0.9 0.5 0.1
v 1 0.5 0.1
v -0.9 0.5 0
v -0.7 0.5 0
v -0.1 0.5 0
v 0.1 0.5 0
v 0.7 0.5 0
v 0.9 0.5 0
v -0.9 0.5 -0.1
v -0.7 0.5 -0.1
v -0.1 0.5 -0.1
v 0.1 0.5 -0.1
v 0.7 0.5 -0.1
v 0.9 0.5 -0.1
v -1 0.5 -0.2
v -0.9 0.5 -0.2
v -0.7 0.5 -0.2
v -0.1 0.5 -0.2
v 0.1 0.5 -0.2
v 0.7 0.5 -0.2
v 0.9 0.5 -0.2
v 1 0.5 -0.2

# faces
f 4/1/1 2/1/1 1/1/1
f 5/1/1 2/1/1 4/1/1
f 7/1/1 4/1/1 3/1/1
f 8/1/1 4/1/1 7/1/1
f 9/1/1 6/1/1 5/1/1
f 10/1/1 6/1/1 9/1/1
f 11/1/1 9/1/1 8/1/1
f 12/1/1 9/1/1 11/1/1
f 15/1/1 14/1/1 13/1/1
f 16/1/1 14/1/1 15/1/1
f 21/2/1 18/2/1 17/2/1
f 22/2/1 18/2/1 21/2/1
f 23/1/1 20/1/1 19/1/1
f 24/1/1 20/1/1 23/1/1
f 27/2/1 26/2/1 25/2/1
f 28/2/1 26/2/1 27/2/1
f 31/1/1 30/1/1 29/1/1
f 32/1/1 30/1/1 31/1/1
f 37/2/1 34/2/1 33/2/1
f 38/2/1 34/2/1 37/2/1
f 39/1/1 36/1/1 35/1/1
f 40/1/1 36/1/1 39/1/1
f 43/1/1 42/1/1 41/1/1
f 44/1/1 42/1/1 43/1/1
f 45/1/2 46/1/2 47/1/2
f 47/1/2 46/1/2 48/1/2
f 49/2/2 50/2/2 53/2/2
f 53/2/2 50/2/2 54/2/2
f 51/1/2 52/1/2 55/1/2
f 55/1/2 52/1/2 56/1/2
f 57/1/2 58/1/2 59/1/2
f 59/1/2 58/1/2 60/1/2
f 61/1/2 62/1/2 63/1/2
f 63/1/2 62/1/2 64/1/2
f 65/2/2 66/2/2 69/2/2
f 69/2/2 66/2/2 70/2/2
f 67/1/2 68/1/2 71/1/2
f 71/1/2 68/1/2 72/1/2
f 73/2/2 74/2/2 75/2/2
f 75/2/2 74/2/2 76/2/2
f 77/1/2 78/1/2 80/1/2
f 80/1/2 78/1/2 81/1/2
f 79/1/2 80/1/2 83/1/2
f 83/1/2 80/1/2 84/1/2
f 81/1/2 82/1/2 85/1/2
f 85/1/2 82/1/2 86/1/2
f 84/1/2 85/1/2 87/1/2
f 87/1/2 85/1/2 88/1/2
f 91/1/3 90/1/3 89/1/3
f 92/1/3 90/1/3 91/1/3
f 93/2/3 92/2/3 91/2/3
f 94/2/3 92/2/3 93/2/3
f 95/2/3 92/2/3 94/2/3
f 96/2/3 92/2/3 95/2/3
f 97/1/3 94/1/3 93/1/3
f 98/1/3 94/1/3 97/1/3
f 99/1/3 96/1/3 95/1/3
f 100/1/3 96/1/3 99/1/3
f 101/2/3 98/2/3 97/2/3
f 101/2/3 99/2/3 98/2/3
f 101/2/3 100/2/3 99/2/3
f 102/2/3 100/2/3 101/2/3
f 103/2/3 100/2/3 102/2/3
f 104/2/3 100/2/3 103/2/3
f 105/1/3 102/1/3 101/1/3
f 106/1/3 102/1/3 105/1/3
f 107/1/3 104/1/3 103/1/3
f 108/1/3 104/1/3 107/1/3
f 109/2/3 106/2/3 105/2/3
f 109/2/3 107/2/3 106/2/3
f 109/2/3 108/2/3 107/2/3
f 110/2/3 108/2/3 109/2/3
f 111/1/3 110/1/3 109/1/3
f 112/1/3 110/1/3 111/1/3
f 117/1/3 114/1/3 113/1/3
f 118/1/3 114/1/3 117/1/3
f 119/1/3 116/1/3 115/1/3
f 120/1/3 116/1/3 119/1/3
f 121/2/3 118/2/3 117/2/3
f 122/2/3 118/2/3 121/2/3
f 123/2/3 120/2/3 119/2/3
f 124/2/3 120/2/3 123/2/3
f 125/1/3 122/1/3 121/1/3
f 126/1/3 122/1/3 125/1/3
f 127/1/3 124/1/3 123/1/3
f 128/1/3 124/1/3 127/1/3
f 129/2/3 126/2/3 125/2/3
f 130/2/3 126/2/3 129/2/3
f 131/2/3 128/2/3 127/2/3
f 132/2/3 128/2/3 131/2/3
f 133/1/3 130/1/3 129/1/3
f 134/1/3 130/1/3 133/1/3
f 135/1/3 132/1/3 131/1/3
f 136/1/3 132/1/3 135/1/3
f 137/2/3 134/2/3 133/2/3
f 138/2/3 134/2/3 137/2/3
f 139/2/3 136/2/3 135/2/3
f 140/2/3 136/2/3 139/2/3
f 141/1/3 138/1/3 137/1/3
f 142/1/3 138/1/3 141/1/3
f 143/1/3 140/1/3 139/1/3
f 144/1/3 140/1/3 143/1/3
f 149/1/3 146/1/3 145/1/3
f 150/1/3 146/1/3 149/1/3
f 151/1/3 148/1/3 147/1/3
f 152/1/3 148/1/3 151/1/3
f 157/1/3 154/1/3 153/1/3
f 158/1/3 154/1/3 157/1/3
f 159/1/3 156/1/3 155/1/3
f 160/1/3 156/1/3 159/1/3
f 163/1/3 162/1/3 161/1/3
f 164/1/3 162/1/3 163/1/3
f 165/1/3 162/1/3 164/1/3
f 166/1/3 162/1/3 165/1/3
f 167/2/3 164/2/3 163/2/3
f 168/1/3 165/1/3 164/1/3
f 168/2/3 164/2/3 167/2/3
f 169/2/3 166/2/3 165/2/3
f 169/1/3 165/1/3 168/1/3
f 170/2/3 166/2/3 169/2/3
f 171/1/3 168/1/3 167/1/3
f 172/1/3 168/1/3 171/1/3
f 173/1/3 170/1/3 169/1/3
f 174/1/3 170/1/3 173/1/3
f 175/2/3 172/2/3 171/2/3
f 176/1/3 173/1/3 172/1/3
f 176/2/3 172/2/3 175/2/3
f 177/2/3 174/2/3 173/2/3
f 177/1/3 173/1/3 176/1/3
f 178/2/3 174/2/3 177/2/3
f 179/1/3 176/1/3 175/1/3
f 180/1/3 176/1/3 179/1/3
f 181/1/3 178/1/3 177/1/3
f 182/1/3 178/1/3 181/1/3
f 183/2/3 180/2/3 179/2/3
f 184/1/3 181/1/3 180/1/3
f 184/2/3 180/2/3 183/2/3
f 185/2/3 182/2/3 181/2/3
f 185/1/3 181/1/3 184/1/3
f 186/2/3 182/2/3 185/2/3
f 187/1/3 184/1/3 183/1/3
f 187/1/3 185/1/3 184/1/3
f 187/1/3 186/1/3 185/1/3
f 188/1/3 186/1/3 187/1/3
f 189/1/4 190/1/4 191/1/4
f 191/1/4 190/1/4 192/1/4
f 191/2/4 192/2/4 193/2/4
f 193/2/4 192/2/4 194/2/4
f 194/2/4 192/2/4 195/2/4
f 195/2/4 192/2/4 196/2/4
f 193/1/4 194/1/4 197/1/4
f 197/1/4 194/1/4 198/1/4
f 195/1/4 196/1/4 199/1/4
f 199/1/4 196/1/4 200/1/4
f 197/2/4 198/2/4 201/2/4
f 198/2/4 199/2/4 201/2/4
f 199/2/4 200/2/4 201/2/4
f 201/2/4 200/2/4 202/2/4
f 202/2/4 200/2/4 203/2/4
f 203/2/4 200/2/4 204/2/4
f 201/1/4 202/1/4 205/1/4
f 205/1/4 202/1/4 206/1/4
f 203/1/4 204/1/4 207/1/4
f 207/1/4 204/1/4 208/1/4
f 205/2/4 206/2/4 209/2/4
f 206/2/4 207/2/4 209/2/4
f 207/2/4 208/2/4 209/2/4
f 209/2/4 208/2/4 210/2/4
f 209/1/4 210/1/4 211/1/4
f 211/1/4 210/1/4 212/1/4
f 213/1/4 214/1/4 217/1/4
f 217/1/4 214/1/4 218/1/4
f 215/1/4 216/1/4 219/1/4
f 219/1/4 216/1/4 220/1/4
f 221/1/4 222/1/4 225/1/4
f 225/1/4 222/1/4 226/1/4
f 223/1/4 224/1/4 227/1/4
f 227/1/4 224/1/4 228/1/4
f 229/1/4 230/1/4 233/1/4
f 233/1/4 230/1/4 234/1/4
f 231/1/4 232/1/4 235/1/4
f 235/1/4 232/1/4 236/1/4
f 233/2/4 234/2/4 237/2/4
f 237/2/4 234/2/4 238/2/4
f 235/2/4 236/2/4 239/2/4
f 239/2/4 236/2/4 240/2/4
f 237/1/4 238/1/4 241/1/4
f 241/1/4 238/1/4 242/1/4
f 239/1/4 240/1/4 243/1/4
f 243/1/4 240/1/4 244/1/4
f 241/2/4 242/2/4 245/2/4
f 245/2/4 242/2/4 246/2/4
f 243/2/4 244/2/4 247/2/4
f 247/2/4 244/2/4 248/2/4
f 245/1/4 246/1/4 249/1/4
f 249/1/4 246/1/4 250/1/4
f 247/1/4 248/1/4 251/1/4
f 251/1/4 248/1/4 252/1/4
f 249/2/4 250/2/4 253/2/4
f 253/2/4 250/2/4 254/2/4
f 251/2/4 252/2/4 255/2/4
f 255/2/4 252/2/4 256/2/4
f 253/1/4 254/1/4 257/1/4
f 257/1/4 254/1/4 258/1/4
f 255/1/4 256/1/4 259/1/4
f 259/1/4 256/1/4 260/1/4
f 261/1/4 262/1/4 263/1/4
f 263/1/4 262/1/4 264/1/4
f 264/1/4 262/1/4 265/1/4
f 265/1/4 262/1/4 266/1/4
f 263/2/4 264/2/4 267/2/4
f 264/1/4 265/1/4 268/1/4
f 267/2/4 264/2/4 268/2/4
f 265/2/4 266/2/4 269/2/4
f 268/1/4 265/1/4 269/1/4
f 269/2/4 266/2/4 270/2/4
f 267/1/4 268/1/4 271/1/4
f 271/1/4 268/1/4 272/1/4
f 269/1/4 270/1/4 273/1/4
f 273/1/4 270/1/4 274/1/4
f 271/2/4 272/2/4 275/2/4
f 272/1/4 273/1/4 276/1/4
f 275/2/4 272/2/4 276/2/4
f 273/2/4 274/2/4 277/2/4
f 276/1/4 273/1/4 277/1/4
f 277/2/4 274/2/4 278/2/4
f 275/1/4 276/1/4 279/1/4
f 279/1/4 276/1/4 280/1/4
f 277/1/4 278/1/4 281/1/4
f 281/1/4 278/1/4 282/1/4
f 279/2/4 280/2/4 283/2/4
f 280/1/4 281/1/4 284/1/4
f 283/2/4 280/2/4 284/2/4
f 281/2/4 282/2/4 285/2/4
f 284/1/4 281/1/4 285/1/4
f 285/2/4 282/2/4 286/2/4
f 283/1/4 284/1/4 287/1/4
f 284/1/4 285/1/4 287/1/4
f 285/1/4 286/1/4 287/1/4
f 287/1/4 286/1/4 288/1/4
f 297/1/5 290/1/5 289/1/5
f 297/2/5 291/2/5 290/2/5
f 298/1/5 292/1/5 291/1/5
f 298/2/5 291/2/5 297/2/5
f 299/2/5 293/2/5 292/2/5
f 299/1/5 292/1/5 298/1/5
f 300/1/5 294/1/5 293/1/5
f 300/2/5 293/2/5 299/2/5
f 301/2/5 295/2/5 294/2/5
f 301/1/5 294/1/5 300/1/5
f 302/1/5 296/1/5 295/1/5
f 302/2/5 295/2/5 301/2/5
f 303/1/5 297/1/5 289/1/5
f 303/1/5 298/1/5 297/1/5
f 304/1/5 298/1/5 303/1/5
f 305/1/5 300/1/5 299/1/5
f 306/1/5 300/1/5 305/1/5
f 307/1/5 302/1/5 301/1/5
f 308/1/5 296/1/5 302/1/5
f 308/1/5 302/1/5 307/1/5
f 309/1/5 303/1/5 289/1/5
f 310/2/5 304/2/5 303/2/5
f 310/1/5 303/1/5 309/1/5
f 311/1/5 305/1/5 304/1/5
f 311/2/5 304/2/5 310/2/5
f 312/2/5 306/2/5 305/2/5
f 312/1/5 305/1/5 311/1/5
f 313/1/5 307/1/5 306/1/5
f 313/2/5 306/2/5 312/2/5
f 314/2/5 308/2/5 307/2/5
f 314/1/5 307/1/5 313/1/5
f 315/1/5 296/1/5 308/1/5
f 315/2/5 308/2/5 314/2/5
f 316/1/5 296/1/5 315/1/5
f 325/1/5 318/1/5 317/1/5
f 326/2/5 319/2/5 318/2/5
f 326/1/5 318/1/5 325/1/5
f 327/1/5 320/1/5 319/1/5
f 327/2/5 319/2/5 326/2/5
f 328/2/5 321/2/5 320/2/5
f 328/1/5 320/1/5 327/1/5
f 329/1/5 322/1/5 321/1/5
f 329/2/5 321/2/5 328/2/5
f 330/2/5 323/2/5 322/2/5
f 330/1/5 322/1/5 329/1/5
f 331/1/5 324/1/5 323/1/5
f 331/2/5 323/2/5 330/2/5
f 332/1/5 324/1/5 331/1/5
f 341/1/5 334/1/5 333/1/5
f 342/2/5 335/2/5 334/2/5
f 342/1/5 334/1/5 341/1/5
f 343/1/5 336/1/5 335/1/5
f 343/2/5 335/2/5 342/2/5
f 344/2/5 337/2/5 336/2/5
f 344/1/5 336/1/5 343/1/5
f 345/1/5 338/1/5 337/1/5
f 345/2/5 337/2/5 344/2/5
f 346/2/5 339/2/5 338/2/5
f 346/1/5 338/1/5 345/1/5
f 347/1/5 340/1/5 339/1/5
f 347/2/5 339/2/5 346/2/5
f 348/1/5 340/1/5 347/1/5
f 353/1/5 350/1/5 349/1/5
f 354/1/5 350/1/5 353/1/5
f 355/1/5 352/1/5 351/1/5
f 356/1/5 352/1/5 355/1/5
f 361/1/5 358/1/5 357/1/5
f 362/1/5 358/1/5 361/1/5
f 363/1/5 360/1/5 359/1/5
f 364/1/5 360/1/5 363/1/5
f 373/1/5 366/1/5 365/1/5
f 373/2/5 367/2/5 366/2/5
f 374/1/5 368/1/5 367/1/5
f 374/2/5 367/2/5 373/2/5
f 375/2/5 369/2/5 368/2/5
f 375/1/5 368/1/5 374/1/5
f 376/1/5 370/1/5 369/1/5
f 376/2/5 369/2/5 375/2/5
f 377/2/5 371/2/5 370/2/5
f 377/1/5 370/1/5 376/1/5
f 378/1/5 372/1/5 371/1/5
f 378/2/5 371/2/5 377/2/5
f 379/1/5 373/1/5 365/1/5
f 379/1/5 374/1/5 373/1/5
f 380/1/5 374/1/5 379/1/5
f 381/2/5 376/2/5 375/2/5
f 382/2/5 376/2/5 381/2/5
f 383/1/5 378/1/5 377/1/5
f 384/1/5 372/1/5 378/1/5
f 384/1/5 378/1/5 383/1/5
f 385/1/5 379/1/5 365/1/5
f 386/2/5 380/2/5 379/2/5
f 386/1/5 379/1/5 385/1/5
f 387/1/5 381/1/5 380/1/5
f 387/2/5 380/2/5 386/2/5
f 388/2/5 382/2/5 381/2/5
f 388/1/5 381/1/5 387/1/5
f 389/1/5 383/1/5 382/1/5
f 389/2/5 382/2/5 388/2/5
f 390/2/5 384/2/5 383/2/5
f 390/1/5 383/1/5 389/1/5
f 391/1/5 372/1/5 384/1/5
f 391/2/5 384/2/5 390/2/5
f 392/1/5 372/1/5 391/1/5
f 393/1/6 394/1/6 401/1/6
f 394/2/6 395/2/6 401/2/6
f 395/1/6 396/1/6 402/1/6
f 401/2/6 395/2/6 402/2/6
f 396/2/6 397/2/6 403/2/6
f 402/1/6 396/1/6 403/1/6
f 397/1/6 398/1/6 404/1/6
f 403/2/6 397/2/6 404/2/6
f 398/2/6 399/2/6 405/2/6
f 404/1/6 398/1/6 405/1/6
f 399/1/6 400/1/6 406/1/6
f 405/2/6 399/2/6 406/2/6
f 393/1/6 401/1/6 407/1/6
f 401/1/6 402/1/6 407/1/6
f 407/1/6 402/1/6 408/1/6
f 403/1/6 404/1/6 409/1/6
f 409/1/6 404/1/6 410/1/6
f 405/1/6 406/1/6 411/1/6
f 406/1/6 400/1/6 412/1/6
f 411/1/6 406/1/6 412/1/6
f 393/1/6 407/1/6 413/1/6
f 407/2/6 408/2/6 414/2/6
f 413/1/6 407/1/6 414/1/6
f 408/1/6 409/1/6 415/1/6
f 414/2/6 408/2/6 415/2/6
f 409/2/6 410/2/6 416/2/6
f 415/1/6 409/1/6 416/1/6
f 410/1/6 411/1/6 417/1/6
f 416/2/6 410/2/6 417/2/6
f 411/2/6 412/2/6 418/2/6
f 417/1/6 411/1/6 418/1/6
f 412/1/6 400/1/6 419/1/6
f 418/2/6 412/2/6 419/2/6
f 419/1/6 400/1/6 420/1/6
f 421/1/6 422/1/6 425/1/6
f 425/1/6 422/1/6 426/1/6
f 423/1/6 424/1/6 427/1/6
f 427/1/6 424/1/6 428/1/6
f 429/1/6 430/1/6 433/1/6
f 433/1/6 430/1/6 434/1/6
f 431/1/6 432/1/6 435/1/6
f 435/1/6 432/1/6 436/1/6
f 437/1/6 438/1/6 445/1/6
f 438/2/6 439/2/6 446/2/6
f 445/1/6 438/1/6 446/1/6
f 439/1/6 440/1/6 447/1/6
f 446/2/6 439/2/6 447/2/6
f 440/2/6 441/2/6 448/2/6
f 447/1/6 440/1/6 448/1/6
f 441/1/6 442/1/6 449/1/6
f 448/2/6 441/2/6 449/2/6
f 442/2/6 443/2/6 450/2/6
f 449/1/6 442/1/6 450/1/6
f 443/1/6 444/1/6 451/1/6
f 450/2/6 443/2/6 451/2/6
f 451/1/6 444/1/6 452/1/6
f 453/1/6 454/1/6 461/1/6
f 454/2/6 455/2/6 462/2/6
f 461/1/6 454/1/6 462/1/6
f 455/1/6 456/1/6 463/1/6
f 462/2/6 455/2/6 463/2/6
f 456/2/6 457/2/6 464/2/6
f 463/1/6 456/1/6 464/1/6
f 457/1/6 458/1/6 465/1/6
f 464/2/6 457/2/6 465/2/6
f 458/2/6 459/2/6 466/2/6
f 465/1/6 458/1/6 466/1/6
f 459/1/6 460/1/6 467/1/6
f 466/2/6 459/2/6 467/2/6
f 467/1/6 460/1/6 468/1/6
f 469/1/6 470/1/6 477/1/6
f 470/2/6 471/2/6 477/2/6
f 471/1/6 472/1/6 478/1/6
f 477/2/6 471/2/6 478/2/6
f 472/2/6 473/2/6 479/2/6
f 478/1/6 472/1/6 479/1/6
f 473/1/6 474/1/6 480/1/6
f 479/2/6 473/2/6 480/2/6
f 474/2/6 475/2/6 481/2/6
f 480/1/6 474/1/6 481/1/6
f 475/1/6 476/1/6 482/1/6
f 481/2/6 475/2/6 482/2/6
f 469/1/6 477/1/6 483/1/6
f 477/1/6 478/1/6 483/1/6
f 483/1/6 478/1/6 484/1/6
f 479/2/6 480/2/6 485/2/6
f 485/2/6 480/2/6 486/2/6
f 481/1/6 482/1/6 487/1/6
f 482/1/6 476/1/6 488/1/6
f 487/1/6 482/1/6 488/1/6
f 469/1/6 483/1/6 489/1/6
f 483/2/6 484/2/6 490/2/6
f 489/1/6 483/1/6 490/1/6
f 484/1/6 485/1/6 491/1/6
f 490/2/6 484/2/6 491/2/6
f 485/2/6 486/2/6 492/2/6
f 491/1/6 485/1/6 492/1/6
f 486/1/6 487/1/6 493/1/6
f 492/2/6 486/2/6 493/2/6
f 487/2/6 488/2/6 494/2/6
f 493/1/6 487/1/6 494/1/6
f 488/1/6 476/1/6 495/1/6
f 494/2/6 488/2/6 495/2/6
f 495/1/6 476/1/6 496/1/6
