# MagicaVoxel @ Ephtracy

# group
o 

# material
mtllib pric3.mtl
usemtl palette

# normals
vn -1 0 0
vn 1 0 0
vn 0 0 1
vn 0 0 -1
vn 0 -1 0
vn 0 1 0

# texcoords
vt 0.845703 0.5
vt 0.943359 0.5
vt 0.978516 0.5

# verts
v -0.5 0.5 0.1
v -0.5 0.5 -0.3
v -0.5 0.6 -2.98023e-08
v -0.5 0.6 -0.2
v -0.5 1 -2.98023e-08
v -0.5 1 -0.2
v -0.5 1.1 0.1
v -0.5 1.1 -0.3
v -0.4 0.4 0.1
v -0.4 0.4 -0.3
v -0.4 0.5 0.1
v -0.4 0.5 -0.3
v -0.4 1.1 0.1
v -0.4 1.1 -0.3
v -0.4 1.2 0.1
v -0.4 1.2 -0.3
v -0.3 0 0.3
v -0.3 0 -0.3
v -0.3 0.1 0.2
v -0.3 0.1 0.1
v -0.3 0.1 -2.98023e-08
v -0.3 0.1 -0.2
v -0.3 0.2 0.3
v -0.3 0.2 0.2
v -0.3 0.2 0.1
v -0.3 0.2 -2.98023e-08
v -0.3 0.2 -0.2
v -0.3 0.2 -0.3
v -0.2 0.2 0.3
v -0.2 0.2 0.2
v -0.2 0.2 0.1
v -0.2 0.2 -2.98023e-08
v -0.2 0.2 -0.2
v -0.2 0.2 -0.3
v -0.2 0.3 0.3
v -0.2 0.3 0.2
v -0.2 0.3 0.1
v -0.2 0.3 -2.98023e-08
v -0.2 0.3 -0.2
v -0.2 0.4 0.1
v -0.2 0.4 -2.98023e-08
v -0.2 0.4 -0.2
v -0.2 0.4 -0.3
v -0.1 0.3 0.3
v -0.1 0.3 0.2
v -0.1 0.3 0.1
v -0.1 0.3 -2.98023e-08
v -0.1 0.3 -0.2
v -0.1 0.4 0.3
v -0.1 0.4 0.1
v -0.1 0.4 -2.98023e-08
v -0.1 0.4 -0.2
v -0.1 0.5 -2.98023e-08
v -0.1 0.5 -0.2
v -0.1 0.7 -0.1
v -0.1 0.7 -0.2
v -0.1 0.9 -0.1
v -0.1 0.9 -0.2
v -0.1 1.1 -2.98023e-08
v -0.1 1.1 -0.2
v -0.1 1.2 -2.98023e-08
v -0.1 1.2 -0.2
v 0.3 0.4 -2.98023e-08
v 0.3 0.4 -0.2
v 0.3 0.5 -2.98023e-08
v 0.3 0.5 -0.2
v 0.3 1.1 -2.98023e-08
v 0.3 1.1 -0.2
v 0.3 1.2 -2.98023e-08
v 0.3 1.2 -0.2
v 0.4 0.5 0.1
v 0.4 0.5 -0.3
v 0.4 0.6 -2.98023e-08
v 0.4 0.6 -0.2
v 0.4 1 -2.98023e-08
v 0.4 1 -0.2
v 0.4 1.1 0.1
v 0.4 1.1 -0.3
v -0.4 0.5 0.1
v -0.4 0.5 -0.3
v -0.4 0.6 -2.98023e-08
v -0.4 0.6 -0.2
v -0.4 1 -2.98023e-08
v -0.4 1 -0.2
v -0.4 1.1 0.1
v -0.4 1.1 -0.3
v -0.3 0.4 -2.98023e-08
v -0.3 0.4 -0.2
v -0.3 0.5 -2.98023e-08
v -0.3 0.5 -0.2
v -0.3 1.1 -2.98023e-08
v -0.3 1.1 -0.2
v -0.3 1.2 -2.98023e-08
v -0.3 1.2 -0.2
v 0.1 0.3 0.3
v 0.1 0.3 0.2
v 0.1 0.3 0.1
v 0.1 0.3 -2.98023e-08
v 0.1 0.3 -0.2
v 0.1 0.4 0.3
v 0.1 0.4 0.1
v 0.1 0.4 -2.98023e-08
v 0.1 0.4 -0.2
v 0.1 0.5 -2.98023e-08
v 0.1 0.5 -0.2
v 0.1 0.7 -0.1
v 0.1 0.7 -0.2
v 0.1 0.9 -0.1
v 0.1 0.9 -0.2
v 0.1 1.1 -2.98023e-08
v 0.1 1.1 -0.2
v 0.1 1.2 -2.98023e-08
v 0.1 1.2 -0.2
v 0.2 0.2 0.3
v 0.2 0.2 0.2
v 0.2 0.2 0.1
v 0.2 0.2 -2.98023e-08
v 0.2 0.2 -0.2
v 0.2 0.2 -0.3
v 0.2 0.3 0.3
v 0.2 0.3 0.2
v 0.2 0.3 0.1
v 0.2 0.3 -2.98023e-08
v 0.2 0.3 -0.2
v 0.2 0.4 0.1
v 0.2 0.4 -2.98023e-08
v 0.2 0.4 -0.2
v 0.2 0.4 -0.3
v 0.3 0 0.3
v 0.3 0 -0.3
v 0.3 0.1 0.2
v 0.3 0.1 0.1
v 0.3 0.1 -2.98023e-08
v 0.3 0.1 -0.2
v 0.3 0.2 0.3
v 0.3 0.2 0.2
v 0.3 0.2 0.1
v 0.3 0.2 -2.98023e-08
v 0.3 0.2 -0.2
v 0.3 0.2 -0.3
v 0.4 0.4 0.1
v 0.4 0.4 -0.3
v 0.4 0.5 0.1
v 0.4 0.5 -0.3
v 0.4 1.1 0.1
v 0.4 1.1 -0.3
v 0.4 1.2 0.1
v 0.4 1.2 -0.3
v 0.5 0.5 0.1
v 0.5 0.5 -0.3
v 0.5 0.6 -2.98023e-08
v 0.5 0.6 -0.2
v 0.5 1 -2.98023e-08
v 0.5 1 -0.2
v 0.5 1.1 0.1
v 0.5 1.1 -0.3
v -0.3 0 0.3
v -0.3 0.2 0.3
v -0.2 0.1 0.3
v -0.2 0.2 0.3
v -0.2 0.3 0.3
v -0.1 0.1 0.3
v -0.1 0.2 0.3
v -0.1 0.3 0.3
v -0.1 0.4 0.3
v 0.1 0.1 0.3
v 0.1 0.2 0.3
v 0.1 0.3 0.3
v 0.1 0.4 0.3
v 0.2 0.1 0.3
v 0.2 0.2 0.3
v 0.2 0.3 0.3
v 0.3 0 0.3
v 0.3 0.2 0.3
v -0.5 0.5 0.1
v -0.5 1.1 0.1
v -0.4 0.4 0.1
v -0.4 0.5 0.1
v -0.4 1.1 0.1
v -0.4 1.2 0.1
v -0.2 0.3 0.1
v -0.2 0.4 0.1
v -0.1 0.3 0.1
v -0.1 0.4 0.1
v 0.1 0.3 0.1
v 0.1 0.4 0.1
v 0.2 0.3 0.1
v 0.2 0.4 0.1
v 0.4 0.4 0.1
v 0.4 0.5 0.1
v 0.4 1.1 0.1
v 0.4 1.2 0.1
v 0.5 0.5 0.1
v 0.5 1.1 0.1
v -0.1 0.7 -0.1
v -0.1 0.9 -0.1
v 0.1 0.7 -0.1
v 0.1 0.9 -0.1
v -0.5 0.6 -0.2
v -0.5 1 -0.2
v -0.4 0.6 -0.2
v -0.4 1 -0.2
v -0.3 0.4 -0.2
v -0.3 0.5 -0.2
v -0.3 1.1 -0.2
v -0.3 1.2 -0.2
v -0.2 0.3 -0.2
v -0.2 0.4 -0.2
v -0.1 0.3 -0.2
v -0.1 0.4 -0.2
v -0.1 0.5 -0.2
v -0.1 1.1 -0.2
v -0.1 1.2 -0.2
v 0.1 0.3 -0.2
v 0.1 0.4 -0.2
v 0.1 0.5 -0.2
v 0.1 1.1 -0.2
v 0.1 1.2 -0.2
v 0.2 0.3 -0.2
v 0.2 0.4 -0.2
v 0.3 0.4 -0.2
v 0.3 0.5 -0.2
v 0.3 1.1 -0.2
v 0.3 1.2 -0.2
v 0.4 0.6 -0.2
v 0.4 1 -0.2
v 0.5 0.6 -0.2
v 0.5 1 -0.2
v -0.5 0.6 -2.98023e-08
v -0.5 1 -2.98023e-08
v -0.4 0.6 -2.98023e-08
v -0.4 1 -2.98023e-08
v -0.3 0.4 -2.98023e-08
v -0.3 0.5 -2.98023e-08
v -0.3 1.1 -2.98023e-08
v -0.3 1.2 -2.98023e-08
v -0.2 0.3 -2.98023e-08
v -0.2 0.4 -2.98023e-08
v -0.1 0.3 -2.98023e-08
v -0.1 0.4 -2.98023e-08
v -0.1 0.5 -2.98023e-08
v -0.1 1.1 -2.98023e-08
v -0.1 1.2 -2.98023e-08
v 0.1 0.3 -2.98023e-08
v 0.1 0.4 -2.98023e-08
v 0.1 0.5 -2.98023e-08
v 0.1 1.1 -2.98023e-08
v 0.1 1.2 -2.98023e-08
v 0.2 0.3 -2.98023e-08
v 0.2 0.4 -2.98023e-08
v 0.3 0.4 -2.98023e-08
v 0.3 0.5 -2.98023e-08
v 0.3 1.1 -2.98023e-08
v 0.3 1.2 -2.98023e-08
v 0.4 0.6 -2.98023e-08
v 0.4 1 -2.98023e-08
v 0.5 0.6 -2.98023e-08
v 0.5 1 -2.98023e-08
v -0.1 0.7 -0.2
v -0.1 0.9 -0.2
v 0.1 0.7 -0.2
v 0.1 0.9 -0.2
v -0.5 0.5 -0.3
v -0.5 1.1 -0.3
v -0.4 0.4 -0.3
v -0.4 0.5 -0.3
v -0.4 1.1 -0.3
v -0.4 1.2 -0.3
v -0.3 0 -0.3
v -0.3 0.2 -0.3
v -0.2 0.1 -0.3
v -0.2 0.2 -0.3
v -0.2 0.4 -0.3
v -0.1 0.2 -0.3
v -0.1 0.4 -0.3
v 0.1 0.2 -0.3
v 0.1 0.4 -0.3
v 0.2 0.1 -0.3
v 0.2 0.2 -0.3
v 0.2 0.4 -0.3
v 0.3 0 -0.3
v 0.3 0.2 -0.3
v 0.4 0.4 -0.3
v 0.4 0.5 -0.3
v 0.4 1.1 -0.3
v 0.4 1.2 -0.3
v 0.5 0.5 -0.3
v 0.5 1.1 -0.3
v -0.3 0 0.3
v 0.3 0 0.3
v -0.2 0 0.2
v 0.2 0 0.2
v -0.2 0 -0.2
v 0.2 0 -0.2
v -0.3 0 -0.3
v 0.3 0 -0.3
v -0.4 0.4 0.1
v -0.2 0.4 0.1
v 0.2 0.4 0.1
v 0.4 0.4 0.1
v -0.3 0.4 -2.98023e-08
v -0.2 0.4 -2.98023e-08
v 0.2 0.4 -2.98023e-08
v 0.3 0.4 -2.98023e-08
v -0.3 0.4 -0.2
v -0.2 0.4 -0.2
v 0.2 0.4 -0.2
v 0.3 0.4 -0.2
v -0.4 0.4 -0.3
v -0.2 0.4 -0.3
v 0.2 0.4 -0.3
v 0.4 0.4 -0.3
v -0.5 0.5 0.1
v -0.4 0.5 0.1
v 0.4 0.5 0.1
v 0.5 0.5 0.1
v -0.5 0.5 -0.3
v -0.4 0.5 -0.3
v 0.4 0.5 -0.3
v 0.5 0.5 -0.3
v -0.1 0.7 -0.1
v 0.1 0.7 -0.1
v -0.1 0.7 -0.2
v 0.1 0.7 -0.2
v -0.5 1 -2.98023e-08
v -0.4 1 -2.98023e-08
v 0.4 1 -2.98023e-08
v 0.5 1 -2.98023e-08
v -0.5 1 -0.2
v -0.4 1 -0.2
v 0.4 1 -0.2
v 0.5 1 -0.2
v -0.4 1.1 0.1
v 0.4 1.1 0.1
v -0.3 1.1 -2.98023e-08
v -0.1 1.1 -2.98023e-08
v 0.1 1.1 -2.98023e-08
v 0.3 1.1 -2.98023e-08
v -0.3 1.1 -0.2
v -0.1 1.1 -0.2
v 0.1 1.1 -0.2
v 0.3 1.1 -0.2
v -0.4 1.1 -0.3
v 0.4 1.1 -0.3
v -0.3 0.2 0.3
v -0.2 0.2 0.3
v 0.2 0.2 0.3
v 0.3 0.2 0.3
v -0.3 0.2 0.2
v -0.2 0.2 0.2
v 0.2 0.2 0.2
v 0.3 0.2 0.2
v -0.3 0.2 0.1
v -0.2 0.2 0.1
v 0.2 0.2 0.1
v 0.3 0.2 0.1
v -0.3 0.2 -2.98023e-08
v -0.2 0.2 -2.98023e-08
v 0.2 0.2 -2.98023e-08
v 0.3 0.2 -2.98023e-08
v -0.3 0.2 -0.2
v -0.2 0.2 -0.2
v 0.2 0.2 -0.2
v 0.3 0.2 -0.2
v -0.3 0.2 -0.3
v -0.2 0.2 -0.3
v 0.2 0.2 -0.3
v 0.3 0.2 -0.3
v -0.2 0.3 0.3
v -0.1 0.3 0.3
v 0.1 0.3 0.3
v 0.2 0.3 0.3
v -0.2 0.3 0.2
v -0.1 0.3 0.2
v 0.1 0.3 0.2
v 0.2 0.3 0.2
v -0.2 0.3 0.1
v -0.1 0.3 0.1
v 0.1 0.3 0.1
v 0.2 0.3 0.1
v -0.2 0.3 -2.98023e-08
v -0.1 0.3 -2.98023e-08
v 0.1 0.3 -2.98023e-08
v 0.2 0.3 -2.98023e-08
v -0.2 0.3 -0.2
v -0.1 0.3 -0.2
v 0.1 0.3 -0.2
v 0.2 0.3 -0.2
v -0.1 0.4 0.3
v 0.1 0.4 0.3
v -0.1 0.4 0.1
v 0.1 0.4 0.1
v -0.4 0.5 0.1
v 0.4 0.5 0.1
v -0.3 0.5 -2.98023e-08
v -0.1 0.5 -2.98023e-08
v 0.1 0.5 -2.98023e-08
v 0.3 0.5 -2.98023e-08
v -0.3 0.5 -0.2
v -0.1 0.5 -0.2
v 0.1 0.5 -0.2
v 0.3 0.5 -0.2
v -0.4 0.5 -0.3
v 0.4 0.5 -0.3
v -0.5 0.6 -2.98023e-08
v -0.4 0.6 -2.98023e-08
v 0.4 0.6 -2.98023e-08
v 0.5 0.6 -2.98023e-08
v -0.5 0.6 -0.2
v -0.4 0.6 -0.2
v 0.4 0.6 -0.2
v 0.5 0.6 -0.2
v -0.1 0.9 -0.1
v 0.1 0.9 -0.1
v -0.1 0.9 -0.2
v 0.1 0.9 -0.2
v -0.5 1.1 0.1
v -0.4 1.1 0.1
v 0.4 1.1 0.1
v 0.5 1.1 0.1
v -0.5 1.1 -0.3
v -0.4 1.1 -0.3
v 0.4 1.1 -0.3
v 0.5 1.1 -0.3
v -0.4 1.2 0.1
v 0.4 1.2 0.1
v -0.3 1.2 -2.98023e-08
v -0.1 1.2 -2.98023e-08
v 0.1 1.2 -2.98023e-08
v 0.3 1.2 -2.98023e-08
v -0.3 1.2 -0.2
v -0.1 1.2 -0.2
v 0.1 1.2 -0.2
v 0.3 1.2 -0.2
v -0.4 1.2 -0.3
v 0.4 1.2 -0.3

# faces
f 3/2/1 2/2/1 1/2/1
f 4/2/1 2/2/1 3/2/1
f 5/2/1 3/2/1 1/2/1
f 6/2/1 2/2/1 4/2/1
f 7/2/1 5/2/1 1/2/1
f 7/2/1 6/2/1 5/2/1
f 8/2/1 2/2/1 6/2/1
f 8/2/1 6/2/1 7/2/1
f 11/2/1 10/2/1 9/2/1
f 12/2/1 10/2/1 11/2/1
f 15/2/1 14/2/1 13/2/1
f 16/2/1 14/2/1 15/2/1
f 19/2/1 18/2/1 17/2/1
f 20/2/1 18/2/1 19/2/1
f 21/2/1 18/2/1 20/2/1
f 22/2/1 18/2/1 21/2/1
f 23/2/1 19/2/1 17/2/1
f 24/3/1 20/3/1 19/3/1
f 24/2/1 19/2/1 23/2/1
f 25/2/1 21/2/1 20/2/1
f 25/3/1 20/3/1 24/3/1
f 26/3/1 22/3/1 21/3/1
f 26/2/1 21/2/1 25/2/1
f 27/2/1 18/2/1 22/2/1
f 27/3/1 22/3/1 26/3/1
f 28/2/1 18/2/1 27/2/1
f 35/2/1 30/2/1 29/2/1
f 36/3/1 31/3/1 30/3/1
f 36/2/1 30/2/1 35/2/1
f 37/2/1 32/2/1 31/2/1
f 37/3/1 31/3/1 36/3/1
f 38/3/1 33/3/1 32/3/1
f 38/2/1 32/2/1 37/2/1
f 39/2/1 34/2/1 33/2/1
f 39/3/1 33/3/1 38/3/1
f 40/2/1 38/2/1 37/2/1
f 41/2/1 38/2/1 40/2/1
f 42/2/1 34/2/1 39/2/1
f 43/2/1 34/2/1 42/2/1
f 49/2/1 45/2/1 44/2/1
f 49/2/1 46/2/1 45/2/1
f 50/2/1 46/2/1 49/2/1
f 51/3/1 48/3/1 47/3/1
f 52/3/1 48/3/1 51/3/1
f 53/2/1 52/2/1 51/2/1
f 54/2/1 52/2/1 53/2/1
f 57/1/1 56/1/1 55/1/1
f 58/1/1 56/1/1 57/1/1
f 61/2/1 60/2/1 59/2/1
f 62/2/1 60/2/1 61/2/1
f 65/2/1 64/2/1 63/2/1
f 66/2/1 64/2/1 65/2/1
f 69/2/1 68/2/1 67/2/1
f 70/2/1 68/2/1 69/2/1
f 73/2/1 72/2/1 71/2/1
f 74/2/1 72/2/1 73/2/1
f 75/2/1 73/2/1 71/2/1
f 76/2/1 72/2/1 74/2/1
f 77/2/1 75/2/1 71/2/1
f 77/2/1 76/2/1 75/2/1
f 78/2/1 72/2/1 76/2/1
f 78/2/1 76/2/1 77/2/1
f 79/2/2 80/2/2 81/2/2
f 81/2/2 80/2/2 82/2/2
f 79/2/2 81/2/2 83/2/2
f 82/2/2 80/2/2 84/2/2
f 79/2/2 83/2/2 85/2/2
f 83/2/2 84/2/2 85/2/2
f 84/2/2 80/2/2 86/2/2
f 85/2/2 84/2/2 86/2/2
f 87/2/2 88/2/2 89/2/2
f 89/2/2 88/2/2 90/2/2
f 91/2/2 92/2/2 93/2/2
f 93/2/2 92/2/2 94/2/2
f 95/2/2 96/2/2 100/2/2
f 96/2/2 97/2/2 100/2/2
f 100/2/2 97/2/2 101/2/2
f 98/3/2 99/3/2 102/3/2
f 102/3/2 99/3/2 103/3/2
f 102/2/2 103/2/2 104/2/2
f 104/2/2 103/2/2 105/2/2
f 106/1/2 107/1/2 108/1/2
f 108/1/2 107/1/2 109/1/2
f 110/2/2 111/2/2 112/2/2
f 112/2/2 111/2/2 113/2/2
f 114/2/2 115/2/2 120/2/2
f 115/3/2 116/3/2 121/3/2
f 120/2/2 115/2/2 121/2/2
f 116/2/2 117/2/2 122/2/2
f 121/3/2 116/3/2 122/3/2
f 117/3/2 118/3/2 123/3/2
f 122/2/2 117/2/2 123/2/2
f 118/2/2 119/2/2 124/2/2
f 123/3/2 118/3/2 124/3/2
f 122/2/2 123/2/2 125/2/2
f 125/2/2 123/2/2 126/2/2
f 124/2/2 119/2/2 127/2/2
f 127/2/2 119/2/2 128/2/2
f 129/2/2 130/2/2 131/2/2
f 131/2/2 130/2/2 132/2/2
f 132/2/2 130/2/2 133/2/2
f 133/2/2 130/2/2 134/2/2
f 129/2/2 131/2/2 135/2/2
f 131/3/2 132/3/2 136/3/2
f 135/2/2 131/2/2 136/2/2
f 132/2/2 133/2/2 137/2/2
f 136/3/2 132/3/2 137/3/2
f 133/3/2 134/3/2 138/3/2
f 137/2/2 133/2/2 138/2/2
f 134/2/2 130/2/2 139/2/2
f 138/3/2 134/3/2 139/3/2
f 139/2/2 130/2/2 140/2/2
f 141/2/2 142/2/2 143/2/2
f 143/2/2 142/2/2 144/2/2
f 145/2/2 146/2/2 147/2/2
f 147/2/2 146/2/2 148/2/2
f 149/2/2 150/2/2 151/2/2
f 151/2/2 150/2/2 152/2/2
f 149/2/2 151/2/2 153/2/2
f 152/2/2 150/2/2 154/2/2
f 149/2/2 153/2/2 155/2/2
f 153/2/2 154/2/2 155/2/2
f 154/2/2 150/2/2 156/2/2
f 155/2/2 154/2/2 156/2/2
f 159/2/3 158/2/3 157/2/3
f 160/2/3 158/2/3 159/2/3
f 162/2/3 159/2/3 157/2/3
f 162/3/3 160/3/3 159/3/3
f 163/2/3 161/2/3 160/2/3
f 163/3/3 160/3/3 162/3/3
f 164/2/3 161/2/3 163/2/3
f 166/2/3 162/2/3 157/2/3
f 166/2/3 165/2/3 164/2/3
f 166/2/3 164/2/3 163/2/3
f 166/2/3 163/2/3 162/2/3
f 167/2/3 165/2/3 166/2/3
f 168/2/3 165/2/3 167/2/3
f 169/2/3 165/2/3 168/2/3
f 170/2/3 166/2/3 157/2/3
f 170/3/3 167/3/3 166/3/3
f 171/2/3 168/2/3 167/2/3
f 171/3/3 167/3/3 170/3/3
f 172/2/3 168/2/3 171/2/3
f 173/2/3 170/2/3 157/2/3
f 173/2/3 171/2/3 170/2/3
f 174/2/3 171/2/3 173/2/3
f 178/2/3 176/2/3 175/2/3
f 179/2/3 176/2/3 178/2/3
f 182/2/3 178/2/3 177/2/3
f 183/2/3 182/2/3 181/2/3
f 184/2/3 178/2/3 182/2/3
f 184/2/3 182/2/3 183/2/3
f 186/2/3 178/2/3 184/2/3
f 187/2/3 186/2/3 185/2/3
f 188/2/3 178/2/3 186/2/3
f 188/2/3 186/2/3 187/2/3
f 189/2/3 178/2/3 188/2/3
f 190/2/3 178/2/3 189/2/3
f 191/2/3 180/2/3 179/2/3
f 192/2/3 180/2/3 191/2/3
f 193/2/3 191/2/3 190/2/3
f 194/2/3 191/2/3 193/2/3
f 197/1/3 196/1/3 195/1/3
f 198/1/3 196/1/3 197/1/3
f 201/2/3 200/2/3 199/2/3
f 202/2/3 200/2/3 201/2/3
f 208/2/3 204/2/3 203/2/3
f 209/2/3 208/2/3 207/2/3
f 210/2/3 204/2/3 208/2/3
f 210/2/3 208/2/3 209/2/3
f 211/2/3 204/2/3 210/2/3
f 212/2/3 206/2/3 205/2/3
f 213/2/3 206/2/3 212/2/3
f 219/2/3 215/2/3 214/2/3
f 219/2/3 216/2/3 215/2/3
f 220/2/3 216/2/3 219/2/3
f 221/2/3 216/2/3 220/2/3
f 222/2/3 216/2/3 221/2/3
f 223/2/3 218/2/3 217/2/3
f 224/2/3 218/2/3 223/2/3
f 227/2/3 226/2/3 225/2/3
f 228/2/3 226/2/3 227/2/3
f 229/2/4 230/2/4 231/2/4
f 231/2/4 230/2/4 232/2/4
f 233/2/4 234/2/4 238/2/4
f 237/2/4 238/2/4 239/2/4
f 238/2/4 234/2/4 240/2/4
f 239/2/4 238/2/4 240/2/4
f 240/2/4 234/2/4 241/2/4
f 235/2/4 236/2/4 242/2/4
f 242/2/4 236/2/4 243/2/4
f 244/2/4 245/2/4 249/2/4
f 245/2/4 246/2/4 249/2/4
f 249/2/4 246/2/4 250/2/4
f 250/2/4 246/2/4 251/2/4
f 251/2/4 246/2/4 252/2/4
f 247/2/4 248/2/4 253/2/4
f 253/2/4 248/2/4 254/2/4
f 255/2/4 256/2/4 257/2/4
f 257/2/4 256/2/4 258/2/4
f 259/1/4 260/1/4 261/1/4
f 261/1/4 260/1/4 262/1/4
f 263/2/4 264/2/4 266/2/4
f 266/2/4 264/2/4 267/2/4
f 269/2/4 270/2/4 271/2/4
f 271/2/4 270/2/4 272/2/4
f 265/2/4 266/2/4 273/2/4
f 271/3/4 272/3/4 274/3/4
f 272/2/4 273/2/4 274/2/4
f 273/2/4 266/2/4 275/2/4
f 274/2/4 273/2/4 275/2/4
f 271/3/4 274/3/4 276/3/4
f 274/3/4 275/3/4 276/3/4
f 275/2/4 266/2/4 277/2/4
f 276/3/4 275/3/4 277/3/4
f 271/3/4 276/3/4 278/3/4
f 269/2/4 271/2/4 278/2/4
f 276/2/4 277/2/4 279/2/4
f 278/3/4 276/3/4 279/3/4
f 277/2/4 266/2/4 280/2/4
f 279/2/4 277/2/4 280/2/4
f 278/2/4 279/2/4 281/2/4
f 269/2/4 278/2/4 281/2/4
f 281/2/4 279/2/4 282/2/4
f 280/2/4 266/2/4 283/2/4
f 283/2/4 266/2/4 284/2/4
f 267/2/4 268/2/4 285/2/4
f 285/2/4 268/2/4 286/2/4
f 284/2/4 285/2/4 287/2/4
f 287/2/4 285/2/4 288/2/4
f 291/2/5 290/2/5 289/2/5
f 292/2/5 290/2/5 291/2/5
f 293/2/5 291/2/5 289/2/5
f 293/3/5 292/3/5 291/3/5
f 294/2/5 290/2/5 292/2/5
f 294/3/5 292/3/5 293/3/5
f 295/2/5 293/2/5 289/2/5
f 295/2/5 294/2/5 293/2/5
f 296/2/5 290/2/5 294/2/5
f 296/2/5 294/2/5 295/2/5
f 301/2/5 298/2/5 297/2/5
f 302/2/5 298/2/5 301/2/5
f 303/2/5 300/2/5 299/2/5
f 304/2/5 300/2/5 303/2/5
f 305/2/5 301/2/5 297/2/5
f 308/2/5 300/2/5 304/2/5
f 309/2/5 306/2/5 305/2/5
f 309/2/5 305/2/5 297/2/5
f 310/2/5 306/2/5 309/2/5
f 311/2/5 308/2/5 307/2/5
f 312/2/5 300/2/5 308/2/5
f 312/2/5 308/2/5 311/2/5
f 317/2/5 314/2/5 313/2/5
f 318/2/5 314/2/5 317/2/5
f 319/2/5 316/2/5 315/2/5
f 320/2/5 316/2/5 319/2/5
f 323/1/5 322/1/5 321/1/5
f 324/1/5 322/1/5 323/1/5
f 329/2/5 326/2/5 325/2/5
f 330/2/5 326/2/5 329/2/5
f 331/2/5 328/2/5 327/2/5
f 332/2/5 328/2/5 331/2/5
f 335/2/5 334/2/5 333/2/5
f 336/2/5 334/2/5 335/2/5
f 337/2/5 334/2/5 336/2/5
f 338/2/5 334/2/5 337/2/5
f 339/2/5 335/2/5 333/2/5
f 340/2/5 337/2/5 336/2/5
f 341/2/5 337/2/5 340/2/5
f 342/2/5 334/2/5 338/2/5
f 343/2/5 341/2/5 340/2/5
f 343/2/5 342/2/5 341/2/5
f 343/2/5 339/2/5 333/2/5
f 343/2/5 340/2/5 339/2/5
f 344/2/5 334/2/5 342/2/5
f 344/2/5 342/2/5 343/2/5
f 345/2/6 346/2/6 349/2/6
f 349/2/6 346/2/6 350/2/6
f 347/2/6 348/2/6 351/2/6
f 351/2/6 348/2/6 352/2/6
f 349/3/6 350/3/6 353/3/6
f 353/3/6 350/3/6 354/3/6
f 351/3/6 352/3/6 355/3/6
f 355/3/6 352/3/6 356/3/6
f 353/2/6 354/2/6 357/2/6
f 357/2/6 354/2/6 358/2/6
f 355/2/6 356/2/6 359/2/6
f 359/2/6 356/2/6 360/2/6
f 357/3/6 358/3/6 361/3/6
f 361/3/6 358/3/6 362/3/6
f 359/3/6 360/3/6 363/3/6
f 363/3/6 360/3/6 364/3/6
f 361/2/6 362/2/6 365/2/6
f 365/2/6 362/2/6 366/2/6
f 363/2/6 364/2/6 367/2/6
f 367/2/6 364/2/6 368/2/6
f 369/2/6 370/2/6 373/2/6
f 373/2/6 370/2/6 374/2/6
f 371/2/6 372/2/6 375/2/6
f 375/2/6 372/2/6 376/2/6
f 373/3/6 374/3/6 377/3/6
f 377/3/6 374/3/6 378/3/6
f 375/3/6 376/3/6 379/3/6
f 379/3/6 376/3/6 380/3/6
f 381/3/6 382/3/6 385/3/6
f 385/3/6 382/3/6 386/3/6
f 383/3/6 384/3/6 387/3/6
f 387/3/6 384/3/6 388/3/6
f 389/2/6 390/2/6 391/2/6
f 391/2/6 390/2/6 392/2/6
f 393/2/6 394/2/6 395/2/6
f 395/2/6 394/2/6 396/2/6
f 396/2/6 394/2/6 397/2/6
f 397/2/6 394/2/6 398/2/6
f 393/2/6 395/2/6 399/2/6
f 396/2/6 397/2/6 400/2/6
f 400/2/6 397/2/6 401/2/6
f 398/2/6 394/2/6 402/2/6
f 400/2/6 401/2/6 403/2/6
f 401/2/6 402/2/6 403/2/6
f 393/2/6 399/2/6 403/2/6
f 399/2/6 400/2/6 403/2/6
f 402/2/6 394/2/6 404/2/6
f 403/2/6 402/2/6 404/2/6
f 405/2/6 406/2/6 409/2/6
f 409/2/6 406/2/6 410/2/6
f 407/2/6 408/2/6 411/2/6
f 411/2/6 408/2/6 412/2/6
f 413/1/6 414/1/6 415/1/6
f 415/1/6 414/1/6 416/1/6
f 417/2/6 418/2/6 421/2/6
f 421/2/6 418/2/6 422/2/6
f 419/2/6 420/2/6 423/2/6
f 423/2/6 420/2/6 424/2/6
f 425/2/6 426/2/6 427/2/6
f 427/2/6 426/2/6 428/2/6
f 428/2/6 426/2/6 429/2/6
f 429/2/6 426/2/6 430/2/6
f 425/2/6 427/2/6 431/2/6
f 428/2/6 429/2/6 432/2/6
f 432/2/6 429/2/6 433/2/6
f 430/2/6 426/2/6 434/2/6
f 432/2/6 433/2/6 435/2/6
f 433/2/6 434/2/6 435/2/6
f 425/2/6 431/2/6 435/2/6
f 431/2/6 432/2/6 435/2/6
f 434/2/6 426/2/6 436/2/6
f 435/2/6 434/2/6 436/2/6
