# MagicaVoxel @ Ephtracy

# group
o 

# material
mtllib pric2.mtl
usemtl palette

# normals
vn -1 0 0
vn 1 0 0
vn 0 0 1
vn 0 0 -1
vn 0 -1 0
vn 0 1 0

# texcoords
vt 0.845703 0.5
vt 0.943359 0.5
vt 0.978516 0.5

# verts
v -0.5 0.5 -0.2
v -0.5 0.5 -0.3
v -0.5 1.1 -0.2
v -0.5 1.1 -0.3
v -0.4 0.4 -0.2
v -0.4 0.4 -0.3
v -0.4 0.5 -0.2
v -0.4 0.5 -0.3
v -0.4 1.1 -0.2
v -0.4 1.1 -0.3
v -0.4 1.2 -0.2
v -0.4 1.2 -0.3
v -0.3 0 0.3
v -0.3 0 -0.3
v -0.3 0.1 0.1
v -0.3 0.1 -0.2
v -0.3 0.2 0.3
v -0.3 0.2 0.1
v -0.3 0.2 -0.2
v -0.3 0.2 -0.3
v -0.2 0.2 0.1
v -0.2 0.2 -2.98023e-08
v -0.2 0.2 -0.2
v -0.2 0.2 -0.3
v -0.2 0.3 0.1
v -0.2 0.3 -2.98023e-08
v -0.2 0.3 -0.1
v -0.2 0.4 -2.98023e-08
v -0.2 0.4 -0.1
v -0.2 0.4 -0.2
v -0.2 0.4 -0.3
v -0.2 0.5 -0.1
v -0.2 0.5 -0.2
v -0.1 0.2 0.3
v -0.1 0.2 0.2
v -0.1 0.2 0.1
v -0.1 0.3 0.3
v -0.1 0.3 0.2
v -0.1 0.3 0.1
v -0.1 0.3 -2.98023e-08
v -0.1 0.4 0.2
v -0.1 0.4 0.1
v -0.1 0.4 -2.98023e-08
v -0.1 0.4 -0.1
v -0.1 0.5 -2.98023e-08
v -0.1 0.5 -0.1
v -0.1 0.7 -0.2
v -0.1 0.7 -0.3
v -0.1 0.9 -0.2
v -0.1 0.9 -0.3
v 0.4 0.5 -0.2
v 0.4 0.5 -0.3
v 0.4 1.1 -0.2
v 0.4 1.1 -0.3
v -0.4 0.5 -0.2
v -0.4 0.5 -0.3
v -0.4 1.1 -0.2
v -0.4 1.1 -0.3
v 0.1 0.2 0.3
v 0.1 0.2 0.2
v 0.1 0.2 0.1
v 0.1 0.3 0.3
v 0.1 0.3 0.2
v 0.1 0.3 0.1
v 0.1 0.3 -2.98023e-08
v 0.1 0.4 0.2
v 0.1 0.4 0.1
v 0.1 0.4 -2.98023e-08
v 0.1 0.4 -0.1
v 0.1 0.5 -2.98023e-08
v 0.1 0.5 -0.1
v 0.1 0.7 -0.2
v 0.1 0.7 -0.3
v 0.1 0.9 -0.2
v 0.1 0.9 -0.3
v 0.2 0.2 0.1
v 0.2 0.2 -2.98023e-08
v 0.2 0.2 -0.2
v 0.2 0.2 -0.3
v 0.2 0.3 0.1
v 0.2 0.3 -2.98023e-08
v 0.2 0.3 -0.1
v 0.2 0.4 -2.98023e-08
v 0.2 0.4 -0.1
v 0.2 0.4 -0.2
v 0.2 0.4 -0.3
v 0.2 0.5 -0.1
v 0.2 0.5 -0.2
v 0.3 0 0.3
v 0.3 0 -0.3
v 0.3 0.1 0.1
v 0.3 0.1 -0.2
v 0.3 0.2 0.3
v 0.3 0.2 0.1
v 0.3 0.2 -0.2
v 0.3 0.2 -0.3
v 0.4 0.4 -0.2
v 0.4 0.4 -0.3
v 0.4 0.5 -0.2
v 0.4 0.5 -0.3
v 0.4 1.1 -0.2
v 0.4 1.1 -0.3
v 0.4 1.2 -0.2
v 0.4 1.2 -0.3
v 0.5 0.5 -0.2
v 0.5 0.5 -0.3
v 0.5 1.1 -0.2
v 0.5 1.1 -0.3
v -0.3 0 0.3
v -0.3 0.2 0.3
v -0.2 0.1 0.3
v -0.2 0.2 0.3
v -0.1 0.2 0.3
v -0.1 0.3 0.3
v 0.1 0.2 0.3
v 0.1 0.3 0.3
v 0.2 0.1 0.3
v 0.2 0.2 0.3
v 0.3 0 0.3
v 0.3 0.2 0.3
v -0.1 0.3 0.2
v -0.1 0.4 0.2
v 0.1 0.3 0.2
v 0.1 0.4 0.2
v -0.2 0.2 0.1
v -0.2 0.3 0.1
v -0.1 0.2 0.1
v -0.1 0.3 0.1
v 0.1 0.2 0.1
v 0.1 0.3 0.1
v 0.2 0.2 0.1
v 0.2 0.3 0.1
v -0.2 0.3 -2.98023e-08
v -0.2 0.4 -2.98023e-08
v -0.1 0.3 -2.98023e-08
v -0.1 0.4 -2.98023e-08
v -0.1 0.5 -2.98023e-08
v 0.1 0.3 -2.98023e-08
v 0.1 0.4 -2.98023e-08
v 0.1 0.5 -2.98023e-08
v 0.2 0.3 -2.98023e-08
v 0.2 0.4 -2.98023e-08
v -0.2 0.4 -0.1
v -0.2 0.5 -0.1
v -0.1 0.4 -0.1
v -0.1 0.5 -0.1
v 0.1 0.4 -0.1
v 0.1 0.5 -0.1
v 0.2 0.4 -0.1
v 0.2 0.5 -0.1
v -0.5 0.5 -0.2
v -0.5 1.1 -0.2
v -0.4 0.4 -0.2
v -0.4 0.5 -0.2
v -0.4 1.1 -0.2
v -0.4 1.2 -0.2
v -0.2 0.4 -0.2
v -0.2 0.5 -0.2
v -0.1 0.7 -0.2
v -0.1 0.9 -0.2
v 0.1 0.7 -0.2
v 0.1 0.9 -0.2
v 0.2 0.4 -0.2
v 0.2 0.5 -0.2
v 0.4 0.4 -0.2
v 0.4 0.5 -0.2
v 0.4 1.1 -0.2
v 0.4 1.2 -0.2
v 0.5 0.5 -0.2
v 0.5 1.1 -0.2
v -0.5 0.5 -0.3
v -0.5 1.1 -0.3
v -0.4 0.4 -0.3
v -0.4 0.5 -0.3
v -0.4 1.1 -0.3
v -0.4 1.2 -0.3
v -0.3 0 -0.3
v -0.3 0.2 -0.3
v -0.2 0.1 -0.3
v -0.2 0.2 -0.3
v -0.2 0.4 -0.3
v -0.1 0.2 -0.3
v -0.1 0.4 -0.3
v -0.1 0.7 -0.3
v -0.1 0.9 -0.3
v 0.1 0.2 -0.3
v 0.1 0.4 -0.3
v 0.1 0.7 -0.3
v 0.1 0.9 -0.3
v 0.2 0.1 -0.3
v 0.2 0.2 -0.3
v 0.2 0.4 -0.3
v 0.3 0 -0.3
v 0.3 0.2 -0.3
v 0.4 0.4 -0.3
v 0.4 0.5 -0.3
v 0.4 1.1 -0.3
v 0.4 1.2 -0.3
v 0.5 0.5 -0.3
v 0.5 1.1 -0.3
v -0.3 0 0.3
v 0.3 0 0.3
v -0.2 0 0.2
v 0.2 0 0.2
v -0.2 0 -0.2
v 0.2 0 -0.2
v -0.3 0 -0.3
v 0.3 0 -0.3
v -0.4 0.4 -0.2
v -0.2 0.4 -0.2
v 0.2 0.4 -0.2
v 0.4 0.4 -0.2
v -0.4 0.4 -0.3
v -0.2 0.4 -0.3
v 0.2 0.4 -0.3
v 0.4 0.4 -0.3
v -0.5 0.5 -0.2
v -0.4 0.5 -0.2
v 0.4 0.5 -0.2
v 0.5 0.5 -0.2
v -0.5 0.5 -0.3
v -0.4 0.5 -0.3
v 0.4 0.5 -0.3
v 0.5 0.5 -0.3
v -0.1 0.7 -0.2
v 0.1 0.7 -0.2
v -0.1 0.7 -0.3
v 0.1 0.7 -0.3
v -0.4 1.1 -0.2
v 0.4 1.1 -0.2
v -0.4 1.1 -0.3
v 0.4 1.1 -0.3
v -0.3 0.2 0.3
v -0.2 0.2 0.3
v -0.1 0.2 0.3
v 0.1 0.2 0.3
v 0.2 0.2 0.3
v 0.3 0.2 0.3
v -0.2 0.2 0.2
v -0.1 0.2 0.2
v 0.1 0.2 0.2
v 0.2 0.2 0.2
v -0.3 0.2 0.1
v -0.2 0.2 0.1
v -0.1 0.2 0.1
v 0.1 0.2 0.1
v 0.2 0.2 0.1
v 0.3 0.2 0.1
v -0.2 0.2 -2.98023e-08
v 0.2 0.2 -2.98023e-08
v -0.3 0.2 -0.2
v -0.2 0.2 -0.2
v 0.2 0.2 -0.2
v 0.3 0.2 -0.2
v -0.3 0.2 -0.3
v -0.2 0.2 -0.3
v 0.2 0.2 -0.3
v 0.3 0.2 -0.3
v -0.1 0.3 0.3
v 0.1 0.3 0.3
v -0.1 0.3 0.2
v 0.1 0.3 0.2
v -0.2 0.3 0.1
v -0.1 0.3 0.1
v 0.1 0.3 0.1
v 0.2 0.3 0.1
v -0.2 0.3 -2.98023e-08
v -0.1 0.3 -2.98023e-08
v 0.1 0.3 -2.98023e-08
v 0.2 0.3 -2.98023e-08
v -0.1 0.4 0.2
v 0.1 0.4 0.2
v -0.1 0.4 0.1
v 0.1 0.4 0.1
v -0.2 0.4 -2.98023e-08
v -0.1 0.4 -2.98023e-08
v 0.1 0.4 -2.98023e-08
v 0.2 0.4 -2.98023e-08
v -0.2 0.4 -0.1
v -0.1 0.4 -0.1
v 0.1 0.4 -0.1
v 0.2 0.4 -0.1
v -0.1 0.5 -2.98023e-08
v 0.1 0.5 -2.98023e-08
v -0.2 0.5 -0.1
v -0.1 0.5 -0.1
v 0.1 0.5 -0.1
v 0.2 0.5 -0.1
v -0.4 0.5 -0.2
v -0.2 0.5 -0.2
v 0.2 0.5 -0.2
v 0.4 0.5 -0.2
v -0.4 0.5 -0.3
v 0.4 0.5 -0.3
v -0.1 0.9 -0.2
v 0.1 0.9 -0.2
v -0.1 0.9 -0.3
v 0.1 0.9 -0.3
v -0.5 1.1 -0.2
v -0.4 1.1 -0.2
v 0.4 1.1 -0.2
v 0.5 1.1 -0.2
v -0.5 1.1 -0.3
v -0.4 1.1 -0.3
v 0.4 1.1 -0.3
v 0.5 1.1 -0.3
v -0.4 1.2 -0.2
v 0.4 1.2 -0.2
v -0.4 1.2 -0.3
v 0.4 1.2 -0.3

# faces
f 3/2/1 2/2/1 1/2/1
f 4/2/1 2/2/1 3/2/1
f 7/2/1 6/2/1 5/2/1
f 8/2/1 6/2/1 7/2/1
f 11/2/1 10/2/1 9/2/1
f 12/2/1 10/2/1 11/2/1
f 15/2/1 14/2/1 13/2/1
f 16/2/1 14/2/1 15/2/1
f 17/2/1 15/2/1 13/2/1
f 18/3/1 16/3/1 15/3/1
f 18/2/1 15/2/1 17/2/1
f 19/2/1 14/2/1 16/2/1
f 19/3/1 16/3/1 18/3/1
f 20/2/1 14/2/1 19/2/1
f 25/2/1 22/2/1 21/2/1
f 26/3/1 23/3/1 22/3/1
f 26/2/1 22/2/1 25/2/1
f 27/3/1 23/3/1 26/3/1
f 28/2/1 27/2/1 26/2/1
f 29/3/1 23/3/1 27/3/1
f 29/2/1 27/2/1 28/2/1
f 30/2/1 24/2/1 23/2/1
f 30/3/1 23/3/1 29/3/1
f 31/2/1 24/2/1 30/2/1
f 32/2/1 30/2/1 29/2/1
f 33/2/1 30/2/1 32/2/1
f 37/2/1 35/2/1 34/2/1
f 38/3/1 36/3/1 35/3/1
f 38/2/1 35/2/1 37/2/1
f 39/3/1 36/3/1 38/3/1
f 41/2/1 39/2/1 38/2/1
f 42/3/1 40/3/1 39/3/1
f 42/2/1 39/2/1 41/2/1
f 43/3/1 40/3/1 42/3/1
f 45/2/1 44/2/1 43/2/1
f 46/2/1 44/2/1 45/2/1
f 49/1/1 48/1/1 47/1/1
f 50/1/1 48/1/1 49/1/1
f 53/2/1 52/2/1 51/2/1
f 54/2/1 52/2/1 53/2/1
f 55/2/2 56/2/2 57/2/2
f 57/2/2 56/2/2 58/2/2
f 59/2/2 60/2/2 62/2/2
f 60/3/2 61/3/2 63/3/2
f 62/2/2 60/2/2 63/2/2
f 63/3/2 61/3/2 64/3/2
f 63/2/2 64/2/2 66/2/2
f 64/3/2 65/3/2 67/3/2
f 66/2/2 64/2/2 67/2/2
f 67/3/2 65/3/2 68/3/2
f 68/2/2 69/2/2 70/2/2
f 70/2/2 69/2/2 71/2/2
f 72/1/2 73/1/2 74/1/2
f 74/1/2 73/1/2 75/1/2
f 76/2/2 77/2/2 80/2/2
f 77/3/2 78/3/2 81/3/2
f 80/2/2 77/2/2 81/2/2
f 81/3/2 78/3/2 82/3/2
f 81/2/2 82/2/2 83/2/2
f 82/3/2 78/3/2 84/3/2
f 83/2/2 82/2/2 84/2/2
f 78/2/2 79/2/2 85/2/2
f 84/3/2 78/3/2 85/3/2
f 85/2/2 79/2/2 86/2/2
f 84/2/2 85/2/2 87/2/2
f 87/2/2 85/2/2 88/2/2
f 89/2/2 90/2/2 91/2/2
f 91/2/2 90/2/2 92/2/2
f 89/2/2 91/2/2 93/2/2
f 91/3/2 92/3/2 94/3/2
f 93/2/2 91/2/2 94/2/2
f 92/2/2 90/2/2 95/2/2
f 94/3/2 92/3/2 95/3/2
f 95/2/2 90/2/2 96/2/2
f 97/2/2 98/2/2 99/2/2
f 99/2/2 98/2/2 100/2/2
f 101/2/2 102/2/2 103/2/2
f 103/2/2 102/2/2 104/2/2
f 105/2/2 106/2/2 107/2/2
f 107/2/2 106/2/2 108/2/2
f 111/2/3 110/2/3 109/2/3
f 112/2/3 110/2/3 111/2/3
f 113/3/3 112/3/3 111/3/3
f 115/3/3 113/3/3 111/3/3
f 115/2/3 114/2/3 113/2/3
f 116/2/3 114/2/3 115/2/3
f 117/2/3 111/2/3 109/2/3
f 117/3/3 115/3/3 111/3/3
f 118/3/3 115/3/3 117/3/3
f 119/2/3 117/2/3 109/2/3
f 119/2/3 118/2/3 117/2/3
f 120/2/3 118/2/3 119/2/3
f 123/2/3 122/2/3 121/2/3
f 124/2/3 122/2/3 123/2/3
f 127/2/3 126/2/3 125/2/3
f 128/2/3 126/2/3 127/2/3
f 131/2/3 130/2/3 129/2/3
f 132/2/3 130/2/3 131/2/3
f 135/2/3 134/2/3 133/2/3
f 136/2/3 134/2/3 135/2/3
f 139/2/3 137/2/3 136/2/3
f 140/2/3 137/2/3 139/2/3
f 141/2/3 139/2/3 138/2/3
f 142/2/3 139/2/3 141/2/3
f 145/2/3 144/2/3 143/2/3
f 146/2/3 144/2/3 145/2/3
f 149/2/3 148/2/3 147/2/3
f 150/2/3 148/2/3 149/2/3
f 154/2/3 152/2/3 151/2/3
f 155/2/3 152/2/3 154/2/3
f 157/2/3 154/2/3 153/2/3
f 158/2/3 154/2/3 157/2/3
f 161/1/3 160/1/3 159/1/3
f 162/1/3 160/1/3 161/1/3
f 165/2/3 164/2/3 163/2/3
f 166/2/3 164/2/3 165/2/3
f 167/2/3 156/2/3 155/2/3
f 168/2/3 156/2/3 167/2/3
f 169/2/3 167/2/3 166/2/3
f 170/2/3 167/2/3 169/2/3
f 171/2/4 172/2/4 174/2/4
f 174/2/4 172/2/4 175/2/4
f 177/2/4 178/2/4 179/2/4
f 179/2/4 178/2/4 180/2/4
f 173/2/4 174/2/4 181/2/4
f 179/3/4 180/3/4 182/3/4
f 180/2/4 181/2/4 182/2/4
f 181/2/4 174/2/4 183/2/4
f 182/2/4 181/2/4 183/2/4
f 179/3/4 182/3/4 186/3/4
f 182/3/4 183/3/4 186/3/4
f 183/2/4 174/2/4 187/2/4
f 186/3/4 183/3/4 187/3/4
f 184/1/4 185/1/4 188/1/4
f 188/1/4 185/1/4 189/1/4
f 177/2/4 179/2/4 190/2/4
f 179/3/4 186/3/4 190/3/4
f 186/2/4 187/2/4 191/2/4
f 190/3/4 186/3/4 191/3/4
f 187/2/4 174/2/4 192/2/4
f 191/2/4 187/2/4 192/2/4
f 190/2/4 191/2/4 193/2/4
f 177/2/4 190/2/4 193/2/4
f 193/2/4 191/2/4 194/2/4
f 192/2/4 174/2/4 195/2/4
f 195/2/4 174/2/4 196/2/4
f 175/2/4 176/2/4 197/2/4
f 197/2/4 176/2/4 198/2/4
f 196/2/4 197/2/4 199/2/4
f 199/2/4 197/2/4 200/2/4
f 203/2/5 202/2/5 201/2/5
f 204/2/5 202/2/5 203/2/5
f 205/2/5 203/2/5 201/2/5
f 205/3/5 204/3/5 203/3/5
f 206/2/5 202/2/5 204/2/5
f 206/3/5 204/3/5 205/3/5
f 207/2/5 205/2/5 201/2/5
f 207/2/5 206/2/5 205/2/5
f 208/2/5 202/2/5 206/2/5
f 208/2/5 206/2/5 207/2/5
f 213/2/5 210/2/5 209/2/5
f 214/2/5 210/2/5 213/2/5
f 215/2/5 212/2/5 211/2/5
f 216/2/5 212/2/5 215/2/5
f 221/2/5 218/2/5 217/2/5
f 222/2/5 218/2/5 221/2/5
f 223/2/5 220/2/5 219/2/5
f 224/2/5 220/2/5 223/2/5
f 227/1/5 226/1/5 225/1/5
f 228/1/5 226/1/5 227/1/5
f 231/2/5 230/2/5 229/2/5
f 232/2/5 230/2/5 231/2/5
f 233/2/6 234/2/6 239/2/6
f 234/3/6 235/3/6 239/3/6
f 239/3/6 235/3/6 240/3/6
f 236/3/6 237/3/6 241/3/6
f 237/2/6 238/2/6 242/2/6
f 241/3/6 237/3/6 242/3/6
f 239/2/6 240/2/6 243/2/6
f 233/2/6 239/2/6 243/2/6
f 243/2/6 240/2/6 244/2/6
f 244/2/6 240/2/6 245/2/6
f 241/2/6 242/2/6 246/2/6
f 242/2/6 238/2/6 247/2/6
f 246/2/6 242/2/6 247/2/6
f 247/2/6 238/2/6 248/2/6
f 243/3/6 244/3/6 249/3/6
f 247/3/6 248/3/6 250/3/6
f 243/3/6 249/3/6 251/3/6
f 251/3/6 249/3/6 252/3/6
f 250/3/6 248/3/6 253/3/6
f 253/3/6 248/3/6 254/3/6
f 251/2/6 252/2/6 255/2/6
f 255/2/6 252/2/6 256/2/6
f 253/2/6 254/2/6 257/2/6
f 257/2/6 254/2/6 258/2/6
f 259/2/6 260/2/6 261/2/6
f 261/2/6 260/2/6 262/2/6
f 263/2/6 264/2/6 267/2/6
f 267/2/6 264/2/6 268/2/6
f 265/2/6 266/2/6 269/2/6
f 269/2/6 266/2/6 270/2/6
f 271/2/6 272/2/6 273/2/6
f 273/2/6 272/2/6 274/2/6
f 273/3/6 274/3/6 276/3/6
f 276/3/6 274/3/6 277/3/6
f 275/2/6 276/2/6 279/2/6
f 279/2/6 276/2/6 280/2/6
f 277/2/6 278/2/6 281/2/6
f 281/2/6 278/2/6 282/2/6
f 283/2/6 284/2/6 286/2/6
f 286/2/6 284/2/6 287/2/6
f 285/2/6 286/2/6 290/2/6
f 287/2/6 288/2/6 290/2/6
f 286/2/6 287/2/6 290/2/6
f 290/2/6 288/2/6 291/2/6
f 289/2/6 290/2/6 293/2/6
f 291/2/6 292/2/6 293/2/6
f 290/2/6 291/2/6 293/2/6
f 293/2/6 292/2/6 294/2/6
f 295/1/6 296/1/6 297/1/6
f 297/1/6 296/1/6 298/1/6
f 299/2/6 300/2/6 303/2/6
f 303/2/6 300/2/6 304/2/6
f 301/2/6 302/2/6 305/2/6
f 305/2/6 302/2/6 306/2/6
f 307/2/6 308/2/6 309/2/6
f 309/2/6 308/2/6 310/2/6
